<?xml version="1.0" encoding="utf-8" standalone="no"?>
<!DOCTYPE svg PUBLIC "-//W3C//DTD SVG 1.1//EN"
  "http://www.w3.org/Graphics/SVG/1.1/DTD/svg11.dtd">
<svg xmlns:xlink="http://www.w3.org/1999/xlink" width="720pt" height="288pt" viewBox="0 0 720 288" xmlns="http://www.w3.org/2000/svg" version="1.1">
 <metadata>
  <rdf:RDF xmlns:dc="http://purl.org/dc/elements/1.1/" xmlns:cc="http://creativecommons.org/ns#" xmlns:rdf="http://www.w3.org/1999/02/22-rdf-syntax-ns#">
   <cc:Work>
    <dc:type rdf:resource="http://purl.org/dc/dcmitype/StillImage"/>
    <dc:date>2024-05-16T12:51:16.719789</dc:date>
    <dc:format>image/svg+xml</dc:format>
    <dc:creator>
     <cc:Agent>
      <dc:title>Matplotlib v3.7.3, https://matplotlib.org/</dc:title>
     </cc:Agent>
    </dc:creator>
   </cc:Work>
  </rdf:RDF>
 </metadata>
 <defs>
  <style type="text/css">*{stroke-linejoin: round; stroke-linecap: butt}</style>
 </defs>
 <g id="figure_1">
  <g id="patch_1">
   <path d="M 0 288 
L 720 288 
L 720 0 
L 0 0 
z
" style="fill: #ffffff"/>
  </g>
  <g id="axes_1">
   <g id="patch_2">
    <path d="M 90 140.16 
L 648 140.16 
L 648 34.56 
L 90 34.56 
z
" style="fill: #ffffff"/>
   </g>
   <g id="PolyCollection_1"/>
   <g id="PolyCollection_2"/>
   <g id="PolyCollection_3"/>
   <g id="matplotlib.axis_1"/>
   <g id="matplotlib.axis_2">
    <g id="ytick_1">
     <g id="line2d_1">
      <defs>
       <path id="m3955bdbcd4" d="M 0 0 
L -3.5 0 
" style="stroke: #000000; stroke-width: 0.8"/>
      </defs>
      <g>
       <use xlink:href="#m3955bdbcd4" x="90" y="119.030951" style="stroke: #000000; stroke-width: 0.8"/>
      </g>
     </g>
     <g id="text_1">
      <!-- $\mathdefault{10^{21}}$ -->
      <g transform="translate(60.9 122.83017) scale(0.1 -0.1)">
       <defs>
        <path id="DejaVuSans-31" d="M 794 531 
L 1825 531 
L 1825 4091 
L 703 3866 
L 703 4441 
L 1819 4666 
L 2450 4666 
L 2450 531 
L 3481 531 
L 3481 0 
L 794 0 
L 794 531 
z
" transform="scale(0.015625)"/>
        <path id="DejaVuSans-30" d="M 2034 4250 
Q 1547 4250 1301 3770 
Q 1056 3291 1056 2328 
Q 1056 1369 1301 889 
Q 1547 409 2034 409 
Q 2525 409 2770 889 
Q 3016 1369 3016 2328 
Q 3016 3291 2770 3770 
Q 2525 4250 2034 4250 
z
M 2034 4750 
Q 2819 4750 3233 4129 
Q 3647 3509 3647 2328 
Q 3647 1150 3233 529 
Q 2819 -91 2034 -91 
Q 1250 -91 836 529 
Q 422 1150 422 2328 
Q 422 3509 836 4129 
Q 1250 4750 2034 4750 
z
" transform="scale(0.015625)"/>
        <path id="DejaVuSans-32" d="M 1228 531 
L 3431 531 
L 3431 0 
L 469 0 
L 469 531 
Q 828 903 1448 1529 
Q 2069 2156 2228 2338 
Q 2531 2678 2651 2914 
Q 2772 3150 2772 3378 
Q 2772 3750 2511 3984 
Q 2250 4219 1831 4219 
Q 1534 4219 1204 4116 
Q 875 4013 500 3803 
L 500 4441 
Q 881 4594 1212 4672 
Q 1544 4750 1819 4750 
Q 2544 4750 2975 4387 
Q 3406 4025 3406 3419 
Q 3406 3131 3298 2873 
Q 3191 2616 2906 2266 
Q 2828 2175 2409 1742 
Q 1991 1309 1228 531 
z
" transform="scale(0.015625)"/>
       </defs>
       <use xlink:href="#DejaVuSans-31" transform="translate(0 0.765625)"/>
       <use xlink:href="#DejaVuSans-30" transform="translate(63.623047 0.765625)"/>
       <use xlink:href="#DejaVuSans-32" transform="translate(128.203125 39.046875) scale(0.7)"/>
       <use xlink:href="#DejaVuSans-31" transform="translate(172.739258 39.046875) scale(0.7)"/>
      </g>
     </g>
    </g>
    <g id="ytick_2">
     <g id="line2d_2">
      <g>
       <use xlink:href="#m3955bdbcd4" x="90" y="97.422103" style="stroke: #000000; stroke-width: 0.8"/>
      </g>
     </g>
     <g id="text_2">
      <!-- $\mathdefault{10^{54}}$ -->
      <g transform="translate(60.9 101.221322) scale(0.1 -0.1)">
       <defs>
        <path id="DejaVuSans-35" d="M 691 4666 
L 3169 4666 
L 3169 4134 
L 1269 4134 
L 1269 2991 
Q 1406 3038 1543 3061 
Q 1681 3084 1819 3084 
Q 2600 3084 3056 2656 
Q 3513 2228 3513 1497 
Q 3513 744 3044 326 
Q 2575 -91 1722 -91 
Q 1428 -91 1123 -41 
Q 819 9 494 109 
L 494 744 
Q 775 591 1075 516 
Q 1375 441 1709 441 
Q 2250 441 2565 725 
Q 2881 1009 2881 1497 
Q 2881 1984 2565 2268 
Q 2250 2553 1709 2553 
Q 1456 2553 1204 2497 
Q 953 2441 691 2322 
L 691 4666 
z
" transform="scale(0.015625)"/>
        <path id="DejaVuSans-34" d="M 2419 4116 
L 825 1625 
L 2419 1625 
L 2419 4116 
z
M 2253 4666 
L 3047 4666 
L 3047 1625 
L 3713 1625 
L 3713 1100 
L 3047 1100 
L 3047 0 
L 2419 0 
L 2419 1100 
L 313 1100 
L 313 1709 
L 2253 4666 
z
" transform="scale(0.015625)"/>
       </defs>
       <use xlink:href="#DejaVuSans-31" transform="translate(0 0.684375)"/>
       <use xlink:href="#DejaVuSans-30" transform="translate(63.623047 0.684375)"/>
       <use xlink:href="#DejaVuSans-35" transform="translate(128.203125 38.965625) scale(0.7)"/>
       <use xlink:href="#DejaVuSans-34" transform="translate(172.739258 38.965625) scale(0.7)"/>
      </g>
     </g>
    </g>
    <g id="ytick_3">
     <g id="line2d_3">
      <g>
       <use xlink:href="#m3955bdbcd4" x="90" y="75.813255" style="stroke: #000000; stroke-width: 0.8"/>
      </g>
     </g>
     <g id="text_3">
      <!-- $\mathdefault{10^{87}}$ -->
      <g transform="translate(60.9 79.612474) scale(0.1 -0.1)">
       <defs>
        <path id="DejaVuSans-38" d="M 2034 2216 
Q 1584 2216 1326 1975 
Q 1069 1734 1069 1313 
Q 1069 891 1326 650 
Q 1584 409 2034 409 
Q 2484 409 2743 651 
Q 3003 894 3003 1313 
Q 3003 1734 2745 1975 
Q 2488 2216 2034 2216 
z
M 1403 2484 
Q 997 2584 770 2862 
Q 544 3141 544 3541 
Q 544 4100 942 4425 
Q 1341 4750 2034 4750 
Q 2731 4750 3128 4425 
Q 3525 4100 3525 3541 
Q 3525 3141 3298 2862 
Q 3072 2584 2669 2484 
Q 3125 2378 3379 2068 
Q 3634 1759 3634 1313 
Q 3634 634 3220 271 
Q 2806 -91 2034 -91 
Q 1263 -91 848 271 
Q 434 634 434 1313 
Q 434 1759 690 2068 
Q 947 2378 1403 2484 
z
M 1172 3481 
Q 1172 3119 1398 2916 
Q 1625 2713 2034 2713 
Q 2441 2713 2670 2916 
Q 2900 3119 2900 3481 
Q 2900 3844 2670 4047 
Q 2441 4250 2034 4250 
Q 1625 4250 1398 4047 
Q 1172 3844 1172 3481 
z
" transform="scale(0.015625)"/>
        <path id="DejaVuSans-37" d="M 525 4666 
L 3525 4666 
L 3525 4397 
L 1831 0 
L 1172 0 
L 2766 4134 
L 525 4134 
L 525 4666 
z
" transform="scale(0.015625)"/>
       </defs>
       <use xlink:href="#DejaVuSans-31" transform="translate(0 0.765625)"/>
       <use xlink:href="#DejaVuSans-30" transform="translate(63.623047 0.765625)"/>
       <use xlink:href="#DejaVuSans-38" transform="translate(128.203125 39.046875) scale(0.7)"/>
       <use xlink:href="#DejaVuSans-37" transform="translate(172.739258 39.046875) scale(0.7)"/>
      </g>
     </g>
    </g>
    <g id="ytick_4">
     <g id="line2d_4">
      <g>
       <use xlink:href="#m3955bdbcd4" x="90" y="54.204407" style="stroke: #000000; stroke-width: 0.8"/>
      </g>
     </g>
     <g id="text_4">
      <!-- $\mathdefault{10^{120}}$ -->
      <g transform="translate(56.5 58.003626) scale(0.1 -0.1)">
       <use xlink:href="#DejaVuSans-31" transform="translate(0 0.765625)"/>
       <use xlink:href="#DejaVuSans-30" transform="translate(63.623047 0.765625)"/>
       <use xlink:href="#DejaVuSans-31" transform="translate(128.203125 39.046875) scale(0.7)"/>
       <use xlink:href="#DejaVuSans-32" transform="translate(172.739258 39.046875) scale(0.7)"/>
       <use xlink:href="#DejaVuSans-30" transform="translate(217.275391 39.046875) scale(0.7)"/>
      </g>
     </g>
    </g>
    <g id="text_5">
     <!-- Martingale (capital) -->
     <g transform="translate(50.004375 146.083125) rotate(-90) scale(0.12 -0.12)">
      <defs>
       <path id="DejaVuSans-4d" d="M 628 4666 
L 1569 4666 
L 2759 1491 
L 3956 4666 
L 4897 4666 
L 4897 0 
L 4281 0 
L 4281 4097 
L 3078 897 
L 2444 897 
L 1241 4097 
L 1241 0 
L 628 0 
L 628 4666 
z
" transform="scale(0.015625)"/>
       <path id="DejaVuSans-61" d="M 2194 1759 
Q 1497 1759 1228 1600 
Q 959 1441 959 1056 
Q 959 750 1161 570 
Q 1363 391 1709 391 
Q 2188 391 2477 730 
Q 2766 1069 2766 1631 
L 2766 1759 
L 2194 1759 
z
M 3341 1997 
L 3341 0 
L 2766 0 
L 2766 531 
Q 2569 213 2275 61 
Q 1981 -91 1556 -91 
Q 1019 -91 701 211 
Q 384 513 384 1019 
Q 384 1609 779 1909 
Q 1175 2209 1959 2209 
L 2766 2209 
L 2766 2266 
Q 2766 2663 2505 2880 
Q 2244 3097 1772 3097 
Q 1472 3097 1187 3025 
Q 903 2953 641 2809 
L 641 3341 
Q 956 3463 1253 3523 
Q 1550 3584 1831 3584 
Q 2591 3584 2966 3190 
Q 3341 2797 3341 1997 
z
" transform="scale(0.015625)"/>
       <path id="DejaVuSans-72" d="M 2631 2963 
Q 2534 3019 2420 3045 
Q 2306 3072 2169 3072 
Q 1681 3072 1420 2755 
Q 1159 2438 1159 1844 
L 1159 0 
L 581 0 
L 581 3500 
L 1159 3500 
L 1159 2956 
Q 1341 3275 1631 3429 
Q 1922 3584 2338 3584 
Q 2397 3584 2469 3576 
Q 2541 3569 2628 3553 
L 2631 2963 
z
" transform="scale(0.015625)"/>
       <path id="DejaVuSans-74" d="M 1172 4494 
L 1172 3500 
L 2356 3500 
L 2356 3053 
L 1172 3053 
L 1172 1153 
Q 1172 725 1289 603 
Q 1406 481 1766 481 
L 2356 481 
L 2356 0 
L 1766 0 
Q 1100 0 847 248 
Q 594 497 594 1153 
L 594 3053 
L 172 3053 
L 172 3500 
L 594 3500 
L 594 4494 
L 1172 4494 
z
" transform="scale(0.015625)"/>
       <path id="DejaVuSans-69" d="M 603 3500 
L 1178 3500 
L 1178 0 
L 603 0 
L 603 3500 
z
M 603 4863 
L 1178 4863 
L 1178 4134 
L 603 4134 
L 603 4863 
z
" transform="scale(0.015625)"/>
       <path id="DejaVuSans-6e" d="M 3513 2113 
L 3513 0 
L 2938 0 
L 2938 2094 
Q 2938 2591 2744 2837 
Q 2550 3084 2163 3084 
Q 1697 3084 1428 2787 
Q 1159 2491 1159 1978 
L 1159 0 
L 581 0 
L 581 3500 
L 1159 3500 
L 1159 2956 
Q 1366 3272 1645 3428 
Q 1925 3584 2291 3584 
Q 2894 3584 3203 3211 
Q 3513 2838 3513 2113 
z
" transform="scale(0.015625)"/>
       <path id="DejaVuSans-67" d="M 2906 1791 
Q 2906 2416 2648 2759 
Q 2391 3103 1925 3103 
Q 1463 3103 1205 2759 
Q 947 2416 947 1791 
Q 947 1169 1205 825 
Q 1463 481 1925 481 
Q 2391 481 2648 825 
Q 2906 1169 2906 1791 
z
M 3481 434 
Q 3481 -459 3084 -895 
Q 2688 -1331 1869 -1331 
Q 1566 -1331 1297 -1286 
Q 1028 -1241 775 -1147 
L 775 -588 
Q 1028 -725 1275 -790 
Q 1522 -856 1778 -856 
Q 2344 -856 2625 -561 
Q 2906 -266 2906 331 
L 2906 616 
Q 2728 306 2450 153 
Q 2172 0 1784 0 
Q 1141 0 747 490 
Q 353 981 353 1791 
Q 353 2603 747 3093 
Q 1141 3584 1784 3584 
Q 2172 3584 2450 3431 
Q 2728 3278 2906 2969 
L 2906 3500 
L 3481 3500 
L 3481 434 
z
" transform="scale(0.015625)"/>
       <path id="DejaVuSans-6c" d="M 603 4863 
L 1178 4863 
L 1178 0 
L 603 0 
L 603 4863 
z
" transform="scale(0.015625)"/>
       <path id="DejaVuSans-65" d="M 3597 1894 
L 3597 1613 
L 953 1613 
Q 991 1019 1311 708 
Q 1631 397 2203 397 
Q 2534 397 2845 478 
Q 3156 559 3463 722 
L 3463 178 
Q 3153 47 2828 -22 
Q 2503 -91 2169 -91 
Q 1331 -91 842 396 
Q 353 884 353 1716 
Q 353 2575 817 3079 
Q 1281 3584 2069 3584 
Q 2775 3584 3186 3129 
Q 3597 2675 3597 1894 
z
M 3022 2063 
Q 3016 2534 2758 2815 
Q 2500 3097 2075 3097 
Q 1594 3097 1305 2825 
Q 1016 2553 972 2059 
L 3022 2063 
z
" transform="scale(0.015625)"/>
       <path id="DejaVuSans-20" transform="scale(0.015625)"/>
       <path id="DejaVuSans-28" d="M 1984 4856 
Q 1566 4138 1362 3434 
Q 1159 2731 1159 2009 
Q 1159 1288 1364 580 
Q 1569 -128 1984 -844 
L 1484 -844 
Q 1016 -109 783 600 
Q 550 1309 550 2009 
Q 550 2706 781 3412 
Q 1013 4119 1484 4856 
L 1984 4856 
z
" transform="scale(0.015625)"/>
       <path id="DejaVuSans-63" d="M 3122 3366 
L 3122 2828 
Q 2878 2963 2633 3030 
Q 2388 3097 2138 3097 
Q 1578 3097 1268 2742 
Q 959 2388 959 1747 
Q 959 1106 1268 751 
Q 1578 397 2138 397 
Q 2388 397 2633 464 
Q 2878 531 3122 666 
L 3122 134 
Q 2881 22 2623 -34 
Q 2366 -91 2075 -91 
Q 1284 -91 818 406 
Q 353 903 353 1747 
Q 353 2603 823 3093 
Q 1294 3584 2113 3584 
Q 2378 3584 2631 3529 
Q 2884 3475 3122 3366 
z
" transform="scale(0.015625)"/>
       <path id="DejaVuSans-70" d="M 1159 525 
L 1159 -1331 
L 581 -1331 
L 581 3500 
L 1159 3500 
L 1159 2969 
Q 1341 3281 1617 3432 
Q 1894 3584 2278 3584 
Q 2916 3584 3314 3078 
Q 3713 2572 3713 1747 
Q 3713 922 3314 415 
Q 2916 -91 2278 -91 
Q 1894 -91 1617 61 
Q 1341 213 1159 525 
z
M 3116 1747 
Q 3116 2381 2855 2742 
Q 2594 3103 2138 3103 
Q 1681 3103 1420 2742 
Q 1159 2381 1159 1747 
Q 1159 1113 1420 752 
Q 1681 391 2138 391 
Q 2594 391 2855 752 
Q 3116 1113 3116 1747 
z
" transform="scale(0.015625)"/>
       <path id="DejaVuSans-29" d="M 513 4856 
L 1013 4856 
Q 1481 4119 1714 3412 
Q 1947 2706 1947 2009 
Q 1947 1309 1714 600 
Q 1481 -109 1013 -844 
L 513 -844 
Q 928 -128 1133 580 
Q 1338 1288 1338 2009 
Q 1338 2731 1133 3434 
Q 928 4138 513 4856 
z
" transform="scale(0.015625)"/>
      </defs>
      <use xlink:href="#DejaVuSans-4d"/>
      <use xlink:href="#DejaVuSans-61" x="86.279297"/>
      <use xlink:href="#DejaVuSans-72" x="147.558594"/>
      <use xlink:href="#DejaVuSans-74" x="188.671875"/>
      <use xlink:href="#DejaVuSans-69" x="227.880859"/>
      <use xlink:href="#DejaVuSans-6e" x="255.664062"/>
      <use xlink:href="#DejaVuSans-67" x="319.042969"/>
      <use xlink:href="#DejaVuSans-61" x="382.519531"/>
      <use xlink:href="#DejaVuSans-6c" x="443.798828"/>
      <use xlink:href="#DejaVuSans-65" x="471.582031"/>
      <use xlink:href="#DejaVuSans-20" x="533.105469"/>
      <use xlink:href="#DejaVuSans-28" x="564.892578"/>
      <use xlink:href="#DejaVuSans-63" x="603.90625"/>
      <use xlink:href="#DejaVuSans-61" x="658.886719"/>
      <use xlink:href="#DejaVuSans-70" x="720.166016"/>
      <use xlink:href="#DejaVuSans-69" x="783.642578"/>
      <use xlink:href="#DejaVuSans-74" x="811.425781"/>
      <use xlink:href="#DejaVuSans-61" x="850.634766"/>
      <use xlink:href="#DejaVuSans-6c" x="911.914062"/>
      <use xlink:href="#DejaVuSans-29" x="939.697266"/>
     </g>
    </g>
   </g>
   <g id="line2d_5">
    <path d="M 97.342105 132.782036 
L 100.278947 129.352718 
L 103.215789 121.517923 
L 106.152632 116.22185 
L 109.089474 107.382485 
L 114.963158 90.610872 
L 117.9 84.002397 
L 120.836842 76.824809 
L 123.773684 65.475998 
L 126.710526 56.310857 
L 129.647368 50.571002 
L 132.584211 43.535717 
L 135.521053 35.072692 
L 138.457895 25.402081 
L 141.394737 17.87648 
L 144.331579 11.829702 
L 147.268421 3.020314 
L 150.205263 2.064831 
L 153.142105 1.819321 
L 159.015789 1.819321 
L 161.952632 2.702042 
L 164.889474 1.819321 
L 167.826316 2.023468 
L 170.763158 1.819321 
L 194.257895 1.819321 
L 197.194737 2.211084 
L 203.068421 1.85028 
L 206.005263 2.602413 
L 208.942105 1.819321 
L 211.878947 2.002088 
L 217.752632 1.819321 
L 220.689474 2.235837 
L 223.626316 1.824215 
L 226.563158 2.098956 
L 229.5 1.953775 
L 232.436842 2.016245 
L 235.373684 1.819321 
L 244.184211 1.819321 
L 247.121053 2.269469 
L 250.057895 2.136643 
L 252.994737 1.819321 
L 258.868421 1.819321 
L 261.805263 2.262399 
L 267.678947 1.93549 
L 270.615789 2.284017 
L 273.552632 2.330234 
L 276.489474 1.819321 
L 279.426316 2.170552 
L 282.363158 1.819321 
L 285.3 1.819321 
L 291.173684 2.225834 
L 297.047368 1.874968 
L 299.984211 2.096945 
L 302.921053 1.819321 
L 305.857895 1.819321 
L 308.794737 1.943835 
L 311.731579 1.819321 
L 317.605263 1.819321 
L 320.542105 2.088194 
L 323.478947 2.237474 
L 326.415789 1.819321 
L 329.352632 2.685917 
L 332.289474 1.819321 
L 335.226316 1.819321 
L 338.163158 1.978773 
L 341.1 1.819321 
L 344.036842 1.95344 
L 346.973684 1.819321 
L 352.847368 1.819321 
L 355.784211 2.121353 
L 361.657895 1.92533 
L 364.594737 1.962691 
L 367.531579 1.819321 
L 370.468421 2.022832 
L 373.405263 1.819321 
L 379.278947 1.819321 
L 382.215789 2.219416 
L 385.152632 1.819321 
L 388.089474 2.082969 
L 391.026316 1.819321 
L 408.647368 1.870056 
L 411.584211 1.955261 
L 414.521053 1.819321 
L 423.331579 1.819321 
L 426.268421 1.972448 
L 429.205263 1.867804 
L 432.142105 2.405133 
L 435.078947 3.118157 
L 438.015789 1.819321 
L 443.889474 1.819321 
L 446.826316 2.378654 
L 449.763158 1.974912 
L 452.7 1.819321 
L 458.573684 1.819321 
L 461.510526 3.093548 
L 464.447368 1.819321 
L 467.384211 1.819321 
L 473.257895 2.00277 
L 479.131579 1.819321 
L 485.005263 1.819321 
L 487.942105 1.967497 
L 490.878947 3.045217 
L 493.815789 3.04043 
L 496.752632 1.819321 
L 499.689474 2.505259 
L 502.626316 1.819321 
L 505.563158 1.946554 
L 508.5 1.819321 
L 511.436842 1.819321 
L 514.373684 2.099586 
L 517.310526 1.819321 
L 523.184211 1.819321 
L 526.121053 1.986213 
L 529.057895 2.585734 
L 531.994737 2.056911 
L 534.931579 1.819321 
L 537.868421 1.819321 
L 540.805263 2.073067 
L 543.742105 1.819321 
L 546.678947 1.953695 
L 549.615789 1.819321 
L 561.363158 1.819321 
L 564.3 3.015791 
L 567.236842 2.228951 
L 570.173684 1.890076 
L 576.047368 2.171803 
L 578.984211 1.885101 
L 581.921053 1.972747 
L 584.857895 1.819321 
L 587.794737 2.047014 
L 590.731579 1.819321 
L 599.542105 1.819321 
L 605.415789 2.460639 
L 608.352632 2.264571 
L 611.289474 2.628354 
L 614.226316 2.04624 
L 617.163158 2.056968 
L 620.1 1.819321 
L 646.531579 1.819321 
L 646.531579 1.819321 
" clip-path="url(#p6d33bcda6c)" style="fill: none; stroke: #1d2f6f; stroke-opacity: 0.85; stroke-width: 2; stroke-linecap: square"/>
   </g>
   <g id="line2d_6">
    <path d="M 97.342105 132.782036 
L 100.278947 129.504295 
L 103.215789 123.249616 
L 106.152632 120.952399 
L 109.089474 116.2406 
L 114.963158 109.814833 
L 117.9 109.213948 
L 120.836842 107.464188 
L 123.773684 104.457926 
L 126.710526 102.772119 
L 129.647368 102.144337 
L 132.584211 101.866933 
L 135.521053 101.412146 
L 138.457895 100.463479 
L 141.394737 100.746567 
L 144.331579 101.161607 
L 147.268421 100.455429 
L 150.205263 99.564872 
L 153.142105 98.552769 
L 156.078947 98.75074 
L 159.015789 97.501959 
L 161.952632 97.568655 
L 164.889474 96.406133 
L 167.826316 94.665167 
L 170.763158 91.111166 
L 173.7 90.389375 
L 176.636842 90.910059 
L 179.573684 90.665257 
L 182.510526 90.914768 
L 185.447368 90.332175 
L 188.384211 89.35623 
L 191.321053 88.017351 
L 200.131579 88.213472 
L 203.068421 88.491608 
L 206.005263 87.929403 
L 208.942105 87.5162 
L 211.878947 88.266359 
L 214.815789 88.386465 
L 217.752632 87.730928 
L 220.689474 88.008692 
L 223.626316 87.965637 
L 226.563158 87.770416 
L 229.5 86.458816 
L 232.436842 86.923454 
L 235.373684 87.503519 
L 238.310526 87.451302 
L 247.121053 86.542933 
L 250.057895 87.089563 
L 252.994737 86.730482 
L 258.868421 86.177566 
L 261.805263 86.264562 
L 264.742105 86.104517 
L 267.678947 86.443948 
L 270.615789 87.005524 
L 273.552632 86.687752 
L 276.489474 87.244685 
L 282.363158 87.629539 
L 285.3 87.750395 
L 291.173684 88.70409 
L 294.110526 88.509018 
L 297.047368 88.148792 
L 299.984211 88.55767 
L 302.921053 88.738621 
L 305.857895 88.003881 
L 308.794737 88.642788 
L 311.731579 88.655609 
L 314.668421 88.963272 
L 317.605263 89.07228 
L 320.542105 89.300963 
L 323.478947 89.714883 
L 326.415789 90.243411 
L 332.289474 90.522838 
L 335.226316 90.628389 
L 338.163158 90.560414 
L 344.036842 90.759611 
L 349.910526 90.860924 
L 352.847368 90.881208 
L 355.784211 90.759868 
L 358.721053 90.957963 
L 364.594737 90.875397 
L 367.531579 91.065328 
L 370.468421 91.054013 
L 373.405263 91.208518 
L 376.342105 91.206329 
L 382.215789 90.920267 
L 385.152632 90.991071 
L 391.026316 90.706468 
L 393.963158 90.803854 
L 399.836842 90.722906 
L 405.710526 91.110063 
L 408.647368 91.10799 
L 411.584211 91.268528 
L 420.394737 91.170039 
L 423.331579 91.045107 
L 426.268421 91.116443 
L 432.142105 90.99932 
L 438.015789 91.017864 
L 440.952632 90.983302 
L 452.7 91.366421 
L 526.121053 91.420456 
L 531.994737 91.311163 
L 537.868421 91.302523 
L 540.805263 91.232094 
L 546.678947 91.330875 
L 561.363158 91.341235 
L 564.3 91.251709 
L 576.047368 91.313115 
L 587.794737 91.44251 
L 599.542105 91.480257 
L 631.847368 91.318915 
L 637.721053 91.289745 
L 646.531579 91.291608 
L 646.531579 91.291608 
" clip-path="url(#p6d33bcda6c)" style="fill: none; stroke: #8390fa; stroke-opacity: 0.85; stroke-width: 2; stroke-linecap: square"/>
   </g>
   <g id="line2d_7"/>
   <g id="line2d_8"/>
   <g id="line2d_9">
    <path d="M 97.342105 132.782036 
L 103.215789 132.950915 
L 135.521053 133.130075 
L 150.205263 133.128233 
L 153.142105 133.004176 
L 179.573684 133.252042 
L 194.257895 133.21591 
L 203.068421 133.096403 
L 214.815789 133.272178 
L 220.689474 133.233684 
L 229.5 133.054511 
L 235.373684 133.240523 
L 244.184211 133.287759 
L 258.868421 133.147487 
L 267.678947 133.318656 
L 282.363158 133.363446 
L 288.236842 133.288795 
L 302.921053 133.053988 
L 305.857895 133.231521 
L 314.668421 133.192938 
L 317.605263 133.307204 
L 332.289474 133.242823 
L 344.036842 133.290732 
L 349.910526 133.255741 
L 361.657895 133.296074 
L 370.468421 133.266031 
L 379.278947 133.267505 
L 385.152632 133.349054 
L 411.584211 133.431398 
L 426.268421 133.259621 
L 432.142105 133.047265 
L 438.015789 133.051207 
L 440.952632 132.989819 
L 446.826316 133.24607 
L 455.636842 133.384291 
L 461.510526 133.377526 
L 467.384211 133.361616 
L 473.257895 133.429909 
L 555.489474 133.499075 
L 581.921053 133.548516 
L 608.352632 133.510111 
L 614.226316 133.471914 
L 620.1 133.524137 
L 628.910526 133.489626 
L 634.784211 133.549526 
L 643.594737 133.558943 
L 646.531579 133.572349 
L 646.531579 133.572349 
" clip-path="url(#p6d33bcda6c)" style="fill: none; stroke: #00c49a; stroke-opacity: 0.85; stroke-width: 2; stroke-linecap: square"/>
   </g>
   <g id="patch_3">
    <path d="M 90 140.16 
L 90 34.56 
" style="fill: none; stroke: #000000; stroke-width: 0.8; stroke-linejoin: miter; stroke-linecap: square"/>
   </g>
   <g id="patch_4">
    <path d="M 648 140.16 
L 648 34.56 
" style="fill: none; stroke: #000000; stroke-width: 0.8; stroke-linejoin: miter; stroke-linecap: square"/>
   </g>
   <g id="patch_5">
    <path d="M 90 140.16 
L 648 140.16 
" style="fill: none; stroke: #000000; stroke-width: 0.8; stroke-linejoin: miter; stroke-linecap: square"/>
   </g>
   <g id="patch_6">
    <path d="M 90 34.56 
L 648 34.56 
" style="fill: none; stroke: #000000; stroke-width: 0.8; stroke-linejoin: miter; stroke-linecap: square"/>
   </g>
   <g id="legend_1">
    <g id="patch_7">
     <path d="M 423.078125 86.594375 
L 641 86.594375 
Q 643 86.594375 643 84.594375 
L 643 41.56 
Q 643 39.56 641 39.56 
L 423.078125 39.56 
Q 421.078125 39.56 421.078125 41.56 
L 421.078125 84.594375 
Q 421.078125 86.594375 423.078125 86.594375 
z
" style="fill: #ffffff; opacity: 0.8; stroke: #cccccc; stroke-linejoin: miter"/>
    </g>
    <g id="line2d_10">
     <path d="M 425.078125 47.658438 
L 435.078125 47.658438 
L 445.078125 47.658438 
" style="fill: none; stroke: #1d2f6f; stroke-width: 1.5; stroke-linecap: square"/>
    </g>
    <g id="text_6">
     <!-- Out-of distribution, no adaptation -->
     <g transform="translate(453.078125 51.158438) scale(0.1 -0.1)">
      <defs>
       <path id="DejaVuSans-4f" d="M 2522 4238 
Q 1834 4238 1429 3725 
Q 1025 3213 1025 2328 
Q 1025 1447 1429 934 
Q 1834 422 2522 422 
Q 3209 422 3611 934 
Q 4013 1447 4013 2328 
Q 4013 3213 3611 3725 
Q 3209 4238 2522 4238 
z
M 2522 4750 
Q 3503 4750 4090 4092 
Q 4678 3434 4678 2328 
Q 4678 1225 4090 567 
Q 3503 -91 2522 -91 
Q 1538 -91 948 565 
Q 359 1222 359 2328 
Q 359 3434 948 4092 
Q 1538 4750 2522 4750 
z
" transform="scale(0.015625)"/>
       <path id="DejaVuSans-75" d="M 544 1381 
L 544 3500 
L 1119 3500 
L 1119 1403 
Q 1119 906 1312 657 
Q 1506 409 1894 409 
Q 2359 409 2629 706 
Q 2900 1003 2900 1516 
L 2900 3500 
L 3475 3500 
L 3475 0 
L 2900 0 
L 2900 538 
Q 2691 219 2414 64 
Q 2138 -91 1772 -91 
Q 1169 -91 856 284 
Q 544 659 544 1381 
z
M 1991 3584 
L 1991 3584 
z
" transform="scale(0.015625)"/>
       <path id="DejaVuSans-2d" d="M 313 2009 
L 1997 2009 
L 1997 1497 
L 313 1497 
L 313 2009 
z
" transform="scale(0.015625)"/>
       <path id="DejaVuSans-6f" d="M 1959 3097 
Q 1497 3097 1228 2736 
Q 959 2375 959 1747 
Q 959 1119 1226 758 
Q 1494 397 1959 397 
Q 2419 397 2687 759 
Q 2956 1122 2956 1747 
Q 2956 2369 2687 2733 
Q 2419 3097 1959 3097 
z
M 1959 3584 
Q 2709 3584 3137 3096 
Q 3566 2609 3566 1747 
Q 3566 888 3137 398 
Q 2709 -91 1959 -91 
Q 1206 -91 779 398 
Q 353 888 353 1747 
Q 353 2609 779 3096 
Q 1206 3584 1959 3584 
z
" transform="scale(0.015625)"/>
       <path id="DejaVuSans-66" d="M 2375 4863 
L 2375 4384 
L 1825 4384 
Q 1516 4384 1395 4259 
Q 1275 4134 1275 3809 
L 1275 3500 
L 2222 3500 
L 2222 3053 
L 1275 3053 
L 1275 0 
L 697 0 
L 697 3053 
L 147 3053 
L 147 3500 
L 697 3500 
L 697 3744 
Q 697 4328 969 4595 
Q 1241 4863 1831 4863 
L 2375 4863 
z
" transform="scale(0.015625)"/>
       <path id="DejaVuSans-64" d="M 2906 2969 
L 2906 4863 
L 3481 4863 
L 3481 0 
L 2906 0 
L 2906 525 
Q 2725 213 2448 61 
Q 2172 -91 1784 -91 
Q 1150 -91 751 415 
Q 353 922 353 1747 
Q 353 2572 751 3078 
Q 1150 3584 1784 3584 
Q 2172 3584 2448 3432 
Q 2725 3281 2906 2969 
z
M 947 1747 
Q 947 1113 1208 752 
Q 1469 391 1925 391 
Q 2381 391 2643 752 
Q 2906 1113 2906 1747 
Q 2906 2381 2643 2742 
Q 2381 3103 1925 3103 
Q 1469 3103 1208 2742 
Q 947 2381 947 1747 
z
" transform="scale(0.015625)"/>
       <path id="DejaVuSans-73" d="M 2834 3397 
L 2834 2853 
Q 2591 2978 2328 3040 
Q 2066 3103 1784 3103 
Q 1356 3103 1142 2972 
Q 928 2841 928 2578 
Q 928 2378 1081 2264 
Q 1234 2150 1697 2047 
L 1894 2003 
Q 2506 1872 2764 1633 
Q 3022 1394 3022 966 
Q 3022 478 2636 193 
Q 2250 -91 1575 -91 
Q 1294 -91 989 -36 
Q 684 19 347 128 
L 347 722 
Q 666 556 975 473 
Q 1284 391 1588 391 
Q 1994 391 2212 530 
Q 2431 669 2431 922 
Q 2431 1156 2273 1281 
Q 2116 1406 1581 1522 
L 1381 1569 
Q 847 1681 609 1914 
Q 372 2147 372 2553 
Q 372 3047 722 3315 
Q 1072 3584 1716 3584 
Q 2034 3584 2315 3537 
Q 2597 3491 2834 3397 
z
" transform="scale(0.015625)"/>
       <path id="DejaVuSans-62" d="M 3116 1747 
Q 3116 2381 2855 2742 
Q 2594 3103 2138 3103 
Q 1681 3103 1420 2742 
Q 1159 2381 1159 1747 
Q 1159 1113 1420 752 
Q 1681 391 2138 391 
Q 2594 391 2855 752 
Q 3116 1113 3116 1747 
z
M 1159 2969 
Q 1341 3281 1617 3432 
Q 1894 3584 2278 3584 
Q 2916 3584 3314 3078 
Q 3713 2572 3713 1747 
Q 3713 922 3314 415 
Q 2916 -91 2278 -91 
Q 1894 -91 1617 61 
Q 1341 213 1159 525 
L 1159 0 
L 581 0 
L 581 4863 
L 1159 4863 
L 1159 2969 
z
" transform="scale(0.015625)"/>
       <path id="DejaVuSans-2c" d="M 750 794 
L 1409 794 
L 1409 256 
L 897 -744 
L 494 -744 
L 750 256 
L 750 794 
z
" transform="scale(0.015625)"/>
      </defs>
      <use xlink:href="#DejaVuSans-4f"/>
      <use xlink:href="#DejaVuSans-75" x="78.710938"/>
      <use xlink:href="#DejaVuSans-74" x="142.089844"/>
      <use xlink:href="#DejaVuSans-2d" x="181.298828"/>
      <use xlink:href="#DejaVuSans-6f" x="219.257812"/>
      <use xlink:href="#DejaVuSans-66" x="280.439453"/>
      <use xlink:href="#DejaVuSans-20" x="315.644531"/>
      <use xlink:href="#DejaVuSans-64" x="347.431641"/>
      <use xlink:href="#DejaVuSans-69" x="410.908203"/>
      <use xlink:href="#DejaVuSans-73" x="438.691406"/>
      <use xlink:href="#DejaVuSans-74" x="490.791016"/>
      <use xlink:href="#DejaVuSans-72" x="530"/>
      <use xlink:href="#DejaVuSans-69" x="571.113281"/>
      <use xlink:href="#DejaVuSans-62" x="598.896484"/>
      <use xlink:href="#DejaVuSans-75" x="662.373047"/>
      <use xlink:href="#DejaVuSans-74" x="725.751953"/>
      <use xlink:href="#DejaVuSans-69" x="764.960938"/>
      <use xlink:href="#DejaVuSans-6f" x="792.744141"/>
      <use xlink:href="#DejaVuSans-6e" x="853.925781"/>
      <use xlink:href="#DejaVuSans-2c" x="917.304688"/>
      <use xlink:href="#DejaVuSans-20" x="949.091797"/>
      <use xlink:href="#DejaVuSans-6e" x="980.878906"/>
      <use xlink:href="#DejaVuSans-6f" x="1044.257812"/>
      <use xlink:href="#DejaVuSans-20" x="1105.439453"/>
      <use xlink:href="#DejaVuSans-61" x="1137.226562"/>
      <use xlink:href="#DejaVuSans-64" x="1198.505859"/>
      <use xlink:href="#DejaVuSans-61" x="1261.982422"/>
      <use xlink:href="#DejaVuSans-70" x="1323.261719"/>
      <use xlink:href="#DejaVuSans-74" x="1386.738281"/>
      <use xlink:href="#DejaVuSans-61" x="1425.947266"/>
      <use xlink:href="#DejaVuSans-74" x="1487.226562"/>
      <use xlink:href="#DejaVuSans-69" x="1526.435547"/>
      <use xlink:href="#DejaVuSans-6f" x="1554.21875"/>
      <use xlink:href="#DejaVuSans-6e" x="1615.400391"/>
     </g>
    </g>
    <g id="line2d_11">
     <path d="M 425.078125 62.336563 
L 435.078125 62.336563 
L 445.078125 62.336563 
" style="fill: none; stroke: #8390fa; stroke-width: 1.5; stroke-linecap: square"/>
    </g>
    <g id="text_7">
     <!-- Out-of distribution, online adaptation -->
     <g transform="translate(453.078125 65.836563) scale(0.1 -0.1)">
      <use xlink:href="#DejaVuSans-4f"/>
      <use xlink:href="#DejaVuSans-75" x="78.710938"/>
      <use xlink:href="#DejaVuSans-74" x="142.089844"/>
      <use xlink:href="#DejaVuSans-2d" x="181.298828"/>
      <use xlink:href="#DejaVuSans-6f" x="219.257812"/>
      <use xlink:href="#DejaVuSans-66" x="280.439453"/>
      <use xlink:href="#DejaVuSans-20" x="315.644531"/>
      <use xlink:href="#DejaVuSans-64" x="347.431641"/>
      <use xlink:href="#DejaVuSans-69" x="410.908203"/>
      <use xlink:href="#DejaVuSans-73" x="438.691406"/>
      <use xlink:href="#DejaVuSans-74" x="490.791016"/>
      <use xlink:href="#DejaVuSans-72" x="530"/>
      <use xlink:href="#DejaVuSans-69" x="571.113281"/>
      <use xlink:href="#DejaVuSans-62" x="598.896484"/>
      <use xlink:href="#DejaVuSans-75" x="662.373047"/>
      <use xlink:href="#DejaVuSans-74" x="725.751953"/>
      <use xlink:href="#DejaVuSans-69" x="764.960938"/>
      <use xlink:href="#DejaVuSans-6f" x="792.744141"/>
      <use xlink:href="#DejaVuSans-6e" x="853.925781"/>
      <use xlink:href="#DejaVuSans-2c" x="917.304688"/>
      <use xlink:href="#DejaVuSans-20" x="949.091797"/>
      <use xlink:href="#DejaVuSans-6f" x="980.878906"/>
      <use xlink:href="#DejaVuSans-6e" x="1042.060547"/>
      <use xlink:href="#DejaVuSans-6c" x="1105.439453"/>
      <use xlink:href="#DejaVuSans-69" x="1133.222656"/>
      <use xlink:href="#DejaVuSans-6e" x="1161.005859"/>
      <use xlink:href="#DejaVuSans-65" x="1224.384766"/>
      <use xlink:href="#DejaVuSans-20" x="1285.908203"/>
      <use xlink:href="#DejaVuSans-61" x="1317.695312"/>
      <use xlink:href="#DejaVuSans-64" x="1378.974609"/>
      <use xlink:href="#DejaVuSans-61" x="1442.451172"/>
      <use xlink:href="#DejaVuSans-70" x="1503.730469"/>
      <use xlink:href="#DejaVuSans-74" x="1567.207031"/>
      <use xlink:href="#DejaVuSans-61" x="1606.416016"/>
      <use xlink:href="#DejaVuSans-74" x="1667.695312"/>
      <use xlink:href="#DejaVuSans-69" x="1706.904297"/>
      <use xlink:href="#DejaVuSans-6f" x="1734.6875"/>
      <use xlink:href="#DejaVuSans-6e" x="1795.869141"/>
     </g>
    </g>
    <g id="line2d_12">
     <path d="M 425.078125 77.014688 
L 435.078125 77.014688 
L 445.078125 77.014688 
" style="fill: none; stroke: #00c49a; stroke-opacity: 0.85; stroke-width: 2; stroke-linecap: square"/>
    </g>
    <g id="text_8">
     <!-- In-distribution -->
     <g transform="translate(453.078125 80.514688) scale(0.1 -0.1)">
      <defs>
       <path id="DejaVuSans-49" d="M 628 4666 
L 1259 4666 
L 1259 0 
L 628 0 
L 628 4666 
z
" transform="scale(0.015625)"/>
      </defs>
      <use xlink:href="#DejaVuSans-49"/>
      <use xlink:href="#DejaVuSans-6e" x="29.492188"/>
      <use xlink:href="#DejaVuSans-2d" x="92.871094"/>
      <use xlink:href="#DejaVuSans-64" x="128.955078"/>
      <use xlink:href="#DejaVuSans-69" x="192.431641"/>
      <use xlink:href="#DejaVuSans-73" x="220.214844"/>
      <use xlink:href="#DejaVuSans-74" x="272.314453"/>
      <use xlink:href="#DejaVuSans-72" x="311.523438"/>
      <use xlink:href="#DejaVuSans-69" x="352.636719"/>
      <use xlink:href="#DejaVuSans-62" x="380.419922"/>
      <use xlink:href="#DejaVuSans-75" x="443.896484"/>
      <use xlink:href="#DejaVuSans-74" x="507.275391"/>
      <use xlink:href="#DejaVuSans-69" x="546.484375"/>
      <use xlink:href="#DejaVuSans-6f" x="574.267578"/>
      <use xlink:href="#DejaVuSans-6e" x="635.449219"/>
     </g>
    </g>
   </g>
  </g>
  <g id="axes_2">
   <g id="patch_8">
    <path d="M 90 256.32 
L 648 256.32 
L 648 150.72 
L 90 150.72 
z
" style="fill: #ffffff"/>
   </g>
   <g id="PolyCollection_4"/>
   <g id="PolyCollection_5"/>
   <g id="PolyCollection_6"/>
   <g id="matplotlib.axis_3">
    <g id="xtick_1">
     <g id="line2d_13">
      <defs>
       <path id="m89fbfc96e6" d="M 0 0 
L 0 3.5 
" style="stroke: #000000; stroke-width: 0.8"/>
      </defs>
      <g>
       <use xlink:href="#m89fbfc96e6" x="97.342105" y="256.32" style="stroke: #000000; stroke-width: 0.8"/>
      </g>
     </g>
     <g id="text_9">
      <!-- 0 -->
      <g transform="translate(94.160855 270.918437) scale(0.1 -0.1)">
       <use xlink:href="#DejaVuSans-30"/>
      </g>
     </g>
    </g>
    <g id="xtick_2">
     <g id="line2d_14">
      <g>
       <use xlink:href="#m89fbfc96e6" x="170.763158" y="256.32" style="stroke: #000000; stroke-width: 0.8"/>
      </g>
     </g>
     <g id="text_10">
      <!-- 5000 -->
      <g transform="translate(158.038158 270.918437) scale(0.1 -0.1)">
       <use xlink:href="#DejaVuSans-35"/>
       <use xlink:href="#DejaVuSans-30" x="63.623047"/>
       <use xlink:href="#DejaVuSans-30" x="127.246094"/>
       <use xlink:href="#DejaVuSans-30" x="190.869141"/>
      </g>
     </g>
    </g>
    <g id="xtick_3">
     <g id="line2d_15">
      <g>
       <use xlink:href="#m89fbfc96e6" x="244.184211" y="256.32" style="stroke: #000000; stroke-width: 0.8"/>
      </g>
     </g>
     <g id="text_11">
      <!-- 10000 -->
      <g transform="translate(228.277961 270.918437) scale(0.1 -0.1)">
       <use xlink:href="#DejaVuSans-31"/>
       <use xlink:href="#DejaVuSans-30" x="63.623047"/>
       <use xlink:href="#DejaVuSans-30" x="127.246094"/>
       <use xlink:href="#DejaVuSans-30" x="190.869141"/>
       <use xlink:href="#DejaVuSans-30" x="254.492188"/>
      </g>
     </g>
    </g>
    <g id="xtick_4">
     <g id="line2d_16">
      <g>
       <use xlink:href="#m89fbfc96e6" x="317.605263" y="256.32" style="stroke: #000000; stroke-width: 0.8"/>
      </g>
     </g>
     <g id="text_12">
      <!-- 15000 -->
      <g transform="translate(301.699013 270.918437) scale(0.1 -0.1)">
       <use xlink:href="#DejaVuSans-31"/>
       <use xlink:href="#DejaVuSans-35" x="63.623047"/>
       <use xlink:href="#DejaVuSans-30" x="127.246094"/>
       <use xlink:href="#DejaVuSans-30" x="190.869141"/>
       <use xlink:href="#DejaVuSans-30" x="254.492188"/>
      </g>
     </g>
    </g>
    <g id="xtick_5">
     <g id="line2d_17">
      <g>
       <use xlink:href="#m89fbfc96e6" x="391.026316" y="256.32" style="stroke: #000000; stroke-width: 0.8"/>
      </g>
     </g>
     <g id="text_13">
      <!-- 20000 -->
      <g transform="translate(375.120066 270.918437) scale(0.1 -0.1)">
       <use xlink:href="#DejaVuSans-32"/>
       <use xlink:href="#DejaVuSans-30" x="63.623047"/>
       <use xlink:href="#DejaVuSans-30" x="127.246094"/>
       <use xlink:href="#DejaVuSans-30" x="190.869141"/>
       <use xlink:href="#DejaVuSans-30" x="254.492188"/>
      </g>
     </g>
    </g>
    <g id="xtick_6">
     <g id="line2d_18">
      <g>
       <use xlink:href="#m89fbfc96e6" x="464.447368" y="256.32" style="stroke: #000000; stroke-width: 0.8"/>
      </g>
     </g>
     <g id="text_14">
      <!-- 25000 -->
      <g transform="translate(448.541118 270.918437) scale(0.1 -0.1)">
       <use xlink:href="#DejaVuSans-32"/>
       <use xlink:href="#DejaVuSans-35" x="63.623047"/>
       <use xlink:href="#DejaVuSans-30" x="127.246094"/>
       <use xlink:href="#DejaVuSans-30" x="190.869141"/>
       <use xlink:href="#DejaVuSans-30" x="254.492188"/>
      </g>
     </g>
    </g>
    <g id="xtick_7">
     <g id="line2d_19">
      <g>
       <use xlink:href="#m89fbfc96e6" x="537.868421" y="256.32" style="stroke: #000000; stroke-width: 0.8"/>
      </g>
     </g>
     <g id="text_15">
      <!-- 30000 -->
      <g transform="translate(521.962171 270.918437) scale(0.1 -0.1)">
       <defs>
        <path id="DejaVuSans-33" d="M 2597 2516 
Q 3050 2419 3304 2112 
Q 3559 1806 3559 1356 
Q 3559 666 3084 287 
Q 2609 -91 1734 -91 
Q 1441 -91 1130 -33 
Q 819 25 488 141 
L 488 750 
Q 750 597 1062 519 
Q 1375 441 1716 441 
Q 2309 441 2620 675 
Q 2931 909 2931 1356 
Q 2931 1769 2642 2001 
Q 2353 2234 1838 2234 
L 1294 2234 
L 1294 2753 
L 1863 2753 
Q 2328 2753 2575 2939 
Q 2822 3125 2822 3475 
Q 2822 3834 2567 4026 
Q 2313 4219 1838 4219 
Q 1578 4219 1281 4162 
Q 984 4106 628 3988 
L 628 4550 
Q 988 4650 1302 4700 
Q 1616 4750 1894 4750 
Q 2613 4750 3031 4423 
Q 3450 4097 3450 3541 
Q 3450 3153 3228 2886 
Q 3006 2619 2597 2516 
z
" transform="scale(0.015625)"/>
       </defs>
       <use xlink:href="#DejaVuSans-33"/>
       <use xlink:href="#DejaVuSans-30" x="63.623047"/>
       <use xlink:href="#DejaVuSans-30" x="127.246094"/>
       <use xlink:href="#DejaVuSans-30" x="190.869141"/>
       <use xlink:href="#DejaVuSans-30" x="254.492188"/>
      </g>
     </g>
    </g>
    <g id="xtick_8">
     <g id="line2d_20">
      <g>
       <use xlink:href="#m89fbfc96e6" x="611.289474" y="256.32" style="stroke: #000000; stroke-width: 0.8"/>
      </g>
     </g>
     <g id="text_16">
      <!-- 35000 -->
      <g transform="translate(595.383224 270.918437) scale(0.1 -0.1)">
       <use xlink:href="#DejaVuSans-33"/>
       <use xlink:href="#DejaVuSans-35" x="63.623047"/>
       <use xlink:href="#DejaVuSans-30" x="127.246094"/>
       <use xlink:href="#DejaVuSans-30" x="190.869141"/>
       <use xlink:href="#DejaVuSans-30" x="254.492188"/>
      </g>
     </g>
    </g>
    <g id="text_17">
     <!-- Time Step -->
     <g transform="translate(343.792188 284.596563) scale(0.1 -0.1)">
      <defs>
       <path id="DejaVuSans-54" d="M -19 4666 
L 3928 4666 
L 3928 4134 
L 2272 4134 
L 2272 0 
L 1638 0 
L 1638 4134 
L -19 4134 
L -19 4666 
z
" transform="scale(0.015625)"/>
       <path id="DejaVuSans-6d" d="M 3328 2828 
Q 3544 3216 3844 3400 
Q 4144 3584 4550 3584 
Q 5097 3584 5394 3201 
Q 5691 2819 5691 2113 
L 5691 0 
L 5113 0 
L 5113 2094 
Q 5113 2597 4934 2840 
Q 4756 3084 4391 3084 
Q 3944 3084 3684 2787 
Q 3425 2491 3425 1978 
L 3425 0 
L 2847 0 
L 2847 2094 
Q 2847 2600 2669 2842 
Q 2491 3084 2119 3084 
Q 1678 3084 1418 2786 
Q 1159 2488 1159 1978 
L 1159 0 
L 581 0 
L 581 3500 
L 1159 3500 
L 1159 2956 
Q 1356 3278 1631 3431 
Q 1906 3584 2284 3584 
Q 2666 3584 2933 3390 
Q 3200 3197 3328 2828 
z
" transform="scale(0.015625)"/>
       <path id="DejaVuSans-53" d="M 3425 4513 
L 3425 3897 
Q 3066 4069 2747 4153 
Q 2428 4238 2131 4238 
Q 1616 4238 1336 4038 
Q 1056 3838 1056 3469 
Q 1056 3159 1242 3001 
Q 1428 2844 1947 2747 
L 2328 2669 
Q 3034 2534 3370 2195 
Q 3706 1856 3706 1288 
Q 3706 609 3251 259 
Q 2797 -91 1919 -91 
Q 1588 -91 1214 -16 
Q 841 59 441 206 
L 441 856 
Q 825 641 1194 531 
Q 1563 422 1919 422 
Q 2459 422 2753 634 
Q 3047 847 3047 1241 
Q 3047 1584 2836 1778 
Q 2625 1972 2144 2069 
L 1759 2144 
Q 1053 2284 737 2584 
Q 422 2884 422 3419 
Q 422 4038 858 4394 
Q 1294 4750 2059 4750 
Q 2388 4750 2728 4690 
Q 3069 4631 3425 4513 
z
" transform="scale(0.015625)"/>
      </defs>
      <use xlink:href="#DejaVuSans-54"/>
      <use xlink:href="#DejaVuSans-69" x="57.958984"/>
      <use xlink:href="#DejaVuSans-6d" x="85.742188"/>
      <use xlink:href="#DejaVuSans-65" x="183.154297"/>
      <use xlink:href="#DejaVuSans-20" x="244.677734"/>
      <use xlink:href="#DejaVuSans-53" x="276.464844"/>
      <use xlink:href="#DejaVuSans-74" x="339.941406"/>
      <use xlink:href="#DejaVuSans-65" x="379.150391"/>
      <use xlink:href="#DejaVuSans-70" x="440.673828"/>
     </g>
    </g>
   </g>
   <g id="matplotlib.axis_4">
    <g id="ytick_5">
     <g id="line2d_21">
      <g>
       <use xlink:href="#m3955bdbcd4" x="90" y="247.471889" style="stroke: #000000; stroke-width: 0.8"/>
      </g>
     </g>
     <g id="text_18">
      <!-- 0.0 -->
      <g transform="translate(67.096875 251.271108) scale(0.1 -0.1)">
       <defs>
        <path id="DejaVuSans-2e" d="M 684 794 
L 1344 794 
L 1344 0 
L 684 0 
L 684 794 
z
" transform="scale(0.015625)"/>
       </defs>
       <use xlink:href="#DejaVuSans-30"/>
       <use xlink:href="#DejaVuSans-2e" x="63.623047"/>
       <use xlink:href="#DejaVuSans-30" x="95.410156"/>
      </g>
     </g>
    </g>
    <g id="ytick_6">
     <g id="line2d_22">
      <g>
       <use xlink:href="#m3955bdbcd4" x="90" y="219.890325" style="stroke: #000000; stroke-width: 0.8"/>
      </g>
     </g>
     <g id="text_19">
      <!-- 0.5 -->
      <g transform="translate(67.096875 223.689544) scale(0.1 -0.1)">
       <use xlink:href="#DejaVuSans-30"/>
       <use xlink:href="#DejaVuSans-2e" x="63.623047"/>
       <use xlink:href="#DejaVuSans-35" x="95.410156"/>
      </g>
     </g>
    </g>
    <g id="ytick_7">
     <g id="line2d_23">
      <g>
       <use xlink:href="#m3955bdbcd4" x="90" y="192.30876" style="stroke: #000000; stroke-width: 0.8"/>
      </g>
     </g>
     <g id="text_20">
      <!-- 1.0 -->
      <g transform="translate(67.096875 196.107979) scale(0.1 -0.1)">
       <use xlink:href="#DejaVuSans-31"/>
       <use xlink:href="#DejaVuSans-2e" x="63.623047"/>
       <use xlink:href="#DejaVuSans-30" x="95.410156"/>
      </g>
     </g>
    </g>
    <g id="ytick_8">
     <g id="line2d_24">
      <g>
       <use xlink:href="#m3955bdbcd4" x="90" y="164.727196" style="stroke: #000000; stroke-width: 0.8"/>
      </g>
     </g>
     <g id="text_21">
      <!-- 1.5 -->
      <g transform="translate(67.096875 168.526415) scale(0.1 -0.1)">
       <use xlink:href="#DejaVuSans-31"/>
       <use xlink:href="#DejaVuSans-2e" x="63.623047"/>
       <use xlink:href="#DejaVuSans-35" x="95.410156"/>
      </g>
     </g>
    </g>
    <g id="text_22">
     <!-- $\epsilon$ -->
     <g transform="translate(60.185312 207.37) rotate(-90) scale(0.14 -0.14)">
      <defs>
       <path id="DejaVuSans-Oblique-3b5" d="M 1263 1888 
Q 925 1963 778 2166 
Q 669 2309 669 2503 
Q 669 3034 1175 3344 
Q 1575 3588 2188 3588 
Q 2425 3588 2684 3550 
Q 2944 3513 3234 3438 
L 3134 2916 
Q 2847 3006 2606 3047 
Q 2359 3088 2138 3088 
Q 1766 3088 1522 2944 
Q 1228 2772 1228 2522 
Q 1228 2356 1381 2241 
Q 1563 2103 1925 2103 
L 2409 2103 
L 2319 1628 
L 1856 1628 
Q 1425 1628 1172 1469 
Q 828 1253 828 916 
Q 828 703 1013 563 
Q 1244 388 1716 388 
Q 2006 388 2284 444 
Q 2563 503 2806 619 
L 2700 84 
Q 2403 -3 2131 -47 
Q 1859 -91 1609 -91 
Q 866 -91 516 194 
Q 250 413 250 781 
Q 250 1278 600 1584 
Q 859 1813 1263 1888 
z
" transform="scale(0.015625)"/>
      </defs>
      <use xlink:href="#DejaVuSans-Oblique-3b5" transform="translate(0 0.9375)"/>
     </g>
    </g>
   </g>
   <g id="line2d_25">
    <path d="M 97.342105 247.471889 
L 100.278947 208.503141 
L 103.215789 190.262663 
L 106.152632 185.701056 
L 109.089474 178.311002 
L 112.026316 173.33327 
L 114.963158 170.133487 
L 117.9 169.550809 
L 120.836842 169.423933 
L 123.773684 165.5304 
L 126.710526 164.00881 
L 129.647368 165.771838 
L 132.584211 165.697211 
L 135.521053 164.802683 
L 138.457895 162.841668 
L 141.394737 162.594968 
L 144.331579 163.110733 
L 147.268421 162.150501 
L 153.142105 160.57612 
L 156.078947 160.258114 
L 159.015789 160.0579 
L 161.952632 160.74055 
L 164.889474 160.472832 
L 167.826316 159.464484 
L 170.763158 157.741622 
L 176.636842 157.625007 
L 179.573684 157.78143 
L 182.510526 157.79604 
L 185.447368 157.024277 
L 188.384211 156.781148 
L 191.321053 155.912496 
L 194.257895 155.52 
L 197.194737 156.547328 
L 200.131579 158.296209 
L 203.068421 158.584399 
L 206.005263 158.367144 
L 208.942105 158.853364 
L 211.878947 158.843622 
L 214.815789 159.751732 
L 217.752632 159.146965 
L 223.626316 158.550744 
L 226.563158 157.990098 
L 229.5 157.246535 
L 232.436842 157.172117 
L 235.373684 158.33931 
L 238.310526 157.89749 
L 241.247368 157.615653 
L 244.184211 156.949835 
L 247.121053 156.874396 
L 250.057895 157.885742 
L 252.994737 157.716675 
L 255.931579 157.096014 
L 258.868421 156.948234 
L 261.805263 157.996018 
L 267.678947 158.198564 
L 270.615789 157.93004 
L 276.489474 157.708664 
L 279.426316 157.147096 
L 282.363158 157.078188 
L 285.3 157.414338 
L 294.110526 157.811652 
L 297.047368 157.519335 
L 299.984211 158.085685 
L 302.921053 158.343948 
L 305.857895 157.470908 
L 308.794737 158.258151 
L 311.731579 158.466453 
L 314.668421 158.92888 
L 320.542105 158.981843 
L 323.478947 159.497769 
L 329.352632 161.212102 
L 335.226316 160.910353 
L 338.163158 160.4963 
L 341.1 160.509811 
L 344.036842 160.859358 
L 346.973684 160.729622 
L 349.910526 160.348946 
L 352.847368 160.19331 
L 355.784211 159.621553 
L 358.721053 160.175351 
L 364.594737 159.563366 
L 367.531579 159.882444 
L 370.468421 159.632055 
L 373.405263 159.685822 
L 376.342105 159.286038 
L 379.278947 158.453611 
L 385.152632 158.488011 
L 388.089474 158.040381 
L 391.026316 157.927583 
L 393.963158 158.013203 
L 396.9 157.749509 
L 399.836842 157.239302 
L 402.773684 157.393759 
L 405.710526 158.279162 
L 411.584211 158.276717 
L 417.457895 158.146489 
L 420.394737 157.349567 
L 423.331579 156.905337 
L 426.268421 156.744343 
L 429.205263 156.262208 
L 432.142105 155.986787 
L 435.078947 156.233907 
L 438.015789 156.161563 
L 443.889474 156.623593 
L 446.826316 156.571594 
L 449.763158 157.817244 
L 452.7 157.95434 
L 455.636842 158.328617 
L 458.573684 158.078516 
L 461.510526 158.093341 
L 464.447368 158.637169 
L 467.384211 158.550082 
L 470.321053 159.025725 
L 476.194737 158.804755 
L 482.068421 157.880441 
L 485.005263 158.811589 
L 490.878947 159.043657 
L 496.752632 159.479411 
L 499.689474 159.577509 
L 502.626316 159.41942 
L 505.563158 158.628257 
L 508.5 158.135402 
L 511.436842 158.07405 
L 514.373684 158.590391 
L 517.310526 158.904156 
L 520.247368 158.619846 
L 523.184211 158.999672 
L 526.121053 158.77441 
L 529.057895 159.554962 
L 531.994737 159.997152 
L 534.931579 159.758693 
L 537.868421 159.847529 
L 540.805263 159.742286 
L 543.742105 159.154757 
L 546.678947 159.207187 
L 549.615789 159.015475 
L 552.552632 159.22512 
L 555.489474 159.047643 
L 561.363158 159.046357 
L 564.3 159.487665 
L 567.236842 158.946689 
L 570.173684 158.962506 
L 576.047368 158.796243 
L 578.984211 158.886348 
L 581.921053 158.780291 
L 584.857895 159.423758 
L 590.731579 158.570783 
L 593.668421 158.672147 
L 599.542105 158.461332 
L 602.478947 159.160384 
L 608.352632 160.130251 
L 614.226316 161.358545 
L 625.973684 160.411744 
L 628.910526 160.574085 
L 637.721053 159.686309 
L 646.531579 159.741057 
L 646.531579 159.741057 
" clip-path="url(#p4127805d59)" style="fill: none; stroke: #1d2f6f; stroke-opacity: 0.85; stroke-width: 2; stroke-linecap: square"/>
   </g>
   <g id="line2d_26">
    <path d="M 97.342105 247.471889 
L 100.278947 209.235759 
L 103.215789 194.750906 
L 106.152632 194.87144 
L 109.089474 191.452877 
L 112.026316 190.616581 
L 114.963158 190.483896 
L 117.9 193.660294 
L 120.836842 195.251007 
L 123.773684 194.590059 
L 126.710526 195.499325 
L 129.647368 197.327228 
L 132.584211 199.572757 
L 135.521053 201.509167 
L 138.457895 202.433896 
L 141.394737 204.448509 
L 144.331579 206.773868 
L 147.268421 207.636127 
L 150.205263 208.2997 
L 153.142105 208.690847 
L 156.078947 210.112562 
L 159.015789 210.237228 
L 161.952632 211.689015 
L 164.889474 211.686287 
L 167.826316 211.261076 
L 170.763158 209.323781 
L 173.7 209.91612 
L 176.636842 211.505926 
L 179.573684 212.361955 
L 182.510526 213.643058 
L 185.447368 214.150824 
L 188.384211 214.255354 
L 191.321053 213.954436 
L 197.194737 215.639718 
L 203.068421 217.775521 
L 206.005263 217.984665 
L 208.942105 218.49079 
L 211.878947 219.85857 
L 214.815789 220.690595 
L 217.752632 220.755126 
L 220.689474 221.646831 
L 223.626316 222.141306 
L 226.563158 222.506269 
L 229.5 221.95401 
L 232.436842 222.899021 
L 235.373684 224.162152 
L 238.310526 224.547095 
L 241.247368 224.8024 
L 247.121053 225.124348 
L 250.057895 226.228969 
L 252.994737 226.280414 
L 255.931579 226.509033 
L 258.868421 226.558503 
L 261.805263 227.190099 
L 264.742105 227.452976 
L 267.678947 228.133775 
L 270.615789 229.169966 
L 273.552632 229.254902 
L 276.489474 230.259824 
L 285.3 231.918984 
L 291.173684 233.800412 
L 294.110526 233.790061 
L 297.047368 233.526752 
L 299.984211 234.334816 
L 302.921053 234.909709 
L 305.857895 234.026324 
L 308.794737 235.170197 
L 311.731579 235.486325 
L 314.668421 236.171494 
L 317.605263 236.622935 
L 320.542105 237.215327 
L 323.478947 238.089685 
L 326.415789 239.425328 
L 329.352632 239.98503 
L 335.226316 240.756885 
L 338.163158 240.676707 
L 341.1 241.207283 
L 344.036842 241.392351 
L 346.973684 241.793302 
L 352.847368 242.080274 
L 355.784211 241.744304 
L 358.721053 242.440142 
L 361.657895 242.245145 
L 364.594737 242.332942 
L 367.531579 243.072477 
L 370.468421 243.074156 
L 373.405263 243.722978 
L 376.342105 243.816377 
L 382.215789 242.769434 
L 385.152632 243.079092 
L 388.089474 242.586994 
L 391.026316 242.212941 
L 393.963158 242.607992 
L 396.9 242.621377 
L 399.836842 242.518228 
L 402.773684 243.460562 
L 405.710526 244.035978 
L 408.647368 244.063799 
L 411.584211 244.927156 
L 417.457895 244.921479 
L 423.331579 243.921879 
L 426.268421 244.24217 
L 429.205263 243.933269 
L 432.142105 243.751354 
L 435.078947 244.043221 
L 440.952632 243.85478 
L 449.763158 245.513994 
L 452.7 246.28516 
L 455.636842 246.317849 
L 458.573684 246.057498 
L 461.510526 246.524044 
L 467.384211 246.400203 
L 470.321053 247.039096 
L 473.257895 246.85068 
L 476.194737 246.884134 
L 479.131579 246.499485 
L 482.068421 246.242582 
L 485.005263 247.185553 
L 487.942105 247.642908 
L 490.878947 247.47532 
L 493.815789 248.405461 
L 496.752632 248.792842 
L 502.626316 248.900134 
L 505.563158 248.680132 
L 508.5 248.036422 
L 517.310526 248.83591 
L 520.247368 248.71004 
L 523.184211 249.006004 
L 526.121053 248.863289 
L 529.057895 249.5842 
L 531.994737 249.694265 
L 534.931579 249.543583 
L 537.868421 249.759687 
L 540.805263 250.134717 
L 543.742105 249.552717 
L 552.552632 249.510433 
L 555.489474 249.767476 
L 558.426316 249.787635 
L 561.363158 249.451673 
L 564.3 249.937215 
L 570.173684 249.536739 
L 576.047368 249.609871 
L 578.984211 249.504706 
L 581.921053 248.870374 
L 584.857895 248.988948 
L 590.731579 248.090593 
L 593.668421 248.142265 
L 596.605263 247.945026 
L 599.542105 248.178776 
L 602.478947 248.60595 
L 611.289474 249.525895 
L 614.226316 249.668246 
L 617.163158 249.540623 
L 623.036842 250.0519 
L 628.910526 250.040425 
L 631.847368 249.608094 
L 634.784211 249.397911 
L 637.721053 249.712147 
L 643.594737 249.849921 
L 646.531579 249.722178 
L 646.531579 249.722178 
" clip-path="url(#p4127805d59)" style="fill: none; stroke: #8390fa; stroke-opacity: 0.85; stroke-width: 2; stroke-linecap: square"/>
   </g>
   <g id="line2d_27"/>
   <g id="line2d_28"/>
   <g id="line2d_29">
    <path d="M 97.342105 247.471889 
L 100.278947 250.301899 
L 103.215789 247.50129 
L 106.152632 248.083131 
L 109.089474 246.177603 
L 112.026316 248.063879 
L 114.963158 247.760761 
L 117.9 248.850602 
L 120.836842 247.462332 
L 123.773684 247.842796 
L 129.647368 246.248178 
L 132.584211 246.271852 
L 135.521053 247.929893 
L 138.457895 247.713924 
L 141.394737 248.575108 
L 144.331579 249.124832 
L 147.268421 249.216496 
L 150.205263 249.709388 
L 153.142105 251.52 
L 156.078947 250.918276 
L 159.015789 249.848428 
L 161.952632 249.849599 
L 164.889474 248.044416 
L 167.826316 247.667723 
L 170.763158 246.176141 
L 173.7 246.729656 
L 176.636842 247.913328 
L 179.573684 247.357557 
L 182.510526 247.811751 
L 185.447368 247.739796 
L 188.384211 246.83469 
L 191.321053 245.554075 
L 194.257895 245.274962 
L 197.194737 244.553738 
L 200.131579 244.020467 
L 203.068421 243.914406 
L 206.005263 244.645398 
L 208.942105 244.540025 
L 211.878947 246.011859 
L 214.815789 246.125334 
L 217.752632 245.026996 
L 220.689474 245.326425 
L 223.626316 244.720314 
L 226.563158 244.528216 
L 229.5 243.696002 
L 235.373684 245.554097 
L 238.310526 245.869623 
L 244.184211 246.014046 
L 247.121053 245.301867 
L 250.057895 245.500483 
L 255.931579 244.628792 
L 258.868421 244.35702 
L 261.805263 245.289525 
L 264.742105 245.596743 
L 270.615789 247.166664 
L 273.552632 247.386186 
L 276.489474 248.401486 
L 279.426316 247.704346 
L 285.3 248.327858 
L 288.236842 249.460978 
L 291.173684 250.193099 
L 294.110526 250.665403 
L 297.047368 250.593092 
L 299.984211 251.092487 
L 302.921053 251.311061 
L 305.857895 249.996902 
L 308.794737 250.342736 
L 311.731579 250.216281 
L 314.668421 250.201125 
L 317.605263 249.150784 
L 320.542105 249.574114 
L 323.478947 249.462725 
L 326.415789 249.951951 
L 335.226316 249.64697 
L 338.163158 249.410053 
L 341.1 249.808044 
L 344.036842 249.444069 
L 346.973684 249.8352 
L 349.910526 249.808034 
L 352.847368 249.520605 
L 355.784211 248.89051 
L 358.721053 249.590099 
L 361.657895 249.445888 
L 364.594737 249.908915 
L 367.531579 250.11209 
L 370.468421 249.776903 
L 376.342105 250.180548 
L 379.278947 249.741245 
L 382.215789 248.930515 
L 385.152632 248.936121 
L 391.026316 248.406043 
L 393.963158 248.34974 
L 396.9 247.602053 
L 399.836842 247.013614 
L 402.773684 247.501307 
L 408.647368 246.95634 
L 411.584211 246.997418 
L 414.521053 246.406048 
L 417.457895 246.3125 
L 420.394737 245.529574 
L 423.331579 244.938665 
L 426.268421 244.86442 
L 429.205263 244.191007 
L 432.142105 243.704668 
L 435.078947 243.846118 
L 438.015789 243.820319 
L 440.952632 243.571507 
L 443.889474 244.465471 
L 446.826316 244.999461 
L 449.763158 245.684241 
L 452.7 246.097756 
L 455.636842 246.289188 
L 458.573684 245.742565 
L 461.510526 246.099765 
L 464.447368 245.855539 
L 467.384211 245.948246 
L 470.321053 246.865407 
L 476.194737 246.784294 
L 482.068421 245.676437 
L 487.942105 247.027152 
L 490.878947 247.097765 
L 493.815789 247.817664 
L 499.689474 247.703141 
L 502.626316 247.61212 
L 505.563158 247.157246 
L 508.5 246.559179 
L 514.373684 246.614175 
L 517.310526 246.233509 
L 523.184211 245.967869 
L 526.121053 246.045954 
L 529.057895 246.836982 
L 531.994737 246.47361 
L 534.931579 246.322278 
L 540.805263 247.080154 
L 543.742105 246.375016 
L 549.615789 246.448985 
L 555.489474 246.62596 
L 558.426316 246.984858 
L 561.363158 246.551865 
L 564.3 247.091799 
L 570.173684 247.671495 
L 573.110526 247.711263 
L 576.047368 248.012939 
L 578.984211 247.902271 
L 581.921053 247.495321 
L 587.794737 247.725086 
L 590.731579 247.452356 
L 593.668421 247.679061 
L 596.605263 247.439787 
L 599.542105 247.461184 
L 602.478947 247.902165 
L 605.415789 248.644348 
L 608.352632 248.858108 
L 611.289474 249.33408 
L 614.226316 249.241339 
L 617.163158 248.712114 
L 620.1 248.78506 
L 623.036842 249.018047 
L 628.910526 249.158936 
L 631.847368 248.703345 
L 634.784211 248.527492 
L 637.721053 248.887978 
L 640.657895 248.789473 
L 643.594737 248.496034 
L 646.531579 248.360559 
L 646.531579 248.360559 
" clip-path="url(#p4127805d59)" style="fill: none; stroke: #00c49a; stroke-opacity: 0.85; stroke-width: 2; stroke-linecap: square"/>
   </g>
   <g id="patch_9">
    <path d="M 90 256.32 
L 90 150.72 
" style="fill: none; stroke: #000000; stroke-width: 0.8; stroke-linejoin: miter; stroke-linecap: square"/>
   </g>
   <g id="patch_10">
    <path d="M 648 256.32 
L 648 150.72 
" style="fill: none; stroke: #000000; stroke-width: 0.8; stroke-linejoin: miter; stroke-linecap: square"/>
   </g>
   <g id="patch_11">
    <path d="M 90 256.32 
L 648 256.32 
" style="fill: none; stroke: #000000; stroke-width: 0.8; stroke-linejoin: miter; stroke-linecap: square"/>
   </g>
   <g id="patch_12">
    <path d="M 90 150.72 
L 648 150.72 
" style="fill: none; stroke: #000000; stroke-width: 0.8; stroke-linejoin: miter; stroke-linecap: square"/>
   </g>
  </g>
 </g>
 <defs>
  <clipPath id="p6d33bcda6c">
   <rect x="90" y="34.56" width="558" height="105.6"/>
  </clipPath>
  <clipPath id="p4127805d59">
   <rect x="90" y="150.72" width="558" height="105.6"/>
  </clipPath>
 </defs>
</svg>
