<?xml version="1.0" encoding="utf-8" standalone="no"?>
<!DOCTYPE svg PUBLIC "-//W3C//DTD SVG 1.1//EN"
  "http://www.w3.org/Graphics/SVG/1.1/DTD/svg11.dtd">
<svg xmlns:xlink="http://www.w3.org/1999/xlink" width="720pt" height="216pt" viewBox="0 0 720 216" xmlns="http://www.w3.org/2000/svg" version="1.1">
 <metadata>
  <rdf:RDF xmlns:dc="http://purl.org/dc/elements/1.1/" xmlns:cc="http://creativecommons.org/ns#" xmlns:rdf="http://www.w3.org/1999/02/22-rdf-syntax-ns#">
   <cc:Work>
    <dc:type rdf:resource="http://purl.org/dc/dcmitype/StillImage"/>
    <dc:date>2024-05-08T04:31:07.414172</dc:date>
    <dc:format>image/svg+xml</dc:format>
    <dc:creator>
     <cc:Agent>
      <dc:title>Matplotlib v3.7.3, https://matplotlib.org/</dc:title>
     </cc:Agent>
    </dc:creator>
   </cc:Work>
  </rdf:RDF>
 </metadata>
 <defs>
  <style type="text/css">*{stroke-linejoin: round; stroke-linecap: butt}</style>
 </defs>
 <g id="figure_1">
  <g id="patch_1">
   <path d="M 0 216 
L 720 216 
L 720 0 
L 0 0 
z
" style="fill: #ffffff"/>
  </g>
  <g id="axes_1">
   <g id="patch_2">
    <path d="M 46.262 171.16 
L 205.883881 171.16 
L 205.883881 14.063351 
L 46.262 14.063351 
z
" style="fill: #ffffff"/>
   </g>
   <g id="PathCollection_1">
    <path d="M 54.268801 156.948175 
L 52.681247 161.834163 
L 47.543816 161.834163 
L 51.700085 164.85387 
L 50.112532 169.739857 
L 54.268801 166.720151 
L 58.42507 169.739857 
L 56.837517 164.85387 
L 60.993786 161.834163 
L 55.856355 161.834163 
z
" clip-path="url(#pa1f72efe92)" style="fill: #1f77b4; stroke: #000000; stroke-width: 0.5"/>
    <path d="M 178.174237 64.20949 
L 176.586684 69.095477 
L 171.449252 69.095477 
L 175.605522 72.115184 
L 174.017968 77.001171 
L 178.174237 73.981465 
L 182.330507 77.001171 
L 180.742953 72.115184 
L 184.899223 69.095477 
L 179.761791 69.095477 
z
" clip-path="url(#pa1f72efe92)" style="fill: #ff7f0e; stroke: #000000; stroke-width: 0.5"/>
    <path d="M 198.628341 14.13304 
L 197.040788 19.019028 
L 191.903356 19.019028 
L 196.059626 22.038734 
L 194.472072 26.924722 
L 198.628341 23.905015 
L 202.784611 26.924722 
L 201.197057 22.038734 
L 205.353326 19.019028 
L 200.215895 19.019028 
z
" clip-path="url(#pa1f72efe92)" style="fill: #2ca02c; stroke: #000000; stroke-width: 0.5"/>
    <path d="M 63.309826 138.577843 
L 61.722272 143.46383 
L 56.584841 143.46383 
L 60.74111 146.483537 
L 59.153557 151.369524 
L 63.309826 148.349818 
L 67.466095 151.369524 
L 65.878542 146.483537 
L 70.034811 143.46383 
L 64.89738 143.46383 
z
" clip-path="url(#pa1f72efe92)" style="fill: #d62728; stroke: #000000; stroke-width: 0.5"/>
    <path d="M 53.51754 150.041058 
L 51.929986 154.927046 
L 46.792555 154.927046 
L 50.948824 157.946752 
L 49.361271 162.83274 
L 53.51754 159.813034 
L 57.673809 162.83274 
L 56.086256 157.946752 
L 60.242525 154.927046 
L 55.105094 154.927046 
z
" clip-path="url(#pa1f72efe92)" style="fill: #9467bd; stroke: #000000; stroke-width: 0.5"/>
   </g>
   <g id="PathCollection_2"/>
   <g id="PathCollection_3"/>
   <g id="PathCollection_4"/>
   <g id="PathCollection_5"/>
   <g id="PathCollection_6"/>
   <g id="matplotlib.axis_1">
    <g id="xtick_1">
     <g id="line2d_1">
      <defs>
       <path id="m1b377f85d0" d="M 0 0 
L 0 3.5 
" style="stroke: #000000; stroke-width: 0.8"/>
      </defs>
      <g>
       <use xlink:href="#m1b377f85d0" x="58.941012" y="171.16" style="stroke: #000000; stroke-width: 0.8"/>
      </g>
     </g>
     <g id="text_1">
      <!-- 0.010 -->
      <g transform="translate(44.626949 185.758437) scale(0.1 -0.1)">
       <defs>
        <path id="DejaVuSans-30" d="M 2034 4250 
Q 1547 4250 1301 3770 
Q 1056 3291 1056 2328 
Q 1056 1369 1301 889 
Q 1547 409 2034 409 
Q 2525 409 2770 889 
Q 3016 1369 3016 2328 
Q 3016 3291 2770 3770 
Q 2525 4250 2034 4250 
z
M 2034 4750 
Q 2819 4750 3233 4129 
Q 3647 3509 3647 2328 
Q 3647 1150 3233 529 
Q 2819 -91 2034 -91 
Q 1250 -91 836 529 
Q 422 1150 422 2328 
Q 422 3509 836 4129 
Q 1250 4750 2034 4750 
z
" transform="scale(0.015625)"/>
        <path id="DejaVuSans-2e" d="M 684 794 
L 1344 794 
L 1344 0 
L 684 0 
L 684 794 
z
" transform="scale(0.015625)"/>
        <path id="DejaVuSans-31" d="M 794 531 
L 1825 531 
L 1825 4091 
L 703 3866 
L 703 4441 
L 1819 4666 
L 2450 4666 
L 2450 531 
L 3481 531 
L 3481 0 
L 794 0 
L 794 531 
z
" transform="scale(0.015625)"/>
       </defs>
       <use xlink:href="#DejaVuSans-30"/>
       <use xlink:href="#DejaVuSans-2e" x="63.623047"/>
       <use xlink:href="#DejaVuSans-30" x="95.410156"/>
       <use xlink:href="#DejaVuSans-31" x="159.033203"/>
       <use xlink:href="#DejaVuSans-30" x="222.65625"/>
      </g>
     </g>
    </g>
    <g id="xtick_2">
     <g id="line2d_2">
      <g>
       <use xlink:href="#m1b377f85d0" x="92.614431" y="171.16" style="stroke: #000000; stroke-width: 0.8"/>
      </g>
     </g>
     <g id="text_2">
      <!-- 0.011 -->
      <g transform="translate(78.300368 185.758437) scale(0.1 -0.1)">
       <use xlink:href="#DejaVuSans-30"/>
       <use xlink:href="#DejaVuSans-2e" x="63.623047"/>
       <use xlink:href="#DejaVuSans-30" x="95.410156"/>
       <use xlink:href="#DejaVuSans-31" x="159.033203"/>
       <use xlink:href="#DejaVuSans-31" x="222.65625"/>
      </g>
     </g>
    </g>
    <g id="xtick_3">
     <g id="line2d_3">
      <g>
       <use xlink:href="#m1b377f85d0" x="126.28785" y="171.16" style="stroke: #000000; stroke-width: 0.8"/>
      </g>
     </g>
     <g id="text_3">
      <!-- 0.012 -->
      <g transform="translate(111.973787 185.758437) scale(0.1 -0.1)">
       <defs>
        <path id="DejaVuSans-32" d="M 1228 531 
L 3431 531 
L 3431 0 
L 469 0 
L 469 531 
Q 828 903 1448 1529 
Q 2069 2156 2228 2338 
Q 2531 2678 2651 2914 
Q 2772 3150 2772 3378 
Q 2772 3750 2511 3984 
Q 2250 4219 1831 4219 
Q 1534 4219 1204 4116 
Q 875 4013 500 3803 
L 500 4441 
Q 881 4594 1212 4672 
Q 1544 4750 1819 4750 
Q 2544 4750 2975 4387 
Q 3406 4025 3406 3419 
Q 3406 3131 3298 2873 
Q 3191 2616 2906 2266 
Q 2828 2175 2409 1742 
Q 1991 1309 1228 531 
z
" transform="scale(0.015625)"/>
       </defs>
       <use xlink:href="#DejaVuSans-30"/>
       <use xlink:href="#DejaVuSans-2e" x="63.623047"/>
       <use xlink:href="#DejaVuSans-30" x="95.410156"/>
       <use xlink:href="#DejaVuSans-31" x="159.033203"/>
       <use xlink:href="#DejaVuSans-32" x="222.65625"/>
      </g>
     </g>
    </g>
    <g id="xtick_4">
     <g id="line2d_4">
      <g>
       <use xlink:href="#m1b377f85d0" x="159.961269" y="171.16" style="stroke: #000000; stroke-width: 0.8"/>
      </g>
     </g>
     <g id="text_4">
      <!-- 0.013 -->
      <g transform="translate(145.647206 185.758437) scale(0.1 -0.1)">
       <defs>
        <path id="DejaVuSans-33" d="M 2597 2516 
Q 3050 2419 3304 2112 
Q 3559 1806 3559 1356 
Q 3559 666 3084 287 
Q 2609 -91 1734 -91 
Q 1441 -91 1130 -33 
Q 819 25 488 141 
L 488 750 
Q 750 597 1062 519 
Q 1375 441 1716 441 
Q 2309 441 2620 675 
Q 2931 909 2931 1356 
Q 2931 1769 2642 2001 
Q 2353 2234 1838 2234 
L 1294 2234 
L 1294 2753 
L 1863 2753 
Q 2328 2753 2575 2939 
Q 2822 3125 2822 3475 
Q 2822 3834 2567 4026 
Q 2313 4219 1838 4219 
Q 1578 4219 1281 4162 
Q 984 4106 628 3988 
L 628 4550 
Q 988 4650 1302 4700 
Q 1616 4750 1894 4750 
Q 2613 4750 3031 4423 
Q 3450 4097 3450 3541 
Q 3450 3153 3228 2886 
Q 3006 2619 2597 2516 
z
" transform="scale(0.015625)"/>
       </defs>
       <use xlink:href="#DejaVuSans-30"/>
       <use xlink:href="#DejaVuSans-2e" x="63.623047"/>
       <use xlink:href="#DejaVuSans-30" x="95.410156"/>
       <use xlink:href="#DejaVuSans-31" x="159.033203"/>
       <use xlink:href="#DejaVuSans-33" x="222.65625"/>
      </g>
     </g>
    </g>
    <g id="xtick_5">
     <g id="line2d_5">
      <g>
       <use xlink:href="#m1b377f85d0" x="193.634688" y="171.16" style="stroke: #000000; stroke-width: 0.8"/>
      </g>
     </g>
     <g id="text_5">
      <!-- 0.014 -->
      <g transform="translate(179.320625 185.758437) scale(0.1 -0.1)">
       <defs>
        <path id="DejaVuSans-34" d="M 2419 4116 
L 825 1625 
L 2419 1625 
L 2419 4116 
z
M 2253 4666 
L 3047 4666 
L 3047 1625 
L 3713 1625 
L 3713 1100 
L 3047 1100 
L 3047 0 
L 2419 0 
L 2419 1100 
L 313 1100 
L 313 1709 
L 2253 4666 
z
" transform="scale(0.015625)"/>
       </defs>
       <use xlink:href="#DejaVuSans-30"/>
       <use xlink:href="#DejaVuSans-2e" x="63.623047"/>
       <use xlink:href="#DejaVuSans-30" x="95.410156"/>
       <use xlink:href="#DejaVuSans-31" x="159.033203"/>
       <use xlink:href="#DejaVuSans-34" x="222.65625"/>
      </g>
     </g>
    </g>
    <g id="text_6">
     <!-- Calibration Error -->
     <g transform="translate(76.898253 200.95625) scale(0.12 -0.12)">
      <defs>
       <path id="DejaVuSans-43" d="M 4122 4306 
L 4122 3641 
Q 3803 3938 3442 4084 
Q 3081 4231 2675 4231 
Q 1875 4231 1450 3742 
Q 1025 3253 1025 2328 
Q 1025 1406 1450 917 
Q 1875 428 2675 428 
Q 3081 428 3442 575 
Q 3803 722 4122 1019 
L 4122 359 
Q 3791 134 3420 21 
Q 3050 -91 2638 -91 
Q 1578 -91 968 557 
Q 359 1206 359 2328 
Q 359 3453 968 4101 
Q 1578 4750 2638 4750 
Q 3056 4750 3426 4639 
Q 3797 4528 4122 4306 
z
" transform="scale(0.015625)"/>
       <path id="DejaVuSans-61" d="M 2194 1759 
Q 1497 1759 1228 1600 
Q 959 1441 959 1056 
Q 959 750 1161 570 
Q 1363 391 1709 391 
Q 2188 391 2477 730 
Q 2766 1069 2766 1631 
L 2766 1759 
L 2194 1759 
z
M 3341 1997 
L 3341 0 
L 2766 0 
L 2766 531 
Q 2569 213 2275 61 
Q 1981 -91 1556 -91 
Q 1019 -91 701 211 
Q 384 513 384 1019 
Q 384 1609 779 1909 
Q 1175 2209 1959 2209 
L 2766 2209 
L 2766 2266 
Q 2766 2663 2505 2880 
Q 2244 3097 1772 3097 
Q 1472 3097 1187 3025 
Q 903 2953 641 2809 
L 641 3341 
Q 956 3463 1253 3523 
Q 1550 3584 1831 3584 
Q 2591 3584 2966 3190 
Q 3341 2797 3341 1997 
z
" transform="scale(0.015625)"/>
       <path id="DejaVuSans-6c" d="M 603 4863 
L 1178 4863 
L 1178 0 
L 603 0 
L 603 4863 
z
" transform="scale(0.015625)"/>
       <path id="DejaVuSans-69" d="M 603 3500 
L 1178 3500 
L 1178 0 
L 603 0 
L 603 3500 
z
M 603 4863 
L 1178 4863 
L 1178 4134 
L 603 4134 
L 603 4863 
z
" transform="scale(0.015625)"/>
       <path id="DejaVuSans-62" d="M 3116 1747 
Q 3116 2381 2855 2742 
Q 2594 3103 2138 3103 
Q 1681 3103 1420 2742 
Q 1159 2381 1159 1747 
Q 1159 1113 1420 752 
Q 1681 391 2138 391 
Q 2594 391 2855 752 
Q 3116 1113 3116 1747 
z
M 1159 2969 
Q 1341 3281 1617 3432 
Q 1894 3584 2278 3584 
Q 2916 3584 3314 3078 
Q 3713 2572 3713 1747 
Q 3713 922 3314 415 
Q 2916 -91 2278 -91 
Q 1894 -91 1617 61 
Q 1341 213 1159 525 
L 1159 0 
L 581 0 
L 581 4863 
L 1159 4863 
L 1159 2969 
z
" transform="scale(0.015625)"/>
       <path id="DejaVuSans-72" d="M 2631 2963 
Q 2534 3019 2420 3045 
Q 2306 3072 2169 3072 
Q 1681 3072 1420 2755 
Q 1159 2438 1159 1844 
L 1159 0 
L 581 0 
L 581 3500 
L 1159 3500 
L 1159 2956 
Q 1341 3275 1631 3429 
Q 1922 3584 2338 3584 
Q 2397 3584 2469 3576 
Q 2541 3569 2628 3553 
L 2631 2963 
z
" transform="scale(0.015625)"/>
       <path id="DejaVuSans-74" d="M 1172 4494 
L 1172 3500 
L 2356 3500 
L 2356 3053 
L 1172 3053 
L 1172 1153 
Q 1172 725 1289 603 
Q 1406 481 1766 481 
L 2356 481 
L 2356 0 
L 1766 0 
Q 1100 0 847 248 
Q 594 497 594 1153 
L 594 3053 
L 172 3053 
L 172 3500 
L 594 3500 
L 594 4494 
L 1172 4494 
z
" transform="scale(0.015625)"/>
       <path id="DejaVuSans-6f" d="M 1959 3097 
Q 1497 3097 1228 2736 
Q 959 2375 959 1747 
Q 959 1119 1226 758 
Q 1494 397 1959 397 
Q 2419 397 2687 759 
Q 2956 1122 2956 1747 
Q 2956 2369 2687 2733 
Q 2419 3097 1959 3097 
z
M 1959 3584 
Q 2709 3584 3137 3096 
Q 3566 2609 3566 1747 
Q 3566 888 3137 398 
Q 2709 -91 1959 -91 
Q 1206 -91 779 398 
Q 353 888 353 1747 
Q 353 2609 779 3096 
Q 1206 3584 1959 3584 
z
" transform="scale(0.015625)"/>
       <path id="DejaVuSans-6e" d="M 3513 2113 
L 3513 0 
L 2938 0 
L 2938 2094 
Q 2938 2591 2744 2837 
Q 2550 3084 2163 3084 
Q 1697 3084 1428 2787 
Q 1159 2491 1159 1978 
L 1159 0 
L 581 0 
L 581 3500 
L 1159 3500 
L 1159 2956 
Q 1366 3272 1645 3428 
Q 1925 3584 2291 3584 
Q 2894 3584 3203 3211 
Q 3513 2838 3513 2113 
z
" transform="scale(0.015625)"/>
       <path id="DejaVuSans-20" transform="scale(0.015625)"/>
       <path id="DejaVuSans-45" d="M 628 4666 
L 3578 4666 
L 3578 4134 
L 1259 4134 
L 1259 2753 
L 3481 2753 
L 3481 2222 
L 1259 2222 
L 1259 531 
L 3634 531 
L 3634 0 
L 628 0 
L 628 4666 
z
" transform="scale(0.015625)"/>
      </defs>
      <use xlink:href="#DejaVuSans-43"/>
      <use xlink:href="#DejaVuSans-61" x="69.824219"/>
      <use xlink:href="#DejaVuSans-6c" x="131.103516"/>
      <use xlink:href="#DejaVuSans-69" x="158.886719"/>
      <use xlink:href="#DejaVuSans-62" x="186.669922"/>
      <use xlink:href="#DejaVuSans-72" x="250.146484"/>
      <use xlink:href="#DejaVuSans-61" x="291.259766"/>
      <use xlink:href="#DejaVuSans-74" x="352.539062"/>
      <use xlink:href="#DejaVuSans-69" x="391.748047"/>
      <use xlink:href="#DejaVuSans-6f" x="419.53125"/>
      <use xlink:href="#DejaVuSans-6e" x="480.712891"/>
      <use xlink:href="#DejaVuSans-20" x="544.091797"/>
      <use xlink:href="#DejaVuSans-45" x="575.878906"/>
      <use xlink:href="#DejaVuSans-72" x="639.0625"/>
      <use xlink:href="#DejaVuSans-72" x="678.425781"/>
      <use xlink:href="#DejaVuSans-6f" x="717.289062"/>
      <use xlink:href="#DejaVuSans-72" x="778.470703"/>
     </g>
    </g>
   </g>
   <g id="matplotlib.axis_2">
    <g id="ytick_1">
     <g id="line2d_6">
      <defs>
       <path id="mb85e9841e1" d="M 0 0 
L -3.5 0 
" style="stroke: #000000; stroke-width: 0.8"/>
      </defs>
      <g>
       <use xlink:href="#mb85e9841e1" x="46.262" y="164.019243" style="stroke: #000000; stroke-width: 0.8"/>
      </g>
     </g>
     <g id="text_7">
      <!-- 0 -->
      <g transform="translate(32.8995 167.818462) scale(0.1 -0.1)">
       <use xlink:href="#DejaVuSans-30"/>
      </g>
     </g>
    </g>
    <g id="ytick_2">
     <g id="line2d_7">
      <g>
       <use xlink:href="#mb85e9841e1" x="46.262" y="121.362707" style="stroke: #000000; stroke-width: 0.8"/>
      </g>
     </g>
     <g id="text_8">
      <!-- 2 -->
      <g transform="translate(32.8995 125.161926) scale(0.1 -0.1)">
       <use xlink:href="#DejaVuSans-32"/>
      </g>
     </g>
    </g>
    <g id="ytick_3">
     <g id="line2d_8">
      <g>
       <use xlink:href="#mb85e9841e1" x="46.262" y="78.706171" style="stroke: #000000; stroke-width: 0.8"/>
      </g>
     </g>
     <g id="text_9">
      <!-- 4 -->
      <g transform="translate(32.8995 82.50539) scale(0.1 -0.1)">
       <use xlink:href="#DejaVuSans-34"/>
      </g>
     </g>
    </g>
    <g id="ytick_4">
     <g id="line2d_9">
      <g>
       <use xlink:href="#mb85e9841e1" x="46.262" y="36.049635" style="stroke: #000000; stroke-width: 0.8"/>
      </g>
     </g>
     <g id="text_10">
      <!-- 6 -->
      <g transform="translate(32.8995 39.848854) scale(0.1 -0.1)">
       <defs>
        <path id="DejaVuSans-36" d="M 2113 2584 
Q 1688 2584 1439 2293 
Q 1191 2003 1191 1497 
Q 1191 994 1439 701 
Q 1688 409 2113 409 
Q 2538 409 2786 701 
Q 3034 994 3034 1497 
Q 3034 2003 2786 2293 
Q 2538 2584 2113 2584 
z
M 3366 4563 
L 3366 3988 
Q 3128 4100 2886 4159 
Q 2644 4219 2406 4219 
Q 1781 4219 1451 3797 
Q 1122 3375 1075 2522 
Q 1259 2794 1537 2939 
Q 1816 3084 2150 3084 
Q 2853 3084 3261 2657 
Q 3669 2231 3669 1497 
Q 3669 778 3244 343 
Q 2819 -91 2113 -91 
Q 1303 -91 875 529 
Q 447 1150 447 2328 
Q 447 3434 972 4092 
Q 1497 4750 2381 4750 
Q 2619 4750 2861 4703 
Q 3103 4656 3366 4563 
z
" transform="scale(0.015625)"/>
       </defs>
       <use xlink:href="#DejaVuSans-36"/>
      </g>
     </g>
    </g>
    <g id="text_11">
     <!-- Model Delta $\|\omega\|_2^2$ -->
     <g transform="translate(25.5395 144.391676) rotate(-90) scale(0.12 -0.12)">
      <defs>
       <path id="DejaVuSans-4d" d="M 628 4666 
L 1569 4666 
L 2759 1491 
L 3956 4666 
L 4897 4666 
L 4897 0 
L 4281 0 
L 4281 4097 
L 3078 897 
L 2444 897 
L 1241 4097 
L 1241 0 
L 628 0 
L 628 4666 
z
" transform="scale(0.015625)"/>
       <path id="DejaVuSans-64" d="M 2906 2969 
L 2906 4863 
L 3481 4863 
L 3481 0 
L 2906 0 
L 2906 525 
Q 2725 213 2448 61 
Q 2172 -91 1784 -91 
Q 1150 -91 751 415 
Q 353 922 353 1747 
Q 353 2572 751 3078 
Q 1150 3584 1784 3584 
Q 2172 3584 2448 3432 
Q 2725 3281 2906 2969 
z
M 947 1747 
Q 947 1113 1208 752 
Q 1469 391 1925 391 
Q 2381 391 2643 752 
Q 2906 1113 2906 1747 
Q 2906 2381 2643 2742 
Q 2381 3103 1925 3103 
Q 1469 3103 1208 2742 
Q 947 2381 947 1747 
z
" transform="scale(0.015625)"/>
       <path id="DejaVuSans-65" d="M 3597 1894 
L 3597 1613 
L 953 1613 
Q 991 1019 1311 708 
Q 1631 397 2203 397 
Q 2534 397 2845 478 
Q 3156 559 3463 722 
L 3463 178 
Q 3153 47 2828 -22 
Q 2503 -91 2169 -91 
Q 1331 -91 842 396 
Q 353 884 353 1716 
Q 353 2575 817 3079 
Q 1281 3584 2069 3584 
Q 2775 3584 3186 3129 
Q 3597 2675 3597 1894 
z
M 3022 2063 
Q 3016 2534 2758 2815 
Q 2500 3097 2075 3097 
Q 1594 3097 1305 2825 
Q 1016 2553 972 2059 
L 3022 2063 
z
" transform="scale(0.015625)"/>
       <path id="DejaVuSans-44" d="M 1259 4147 
L 1259 519 
L 2022 519 
Q 2988 519 3436 956 
Q 3884 1394 3884 2338 
Q 3884 3275 3436 3711 
Q 2988 4147 2022 4147 
L 1259 4147 
z
M 628 4666 
L 1925 4666 
Q 3281 4666 3915 4102 
Q 4550 3538 4550 2338 
Q 4550 1131 3912 565 
Q 3275 0 1925 0 
L 628 0 
L 628 4666 
z
" transform="scale(0.015625)"/>
       <path id="DejaVuSans-2016" d="M 1344 4891 
L 1344 -1509 
L 813 -1509 
L 813 4891 
L 1344 4891 
z
M 2376 4891 
L 2376 -1509 
L 1845 -1509 
L 1845 4891 
L 2376 4891 
z
" transform="scale(0.015625)"/>
       <path id="DejaVuSans-Oblique-3c9" d="M 1369 -91 
Q 72 -91 434 1766 
Q 575 2500 1256 3500 
L 1875 3500 
Q 1231 2500 1088 1750 
Q 819 397 1519 397 
Q 2166 397 2478 2078 
L 3009 2078 
Q 2669 388 3316 397 
Q 4013 403 4275 1750 
Q 4419 2500 4169 3500 
L 4788 3500 
Q 5075 2500 4934 1766 
Q 4578 -94 3278 -91 
Q 2428 -88 2503 844 
Q 2194 -91 1369 -91 
z
" transform="scale(0.015625)"/>
      </defs>
      <use xlink:href="#DejaVuSans-4d" transform="translate(0 0.765625)"/>
      <use xlink:href="#DejaVuSans-6f" transform="translate(86.279297 0.765625)"/>
      <use xlink:href="#DejaVuSans-64" transform="translate(147.460938 0.765625)"/>
      <use xlink:href="#DejaVuSans-65" transform="translate(210.9375 0.765625)"/>
      <use xlink:href="#DejaVuSans-6c" transform="translate(272.460938 0.765625)"/>
      <use xlink:href="#DejaVuSans-20" transform="translate(300.244141 0.765625)"/>
      <use xlink:href="#DejaVuSans-44" transform="translate(332.03125 0.765625)"/>
      <use xlink:href="#DejaVuSans-65" transform="translate(409.033203 0.765625)"/>
      <use xlink:href="#DejaVuSans-6c" transform="translate(470.556641 0.765625)"/>
      <use xlink:href="#DejaVuSans-74" transform="translate(498.339844 0.765625)"/>
      <use xlink:href="#DejaVuSans-61" transform="translate(537.548828 0.765625)"/>
      <use xlink:href="#DejaVuSans-20" transform="translate(598.828125 0.765625)"/>
      <use xlink:href="#DejaVuSans-2016" transform="translate(630.615234 0.765625)"/>
      <use xlink:href="#DejaVuSans-Oblique-3c9" transform="translate(680.615234 0.765625)"/>
      <use xlink:href="#DejaVuSans-2016" transform="translate(764.355469 0.765625)"/>
      <use xlink:href="#DejaVuSans-32" transform="translate(815.3125 39.046875) scale(0.7)"/>
      <use xlink:href="#DejaVuSans-32" transform="translate(815.3125 -26.578125) scale(0.7)"/>
     </g>
    </g>
   </g>
   <g id="patch_3">
    <path d="M 46.262 171.16 
L 46.262 14.063351 
" style="fill: none; stroke: #000000; stroke-width: 0.8; stroke-linejoin: miter; stroke-linecap: square"/>
   </g>
   <g id="patch_4">
    <path d="M 205.883881 171.16 
L 205.883881 14.063351 
" style="fill: none; stroke: #000000; stroke-width: 0.8; stroke-linejoin: miter; stroke-linecap: square"/>
   </g>
   <g id="patch_5">
    <path d="M 46.262 171.16 
L 205.883881 171.16 
" style="fill: none; stroke: #000000; stroke-width: 0.8; stroke-linejoin: miter; stroke-linecap: square"/>
   </g>
   <g id="patch_6">
    <path d="M 46.262 14.063351 
L 205.883881 14.063351 
" style="fill: none; stroke: #000000; stroke-width: 0.8; stroke-linejoin: miter; stroke-linecap: square"/>
   </g>
   <g id="legend_1">
    <g id="patch_7">
     <path d="M 50.262 107.132101 
L 127.913563 107.132101 
Q 129.913563 107.132101 129.913563 105.132101 
L 129.913563 18.063351 
Q 129.913563 16.063351 127.913563 16.063351 
L 50.262 16.063351 
Q 48.262 16.063351 48.262 18.063351 
L 48.262 105.132101 
Q 48.262 107.132101 50.262 107.132101 
z
" style="fill: #ffffff; opacity: 0.8; stroke: #cccccc; stroke-linejoin: miter"/>
    </g>
    <g id="text_12">
     <!-- Method -->
     <g transform="translate(70.334656 27.661789) scale(0.1 -0.1)">
      <defs>
       <path id="DejaVuSans-68" d="M 3513 2113 
L 3513 0 
L 2938 0 
L 2938 2094 
Q 2938 2591 2744 2837 
Q 2550 3084 2163 3084 
Q 1697 3084 1428 2787 
Q 1159 2491 1159 1978 
L 1159 0 
L 581 0 
L 581 4863 
L 1159 4863 
L 1159 2956 
Q 1366 3272 1645 3428 
Q 1925 3584 2291 3584 
Q 2894 3584 3203 3211 
Q 3513 2838 3513 2113 
z
" transform="scale(0.015625)"/>
      </defs>
      <use xlink:href="#DejaVuSans-4d"/>
      <use xlink:href="#DejaVuSans-65" x="86.279297"/>
      <use xlink:href="#DejaVuSans-74" x="147.802734"/>
      <use xlink:href="#DejaVuSans-68" x="187.011719"/>
      <use xlink:href="#DejaVuSans-6f" x="250.390625"/>
      <use xlink:href="#DejaVuSans-64" x="311.572266"/>
     </g>
    </g>
    <g id="PathCollection_7">
     <defs>
      <path id="md1432d9954" d="M 0 -3 
L -0.673542 -0.927051 
L -2.85317 -0.927051 
L -1.089814 0.354102 
L -1.763356 2.427051 
L -0 1.145898 
L 1.763356 2.427051 
L 1.089814 0.354102 
L 2.85317 -0.927051 
L 0.673542 -0.927051 
z
" style="stroke: #1f77b4"/>
     </defs>
     <g>
      <use xlink:href="#md1432d9954" x="62.262" y="39.714914" style="fill: #1f77b4; stroke: #1f77b4"/>
     </g>
    </g>
    <g id="text_13">
     <!-- No adapt -->
     <g transform="translate(80.262 42.339914) scale(0.1 -0.1)">
      <defs>
       <path id="DejaVuSans-4e" d="M 628 4666 
L 1478 4666 
L 3547 763 
L 3547 4666 
L 4159 4666 
L 4159 0 
L 3309 0 
L 1241 3903 
L 1241 0 
L 628 0 
L 628 4666 
z
" transform="scale(0.015625)"/>
       <path id="DejaVuSans-70" d="M 1159 525 
L 1159 -1331 
L 581 -1331 
L 581 3500 
L 1159 3500 
L 1159 2969 
Q 1341 3281 1617 3432 
Q 1894 3584 2278 3584 
Q 2916 3584 3314 3078 
Q 3713 2572 3713 1747 
Q 3713 922 3314 415 
Q 2916 -91 2278 -91 
Q 1894 -91 1617 61 
Q 1341 213 1159 525 
z
M 3116 1747 
Q 3116 2381 2855 2742 
Q 2594 3103 2138 3103 
Q 1681 3103 1420 2742 
Q 1159 2381 1159 1747 
Q 1159 1113 1420 752 
Q 1681 391 2138 391 
Q 2594 391 2855 752 
Q 3116 1113 3116 1747 
z
" transform="scale(0.015625)"/>
      </defs>
      <use xlink:href="#DejaVuSans-4e"/>
      <use xlink:href="#DejaVuSans-6f" x="74.804688"/>
      <use xlink:href="#DejaVuSans-20" x="135.986328"/>
      <use xlink:href="#DejaVuSans-61" x="167.773438"/>
      <use xlink:href="#DejaVuSans-64" x="229.052734"/>
      <use xlink:href="#DejaVuSans-61" x="292.529297"/>
      <use xlink:href="#DejaVuSans-70" x="353.808594"/>
      <use xlink:href="#DejaVuSans-74" x="417.285156"/>
     </g>
    </g>
    <g id="PathCollection_8">
     <defs>
      <path id="m24a465e57c" d="M 0 -3 
L -0.673542 -0.927051 
L -2.85317 -0.927051 
L -1.089814 0.354102 
L -1.763356 2.427051 
L -0 1.145898 
L 1.763356 2.427051 
L 1.089814 0.354102 
L 2.85317 -0.927051 
L 0.673542 -0.927051 
z
" style="stroke: #ff7f0e"/>
     </defs>
     <g>
      <use xlink:href="#m24a465e57c" x="62.262" y="54.393039" style="fill: #ff7f0e; stroke: #ff7f0e"/>
     </g>
    </g>
    <g id="text_14">
     <!-- Tent -->
     <g transform="translate(80.262 57.018039) scale(0.1 -0.1)">
      <defs>
       <path id="DejaVuSans-54" d="M -19 4666 
L 3928 4666 
L 3928 4134 
L 2272 4134 
L 2272 0 
L 1638 0 
L 1638 4134 
L -19 4134 
L -19 4666 
z
" transform="scale(0.015625)"/>
      </defs>
      <use xlink:href="#DejaVuSans-54"/>
      <use xlink:href="#DejaVuSans-65" x="44.083984"/>
      <use xlink:href="#DejaVuSans-6e" x="105.607422"/>
      <use xlink:href="#DejaVuSans-74" x="168.986328"/>
     </g>
    </g>
    <g id="PathCollection_9">
     <defs>
      <path id="mdcc6be3102" d="M 0 -3 
L -0.673542 -0.927051 
L -2.85317 -0.927051 
L -1.089814 0.354102 
L -1.763356 2.427051 
L -0 1.145898 
L 1.763356 2.427051 
L 1.089814 0.354102 
L 2.85317 -0.927051 
L 0.673542 -0.927051 
z
" style="stroke: #2ca02c"/>
     </defs>
     <g>
      <use xlink:href="#mdcc6be3102" x="62.262" y="69.071164" style="fill: #2ca02c; stroke: #2ca02c"/>
     </g>
    </g>
    <g id="text_15">
     <!-- Eata -->
     <g transform="translate(80.262 71.696164) scale(0.1 -0.1)">
      <use xlink:href="#DejaVuSans-45"/>
      <use xlink:href="#DejaVuSans-61" x="63.183594"/>
      <use xlink:href="#DejaVuSans-74" x="124.462891"/>
      <use xlink:href="#DejaVuSans-61" x="163.671875"/>
     </g>
    </g>
    <g id="PathCollection_10">
     <defs>
      <path id="mcbeb7293e2" d="M 0 -3 
L -0.673542 -0.927051 
L -2.85317 -0.927051 
L -1.089814 0.354102 
L -1.763356 2.427051 
L -0 1.145898 
L 1.763356 2.427051 
L 1.089814 0.354102 
L 2.85317 -0.927051 
L 0.673542 -0.927051 
z
" style="stroke: #d62728"/>
     </defs>
     <g>
      <use xlink:href="#mcbeb7293e2" x="62.262" y="83.749289" style="fill: #d62728; stroke: #d62728"/>
     </g>
    </g>
    <g id="text_16">
     <!-- Sar -->
     <g transform="translate(80.262 86.374289) scale(0.1 -0.1)">
      <defs>
       <path id="DejaVuSans-53" d="M 3425 4513 
L 3425 3897 
Q 3066 4069 2747 4153 
Q 2428 4238 2131 4238 
Q 1616 4238 1336 4038 
Q 1056 3838 1056 3469 
Q 1056 3159 1242 3001 
Q 1428 2844 1947 2747 
L 2328 2669 
Q 3034 2534 3370 2195 
Q 3706 1856 3706 1288 
Q 3706 609 3251 259 
Q 2797 -91 1919 -91 
Q 1588 -91 1214 -16 
Q 841 59 441 206 
L 441 856 
Q 825 641 1194 531 
Q 1563 422 1919 422 
Q 2459 422 2753 634 
Q 3047 847 3047 1241 
Q 3047 1584 2836 1778 
Q 2625 1972 2144 2069 
L 1759 2144 
Q 1053 2284 737 2584 
Q 422 2884 422 3419 
Q 422 4038 858 4394 
Q 1294 4750 2059 4750 
Q 2388 4750 2728 4690 
Q 3069 4631 3425 4513 
z
" transform="scale(0.015625)"/>
      </defs>
      <use xlink:href="#DejaVuSans-53"/>
      <use xlink:href="#DejaVuSans-61" x="63.476562"/>
      <use xlink:href="#DejaVuSans-72" x="124.755859"/>
     </g>
    </g>
    <g id="PathCollection_11">
     <defs>
      <path id="m413435b966" d="M 0 -3 
L -0.673542 -0.927051 
L -2.85317 -0.927051 
L -1.089814 0.354102 
L -1.763356 2.427051 
L -0 1.145898 
L 1.763356 2.427051 
L 1.089814 0.354102 
L 2.85317 -0.927051 
L 0.673542 -0.927051 
z
" style="stroke: #9467bd"/>
     </defs>
     <g>
      <use xlink:href="#m413435b966" x="62.262" y="98.427414" style="fill: #9467bd; stroke: #9467bd"/>
     </g>
    </g>
    <g id="text_17">
     <!-- Pem -->
     <g transform="translate(80.262 101.052414) scale(0.1 -0.1)">
      <defs>
       <path id="DejaVuSans-50" d="M 1259 4147 
L 1259 2394 
L 2053 2394 
Q 2494 2394 2734 2622 
Q 2975 2850 2975 3272 
Q 2975 3691 2734 3919 
Q 2494 4147 2053 4147 
L 1259 4147 
z
M 628 4666 
L 2053 4666 
Q 2838 4666 3239 4311 
Q 3641 3956 3641 3272 
Q 3641 2581 3239 2228 
Q 2838 1875 2053 1875 
L 1259 1875 
L 1259 0 
L 628 0 
L 628 4666 
z
" transform="scale(0.015625)"/>
       <path id="DejaVuSans-6d" d="M 3328 2828 
Q 3544 3216 3844 3400 
Q 4144 3584 4550 3584 
Q 5097 3584 5394 3201 
Q 5691 2819 5691 2113 
L 5691 0 
L 5113 0 
L 5113 2094 
Q 5113 2597 4934 2840 
Q 4756 3084 4391 3084 
Q 3944 3084 3684 2787 
Q 3425 2491 3425 1978 
L 3425 0 
L 2847 0 
L 2847 2094 
Q 2847 2600 2669 2842 
Q 2491 3084 2119 3084 
Q 1678 3084 1418 2786 
Q 1159 2488 1159 1978 
L 1159 0 
L 581 0 
L 581 3500 
L 1159 3500 
L 1159 2956 
Q 1356 3278 1631 3431 
Q 1906 3584 2284 3584 
Q 2666 3584 2933 3390 
Q 3200 3197 3328 2828 
z
" transform="scale(0.015625)"/>
      </defs>
      <use xlink:href="#DejaVuSans-50"/>
      <use xlink:href="#DejaVuSans-65" x="56.677734"/>
      <use xlink:href="#DejaVuSans-6d" x="118.201172"/>
     </g>
    </g>
   </g>
  </g>
  <g id="axes_2">
   <g id="patch_8">
    <path d="M 258.365841 171.16 
L 700.792844 171.16 
L 700.792844 14.063351 
L 258.365841 14.063351 
z
" style="fill: #ffffff"/>
   </g>
   <g id="PolyCollection_1">
    <defs>
     <path id="me1074dd964" d="M 260.783475 -52.146821 
L 260.783475 -52.146821 
L 263.201109 -65.885537 
L 265.618743 -72.331692 
L 268.036377 -77.585157 
L 270.454011 -82.08389 
L 272.871644 -85.901492 
L 275.289278 -88.375589 
L 277.706912 -90.051577 
L 280.124546 -92.015191 
L 282.54218 -94.019838 
L 284.959814 -94.73667 
L 287.377448 -95.080213 
L 289.795082 -96.514414 
L 292.212716 -97.021613 
L 294.630349 -96.776385 
L 297.047983 -98.111498 
L 299.465617 -98.519898 
L 301.883251 -98.93279 
L 304.300885 -99.422613 
L 306.718519 -100.886985 
L 309.136153 -101.99868 
L 311.553787 -103.471345 
L 313.971421 -103.592661 
L 316.389055 -104.136942 
L 318.806688 -105.291306 
L 321.224322 -105.340196 
L 323.641956 -105.54551 
L 326.05959 -106.25703 
L 328.477224 -106.909871 
L 330.894858 -106.582714 
L 333.312492 -107.084434 
L 335.730126 -107.718704 
L 338.14776 -108.243042 
L 340.565393 -108.250125 
L 342.983027 -108.507805 
L 345.400661 -108.059298 
L 347.818295 -108.348795 
L 350.235929 -107.814413 
L 352.653563 -107.672745 
L 355.071197 -107.635505 
L 357.488831 -107.365886 
L 359.906465 -107.898928 
L 362.324099 -108.210544 
L 364.741732 -109.105892 
L 367.159366 -109.585718 
L 369.577 -110.012568 
L 371.994634 -109.87485 
L 374.412268 -110.658334 
L 376.829902 -110.57403 
L 379.247536 -111.346911 
L 381.66517 -111.789905 
L 384.082804 -112.047618 
L 386.500437 -112.125061 
L 388.918071 -112.455439 
L 391.335705 -112.487982 
L 393.753339 -112.961483 
L 396.170973 -113.15842 
L 398.588607 -112.662928 
L 401.006241 -112.987685 
L 403.423875 -113.375095 
L 405.841509 -113.624667 
L 408.259143 -114.88351 
L 410.676776 -115.49883 
L 413.09441 -116.654738 
L 415.512044 -117.400233 
L 417.929678 -118.512774 
L 420.347312 -119.216287 
L 422.764946 -119.023349 
L 425.18258 -119.653263 
L 427.600214 -119.879755 
L 430.017848 -120.245889 
L 432.435481 -121.109638 
L 434.853115 -121.503683 
L 437.270749 -121.866884 
L 439.688383 -122.630742 
L 442.106017 -122.74115 
L 444.523651 -123.204445 
L 446.941285 -123.497129 
L 449.358919 -123.678567 
L 451.776553 -123.882803 
L 454.194187 -124.443424 
L 456.61182 -125.771258 
L 459.029454 -127.11298 
L 461.447088 -128.472468 
L 463.864722 -129.769774 
L 466.282356 -131.060852 
L 468.69999 -132.2462 
L 471.117624 -133.38681 
L 473.535258 -134.477655 
L 475.952892 -135.371156 
L 478.370526 -136.125531 
L 480.788159 -137.139648 
L 483.205793 -138.042008 
L 485.623427 -138.849348 
L 488.041061 -139.640776 
L 490.458695 -140.374168 
L 492.876329 -141.334769 
L 495.293963 -142.390092 
L 497.711597 -142.897359 
L 500.129231 -143.765081 
L 502.546864 -144.10913 
L 504.964498 -143.564585 
L 507.382132 -143.706798 
L 509.799766 -143.077201 
L 512.2174 -142.694773 
L 514.635034 -142.283323 
L 517.052668 -142.081638 
L 519.470302 -141.845897 
L 521.887936 -141.928124 
L 524.30557 -141.574131 
L 526.723203 -141.084785 
L 529.140837 -140.775954 
L 531.558471 -140.538916 
L 533.976105 -139.775733 
L 536.393739 -139.237862 
L 538.811373 -139.167572 
L 541.229007 -138.916017 
L 543.646641 -138.565209 
L 546.064275 -138.187104 
L 548.481908 -137.855971 
L 550.899542 -137.312042 
L 553.317176 -136.579321 
L 555.73481 -135.702867 
L 558.152444 -134.778087 
L 560.570078 -133.808414 
L 562.987712 -133.292258 
L 565.405346 -132.376553 
L 567.82298 -131.772167 
L 570.240614 -131.168665 
L 572.658247 -130.084365 
L 575.075881 -129.419796 
L 577.493515 -128.792631 
L 579.911149 -128.074224 
L 582.328783 -127.587503 
L 584.746417 -126.756768 
L 587.164051 -126.20395 
L 589.581685 -125.365976 
L 591.999319 -124.637835 
L 594.416952 -124.277859 
L 596.834586 -123.721098 
L 599.25222 -122.927238 
L 601.669854 -122.147312 
L 604.087488 -121.098499 
L 606.505122 -120.242988 
L 608.922756 -119.199844 
L 611.34039 -118.457739 
L 613.758024 -117.621519 
L 616.175658 -116.929067 
L 618.593291 -116.177138 
L 621.010925 -115.05282 
L 623.428559 -114.116599 
L 625.846193 -113.484134 
L 628.263827 -112.265369 
L 630.681461 -111.333898 
L 633.099095 -110.871647 
L 635.516729 -110.22264 
L 637.934363 -109.638794 
L 640.351996 -108.731799 
L 642.76963 -108.242245 
L 645.187264 -107.538356 
L 647.604898 -106.74215 
L 650.022532 -106.104867 
L 652.440166 -105.396025 
L 654.8578 -104.764536 
L 657.275434 -103.855243 
L 659.693068 -103.466771 
L 662.110702 -102.687345 
L 664.528335 -102.16957 
L 666.945969 -101.600776 
L 669.363603 -100.687405 
L 671.781237 -100.142838 
L 674.198871 -99.498783 
L 676.616505 -98.499246 
L 679.034139 -97.889384 
L 681.451773 -97.361609 
L 683.869407 -96.875849 
L 686.28704 -96.17799 
L 688.704674 -95.147919 
L 691.122308 -94.595428 
L 693.539942 -94.135103 
L 695.957576 -93.672703 
L 695.957576 -95.66129 
L 695.957576 -95.66129 
L 693.539942 -96.303231 
L 691.122308 -97.043379 
L 688.704674 -97.535748 
L 686.28704 -98.467748 
L 683.869407 -99.146408 
L 681.451773 -99.664455 
L 679.034139 -100.193386 
L 676.616505 -101.123779 
L 674.198871 -101.598973 
L 671.781237 -102.347752 
L 669.363603 -103.063364 
L 666.945969 -103.831142 
L 664.528335 -104.34446 
L 662.110702 -104.958418 
L 659.693068 -105.419031 
L 657.275434 -106.249906 
L 654.8578 -106.971191 
L 652.440166 -107.570412 
L 650.022532 -108.51449 
L 647.604898 -109.320162 
L 645.187264 -109.995006 
L 642.76963 -110.674065 
L 640.351996 -111.191457 
L 637.934363 -112.058669 
L 635.516729 -112.772868 
L 633.099095 -113.663654 
L 630.681461 -114.773183 
L 628.263827 -115.442015 
L 625.846193 -116.45579 
L 623.428559 -117.343974 
L 621.010925 -117.869003 
L 618.593291 -118.813586 
L 616.175658 -119.692588 
L 613.758024 -120.296192 
L 611.34039 -121.18481 
L 608.922756 -122.18974 
L 606.505122 -123.126692 
L 604.087488 -124.069569 
L 601.669854 -125.062804 
L 599.25222 -125.910449 
L 596.834586 -126.599058 
L 594.416952 -127.034003 
L 591.999319 -127.26807 
L 589.581685 -128.3153 
L 587.164051 -129.065019 
L 584.746417 -129.465372 
L 582.328783 -130.326002 
L 579.911149 -130.856751 
L 577.493515 -131.572773 
L 575.075881 -132.153894 
L 572.658247 -132.85175 
L 570.240614 -133.682248 
L 567.82298 -134.233062 
L 565.405346 -135.04637 
L 562.987712 -135.582393 
L 560.570078 -136.453376 
L 558.152444 -137.629536 
L 555.73481 -138.772346 
L 553.317176 -139.732853 
L 550.899542 -140.596582 
L 548.481908 -141.007423 
L 546.064275 -141.312088 
L 543.646641 -141.509534 
L 541.229007 -141.755161 
L 538.811373 -141.847666 
L 536.393739 -141.813818 
L 533.976105 -142.385426 
L 531.558471 -142.960297 
L 529.140837 -142.910953 
L 526.723203 -143.122444 
L 524.30557 -143.493448 
L 521.887936 -144.226633 
L 519.470302 -144.371648 
L 517.052668 -144.408932 
L 514.635034 -145.241299 
L 512.2174 -146.116367 
L 509.799766 -146.767483 
L 507.382132 -147.765723 
L 504.964498 -147.385714 
L 502.546864 -147.837501 
L 500.129231 -147.052329 
L 497.711597 -146.38147 
L 495.293963 -145.581373 
L 492.876329 -144.573191 
L 490.458695 -143.909766 
L 488.041061 -143.13779 
L 485.623427 -142.273706 
L 483.205793 -141.480332 
L 480.788159 -140.300699 
L 478.370526 -139.191889 
L 475.952892 -138.488012 
L 473.535258 -137.677385 
L 471.117624 -136.430715 
L 468.69999 -135.059201 
L 466.282356 -133.540922 
L 463.864722 -132.361588 
L 461.447088 -131.037167 
L 459.029454 -129.841703 
L 456.61182 -128.896822 
L 454.194187 -127.658557 
L 451.776553 -127.384949 
L 449.358919 -127.203647 
L 446.941285 -127.267911 
L 444.523651 -127.019248 
L 442.106017 -126.728256 
L 439.688383 -126.42495 
L 437.270749 -125.942358 
L 434.853115 -125.558686 
L 432.435481 -124.902743 
L 430.017848 -124.043764 
L 427.600214 -123.747983 
L 425.18258 -123.355341 
L 422.764946 -122.745774 
L 420.347312 -123.190314 
L 417.929678 -122.23433 
L 415.512044 -121.063022 
L 413.09441 -120.793175 
L 410.676776 -119.743526 
L 408.259143 -119.118363 
L 405.841509 -117.800616 
L 403.423875 -117.472311 
L 401.006241 -117.619335 
L 398.588607 -117.300553 
L 396.170973 -117.649014 
L 393.753339 -117.105144 
L 391.335705 -117.125104 
L 388.918071 -116.730481 
L 386.500437 -116.68794 
L 384.082804 -116.64424 
L 381.66517 -116.673268 
L 379.247536 -116.309553 
L 376.829902 -115.686102 
L 374.412268 -115.57063 
L 371.994634 -115.127379 
L 369.577 -114.887197 
L 367.159366 -114.148043 
L 364.741732 -113.532685 
L 362.324099 -112.877681 
L 359.906465 -112.235216 
L 357.488831 -111.586067 
L 355.071197 -111.711671 
L 352.653563 -112.143954 
L 350.235929 -112.720505 
L 347.818295 -113.52839 
L 345.400661 -113.548043 
L 342.983027 -113.971348 
L 340.565393 -114.096013 
L 338.14776 -114.311305 
L 335.730126 -114.516803 
L 333.312492 -114.854155 
L 330.894858 -114.542195 
L 328.477224 -114.209231 
L 326.05959 -114.307645 
L 323.641956 -113.982649 
L 321.224322 -113.938186 
L 318.806688 -113.481817 
L 316.389055 -112.349547 
L 313.971421 -112.107247 
L 311.553787 -111.61175 
L 309.136153 -110.053041 
L 306.718519 -109.751195 
L 304.300885 -109.018283 
L 301.883251 -108.995394 
L 299.465617 -107.576881 
L 297.047983 -107.420864 
L 294.630349 -106.312297 
L 292.212716 -106.496002 
L 289.795082 -106.441086 
L 287.377448 -104.846217 
L 284.959814 -103.843707 
L 282.54218 -104.109675 
L 280.124546 -102.938897 
L 277.706912 -103.558858 
L 275.289278 -101.315609 
L 272.871644 -98.865044 
L 270.454011 -95.494156 
L 268.036377 -89.656081 
L 265.618743 -84.891604 
L 263.201109 -78.646196 
L 260.783475 -52.146821 
z
" style="stroke: #e41a1c; stroke-opacity: 0.2"/>
    </defs>
    <g clip-path="url(#p3f176ad6cf)">
     <use xlink:href="#me1074dd964" x="0" y="216" style="fill: #e41a1c; fill-opacity: 0.2; stroke: #e41a1c; stroke-opacity: 0.2"/>
    </g>
   </g>
   <g id="PolyCollection_2">
    <defs>
     <path id="mafe7ebc60d" d="M 260.783475 -52.146821 
L 260.783475 -52.146821 
L 263.201109 -101.774739 
L 265.618743 -121.611826 
L 268.036377 -136.380663 
L 270.454011 -148.626231 
L 272.871644 -159.576793 
L 275.289278 -167.768138 
L 277.706912 -175.380829 
L 280.124546 -179.163735 
L 282.54218 -181.567027 
L 284.959814 -181.487765 
L 287.377448 -183.084286 
L 289.795082 -183.127635 
L 292.212716 -182.014824 
L 294.630349 -182.562726 
L 297.047983 -183.125798 
L 299.465617 -181.919463 
L 301.883251 -182.281786 
L 304.300885 -181.328767 
L 306.718519 -181.891314 
L 309.136153 -181.752587 
L 311.553787 -179.931318 
L 313.971421 -177.202646 
L 316.389055 -174.814689 
L 318.806688 -173.311454 
L 321.224322 -171.389206 
L 323.641956 -169.848083 
L 326.05959 -169.125874 
L 328.477224 -168.247102 
L 330.894858 -166.922669 
L 333.312492 -165.00934 
L 335.730126 -164.408954 
L 338.14776 -163.924512 
L 340.565393 -163.179937 
L 342.983027 -162.191263 
L 345.400661 -161.339703 
L 347.818295 -160.275495 
L 350.235929 -158.943769 
L 352.653563 -158.027621 
L 355.071197 -157.249814 
L 357.488831 -156.239398 
L 359.906465 -154.757985 
L 362.324099 -153.21108 
L 364.741732 -151.850523 
L 367.159366 -150.801961 
L 369.577 -149.302602 
L 371.994634 -147.142965 
L 374.412268 -146.409826 
L 376.829902 -145.009331 
L 379.247536 -144.12873 
L 381.66517 -143.36543 
L 384.082804 -142.568687 
L 386.500437 -141.411814 
L 388.918071 -140.779915 
L 391.335705 -139.483693 
L 393.753339 -138.89687 
L 396.170973 -138.259222 
L 398.588607 -137.217203 
L 401.006241 -136.853502 
L 403.423875 -136.217067 
L 405.841509 -135.593506 
L 408.259143 -134.563519 
L 410.676776 -133.388577 
L 413.09441 -132.42407 
L 415.512044 -131.493784 
L 417.929678 -130.736298 
L 420.347312 -129.618776 
L 422.764946 -128.087103 
L 425.18258 -126.976571 
L 427.600214 -126.128256 
L 430.017848 -125.099219 
L 432.435481 -124.398749 
L 434.853115 -123.691092 
L 437.270749 -122.618431 
L 439.688383 -122.03538 
L 442.106017 -121.022738 
L 444.523651 -120.123013 
L 446.941285 -119.259376 
L 449.358919 -118.511481 
L 451.776553 -117.69946 
L 454.194187 -117.05284 
L 456.61182 -116.175671 
L 459.029454 -115.361133 
L 461.447088 -114.370765 
L 463.864722 -113.882582 
L 466.282356 -112.98978 
L 468.69999 -112.265355 
L 471.117624 -111.548175 
L 473.535258 -110.69484 
L 475.952892 -109.899054 
L 478.370526 -108.718713 
L 480.788159 -108.388613 
L 483.205793 -107.385462 
L 485.623427 -106.760108 
L 488.041061 -106.19021 
L 490.458695 -105.383904 
L 492.876329 -104.744219 
L 495.293963 -104.294092 
L 497.711597 -103.456833 
L 500.129231 -102.957333 
L 502.546864 -101.968789 
L 504.964498 -101.369028 
L 507.382132 -101.136231 
L 509.799766 -100.332864 
L 512.2174 -99.952711 
L 514.635034 -99.536874 
L 517.052668 -98.990448 
L 519.470302 -98.694694 
L 521.887936 -98.288435 
L 524.30557 -98.122963 
L 526.723203 -97.46105 
L 529.140837 -97.101777 
L 531.558471 -96.656013 
L 533.976105 -96.213175 
L 536.393739 -95.575157 
L 538.811373 -95.368777 
L 541.229007 -94.960815 
L 543.646641 -94.550921 
L 546.064275 -94.001293 
L 548.481908 -93.721119 
L 550.899542 -93.167644 
L 553.317176 -93.292559 
L 555.73481 -93.131395 
L 558.152444 -93.037874 
L 560.570078 -92.819896 
L 562.987712 -92.93352 
L 565.405346 -92.722124 
L 567.82298 -92.715467 
L 570.240614 -92.866376 
L 572.658247 -92.614317 
L 575.075881 -92.5483 
L 577.493515 -92.637095 
L 579.911149 -92.494039 
L 582.328783 -92.592434 
L 584.746417 -92.362396 
L 587.164051 -92.332813 
L 589.581685 -92.145023 
L 591.999319 -91.908123 
L 594.416952 -91.997727 
L 596.834586 -92.026654 
L 599.25222 -91.894524 
L 601.669854 -92.183112 
L 604.087488 -92.601178 
L 606.505122 -92.771489 
L 608.922756 -93.150893 
L 611.34039 -93.370573 
L 613.758024 -93.654752 
L 616.175658 -93.858606 
L 618.593291 -94.113492 
L 621.010925 -94.159541 
L 623.428559 -94.488304 
L 625.846193 -94.523243 
L 628.263827 -94.471423 
L 630.681461 -94.629449 
L 633.099095 -94.931128 
L 635.516729 -95.047943 
L 637.934363 -95.297071 
L 640.351996 -95.391777 
L 642.76963 -95.778943 
L 645.187264 -95.961689 
L 647.604898 -96.168006 
L 650.022532 -97.055185 
L 652.440166 -97.955717 
L 654.8578 -98.883265 
L 657.275434 -99.870958 
L 659.693068 -100.547555 
L 662.110702 -101.274307 
L 664.528335 -102.054936 
L 666.945969 -102.877051 
L 669.363603 -103.470209 
L 671.781237 -104.324753 
L 674.198871 -104.861257 
L 676.616505 -105.668939 
L 679.034139 -106.325551 
L 681.451773 -106.833476 
L 683.869407 -107.672222 
L 686.28704 -108.387609 
L 688.704674 -108.896202 
L 691.122308 -109.633766 
L 693.539942 -110.332997 
L 695.957576 -110.863906 
L 695.957576 -113.362298 
L 695.957576 -113.362298 
L 693.539942 -112.836346 
L 691.122308 -112.192184 
L 688.704674 -111.525848 
L 686.28704 -110.957925 
L 683.869407 -110.267871 
L 681.451773 -109.46335 
L 679.034139 -108.936206 
L 676.616505 -108.416228 
L 674.198871 -107.590218 
L 671.781237 -106.979144 
L 669.363603 -106.166332 
L 666.945969 -105.35645 
L 664.528335 -104.599147 
L 662.110702 -103.832487 
L 659.693068 -102.883196 
L 657.275434 -102.376612 
L 654.8578 -101.432602 
L 652.440166 -100.715033 
L 650.022532 -100.103781 
L 647.604898 -99.097236 
L 645.187264 -98.796775 
L 642.76963 -98.541249 
L 640.351996 -98.202746 
L 637.934363 -98.111056 
L 635.516729 -97.811689 
L 633.099095 -97.867225 
L 630.681461 -97.812547 
L 628.263827 -97.493093 
L 625.846193 -97.333358 
L 623.428559 -97.217921 
L 621.010925 -96.96397 
L 618.593291 -96.69207 
L 616.175658 -96.466514 
L 613.758024 -95.925034 
L 611.34039 -95.739519 
L 608.922756 -95.575831 
L 606.505122 -95.180773 
L 604.087488 -95.003632 
L 601.669854 -94.759487 
L 599.25222 -94.282582 
L 596.834586 -94.48698 
L 594.416952 -94.515925 
L 591.999319 -94.337684 
L 589.581685 -94.702308 
L 587.164051 -94.713336 
L 584.746417 -94.833584 
L 582.328783 -94.962232 
L 579.911149 -95.016716 
L 577.493515 -95.180805 
L 575.075881 -95.13434 
L 572.658247 -95.303676 
L 570.240614 -95.546772 
L 567.82298 -95.207493 
L 565.405346 -95.254752 
L 562.987712 -95.330855 
L 560.570078 -95.368872 
L 558.152444 -95.480878 
L 555.73481 -95.782612 
L 553.317176 -95.669849 
L 550.899542 -95.944852 
L 548.481908 -96.444955 
L 546.064275 -96.737638 
L 543.646641 -96.972309 
L 541.229007 -97.498632 
L 538.811373 -97.783565 
L 536.393739 -98.038988 
L 533.976105 -98.60544 
L 531.558471 -99.073375 
L 529.140837 -99.409417 
L 526.723203 -99.863166 
L 524.30557 -100.26793 
L 521.887936 -100.881733 
L 519.470302 -101.099307 
L 517.052668 -101.412114 
L 514.635034 -101.993058 
L 512.2174 -102.80646 
L 509.799766 -103.226819 
L 507.382132 -104.108285 
L 504.964498 -104.217271 
L 502.546864 -104.74074 
L 500.129231 -105.337034 
L 497.711597 -105.873398 
L 495.293963 -106.456713 
L 492.876329 -106.983455 
L 490.458695 -107.678388 
L 488.041061 -108.315305 
L 485.623427 -109.213172 
L 483.205793 -110.033915 
L 480.788159 -110.508906 
L 478.370526 -111.05024 
L 475.952892 -112.073341 
L 473.535258 -113.040572 
L 471.117624 -113.997501 
L 468.69999 -114.664343 
L 466.282356 -115.354844 
L 463.864722 -116.199435 
L 461.447088 -117.160411 
L 459.029454 -117.962969 
L 456.61182 -118.852682 
L 454.194187 -119.692611 
L 451.776553 -120.459273 
L 449.358919 -121.361127 
L 446.941285 -122.301553 
L 444.523651 -123.250081 
L 442.106017 -124.211227 
L 439.688383 -125.145602 
L 437.270749 -125.700463 
L 434.853115 -126.662882 
L 432.435481 -127.208735 
L 430.017848 -127.990925 
L 427.600214 -128.919523 
L 425.18258 -130.082526 
L 422.764946 -131.146227 
L 420.347312 -132.579163 
L 417.929678 -133.613348 
L 415.512044 -134.269369 
L 413.09441 -135.751426 
L 410.676776 -136.701065 
L 408.259143 -138.267114 
L 405.841509 -139.337697 
L 403.423875 -139.734478 
L 401.006241 -140.634006 
L 398.588607 -141.312169 
L 396.170973 -142.467255 
L 393.753339 -142.761294 
L 391.335705 -143.794361 
L 388.918071 -144.524641 
L 386.500437 -145.819027 
L 384.082804 -146.723231 
L 381.66517 -147.59876 
L 379.247536 -148.529372 
L 376.829902 -149.146523 
L 374.412268 -150.549126 
L 371.994634 -151.268542 
L 369.577 -152.631669 
L 367.159366 -153.88455 
L 364.741732 -155.342475 
L 362.324099 -156.435355 
L 359.906465 -158.088228 
L 357.488831 -159.599169 
L 355.071197 -160.378559 
L 352.653563 -161.800449 
L 350.235929 -163.262945 
L 347.818295 -163.910208 
L 345.400661 -164.835724 
L 342.983027 -165.634466 
L 340.565393 -166.809421 
L 338.14776 -168.414394 
L 335.730126 -168.523016 
L 333.312492 -169.485171 
L 330.894858 -170.436904 
L 328.477224 -171.687987 
L 326.05959 -172.047296 
L 323.641956 -172.521115 
L 321.224322 -173.681022 
L 318.806688 -175.508641 
L 316.389055 -176.932483 
L 313.971421 -178.628981 
L 311.553787 -181.81223 
L 309.136153 -183.486522 
L 306.718519 -183.011215 
L 304.300885 -183.009586 
L 301.883251 -183.453222 
L 299.465617 -183.519989 
L 297.047983 -183.769523 
L 294.630349 -183.578471 
L 292.212716 -183.523925 
L 289.795082 -183.78068 
L 287.377448 -183.714334 
L 284.959814 -183.233137 
L 282.54218 -183.755973 
L 280.124546 -183.389618 
L 277.706912 -182.470762 
L 275.289278 -175.578943 
L 272.871644 -166.278548 
L 270.454011 -155.088839 
L 268.036377 -142.289232 
L 265.618743 -127.109742 
L 263.201109 -105.712946 
L 260.783475 -52.146821 
z
" style="stroke: #377eb8; stroke-opacity: 0.2"/>
    </defs>
    <g clip-path="url(#p3f176ad6cf)">
     <use xlink:href="#mafe7ebc60d" x="0" y="216" style="fill: #377eb8; fill-opacity: 0.2; stroke: #377eb8; stroke-opacity: 0.2"/>
    </g>
   </g>
   <g id="PolyCollection_3">
    <path d="M 260.783475 163.853179 
L 260.783475 163.853179 
L 309.136153 166.332836 
L 357.488831 164.229334 
L 405.841509 164.795325 
L 454.194187 164.875366 
L 502.546864 165.682361 
L 550.899542 166.290717 
L 599.25222 167.21503 
L 647.604898 165.811247 
L 695.957576 165.909747 
L 744.310254 165.691371 
L 792.662932 164.8956 
L 841.01561 164.82827 
L 889.368288 165.336723 
L 937.720966 165.910725 
L 986.073643 165.122363 
L 1034.426321 165.784403 
L 1082.778999 165.23242 
L 1131.131677 164.708511 
L 1179.484355 165.572503 
L 1227.837033 165.125781 
L 1276.189711 165.224635 
L 1324.542389 165.540163 
L 1372.895067 166.488618 
L 1421.247745 166.367882 
L 1469.600422 166.033314 
L 1517.9531 165.541899 
L 1566.305778 165.058692 
L 1614.658456 164.812426 
L 1663.011134 165.109169 
L 1711.363812 164.371946 
L 1759.71649 163.993917 
L 1808.069168 163.289023 
L 1856.421846 163.445681 
L 1904.774524 163.916037 
L 1953.127201 163.549149 
L 2001.479879 164.00455 
L 2049.832557 164.66338 
L 2049.832557 162.041134 
L 2049.832557 162.041134 
L 2001.479879 161.320153 
L 1953.127201 161.042363 
L 1904.774524 161.519589 
L 1856.421846 161.28395 
L 1808.069168 161.218125 
L 1759.71649 161.190251 
L 1711.363812 161.7851 
L 1663.011134 162.157067 
L 1614.658456 162.455008 
L 1566.305778 163.113009 
L 1517.9531 164.052332 
L 1469.600422 164.845687 
L 1421.247745 165.06211 
L 1372.895067 165.389776 
L 1324.542389 163.952079 
L 1276.189711 163.06853 
L 1227.837033 162.50155 
L 1179.484355 162.972156 
L 1131.131677 162.332947 
L 1082.778999 162.503621 
L 1034.426321 162.577867 
L 986.073643 162.4387 
L 937.720966 163.417911 
L 889.368288 162.97093 
L 841.01561 162.665632 
L 792.662932 161.918353 
L 744.310254 162.153898 
L 695.957576 163.383183 
L 647.604898 163.045482 
L 599.25222 163.02433 
L 550.899542 161.036657 
L 502.546864 161.541096 
L 454.194187 160.511387 
L 405.841509 160.738351 
L 357.488831 159.721206 
L 309.136153 159.800751 
L 260.783475 163.853179 
z
" clip-path="url(#p3f176ad6cf)" style="fill-opacity: 0.2; stroke: #000000; stroke-opacity: 0.2"/>
   </g>
   <g id="matplotlib.axis_3">
    <g id="xtick_6">
     <g id="line2d_10">
      <g>
       <use xlink:href="#m1b377f85d0" x="260.783475" y="171.16" style="stroke: #000000; stroke-width: 0.8"/>
      </g>
     </g>
     <g id="text_18">
      <!-- 0 -->
      <g transform="translate(257.602225 185.758437) scale(0.1 -0.1)">
       <use xlink:href="#DejaVuSans-30"/>
      </g>
     </g>
    </g>
    <g id="xtick_7">
     <g id="line2d_11">
      <g>
       <use xlink:href="#m1b377f85d0" x="309.136153" y="171.16" style="stroke: #000000; stroke-width: 0.8"/>
      </g>
     </g>
     <g id="text_19">
      <!-- 1000 -->
      <g transform="translate(296.411153 185.758437) scale(0.1 -0.1)">
       <use xlink:href="#DejaVuSans-31"/>
       <use xlink:href="#DejaVuSans-30" x="63.623047"/>
       <use xlink:href="#DejaVuSans-30" x="127.246094"/>
       <use xlink:href="#DejaVuSans-30" x="190.869141"/>
      </g>
     </g>
    </g>
    <g id="xtick_8">
     <g id="line2d_12">
      <g>
       <use xlink:href="#m1b377f85d0" x="357.488831" y="171.16" style="stroke: #000000; stroke-width: 0.8"/>
      </g>
     </g>
     <g id="text_20">
      <!-- 2000 -->
      <g transform="translate(344.763831 185.758437) scale(0.1 -0.1)">
       <use xlink:href="#DejaVuSans-32"/>
       <use xlink:href="#DejaVuSans-30" x="63.623047"/>
       <use xlink:href="#DejaVuSans-30" x="127.246094"/>
       <use xlink:href="#DejaVuSans-30" x="190.869141"/>
      </g>
     </g>
    </g>
    <g id="xtick_9">
     <g id="line2d_13">
      <g>
       <use xlink:href="#m1b377f85d0" x="405.841509" y="171.16" style="stroke: #000000; stroke-width: 0.8"/>
      </g>
     </g>
     <g id="text_21">
      <!-- 3000 -->
      <g transform="translate(393.116509 185.758437) scale(0.1 -0.1)">
       <use xlink:href="#DejaVuSans-33"/>
       <use xlink:href="#DejaVuSans-30" x="63.623047"/>
       <use xlink:href="#DejaVuSans-30" x="127.246094"/>
       <use xlink:href="#DejaVuSans-30" x="190.869141"/>
      </g>
     </g>
    </g>
    <g id="xtick_10">
     <g id="line2d_14">
      <g>
       <use xlink:href="#m1b377f85d0" x="454.194187" y="171.16" style="stroke: #000000; stroke-width: 0.8"/>
      </g>
     </g>
     <g id="text_22">
      <!-- 4000 -->
      <g transform="translate(441.469187 185.758437) scale(0.1 -0.1)">
       <use xlink:href="#DejaVuSans-34"/>
       <use xlink:href="#DejaVuSans-30" x="63.623047"/>
       <use xlink:href="#DejaVuSans-30" x="127.246094"/>
       <use xlink:href="#DejaVuSans-30" x="190.869141"/>
      </g>
     </g>
    </g>
    <g id="xtick_11">
     <g id="line2d_15">
      <g>
       <use xlink:href="#m1b377f85d0" x="502.546864" y="171.16" style="stroke: #000000; stroke-width: 0.8"/>
      </g>
     </g>
     <g id="text_23">
      <!-- 5000 -->
      <g transform="translate(489.821864 185.758437) scale(0.1 -0.1)">
       <defs>
        <path id="DejaVuSans-35" d="M 691 4666 
L 3169 4666 
L 3169 4134 
L 1269 4134 
L 1269 2991 
Q 1406 3038 1543 3061 
Q 1681 3084 1819 3084 
Q 2600 3084 3056 2656 
Q 3513 2228 3513 1497 
Q 3513 744 3044 326 
Q 2575 -91 1722 -91 
Q 1428 -91 1123 -41 
Q 819 9 494 109 
L 494 744 
Q 775 591 1075 516 
Q 1375 441 1709 441 
Q 2250 441 2565 725 
Q 2881 1009 2881 1497 
Q 2881 1984 2565 2268 
Q 2250 2553 1709 2553 
Q 1456 2553 1204 2497 
Q 953 2441 691 2322 
L 691 4666 
z
" transform="scale(0.015625)"/>
       </defs>
       <use xlink:href="#DejaVuSans-35"/>
       <use xlink:href="#DejaVuSans-30" x="63.623047"/>
       <use xlink:href="#DejaVuSans-30" x="127.246094"/>
       <use xlink:href="#DejaVuSans-30" x="190.869141"/>
      </g>
     </g>
    </g>
    <g id="xtick_12">
     <g id="line2d_16">
      <g>
       <use xlink:href="#m1b377f85d0" x="550.899542" y="171.16" style="stroke: #000000; stroke-width: 0.8"/>
      </g>
     </g>
     <g id="text_24">
      <!-- 6000 -->
      <g transform="translate(538.174542 185.758437) scale(0.1 -0.1)">
       <use xlink:href="#DejaVuSans-36"/>
       <use xlink:href="#DejaVuSans-30" x="63.623047"/>
       <use xlink:href="#DejaVuSans-30" x="127.246094"/>
       <use xlink:href="#DejaVuSans-30" x="190.869141"/>
      </g>
     </g>
    </g>
    <g id="xtick_13">
     <g id="line2d_17">
      <g>
       <use xlink:href="#m1b377f85d0" x="599.25222" y="171.16" style="stroke: #000000; stroke-width: 0.8"/>
      </g>
     </g>
     <g id="text_25">
      <!-- 7000 -->
      <g transform="translate(586.52722 185.758437) scale(0.1 -0.1)">
       <defs>
        <path id="DejaVuSans-37" d="M 525 4666 
L 3525 4666 
L 3525 4397 
L 1831 0 
L 1172 0 
L 2766 4134 
L 525 4134 
L 525 4666 
z
" transform="scale(0.015625)"/>
       </defs>
       <use xlink:href="#DejaVuSans-37"/>
       <use xlink:href="#DejaVuSans-30" x="63.623047"/>
       <use xlink:href="#DejaVuSans-30" x="127.246094"/>
       <use xlink:href="#DejaVuSans-30" x="190.869141"/>
      </g>
     </g>
    </g>
    <g id="xtick_14">
     <g id="line2d_18">
      <g>
       <use xlink:href="#m1b377f85d0" x="647.604898" y="171.16" style="stroke: #000000; stroke-width: 0.8"/>
      </g>
     </g>
     <g id="text_26">
      <!-- 8000 -->
      <g transform="translate(634.879898 185.758437) scale(0.1 -0.1)">
       <defs>
        <path id="DejaVuSans-38" d="M 2034 2216 
Q 1584 2216 1326 1975 
Q 1069 1734 1069 1313 
Q 1069 891 1326 650 
Q 1584 409 2034 409 
Q 2484 409 2743 651 
Q 3003 894 3003 1313 
Q 3003 1734 2745 1975 
Q 2488 2216 2034 2216 
z
M 1403 2484 
Q 997 2584 770 2862 
Q 544 3141 544 3541 
Q 544 4100 942 4425 
Q 1341 4750 2034 4750 
Q 2731 4750 3128 4425 
Q 3525 4100 3525 3541 
Q 3525 3141 3298 2862 
Q 3072 2584 2669 2484 
Q 3125 2378 3379 2068 
Q 3634 1759 3634 1313 
Q 3634 634 3220 271 
Q 2806 -91 2034 -91 
Q 1263 -91 848 271 
Q 434 634 434 1313 
Q 434 1759 690 2068 
Q 947 2378 1403 2484 
z
M 1172 3481 
Q 1172 3119 1398 2916 
Q 1625 2713 2034 2713 
Q 2441 2713 2670 2916 
Q 2900 3119 2900 3481 
Q 2900 3844 2670 4047 
Q 2441 4250 2034 4250 
Q 1625 4250 1398 4047 
Q 1172 3844 1172 3481 
z
" transform="scale(0.015625)"/>
       </defs>
       <use xlink:href="#DejaVuSans-38"/>
       <use xlink:href="#DejaVuSans-30" x="63.623047"/>
       <use xlink:href="#DejaVuSans-30" x="127.246094"/>
       <use xlink:href="#DejaVuSans-30" x="190.869141"/>
      </g>
     </g>
    </g>
    <g id="xtick_15">
     <g id="line2d_19">
      <g>
       <use xlink:href="#m1b377f85d0" x="695.957576" y="171.16" style="stroke: #000000; stroke-width: 0.8"/>
      </g>
     </g>
     <g id="text_27">
      <!-- 9000 -->
      <g transform="translate(683.232576 185.758437) scale(0.1 -0.1)">
       <defs>
        <path id="DejaVuSans-39" d="M 703 97 
L 703 672 
Q 941 559 1184 500 
Q 1428 441 1663 441 
Q 2288 441 2617 861 
Q 2947 1281 2994 2138 
Q 2813 1869 2534 1725 
Q 2256 1581 1919 1581 
Q 1219 1581 811 2004 
Q 403 2428 403 3163 
Q 403 3881 828 4315 
Q 1253 4750 1959 4750 
Q 2769 4750 3195 4129 
Q 3622 3509 3622 2328 
Q 3622 1225 3098 567 
Q 2575 -91 1691 -91 
Q 1453 -91 1209 -44 
Q 966 3 703 97 
z
M 1959 2075 
Q 2384 2075 2632 2365 
Q 2881 2656 2881 3163 
Q 2881 3666 2632 3958 
Q 2384 4250 1959 4250 
Q 1534 4250 1286 3958 
Q 1038 3666 1038 3163 
Q 1038 2656 1286 2365 
Q 1534 2075 1959 2075 
z
" transform="scale(0.015625)"/>
       </defs>
       <use xlink:href="#DejaVuSans-39"/>
       <use xlink:href="#DejaVuSans-30" x="63.623047"/>
       <use xlink:href="#DejaVuSans-30" x="127.246094"/>
       <use xlink:href="#DejaVuSans-30" x="190.869141"/>
      </g>
     </g>
    </g>
    <g id="text_28">
     <!-- Example # -->
     <g transform="translate(446.613092 200.95625) scale(0.12 -0.12)">
      <defs>
       <path id="DejaVuSans-78" d="M 3513 3500 
L 2247 1797 
L 3578 0 
L 2900 0 
L 1881 1375 
L 863 0 
L 184 0 
L 1544 1831 
L 300 3500 
L 978 3500 
L 1906 2253 
L 2834 3500 
L 3513 3500 
z
" transform="scale(0.015625)"/>
       <path id="DejaVuSans-23" d="M 3272 2816 
L 2363 2816 
L 2100 1772 
L 3016 1772 
L 3272 2816 
z
M 2803 4594 
L 2478 3297 
L 3391 3297 
L 3719 4594 
L 4219 4594 
L 3897 3297 
L 4872 3297 
L 4872 2816 
L 3775 2816 
L 3519 1772 
L 4513 1772 
L 4513 1294 
L 3397 1294 
L 3072 0 
L 2572 0 
L 2894 1294 
L 1978 1294 
L 1656 0 
L 1153 0 
L 1478 1294 
L 494 1294 
L 494 1772 
L 1594 1772 
L 1856 2816 
L 850 2816 
L 850 3297 
L 1978 3297 
L 2297 4594 
L 2803 4594 
z
" transform="scale(0.015625)"/>
      </defs>
      <use xlink:href="#DejaVuSans-45"/>
      <use xlink:href="#DejaVuSans-78" x="63.183594"/>
      <use xlink:href="#DejaVuSans-61" x="122.363281"/>
      <use xlink:href="#DejaVuSans-6d" x="183.642578"/>
      <use xlink:href="#DejaVuSans-70" x="281.054688"/>
      <use xlink:href="#DejaVuSans-6c" x="344.53125"/>
      <use xlink:href="#DejaVuSans-65" x="372.314453"/>
      <use xlink:href="#DejaVuSans-20" x="433.837891"/>
      <use xlink:href="#DejaVuSans-23" x="465.625"/>
     </g>
    </g>
   </g>
   <g id="matplotlib.axis_4">
    <g id="ytick_5">
     <g id="line2d_20">
      <g>
       <use xlink:href="#mb85e9841e1" x="258.365841" y="163.853179" style="stroke: #000000; stroke-width: 0.8"/>
      </g>
     </g>
     <g id="text_29">
      <!-- 0.0 -->
      <g transform="translate(235.462716 167.652398) scale(0.1 -0.1)">
       <use xlink:href="#DejaVuSans-30"/>
       <use xlink:href="#DejaVuSans-2e" x="63.623047"/>
       <use xlink:href="#DejaVuSans-30" x="95.410156"/>
      </g>
     </g>
    </g>
    <g id="ytick_6">
     <g id="line2d_21">
      <g>
       <use xlink:href="#mb85e9841e1" x="258.365841" y="127.319075" style="stroke: #000000; stroke-width: 0.8"/>
      </g>
     </g>
     <g id="text_30">
      <!-- 0.5 -->
      <g transform="translate(235.462716 131.118293) scale(0.1 -0.1)">
       <use xlink:href="#DejaVuSans-30"/>
       <use xlink:href="#DejaVuSans-2e" x="63.623047"/>
       <use xlink:href="#DejaVuSans-35" x="95.410156"/>
      </g>
     </g>
    </g>
    <g id="ytick_7">
     <g id="line2d_22">
      <g>
       <use xlink:href="#mb85e9841e1" x="258.365841" y="90.78497" style="stroke: #000000; stroke-width: 0.8"/>
      </g>
     </g>
     <g id="text_31">
      <!-- 1.0 -->
      <g transform="translate(235.462716 94.584189) scale(0.1 -0.1)">
       <use xlink:href="#DejaVuSans-31"/>
       <use xlink:href="#DejaVuSans-2e" x="63.623047"/>
       <use xlink:href="#DejaVuSans-30" x="95.410156"/>
      </g>
     </g>
    </g>
    <g id="ytick_8">
     <g id="line2d_23">
      <g>
       <use xlink:href="#mb85e9841e1" x="258.365841" y="54.250866" style="stroke: #000000; stroke-width: 0.8"/>
      </g>
     </g>
     <g id="text_32">
      <!-- 1.5 -->
      <g transform="translate(235.462716 58.050085) scale(0.1 -0.1)">
       <use xlink:href="#DejaVuSans-31"/>
       <use xlink:href="#DejaVuSans-2e" x="63.623047"/>
       <use xlink:href="#DejaVuSans-35" x="95.410156"/>
      </g>
     </g>
    </g>
    <g id="ytick_9">
     <g id="line2d_24">
      <g>
       <use xlink:href="#mb85e9841e1" x="258.365841" y="17.716761" style="stroke: #000000; stroke-width: 0.8"/>
      </g>
     </g>
     <g id="text_33">
      <!-- 2.0 -->
      <g transform="translate(235.462716 21.51598) scale(0.1 -0.1)">
       <use xlink:href="#DejaVuSans-32"/>
       <use xlink:href="#DejaVuSans-2e" x="63.623047"/>
       <use xlink:href="#DejaVuSans-30" x="95.410156"/>
      </g>
     </g>
    </g>
    <g id="text_34">
     <!-- $\epsilon$ -->
     <g transform="translate(228.967091 95.911676) rotate(-90) scale(0.12 -0.12)">
      <defs>
       <path id="DejaVuSans-Oblique-3b5" d="M 1263 1888 
Q 925 1963 778 2166 
Q 669 2309 669 2503 
Q 669 3034 1175 3344 
Q 1575 3588 2188 3588 
Q 2425 3588 2684 3550 
Q 2944 3513 3234 3438 
L 3134 2916 
Q 2847 3006 2606 3047 
Q 2359 3088 2138 3088 
Q 1766 3088 1522 2944 
Q 1228 2772 1228 2522 
Q 1228 2356 1381 2241 
Q 1563 2103 1925 2103 
L 2409 2103 
L 2319 1628 
L 1856 1628 
Q 1425 1628 1172 1469 
Q 828 1253 828 916 
Q 828 703 1013 563 
Q 1244 388 1716 388 
Q 2006 388 2284 444 
Q 2563 503 2806 619 
L 2700 84 
Q 2403 -3 2131 -47 
Q 1859 -91 1609 -91 
Q 866 -91 516 194 
Q 250 413 250 781 
Q 250 1278 600 1584 
Q 859 1813 1263 1888 
z
" transform="scale(0.015625)"/>
      </defs>
      <use xlink:href="#DejaVuSans-Oblique-3b5" transform="translate(0 0.9375)"/>
     </g>
    </g>
   </g>
   <g id="line2d_25">
    <path d="M 260.783475 163.853179 
L 263.201109 143.227153 
L 265.618743 137.019986 
L 270.454011 127.305999 
L 272.871644 123.379623 
L 275.289278 121.105998 
L 277.706912 119.126679 
L 280.124546 118.198434 
L 282.54218 116.479775 
L 284.959814 116.519407 
L 287.377448 115.650361 
L 289.795082 113.946549 
L 292.212716 113.555402 
L 294.630349 113.727682 
L 297.047983 112.57451 
L 299.465617 112.468603 
L 301.883251 111.569935 
L 304.300885 111.288065 
L 306.718519 110.258186 
L 309.136153 109.887993 
L 311.553787 108.157286 
L 313.971421 107.941691 
L 316.389055 107.344527 
L 318.806688 106.435175 
L 321.224322 106.337996 
L 323.641956 106.062288 
L 328.477224 105.038535 
L 330.894858 104.915651 
L 333.312492 104.981605 
L 338.14776 104.53573 
L 340.565393 104.786594 
L 342.983027 104.731507 
L 345.400661 105.089636 
L 347.818295 105.066127 
L 352.653563 105.947118 
L 357.488831 106.601232 
L 359.906465 105.921693 
L 362.324099 105.57572 
L 367.159366 104.129622 
L 369.577 103.660626 
L 371.994634 103.495194 
L 374.412268 102.875833 
L 376.829902 102.825765 
L 379.247536 102.205797 
L 381.66517 101.764512 
L 384.082804 101.525334 
L 388.918071 101.383115 
L 396.170973 100.488071 
L 398.588607 100.960024 
L 401.006241 100.45569 
L 403.423875 100.496142 
L 405.841509 100.121717 
L 408.259143 99.084415 
L 410.676776 98.290342 
L 413.09441 97.262734 
L 415.512044 96.668275 
L 417.929678 95.635644 
L 420.347312 94.809763 
L 422.764946 94.936794 
L 425.18258 94.355719 
L 427.600214 93.890217 
L 430.017848 93.733054 
L 432.435481 92.938452 
L 434.853115 92.363459 
L 437.270749 92.101956 
L 439.688383 91.377836 
L 442.106017 91.226891 
L 444.523651 90.777632 
L 451.776553 90.326028 
L 454.194187 89.963423 
L 456.61182 88.666095 
L 459.029454 87.509673 
L 471.117624 81.034886 
L 473.535258 79.857353 
L 478.370526 78.258533 
L 483.205793 76.213099 
L 488.041061 74.46936 
L 490.458695 73.856286 
L 497.711597 71.418488 
L 502.546864 69.979568 
L 504.964498 70.70081 
L 507.382132 70.642306 
L 509.799766 71.247296 
L 512.2174 71.644692 
L 514.635034 72.305806 
L 517.052668 72.8099 
L 519.470302 72.966083 
L 521.887936 72.956333 
L 526.723203 73.891714 
L 531.558471 74.300279 
L 536.393739 75.461496 
L 538.811373 75.442664 
L 541.229007 75.619723 
L 543.646641 75.945449 
L 546.064275 76.140281 
L 548.481908 76.509437 
L 550.899542 76.996432 
L 553.317176 77.807276 
L 558.152444 79.758374 
L 560.570078 80.847649 
L 567.82298 83.133224 
L 570.240614 83.689902 
L 575.075881 85.190227 
L 577.493515 85.761551 
L 579.911149 86.474155 
L 582.328783 87.026283 
L 584.746417 87.845146 
L 587.164051 88.406211 
L 589.581685 89.088168 
L 591.999319 89.949537 
L 596.834586 90.769649 
L 601.669854 92.309728 
L 608.922756 95.186819 
L 613.758024 96.986798 
L 616.175658 97.648953 
L 623.428559 100.318686 
L 625.846193 101.137829 
L 628.263827 102.163086 
L 635.516729 104.532393 
L 637.934363 105.198572 
L 640.351996 105.995173 
L 642.76963 106.51091 
L 662.110702 112.219213 
L 666.945969 113.362122 
L 669.363603 114.16083 
L 671.781237 114.740155 
L 674.198871 115.519606 
L 676.616505 116.168328 
L 679.034139 116.957611 
L 686.28704 118.706592 
L 688.704674 119.655468 
L 693.539942 120.774091 
L 695.957576 121.343181 
L 695.957576 121.343181 
" clip-path="url(#p3f176ad6cf)" style="fill: none; stroke: #e41a1c; stroke-width: 1.5; stroke-linecap: square"/>
   </g>
   <g id="line2d_26">
    <path d="M 260.783475 163.853179 
L 263.201109 112.15797 
L 265.618743 91.494165 
L 268.036377 76.387137 
L 270.454011 63.877118 
L 272.871644 52.776955 
L 275.289278 43.849679 
L 277.706912 36.30223 
L 280.124546 34.278322 
L 282.54218 33.032705 
L 284.959814 33.6052 
L 287.377448 32.547157 
L 289.795082 32.501792 
L 292.212716 33.161128 
L 297.047983 32.508871 
L 299.465617 33.123656 
L 301.883251 33.092642 
L 304.300885 33.750816 
L 309.136153 33.30115 
L 311.553787 35.087525 
L 313.971421 38.088956 
L 316.389055 40.1225 
L 318.806688 41.492944 
L 321.224322 43.480151 
L 323.641956 44.864524 
L 326.05959 45.380781 
L 328.477224 46.137613 
L 333.312492 48.866108 
L 335.730126 49.449158 
L 338.14776 49.905367 
L 340.565393 51.041322 
L 345.400661 53.016056 
L 347.818295 53.849373 
L 357.488831 58.064007 
L 359.906465 59.53939 
L 362.324099 61.198753 
L 367.159366 63.668511 
L 371.994634 66.572797 
L 374.412268 67.519398 
L 376.829902 68.945327 
L 379.247536 69.588978 
L 381.66517 70.398275 
L 388.918071 73.392131 
L 393.753339 74.912213 
L 396.170973 75.482992 
L 398.588607 76.642477 
L 401.006241 77.088792 
L 403.423875 77.87635 
L 405.841509 78.329536 
L 408.259143 79.475627 
L 410.676776 80.812163 
L 413.09441 81.787825 
L 415.512044 82.992733 
L 417.929678 83.827666 
L 420.347312 84.811013 
L 422.764946 86.275615 
L 427.600214 88.336309 
L 430.017848 89.353676 
L 434.853115 90.860771 
L 437.270749 91.804209 
L 439.688383 92.336612 
L 442.106017 93.403837 
L 444.523651 94.202852 
L 446.941285 95.220501 
L 454.194187 97.488177 
L 461.447088 100.151148 
L 463.864722 100.879493 
L 468.69999 102.513144 
L 473.535258 104.067387 
L 475.952892 104.9557 
L 478.370526 106.072896 
L 480.788159 106.58633 
L 488.041061 108.827692 
L 492.876329 110.219736 
L 495.293963 110.671756 
L 497.711597 111.442607 
L 500.129231 111.943842 
L 502.546864 112.688891 
L 504.964498 113.292719 
L 507.382132 113.491034 
L 509.799766 114.242199 
L 512.2174 114.706444 
L 517.052668 115.863052 
L 521.887936 116.467527 
L 529.140837 117.794558 
L 533.976105 118.679398 
L 536.393739 119.255837 
L 541.229007 119.803192 
L 546.064275 120.675677 
L 550.899542 121.518408 
L 553.317176 121.503403 
L 558.152444 121.771064 
L 560.570078 121.994239 
L 572.658247 122.244544 
L 579.911149 122.353779 
L 582.328783 122.309621 
L 584.746417 122.496803 
L 587.164051 122.490451 
L 589.581685 122.610863 
L 591.999319 122.876011 
L 596.834586 122.770506 
L 599.25222 122.96357 
L 604.087488 122.252104 
L 606.505122 122.054563 
L 611.34039 121.455563 
L 623.428559 120.243391 
L 630.681461 119.93259 
L 633.099095 119.684936 
L 635.516729 119.592245 
L 640.351996 119.211724 
L 642.76963 118.814543 
L 647.604898 118.348675 
L 657.275434 114.958334 
L 659.693068 114.314278 
L 664.528335 112.699152 
L 671.781237 110.401702 
L 674.198871 109.786806 
L 676.616505 108.977329 
L 679.034139 108.459775 
L 681.451773 107.821941 
L 686.28704 106.340234 
L 691.122308 105.180121 
L 693.539942 104.478439 
L 695.957576 103.960791 
L 695.957576 103.960791 
" clip-path="url(#p3f176ad6cf)" style="fill: none; stroke: #377eb8; stroke-width: 1.5; stroke-linecap: square"/>
   </g>
   <g id="line2d_27"/>
   <g id="line2d_28"/>
   <g id="line2d_29">
    <path d="M 260.783475 163.853179 
L 309.136153 163.059494 
L 357.488831 162.132808 
L 405.841509 162.7436 
L 454.194187 162.821329 
L 502.546864 163.731792 
L 550.899542 163.555008 
L 599.25222 164.852846 
L 647.604898 164.316931 
L 695.957576 164.567588 
L 721 164.268372 
" clip-path="url(#p3f176ad6cf)" style="fill: none; stroke: #000000; stroke-width: 1.5; stroke-linecap: square"/>
   </g>
   <g id="line2d_30">
    <path d="M 309.136153 109.887993 
" clip-path="url(#p3f176ad6cf)" style="fill: none; stroke: #e6292b; stroke-width: 1.5; stroke-linecap: square"/>
    <defs>
     <path id="m38934b62e2" d="M 0 4 
L 0 -4 
" style="stroke: #e6292b"/>
    </defs>
    <g clip-path="url(#p3f176ad6cf)">
     <use xlink:href="#m38934b62e2" x="309.136153" y="109.887993" style="fill: #e6292b; stroke: #e6292b"/>
    </g>
   </g>
   <g id="line2d_31">
    <path d="M 309.136153 33.30115 
" clip-path="url(#p3f176ad6cf)" style="fill: none; stroke: #4c8cbf; stroke-width: 1.5; stroke-linecap: square"/>
    <defs>
     <path id="m967be53162" d="M 0 4 
L 0 -4 
" style="stroke: #4c8cbf"/>
    </defs>
    <g clip-path="url(#p3f176ad6cf)">
     <use xlink:href="#m967be53162" x="309.136153" y="33.30115" style="fill: #4c8cbf; stroke: #4c8cbf"/>
    </g>
   </g>
   <g id="line2d_32">
    <path d="M 357.488831 106.601232 
" clip-path="url(#p3f176ad6cf)" style="fill: none; stroke: #e6292b; stroke-width: 1.5; stroke-linecap: square"/>
    <g clip-path="url(#p3f176ad6cf)">
     <use xlink:href="#m38934b62e2" x="357.488831" y="106.601232" style="fill: #e6292b; stroke: #e6292b"/>
    </g>
   </g>
   <g id="line2d_33">
    <path d="M 357.488831 58.064007 
" clip-path="url(#p3f176ad6cf)" style="fill: none; stroke: #4c8cbf; stroke-width: 1.5; stroke-linecap: square"/>
    <g clip-path="url(#p3f176ad6cf)">
     <use xlink:href="#m967be53162" x="357.488831" y="58.064007" style="fill: #4c8cbf; stroke: #4c8cbf"/>
    </g>
   </g>
   <g id="line2d_34">
    <path d="M 405.841509 100.121717 
" clip-path="url(#p3f176ad6cf)" style="fill: none; stroke: #e6292b; stroke-width: 1.5; stroke-linecap: square"/>
    <g clip-path="url(#p3f176ad6cf)">
     <use xlink:href="#m38934b62e2" x="405.841509" y="100.121717" style="fill: #e6292b; stroke: #e6292b"/>
    </g>
   </g>
   <g id="line2d_35">
    <path d="M 405.841509 78.329536 
" clip-path="url(#p3f176ad6cf)" style="fill: none; stroke: #4c8cbf; stroke-width: 1.5; stroke-linecap: square"/>
    <g clip-path="url(#p3f176ad6cf)">
     <use xlink:href="#m967be53162" x="405.841509" y="78.329536" style="fill: #4c8cbf; stroke: #4c8cbf"/>
    </g>
   </g>
   <g id="line2d_36">
    <path d="M 454.194187 89.963423 
" clip-path="url(#p3f176ad6cf)" style="fill: none; stroke: #e6292b; stroke-width: 1.5; stroke-linecap: square"/>
    <g clip-path="url(#p3f176ad6cf)">
     <use xlink:href="#m38934b62e2" x="454.194187" y="89.963423" style="fill: #e6292b; stroke: #e6292b"/>
    </g>
   </g>
   <g id="line2d_37">
    <path d="M 454.194187 97.488177 
" clip-path="url(#p3f176ad6cf)" style="fill: none; stroke: #4c8cbf; stroke-width: 1.5; stroke-linecap: square"/>
    <g clip-path="url(#p3f176ad6cf)">
     <use xlink:href="#m967be53162" x="454.194187" y="97.488177" style="fill: #4c8cbf; stroke: #4c8cbf"/>
    </g>
   </g>
   <g id="line2d_38">
    <path d="M 502.546864 69.979568 
" clip-path="url(#p3f176ad6cf)" style="fill: none; stroke: #e6292b; stroke-width: 1.5; stroke-linecap: square"/>
    <g clip-path="url(#p3f176ad6cf)">
     <use xlink:href="#m38934b62e2" x="502.546864" y="69.979568" style="fill: #e6292b; stroke: #e6292b"/>
    </g>
   </g>
   <g id="line2d_39">
    <path d="M 502.546864 112.688891 
" clip-path="url(#p3f176ad6cf)" style="fill: none; stroke: #4c8cbf; stroke-width: 1.5; stroke-linecap: square"/>
    <g clip-path="url(#p3f176ad6cf)">
     <use xlink:href="#m967be53162" x="502.546864" y="112.688891" style="fill: #4c8cbf; stroke: #4c8cbf"/>
    </g>
   </g>
   <g id="line2d_40">
    <path d="M 550.899542 76.996432 
" clip-path="url(#p3f176ad6cf)" style="fill: none; stroke: #e6292b; stroke-width: 1.5; stroke-linecap: square"/>
    <g clip-path="url(#p3f176ad6cf)">
     <use xlink:href="#m38934b62e2" x="550.899542" y="76.996432" style="fill: #e6292b; stroke: #e6292b"/>
    </g>
   </g>
   <g id="line2d_41">
    <path d="M 550.899542 121.518408 
" clip-path="url(#p3f176ad6cf)" style="fill: none; stroke: #4c8cbf; stroke-width: 1.5; stroke-linecap: square"/>
    <g clip-path="url(#p3f176ad6cf)">
     <use xlink:href="#m967be53162" x="550.899542" y="121.518408" style="fill: #4c8cbf; stroke: #4c8cbf"/>
    </g>
   </g>
   <g id="line2d_42">
    <path d="M 599.25222 91.495718 
" clip-path="url(#p3f176ad6cf)" style="fill: none; stroke: #e6292b; stroke-width: 1.5; stroke-linecap: square"/>
    <g clip-path="url(#p3f176ad6cf)">
     <use xlink:href="#m38934b62e2" x="599.25222" y="91.495718" style="fill: #e6292b; stroke: #e6292b"/>
    </g>
   </g>
   <g id="line2d_43">
    <path d="M 599.25222 122.96357 
" clip-path="url(#p3f176ad6cf)" style="fill: none; stroke: #4c8cbf; stroke-width: 1.5; stroke-linecap: square"/>
    <g clip-path="url(#p3f176ad6cf)">
     <use xlink:href="#m967be53162" x="599.25222" y="122.96357" style="fill: #4c8cbf; stroke: #4c8cbf"/>
    </g>
   </g>
   <g id="line2d_44">
    <path d="M 647.604898 107.952194 
" clip-path="url(#p3f176ad6cf)" style="fill: none; stroke: #e6292b; stroke-width: 1.5; stroke-linecap: square"/>
    <g clip-path="url(#p3f176ad6cf)">
     <use xlink:href="#m38934b62e2" x="647.604898" y="107.952194" style="fill: #e6292b; stroke: #e6292b"/>
    </g>
   </g>
   <g id="line2d_45">
    <path d="M 647.604898 118.348675 
" clip-path="url(#p3f176ad6cf)" style="fill: none; stroke: #4c8cbf; stroke-width: 1.5; stroke-linecap: square"/>
    <g clip-path="url(#p3f176ad6cf)">
     <use xlink:href="#m967be53162" x="647.604898" y="118.348675" style="fill: #4c8cbf; stroke: #4c8cbf"/>
    </g>
   </g>
   <g id="patch_9">
    <path d="M 258.365841 171.16 
L 258.365841 14.063351 
" style="fill: none; stroke: #000000; stroke-width: 0.8; stroke-linejoin: miter; stroke-linecap: square"/>
   </g>
   <g id="patch_10">
    <path d="M 700.792844 171.16 
L 700.792844 14.063351 
" style="fill: none; stroke: #000000; stroke-width: 0.8; stroke-linejoin: miter; stroke-linecap: square"/>
   </g>
   <g id="patch_11">
    <path d="M 258.365841 171.16 
L 700.792844 171.16 
" style="fill: none; stroke: #000000; stroke-width: 0.8; stroke-linejoin: miter; stroke-linecap: square"/>
   </g>
   <g id="patch_12">
    <path d="M 258.365841 14.063351 
L 700.792844 14.063351 
" style="fill: none; stroke: #000000; stroke-width: 0.8; stroke-linejoin: miter; stroke-linecap: square"/>
   </g>
   <g id="text_35">
    <!-- 1$\to$2 -->
    <g style="fill: #e6292b" transform="translate(299.596153 124.887993) scale(0.09 -0.09)">
     <defs>
      <path id="DejaVuSans-2192" d="M 5050 2147 
L 5050 1866 
L 3822 638 
L 3447 1013 
L 4175 1741 
L 366 1741 
L 366 2272 
L 4175 2272 
L 3447 3000 
L 3822 3375 
L 5050 2147 
z
" transform="scale(0.015625)"/>
     </defs>
     <use xlink:href="#DejaVuSans-31" transform="translate(0 0.78125)"/>
     <use xlink:href="#DejaVuSans-2192" transform="translate(63.623047 0.78125)"/>
     <use xlink:href="#DejaVuSans-32" transform="translate(147.412109 0.78125)"/>
    </g>
   </g>
   <g id="text_36">
    <!-- 5$\to$4 -->
    <g style="fill: #4c8cbf" transform="translate(299.596153 25.30115) scale(0.09 -0.09)">
     <use xlink:href="#DejaVuSans-35" transform="translate(0 0.09375)"/>
     <use xlink:href="#DejaVuSans-2192" transform="translate(63.623047 0.09375)"/>
     <use xlink:href="#DejaVuSans-34" transform="translate(147.412109 0.09375)"/>
    </g>
   </g>
   <g id="text_37">
    <!-- 2$\to$3 -->
    <g style="fill: #e6292b" transform="translate(347.948831 121.601232) scale(0.09 -0.09)">
     <use xlink:href="#DejaVuSans-32" transform="translate(0 0.78125)"/>
     <use xlink:href="#DejaVuSans-2192" transform="translate(63.623047 0.78125)"/>
     <use xlink:href="#DejaVuSans-33" transform="translate(147.412109 0.78125)"/>
    </g>
   </g>
   <g id="text_38">
    <!-- 4$\to$3 -->
    <g style="fill: #4c8cbf" transform="translate(347.948831 50.064007) scale(0.09 -0.09)">
     <use xlink:href="#DejaVuSans-34" transform="translate(0 0.78125)"/>
     <use xlink:href="#DejaVuSans-2192" transform="translate(63.623047 0.78125)"/>
     <use xlink:href="#DejaVuSans-33" transform="translate(147.412109 0.78125)"/>
    </g>
   </g>
   <g id="text_39">
    <!-- 3$\to$4 -->
    <g style="fill: #e6292b" transform="translate(396.301509 115.121717) scale(0.09 -0.09)">
     <use xlink:href="#DejaVuSans-33" transform="translate(0 0.78125)"/>
     <use xlink:href="#DejaVuSans-2192" transform="translate(63.623047 0.78125)"/>
     <use xlink:href="#DejaVuSans-34" transform="translate(147.412109 0.78125)"/>
    </g>
   </g>
   <g id="text_40">
    <!-- 3$\to$2 -->
    <g style="fill: #4c8cbf" transform="translate(396.301509 70.329536) scale(0.09 -0.09)">
     <use xlink:href="#DejaVuSans-33" transform="translate(0 0.78125)"/>
     <use xlink:href="#DejaVuSans-2192" transform="translate(63.623047 0.78125)"/>
     <use xlink:href="#DejaVuSans-32" transform="translate(147.412109 0.78125)"/>
    </g>
   </g>
   <g id="text_41">
    <!-- 4$\to$5 -->
    <g style="fill: #e6292b" transform="translate(444.654187 81.963423) scale(0.09 -0.09)">
     <use xlink:href="#DejaVuSans-34" transform="translate(0 0.09375)"/>
     <use xlink:href="#DejaVuSans-2192" transform="translate(63.623047 0.09375)"/>
     <use xlink:href="#DejaVuSans-35" transform="translate(147.412109 0.09375)"/>
    </g>
   </g>
   <g id="text_42">
    <!-- 2$\to$1 -->
    <g style="fill: #4c8cbf" transform="translate(444.654187 112.488177) scale(0.09 -0.09)">
     <use xlink:href="#DejaVuSans-32" transform="translate(0 0.78125)"/>
     <use xlink:href="#DejaVuSans-2192" transform="translate(63.623047 0.78125)"/>
     <use xlink:href="#DejaVuSans-31" transform="translate(147.412109 0.78125)"/>
    </g>
   </g>
   <g id="text_43">
    <!-- 5$\to$4 -->
    <g style="fill: #e6292b" transform="translate(493.006864 61.979568) scale(0.09 -0.09)">
     <use xlink:href="#DejaVuSans-35" transform="translate(0 0.09375)"/>
     <use xlink:href="#DejaVuSans-2192" transform="translate(63.623047 0.09375)"/>
     <use xlink:href="#DejaVuSans-34" transform="translate(147.412109 0.09375)"/>
    </g>
   </g>
   <g id="text_44">
    <!-- 1$\to$2 -->
    <g style="fill: #4c8cbf" transform="translate(493.006864 127.688891) scale(0.09 -0.09)">
     <use xlink:href="#DejaVuSans-31" transform="translate(0 0.78125)"/>
     <use xlink:href="#DejaVuSans-2192" transform="translate(63.623047 0.78125)"/>
     <use xlink:href="#DejaVuSans-32" transform="translate(147.412109 0.78125)"/>
    </g>
   </g>
   <g id="text_45">
    <!-- 4$\to$3 -->
    <g style="fill: #e6292b" transform="translate(541.359542 68.996432) scale(0.09 -0.09)">
     <use xlink:href="#DejaVuSans-34" transform="translate(0 0.78125)"/>
     <use xlink:href="#DejaVuSans-2192" transform="translate(63.623047 0.78125)"/>
     <use xlink:href="#DejaVuSans-33" transform="translate(147.412109 0.78125)"/>
    </g>
   </g>
   <g id="text_46">
    <!-- 2$\to$3 -->
    <g style="fill: #4c8cbf" transform="translate(541.359542 136.518408) scale(0.09 -0.09)">
     <use xlink:href="#DejaVuSans-32" transform="translate(0 0.78125)"/>
     <use xlink:href="#DejaVuSans-2192" transform="translate(63.623047 0.78125)"/>
     <use xlink:href="#DejaVuSans-33" transform="translate(147.412109 0.78125)"/>
    </g>
   </g>
   <g id="text_47">
    <!-- 3$\to$2 -->
    <g style="fill: #e6292b" transform="translate(589.71222 83.495718) scale(0.09 -0.09)">
     <use xlink:href="#DejaVuSans-33" transform="translate(0 0.78125)"/>
     <use xlink:href="#DejaVuSans-2192" transform="translate(63.623047 0.78125)"/>
     <use xlink:href="#DejaVuSans-32" transform="translate(147.412109 0.78125)"/>
    </g>
   </g>
   <g id="text_48">
    <!-- 3$\to$4 -->
    <g style="fill: #4c8cbf" transform="translate(589.71222 137.96357) scale(0.09 -0.09)">
     <use xlink:href="#DejaVuSans-33" transform="translate(0 0.78125)"/>
     <use xlink:href="#DejaVuSans-2192" transform="translate(63.623047 0.78125)"/>
     <use xlink:href="#DejaVuSans-34" transform="translate(147.412109 0.78125)"/>
    </g>
   </g>
   <g id="text_49">
    <!-- 2$\to$1 -->
    <g style="fill: #e6292b" transform="translate(638.064898 99.952194) scale(0.09 -0.09)">
     <use xlink:href="#DejaVuSans-32" transform="translate(0 0.78125)"/>
     <use xlink:href="#DejaVuSans-2192" transform="translate(63.623047 0.78125)"/>
     <use xlink:href="#DejaVuSans-31" transform="translate(147.412109 0.78125)"/>
    </g>
   </g>
   <g id="text_50">
    <!-- 4$\to$5 -->
    <g style="fill: #4c8cbf" transform="translate(638.064898 133.348675) scale(0.09 -0.09)">
     <use xlink:href="#DejaVuSans-34" transform="translate(0 0.09375)"/>
     <use xlink:href="#DejaVuSans-2192" transform="translate(63.623047 0.09375)"/>
     <use xlink:href="#DejaVuSans-35" transform="translate(147.412109 0.09375)"/>
    </g>
   </g>
   <g id="legend_2">
    <g id="patch_13">
     <path d="M 566.392844 66.141476 
L 693.792844 66.141476 
Q 695.792844 66.141476 695.792844 64.141476 
L 695.792844 21.063351 
Q 695.792844 19.063351 693.792844 19.063351 
L 566.392844 19.063351 
Q 564.392844 19.063351 564.392844 21.063351 
L 564.392844 64.141476 
Q 564.392844 66.141476 566.392844 66.141476 
z
" style="fill: #ffffff; opacity: 0.8; stroke: #cccccc; stroke-linejoin: miter"/>
    </g>
    <g id="line2d_46">
     <path d="M 568.392844 27.163351 
L 578.392844 27.163351 
L 588.392844 27.163351 
" style="fill: none; stroke: #e41a1c; stroke-width: 1.5; stroke-linecap: square"/>
    </g>
    <g id="text_51">
     <!-- High $\to$ Low $\to$ High -->
     <g transform="translate(596.392844 30.663351) scale(0.1 -0.1)">
      <defs>
       <path id="DejaVuSans-48" d="M 628 4666 
L 1259 4666 
L 1259 2753 
L 3553 2753 
L 3553 4666 
L 4184 4666 
L 4184 0 
L 3553 0 
L 3553 2222 
L 1259 2222 
L 1259 0 
L 628 0 
L 628 4666 
z
" transform="scale(0.015625)"/>
       <path id="DejaVuSans-67" d="M 2906 1791 
Q 2906 2416 2648 2759 
Q 2391 3103 1925 3103 
Q 1463 3103 1205 2759 
Q 947 2416 947 1791 
Q 947 1169 1205 825 
Q 1463 481 1925 481 
Q 2391 481 2648 825 
Q 2906 1169 2906 1791 
z
M 3481 434 
Q 3481 -459 3084 -895 
Q 2688 -1331 1869 -1331 
Q 1566 -1331 1297 -1286 
Q 1028 -1241 775 -1147 
L 775 -588 
Q 1028 -725 1275 -790 
Q 1522 -856 1778 -856 
Q 2344 -856 2625 -561 
Q 2906 -266 2906 331 
L 2906 616 
Q 2728 306 2450 153 
Q 2172 0 1784 0 
Q 1141 0 747 490 
Q 353 981 353 1791 
Q 353 2603 747 3093 
Q 1141 3584 1784 3584 
Q 2172 3584 2450 3431 
Q 2728 3278 2906 2969 
L 2906 3500 
L 3481 3500 
L 3481 434 
z
" transform="scale(0.015625)"/>
       <path id="DejaVuSans-4c" d="M 628 4666 
L 1259 4666 
L 1259 531 
L 3531 531 
L 3531 0 
L 628 0 
L 628 4666 
z
" transform="scale(0.015625)"/>
       <path id="DejaVuSans-77" d="M 269 3500 
L 844 3500 
L 1563 769 
L 2278 3500 
L 2956 3500 
L 3675 769 
L 4391 3500 
L 4966 3500 
L 4050 0 
L 3372 0 
L 2619 2869 
L 1863 0 
L 1184 0 
L 269 3500 
z
" transform="scale(0.015625)"/>
      </defs>
      <use xlink:href="#DejaVuSans-48" transform="translate(0 0.015625)"/>
      <use xlink:href="#DejaVuSans-69" transform="translate(75.195312 0.015625)"/>
      <use xlink:href="#DejaVuSans-67" transform="translate(102.978516 0.015625)"/>
      <use xlink:href="#DejaVuSans-68" transform="translate(166.455078 0.015625)"/>
      <use xlink:href="#DejaVuSans-20" transform="translate(229.833984 0.015625)"/>
      <use xlink:href="#DejaVuSans-2192" transform="translate(261.621094 0.015625)"/>
      <use xlink:href="#DejaVuSans-20" transform="translate(345.410156 0.015625)"/>
      <use xlink:href="#DejaVuSans-4c" transform="translate(377.197266 0.015625)"/>
      <use xlink:href="#DejaVuSans-6f" transform="translate(432.910156 0.015625)"/>
      <use xlink:href="#DejaVuSans-77" transform="translate(494.091797 0.015625)"/>
      <use xlink:href="#DejaVuSans-20" transform="translate(575.878906 0.015625)"/>
      <use xlink:href="#DejaVuSans-2192" transform="translate(607.666016 0.015625)"/>
      <use xlink:href="#DejaVuSans-20" transform="translate(691.455078 0.015625)"/>
      <use xlink:href="#DejaVuSans-48" transform="translate(723.242188 0.015625)"/>
      <use xlink:href="#DejaVuSans-69" transform="translate(798.4375 0.015625)"/>
      <use xlink:href="#DejaVuSans-67" transform="translate(826.220703 0.015625)"/>
      <use xlink:href="#DejaVuSans-68" transform="translate(889.697266 0.015625)"/>
     </g>
    </g>
    <g id="line2d_47">
     <path d="M 568.392844 41.863351 
L 578.392844 41.863351 
L 588.392844 41.863351 
" style="fill: none; stroke: #377eb8; stroke-width: 1.5; stroke-linecap: square"/>
    </g>
    <g id="text_52">
     <!-- Low $\to$ High $\to$ Low -->
     <g transform="translate(596.392844 45.363351) scale(0.1 -0.1)">
      <use xlink:href="#DejaVuSans-4c" transform="translate(0 0.015625)"/>
      <use xlink:href="#DejaVuSans-6f" transform="translate(55.712891 0.015625)"/>
      <use xlink:href="#DejaVuSans-77" transform="translate(116.894531 0.015625)"/>
      <use xlink:href="#DejaVuSans-20" transform="translate(198.681641 0.015625)"/>
      <use xlink:href="#DejaVuSans-2192" transform="translate(230.46875 0.015625)"/>
      <use xlink:href="#DejaVuSans-20" transform="translate(314.257812 0.015625)"/>
      <use xlink:href="#DejaVuSans-48" transform="translate(346.044922 0.015625)"/>
      <use xlink:href="#DejaVuSans-69" transform="translate(421.240234 0.015625)"/>
      <use xlink:href="#DejaVuSans-67" transform="translate(449.023438 0.015625)"/>
      <use xlink:href="#DejaVuSans-68" transform="translate(512.5 0.015625)"/>
      <use xlink:href="#DejaVuSans-20" transform="translate(575.878906 0.015625)"/>
      <use xlink:href="#DejaVuSans-2192" transform="translate(607.666016 0.015625)"/>
      <use xlink:href="#DejaVuSans-20" transform="translate(691.455078 0.015625)"/>
      <use xlink:href="#DejaVuSans-4c" transform="translate(723.242188 0.015625)"/>
      <use xlink:href="#DejaVuSans-6f" transform="translate(778.955078 0.015625)"/>
      <use xlink:href="#DejaVuSans-77" transform="translate(840.136719 0.015625)"/>
     </g>
    </g>
    <g id="line2d_48">
     <path d="M 568.392844 56.561789 
L 578.392844 56.561789 
L 588.392844 56.561789 
" style="fill: none; stroke: #000000; stroke-width: 1.5; stroke-linecap: square"/>
    </g>
    <g id="text_53">
     <!-- In ditribution -->
     <g transform="translate(596.392844 60.061789) scale(0.1 -0.1)">
      <defs>
       <path id="DejaVuSans-49" d="M 628 4666 
L 1259 4666 
L 1259 0 
L 628 0 
L 628 4666 
z
" transform="scale(0.015625)"/>
       <path id="DejaVuSans-75" d="M 544 1381 
L 544 3500 
L 1119 3500 
L 1119 1403 
Q 1119 906 1312 657 
Q 1506 409 1894 409 
Q 2359 409 2629 706 
Q 2900 1003 2900 1516 
L 2900 3500 
L 3475 3500 
L 3475 0 
L 2900 0 
L 2900 538 
Q 2691 219 2414 64 
Q 2138 -91 1772 -91 
Q 1169 -91 856 284 
Q 544 659 544 1381 
z
M 1991 3584 
L 1991 3584 
z
" transform="scale(0.015625)"/>
      </defs>
      <use xlink:href="#DejaVuSans-49"/>
      <use xlink:href="#DejaVuSans-6e" x="29.492188"/>
      <use xlink:href="#DejaVuSans-20" x="92.871094"/>
      <use xlink:href="#DejaVuSans-64" x="124.658203"/>
      <use xlink:href="#DejaVuSans-69" x="188.134766"/>
      <use xlink:href="#DejaVuSans-74" x="215.917969"/>
      <use xlink:href="#DejaVuSans-72" x="255.126953"/>
      <use xlink:href="#DejaVuSans-69" x="296.240234"/>
      <use xlink:href="#DejaVuSans-62" x="324.023438"/>
      <use xlink:href="#DejaVuSans-75" x="387.5"/>
      <use xlink:href="#DejaVuSans-74" x="450.878906"/>
      <use xlink:href="#DejaVuSans-69" x="490.087891"/>
      <use xlink:href="#DejaVuSans-6f" x="517.871094"/>
      <use xlink:href="#DejaVuSans-6e" x="579.052734"/>
     </g>
    </g>
   </g>
  </g>
 </g>
 <defs>
  <clipPath id="pa1f72efe92">
   <rect x="46.262" y="14.063351" width="159.621881" height="157.096649"/>
  </clipPath>
  <clipPath id="p3f176ad6cf">
   <rect x="258.365841" y="14.063351" width="442.427003" height="157.096649"/>
  </clipPath>
 </defs>
</svg>
