<?xml version="1.0" encoding="utf-8" standalone="no"?>
<!DOCTYPE svg PUBLIC "-//W3C//DTD SVG 1.1//EN"
  "http://www.w3.org/Graphics/SVG/1.1/DTD/svg11.dtd">
<svg xmlns:xlink="http://www.w3.org/1999/xlink" width="720pt" height="144pt" viewBox="0 0 720 144" xmlns="http://www.w3.org/2000/svg" version="1.1">
 <metadata>
  <rdf:RDF xmlns:dc="http://purl.org/dc/elements/1.1/" xmlns:cc="http://creativecommons.org/ns#" xmlns:rdf="http://www.w3.org/1999/02/22-rdf-syntax-ns#">
   <cc:Work>
    <dc:type rdf:resource="http://purl.org/dc/dcmitype/StillImage"/>
    <dc:date>2024-05-14T08:32:45.451625</dc:date>
    <dc:format>image/svg+xml</dc:format>
    <dc:creator>
     <cc:Agent>
      <dc:title>Matplotlib v3.7.3, https://matplotlib.org/</dc:title>
     </cc:Agent>
    </dc:creator>
   </cc:Work>
  </rdf:RDF>
 </metadata>
 <defs>
  <style type="text/css">*{stroke-linejoin: round; stroke-linecap: butt}</style>
 </defs>
 <g id="figure_1">
  <g id="patch_1">
   <path d="M 0 144 
L 720 144 
L 720 0 
L 0 0 
z
" style="fill: #ffffff"/>
  </g>
  <g id="axes_1">
   <g id="patch_2">
    <path d="M 41.00524 108.681635 
L 143.775761 108.681635 
L 143.775761 3.00024 
L 41.00524 3.00024 
z
" style="fill: #ffffff"/>
   </g>
   <g id="PathCollection_1">
    <path d="M 49.949063 92.439868 
L 48.36151 97.325855 
L 43.224078 97.325855 
L 47.380347 100.345562 
L 45.792794 105.231549 
L 49.949063 102.211843 
L 54.105333 105.231549 
L 52.517779 100.345562 
L 56.674048 97.325855 
L 51.536617 97.325855 
z
" clip-path="url(#pacca31dc7d)" style="fill: #1f77b4; fill-opacity: 0.75; stroke: #000000; stroke-opacity: 0.75"/>
    <path d="M 134.857658 43.529294 
L 133.270104 48.415281 
L 128.132673 48.415281 
L 132.288942 51.434988 
L 130.701388 56.320975 
L 134.857658 53.301269 
L 139.013927 56.320975 
L 137.426373 51.434988 
L 141.582643 48.415281 
L 136.445211 48.415281 
z
" clip-path="url(#pacca31dc7d)" style="fill: #ff7f0e; fill-opacity: 0.75; stroke: #000000; stroke-opacity: 0.75"/>
    <path d="M 110.83814 5.099872 
L 109.250586 9.98586 
L 104.113155 9.985859 
L 108.269424 13.005566 
L 106.681871 17.891554 
L 110.83814 14.871847 
L 114.994409 17.891554 
L 113.406856 13.005566 
L 117.563125 9.985859 
L 112.425694 9.98586 
z
" clip-path="url(#pacca31dc7d)" style="fill: #2ca02c; fill-opacity: 0.75; stroke: #000000; stroke-opacity: 0.75"/>
    <path d="M 50.866029 24.874875 
L 49.278475 29.760863 
L 44.141044 29.760863 
L 48.297313 32.780569 
L 46.709759 37.666557 
L 50.866029 34.646851 
L 55.022298 37.666557 
L 53.434745 32.780569 
L 57.591014 29.760863 
L 52.453582 29.760863 
z
" clip-path="url(#pacca31dc7d)" style="fill: #d62728; fill-opacity: 0.75; stroke: #000000; stroke-opacity: 0.75"/>
    <path d="M 49.923343 91.066301 
L 48.335789 95.952289 
L 43.198358 95.952289 
L 47.354627 98.971995 
L 45.767074 103.857983 
L 49.923343 100.838276 
L 54.079612 103.857983 
L 52.492059 98.971995 
L 56.648328 95.952289 
L 51.510897 95.952289 
z
" clip-path="url(#pacca31dc7d)" style="fill: #9467bd; fill-opacity: 0.75; stroke: #000000; stroke-opacity: 0.75"/>
   </g>
   <g id="PathCollection_2"/>
   <g id="PathCollection_3"/>
   <g id="PathCollection_4"/>
   <g id="PathCollection_5"/>
   <g id="PathCollection_6"/>
   <g id="matplotlib.axis_1">
    <g id="xtick_1">
     <g id="line2d_1">
      <defs>
       <path id="m2ba0062f75" d="M 0 0 
L 0 3.5 
" style="stroke: #000000; stroke-width: 0.8"/>
      </defs>
      <g>
       <use xlink:href="#m2ba0062f75" x="50.858783" y="108.681635" style="stroke: #000000; stroke-width: 0.8"/>
      </g>
     </g>
     <g id="text_1">
      <!-- 0.025 -->
      <g transform="translate(36.544721 123.280073) scale(0.1 -0.1)">
       <defs>
        <path id="DejaVuSans-30" d="M 2034 4250 
Q 1547 4250 1301 3770 
Q 1056 3291 1056 2328 
Q 1056 1369 1301 889 
Q 1547 409 2034 409 
Q 2525 409 2770 889 
Q 3016 1369 3016 2328 
Q 3016 3291 2770 3770 
Q 2525 4250 2034 4250 
z
M 2034 4750 
Q 2819 4750 3233 4129 
Q 3647 3509 3647 2328 
Q 3647 1150 3233 529 
Q 2819 -91 2034 -91 
Q 1250 -91 836 529 
Q 422 1150 422 2328 
Q 422 3509 836 4129 
Q 1250 4750 2034 4750 
z
" transform="scale(0.015625)"/>
        <path id="DejaVuSans-2e" d="M 684 794 
L 1344 794 
L 1344 0 
L 684 0 
L 684 794 
z
" transform="scale(0.015625)"/>
        <path id="DejaVuSans-32" d="M 1228 531 
L 3431 531 
L 3431 0 
L 469 0 
L 469 531 
Q 828 903 1448 1529 
Q 2069 2156 2228 2338 
Q 2531 2678 2651 2914 
Q 2772 3150 2772 3378 
Q 2772 3750 2511 3984 
Q 2250 4219 1831 4219 
Q 1534 4219 1204 4116 
Q 875 4013 500 3803 
L 500 4441 
Q 881 4594 1212 4672 
Q 1544 4750 1819 4750 
Q 2544 4750 2975 4387 
Q 3406 4025 3406 3419 
Q 3406 3131 3298 2873 
Q 3191 2616 2906 2266 
Q 2828 2175 2409 1742 
Q 1991 1309 1228 531 
z
" transform="scale(0.015625)"/>
        <path id="DejaVuSans-35" d="M 691 4666 
L 3169 4666 
L 3169 4134 
L 1269 4134 
L 1269 2991 
Q 1406 3038 1543 3061 
Q 1681 3084 1819 3084 
Q 2600 3084 3056 2656 
Q 3513 2228 3513 1497 
Q 3513 744 3044 326 
Q 2575 -91 1722 -91 
Q 1428 -91 1123 -41 
Q 819 9 494 109 
L 494 744 
Q 775 591 1075 516 
Q 1375 441 1709 441 
Q 2250 441 2565 725 
Q 2881 1009 2881 1497 
Q 2881 1984 2565 2268 
Q 2250 2553 1709 2553 
Q 1456 2553 1204 2497 
Q 953 2441 691 2322 
L 691 4666 
z
" transform="scale(0.015625)"/>
       </defs>
       <use xlink:href="#DejaVuSans-30"/>
       <use xlink:href="#DejaVuSans-2e" x="63.623047"/>
       <use xlink:href="#DejaVuSans-30" x="95.410156"/>
       <use xlink:href="#DejaVuSans-32" x="159.033203"/>
       <use xlink:href="#DejaVuSans-35" x="222.65625"/>
      </g>
     </g>
    </g>
    <g id="xtick_2">
     <g id="line2d_2">
      <g>
       <use xlink:href="#m2ba0062f75" x="83.49221" y="108.681635" style="stroke: #000000; stroke-width: 0.8"/>
      </g>
     </g>
     <g id="text_2">
      <!-- 0.050 -->
      <g transform="translate(69.178147 123.280073) scale(0.1 -0.1)">
       <use xlink:href="#DejaVuSans-30"/>
       <use xlink:href="#DejaVuSans-2e" x="63.623047"/>
       <use xlink:href="#DejaVuSans-30" x="95.410156"/>
       <use xlink:href="#DejaVuSans-35" x="159.033203"/>
       <use xlink:href="#DejaVuSans-30" x="222.65625"/>
      </g>
     </g>
    </g>
    <g id="xtick_3">
     <g id="line2d_3">
      <g>
       <use xlink:href="#m2ba0062f75" x="116.125636" y="108.681635" style="stroke: #000000; stroke-width: 0.8"/>
      </g>
     </g>
     <g id="text_3">
      <!-- 0.075 -->
      <g transform="translate(101.811574 123.280073) scale(0.1 -0.1)">
       <defs>
        <path id="DejaVuSans-37" d="M 525 4666 
L 3525 4666 
L 3525 4397 
L 1831 0 
L 1172 0 
L 2766 4134 
L 525 4134 
L 525 4666 
z
" transform="scale(0.015625)"/>
       </defs>
       <use xlink:href="#DejaVuSans-30"/>
       <use xlink:href="#DejaVuSans-2e" x="63.623047"/>
       <use xlink:href="#DejaVuSans-30" x="95.410156"/>
       <use xlink:href="#DejaVuSans-37" x="159.033203"/>
       <use xlink:href="#DejaVuSans-35" x="222.65625"/>
      </g>
     </g>
    </g>
    <g id="text_4">
     <!-- ECE -->
     <g transform="translate(80.618313 138.477885) scale(0.12 -0.12)">
      <defs>
       <path id="DejaVuSans-45" d="M 628 4666 
L 3578 4666 
L 3578 4134 
L 1259 4134 
L 1259 2753 
L 3481 2753 
L 3481 2222 
L 1259 2222 
L 1259 531 
L 3634 531 
L 3634 0 
L 628 0 
L 628 4666 
z
" transform="scale(0.015625)"/>
       <path id="DejaVuSans-43" d="M 4122 4306 
L 4122 3641 
Q 3803 3938 3442 4084 
Q 3081 4231 2675 4231 
Q 1875 4231 1450 3742 
Q 1025 3253 1025 2328 
Q 1025 1406 1450 917 
Q 1875 428 2675 428 
Q 3081 428 3442 575 
Q 3803 722 4122 1019 
L 4122 359 
Q 3791 134 3420 21 
Q 3050 -91 2638 -91 
Q 1578 -91 968 557 
Q 359 1206 359 2328 
Q 359 3453 968 4101 
Q 1578 4750 2638 4750 
Q 3056 4750 3426 4639 
Q 3797 4528 4122 4306 
z
" transform="scale(0.015625)"/>
      </defs>
      <use xlink:href="#DejaVuSans-45"/>
      <use xlink:href="#DejaVuSans-43" x="63.183594"/>
      <use xlink:href="#DejaVuSans-45" x="133.007812"/>
     </g>
    </g>
   </g>
   <g id="matplotlib.axis_2">
    <g id="ytick_1">
     <g id="line2d_4">
      <defs>
       <path id="m781e623e76" d="M 0 0 
L -3.5 0 
" style="stroke: #000000; stroke-width: 0.8"/>
      </defs>
      <g>
       <use xlink:href="#m781e623e76" x="41.00524" y="99.510935" style="stroke: #000000; stroke-width: 0.8"/>
      </g>
     </g>
     <g id="text_5">
      <!-- 0 -->
      <g transform="translate(27.64274 103.310154) scale(0.1 -0.1)">
       <use xlink:href="#DejaVuSans-30"/>
      </g>
     </g>
    </g>
    <g id="ytick_2">
     <g id="line2d_5">
      <g>
       <use xlink:href="#m781e623e76" x="41.00524" y="58.031924" style="stroke: #000000; stroke-width: 0.8"/>
      </g>
     </g>
     <g id="text_6">
      <!-- 5 -->
      <g transform="translate(27.64274 61.831143) scale(0.1 -0.1)">
       <use xlink:href="#DejaVuSans-35"/>
      </g>
     </g>
    </g>
    <g id="ytick_3">
     <g id="line2d_6">
      <g>
       <use xlink:href="#m781e623e76" x="41.00524" y="16.552913" style="stroke: #000000; stroke-width: 0.8"/>
      </g>
     </g>
     <g id="text_7">
      <!-- 10 -->
      <g transform="translate(21.28024 20.352132) scale(0.1 -0.1)">
       <defs>
        <path id="DejaVuSans-31" d="M 794 531 
L 1825 531 
L 1825 4091 
L 703 3866 
L 703 4441 
L 1819 4666 
L 2450 4666 
L 2450 531 
L 3481 531 
L 3481 0 
L 794 0 
L 794 531 
z
" transform="scale(0.015625)"/>
       </defs>
       <use xlink:href="#DejaVuSans-31"/>
       <use xlink:href="#DejaVuSans-30" x="63.623047"/>
      </g>
     </g>
    </g>
    <g id="text_8">
     <!-- $\|\omega\|_F^2$ -->
     <g transform="translate(13.92024 69.760938) rotate(-90) scale(0.12 -0.12)">
      <defs>
       <path id="DejaVuSans-2016" d="M 1344 4891 
L 1344 -1509 
L 813 -1509 
L 813 4891 
L 1344 4891 
z
M 2376 4891 
L 2376 -1509 
L 1845 -1509 
L 1845 4891 
L 2376 4891 
z
" transform="scale(0.015625)"/>
       <path id="DejaVuSans-Oblique-3c9" d="M 1369 -91 
Q 72 -91 434 1766 
Q 575 2500 1256 3500 
L 1875 3500 
Q 1231 2500 1088 1750 
Q 819 397 1519 397 
Q 2166 397 2478 2078 
L 3009 2078 
Q 2669 388 3316 397 
Q 4013 403 4275 1750 
Q 4419 2500 4169 3500 
L 4788 3500 
Q 5075 2500 4934 1766 
Q 4578 -94 3278 -91 
Q 2428 -88 2503 844 
Q 2194 -91 1369 -91 
z
" transform="scale(0.015625)"/>
       <path id="DejaVuSans-Oblique-46" d="M 1081 4666 
L 3756 4666 
L 3653 4134 
L 1606 4134 
L 1338 2759 
L 3188 2759 
L 3084 2228 
L 1234 2228 
L 800 0 
L 172 0 
L 1081 4666 
z
" transform="scale(0.015625)"/>
      </defs>
      <use xlink:href="#DejaVuSans-2016" transform="translate(0 0.765625)"/>
      <use xlink:href="#DejaVuSans-Oblique-3c9" transform="translate(50 0.765625)"/>
      <use xlink:href="#DejaVuSans-2016" transform="translate(133.740234 0.765625)"/>
      <use xlink:href="#DejaVuSans-32" transform="translate(184.697266 39.046875) scale(0.7)"/>
      <use xlink:href="#DejaVuSans-Oblique-46" transform="translate(184.697266 -26.578125) scale(0.7)"/>
     </g>
    </g>
   </g>
   <g id="patch_3">
    <path d="M 41.00524 108.681635 
L 41.00524 3.00024 
" style="fill: none; stroke: #000000; stroke-width: 0.8; stroke-linejoin: miter; stroke-linecap: square"/>
   </g>
   <g id="patch_4">
    <path d="M 143.775761 108.681635 
L 143.775761 3.00024 
" style="fill: none; stroke: #000000; stroke-width: 0.8; stroke-linejoin: miter; stroke-linecap: square"/>
   </g>
   <g id="patch_5">
    <path d="M 41.00524 108.681635 
L 143.775761 108.681635 
" style="fill: none; stroke: #000000; stroke-width: 0.8; stroke-linejoin: miter; stroke-linecap: square"/>
   </g>
   <g id="patch_6">
    <path d="M 41.00524 3.00024 
L 143.775761 3.00024 
" style="fill: none; stroke: #000000; stroke-width: 0.8; stroke-linejoin: miter; stroke-linecap: square"/>
   </g>
   <g id="legend_1">
    <g id="patch_7">
     <path d="M 151.858876 97.06899 
L 245.465126 97.06899 
Q 247.465126 97.06899 247.465126 95.06899 
L 247.465126 8.00024 
Q 247.465126 6.00024 245.465126 6.00024 
L 151.858876 6.00024 
Q 149.858876 6.00024 149.858876 8.00024 
L 149.858876 95.06899 
Q 149.858876 97.06899 151.858876 97.06899 
z
" style="fill: #ffffff; opacity: 0.8; stroke: #cccccc; stroke-linejoin: miter"/>
    </g>
    <g id="text_9">
     <!-- Method -->
     <g transform="translate(179.908876 17.598678) scale(0.1 -0.1)">
      <defs>
       <path id="DejaVuSans-4d" d="M 628 4666 
L 1569 4666 
L 2759 1491 
L 3956 4666 
L 4897 4666 
L 4897 0 
L 4281 0 
L 4281 4097 
L 3078 897 
L 2444 897 
L 1241 4097 
L 1241 0 
L 628 0 
L 628 4666 
z
" transform="scale(0.015625)"/>
       <path id="DejaVuSans-65" d="M 3597 1894 
L 3597 1613 
L 953 1613 
Q 991 1019 1311 708 
Q 1631 397 2203 397 
Q 2534 397 2845 478 
Q 3156 559 3463 722 
L 3463 178 
Q 3153 47 2828 -22 
Q 2503 -91 2169 -91 
Q 1331 -91 842 396 
Q 353 884 353 1716 
Q 353 2575 817 3079 
Q 1281 3584 2069 3584 
Q 2775 3584 3186 3129 
Q 3597 2675 3597 1894 
z
M 3022 2063 
Q 3016 2534 2758 2815 
Q 2500 3097 2075 3097 
Q 1594 3097 1305 2825 
Q 1016 2553 972 2059 
L 3022 2063 
z
" transform="scale(0.015625)"/>
       <path id="DejaVuSans-74" d="M 1172 4494 
L 1172 3500 
L 2356 3500 
L 2356 3053 
L 1172 3053 
L 1172 1153 
Q 1172 725 1289 603 
Q 1406 481 1766 481 
L 2356 481 
L 2356 0 
L 1766 0 
Q 1100 0 847 248 
Q 594 497 594 1153 
L 594 3053 
L 172 3053 
L 172 3500 
L 594 3500 
L 594 4494 
L 1172 4494 
z
" transform="scale(0.015625)"/>
       <path id="DejaVuSans-68" d="M 3513 2113 
L 3513 0 
L 2938 0 
L 2938 2094 
Q 2938 2591 2744 2837 
Q 2550 3084 2163 3084 
Q 1697 3084 1428 2787 
Q 1159 2491 1159 1978 
L 1159 0 
L 581 0 
L 581 4863 
L 1159 4863 
L 1159 2956 
Q 1366 3272 1645 3428 
Q 1925 3584 2291 3584 
Q 2894 3584 3203 3211 
Q 3513 2838 3513 2113 
z
" transform="scale(0.015625)"/>
       <path id="DejaVuSans-6f" d="M 1959 3097 
Q 1497 3097 1228 2736 
Q 959 2375 959 1747 
Q 959 1119 1226 758 
Q 1494 397 1959 397 
Q 2419 397 2687 759 
Q 2956 1122 2956 1747 
Q 2956 2369 2687 2733 
Q 2419 3097 1959 3097 
z
M 1959 3584 
Q 2709 3584 3137 3096 
Q 3566 2609 3566 1747 
Q 3566 888 3137 398 
Q 2709 -91 1959 -91 
Q 1206 -91 779 398 
Q 353 888 353 1747 
Q 353 2609 779 3096 
Q 1206 3584 1959 3584 
z
" transform="scale(0.015625)"/>
       <path id="DejaVuSans-64" d="M 2906 2969 
L 2906 4863 
L 3481 4863 
L 3481 0 
L 2906 0 
L 2906 525 
Q 2725 213 2448 61 
Q 2172 -91 1784 -91 
Q 1150 -91 751 415 
Q 353 922 353 1747 
Q 353 2572 751 3078 
Q 1150 3584 1784 3584 
Q 2172 3584 2448 3432 
Q 2725 3281 2906 2969 
z
M 947 1747 
Q 947 1113 1208 752 
Q 1469 391 1925 391 
Q 2381 391 2643 752 
Q 2906 1113 2906 1747 
Q 2906 2381 2643 2742 
Q 2381 3103 1925 3103 
Q 1469 3103 1208 2742 
Q 947 2381 947 1747 
z
" transform="scale(0.015625)"/>
      </defs>
      <use xlink:href="#DejaVuSans-4d"/>
      <use xlink:href="#DejaVuSans-65" x="86.279297"/>
      <use xlink:href="#DejaVuSans-74" x="147.802734"/>
      <use xlink:href="#DejaVuSans-68" x="187.011719"/>
      <use xlink:href="#DejaVuSans-6f" x="250.390625"/>
      <use xlink:href="#DejaVuSans-64" x="311.572266"/>
     </g>
    </g>
    <g id="PathCollection_7">
     <defs>
      <path id="mb606c2e098" d="M 0 -3 
L -0.673542 -0.927051 
L -2.85317 -0.927051 
L -1.089814 0.354102 
L -1.763356 2.427051 
L -0 1.145898 
L 1.763356 2.427051 
L 1.089814 0.354102 
L 2.85317 -0.927051 
L 0.673542 -0.927051 
z
" style="stroke: #1f77b4"/>
     </defs>
     <g>
      <use xlink:href="#mb606c2e098" x="163.858876" y="29.651803" style="fill: #1f77b4; stroke: #1f77b4"/>
     </g>
    </g>
    <g id="text_10">
     <!-- No adapt -->
     <g transform="translate(181.858876 32.276803) scale(0.1 -0.1)">
      <defs>
       <path id="DejaVuSans-4e" d="M 628 4666 
L 1478 4666 
L 3547 763 
L 3547 4666 
L 4159 4666 
L 4159 0 
L 3309 0 
L 1241 3903 
L 1241 0 
L 628 0 
L 628 4666 
z
" transform="scale(0.015625)"/>
       <path id="DejaVuSans-20" transform="scale(0.015625)"/>
       <path id="DejaVuSans-61" d="M 2194 1759 
Q 1497 1759 1228 1600 
Q 959 1441 959 1056 
Q 959 750 1161 570 
Q 1363 391 1709 391 
Q 2188 391 2477 730 
Q 2766 1069 2766 1631 
L 2766 1759 
L 2194 1759 
z
M 3341 1997 
L 3341 0 
L 2766 0 
L 2766 531 
Q 2569 213 2275 61 
Q 1981 -91 1556 -91 
Q 1019 -91 701 211 
Q 384 513 384 1019 
Q 384 1609 779 1909 
Q 1175 2209 1959 2209 
L 2766 2209 
L 2766 2266 
Q 2766 2663 2505 2880 
Q 2244 3097 1772 3097 
Q 1472 3097 1187 3025 
Q 903 2953 641 2809 
L 641 3341 
Q 956 3463 1253 3523 
Q 1550 3584 1831 3584 
Q 2591 3584 2966 3190 
Q 3341 2797 3341 1997 
z
" transform="scale(0.015625)"/>
       <path id="DejaVuSans-70" d="M 1159 525 
L 1159 -1331 
L 581 -1331 
L 581 3500 
L 1159 3500 
L 1159 2969 
Q 1341 3281 1617 3432 
Q 1894 3584 2278 3584 
Q 2916 3584 3314 3078 
Q 3713 2572 3713 1747 
Q 3713 922 3314 415 
Q 2916 -91 2278 -91 
Q 1894 -91 1617 61 
Q 1341 213 1159 525 
z
M 3116 1747 
Q 3116 2381 2855 2742 
Q 2594 3103 2138 3103 
Q 1681 3103 1420 2742 
Q 1159 2381 1159 1747 
Q 1159 1113 1420 752 
Q 1681 391 2138 391 
Q 2594 391 2855 752 
Q 3116 1113 3116 1747 
z
" transform="scale(0.015625)"/>
      </defs>
      <use xlink:href="#DejaVuSans-4e"/>
      <use xlink:href="#DejaVuSans-6f" x="74.804688"/>
      <use xlink:href="#DejaVuSans-20" x="135.986328"/>
      <use xlink:href="#DejaVuSans-61" x="167.773438"/>
      <use xlink:href="#DejaVuSans-64" x="229.052734"/>
      <use xlink:href="#DejaVuSans-61" x="292.529297"/>
      <use xlink:href="#DejaVuSans-70" x="353.808594"/>
      <use xlink:href="#DejaVuSans-74" x="417.285156"/>
     </g>
    </g>
    <g id="PathCollection_8">
     <defs>
      <path id="ma90be1656a" d="M 0 -3 
L -0.673542 -0.927051 
L -2.85317 -0.927051 
L -1.089814 0.354102 
L -1.763356 2.427051 
L -0 1.145898 
L 1.763356 2.427051 
L 1.089814 0.354102 
L 2.85317 -0.927051 
L 0.673542 -0.927051 
z
" style="stroke: #ff7f0e"/>
     </defs>
     <g>
      <use xlink:href="#ma90be1656a" x="163.858876" y="44.329928" style="fill: #ff7f0e; stroke: #ff7f0e"/>
     </g>
    </g>
    <g id="text_11">
     <!-- TENT -->
     <g transform="translate(181.858876 46.954928) scale(0.1 -0.1)">
      <defs>
       <path id="DejaVuSans-54" d="M -19 4666 
L 3928 4666 
L 3928 4134 
L 2272 4134 
L 2272 0 
L 1638 0 
L 1638 4134 
L -19 4134 
L -19 4666 
z
" transform="scale(0.015625)"/>
      </defs>
      <use xlink:href="#DejaVuSans-54"/>
      <use xlink:href="#DejaVuSans-45" x="61.083984"/>
      <use xlink:href="#DejaVuSans-4e" x="124.267578"/>
      <use xlink:href="#DejaVuSans-54" x="199.072266"/>
     </g>
    </g>
    <g id="PathCollection_9">
     <defs>
      <path id="md4770b4733" d="M 0 -3 
L -0.673542 -0.927051 
L -2.85317 -0.927051 
L -1.089814 0.354102 
L -1.763356 2.427051 
L -0 1.145898 
L 1.763356 2.427051 
L 1.089814 0.354102 
L 2.85317 -0.927051 
L 0.673542 -0.927051 
z
" style="stroke: #2ca02c"/>
     </defs>
     <g>
      <use xlink:href="#md4770b4733" x="163.858876" y="59.008053" style="fill: #2ca02c; stroke: #2ca02c"/>
     </g>
    </g>
    <g id="text_12">
     <!-- EATA -->
     <g transform="translate(181.858876 61.633053) scale(0.1 -0.1)">
      <defs>
       <path id="DejaVuSans-41" d="M 2188 4044 
L 1331 1722 
L 3047 1722 
L 2188 4044 
z
M 1831 4666 
L 2547 4666 
L 4325 0 
L 3669 0 
L 3244 1197 
L 1141 1197 
L 716 0 
L 50 0 
L 1831 4666 
z
" transform="scale(0.015625)"/>
      </defs>
      <use xlink:href="#DejaVuSans-45"/>
      <use xlink:href="#DejaVuSans-41" x="63.183594"/>
      <use xlink:href="#DejaVuSans-54" x="123.841797"/>
      <use xlink:href="#DejaVuSans-41" x="177.175781"/>
     </g>
    </g>
    <g id="PathCollection_10">
     <defs>
      <path id="m55bee19852" d="M 0 -3 
L -0.673542 -0.927051 
L -2.85317 -0.927051 
L -1.089814 0.354102 
L -1.763356 2.427051 
L -0 1.145898 
L 1.763356 2.427051 
L 1.089814 0.354102 
L 2.85317 -0.927051 
L 0.673542 -0.927051 
z
" style="stroke: #d62728"/>
     </defs>
     <g>
      <use xlink:href="#m55bee19852" x="163.858876" y="73.686178" style="fill: #d62728; stroke: #d62728"/>
     </g>
    </g>
    <g id="text_13">
     <!-- SAR -->
     <g transform="translate(181.858876 76.311178) scale(0.1 -0.1)">
      <defs>
       <path id="DejaVuSans-53" d="M 3425 4513 
L 3425 3897 
Q 3066 4069 2747 4153 
Q 2428 4238 2131 4238 
Q 1616 4238 1336 4038 
Q 1056 3838 1056 3469 
Q 1056 3159 1242 3001 
Q 1428 2844 1947 2747 
L 2328 2669 
Q 3034 2534 3370 2195 
Q 3706 1856 3706 1288 
Q 3706 609 3251 259 
Q 2797 -91 1919 -91 
Q 1588 -91 1214 -16 
Q 841 59 441 206 
L 441 856 
Q 825 641 1194 531 
Q 1563 422 1919 422 
Q 2459 422 2753 634 
Q 3047 847 3047 1241 
Q 3047 1584 2836 1778 
Q 2625 1972 2144 2069 
L 1759 2144 
Q 1053 2284 737 2584 
Q 422 2884 422 3419 
Q 422 4038 858 4394 
Q 1294 4750 2059 4750 
Q 2388 4750 2728 4690 
Q 3069 4631 3425 4513 
z
" transform="scale(0.015625)"/>
       <path id="DejaVuSans-52" d="M 2841 2188 
Q 3044 2119 3236 1894 
Q 3428 1669 3622 1275 
L 4263 0 
L 3584 0 
L 2988 1197 
Q 2756 1666 2539 1819 
Q 2322 1972 1947 1972 
L 1259 1972 
L 1259 0 
L 628 0 
L 628 4666 
L 2053 4666 
Q 2853 4666 3247 4331 
Q 3641 3997 3641 3322 
Q 3641 2881 3436 2590 
Q 3231 2300 2841 2188 
z
M 1259 4147 
L 1259 2491 
L 2053 2491 
Q 2509 2491 2742 2702 
Q 2975 2913 2975 3322 
Q 2975 3731 2742 3939 
Q 2509 4147 2053 4147 
L 1259 4147 
z
" transform="scale(0.015625)"/>
      </defs>
      <use xlink:href="#DejaVuSans-53"/>
      <use xlink:href="#DejaVuSans-41" x="65.351562"/>
      <use xlink:href="#DejaVuSans-52" x="133.759766"/>
     </g>
    </g>
    <g id="PathCollection_11">
     <defs>
      <path id="mf9b4b2a138" d="M 0 -3 
L -0.673542 -0.927051 
L -2.85317 -0.927051 
L -1.089814 0.354102 
L -1.763356 2.427051 
L -0 1.145898 
L 1.763356 2.427051 
L 1.089814 0.354102 
L 2.85317 -0.927051 
L 0.673542 -0.927051 
z
" style="stroke: #9467bd"/>
     </defs>
     <g>
      <use xlink:href="#mf9b4b2a138" x="163.858876" y="88.364303" style="fill: #9467bd; stroke: #9467bd"/>
     </g>
    </g>
    <g id="text_14">
     <!-- POEM (ours) -->
     <g transform="translate(181.858876 90.989303) scale(0.1 -0.1)">
      <defs>
       <path id="DejaVuSans-50" d="M 1259 4147 
L 1259 2394 
L 2053 2394 
Q 2494 2394 2734 2622 
Q 2975 2850 2975 3272 
Q 2975 3691 2734 3919 
Q 2494 4147 2053 4147 
L 1259 4147 
z
M 628 4666 
L 2053 4666 
Q 2838 4666 3239 4311 
Q 3641 3956 3641 3272 
Q 3641 2581 3239 2228 
Q 2838 1875 2053 1875 
L 1259 1875 
L 1259 0 
L 628 0 
L 628 4666 
z
" transform="scale(0.015625)"/>
       <path id="DejaVuSans-4f" d="M 2522 4238 
Q 1834 4238 1429 3725 
Q 1025 3213 1025 2328 
Q 1025 1447 1429 934 
Q 1834 422 2522 422 
Q 3209 422 3611 934 
Q 4013 1447 4013 2328 
Q 4013 3213 3611 3725 
Q 3209 4238 2522 4238 
z
M 2522 4750 
Q 3503 4750 4090 4092 
Q 4678 3434 4678 2328 
Q 4678 1225 4090 567 
Q 3503 -91 2522 -91 
Q 1538 -91 948 565 
Q 359 1222 359 2328 
Q 359 3434 948 4092 
Q 1538 4750 2522 4750 
z
" transform="scale(0.015625)"/>
       <path id="DejaVuSans-28" d="M 1984 4856 
Q 1566 4138 1362 3434 
Q 1159 2731 1159 2009 
Q 1159 1288 1364 580 
Q 1569 -128 1984 -844 
L 1484 -844 
Q 1016 -109 783 600 
Q 550 1309 550 2009 
Q 550 2706 781 3412 
Q 1013 4119 1484 4856 
L 1984 4856 
z
" transform="scale(0.015625)"/>
       <path id="DejaVuSans-75" d="M 544 1381 
L 544 3500 
L 1119 3500 
L 1119 1403 
Q 1119 906 1312 657 
Q 1506 409 1894 409 
Q 2359 409 2629 706 
Q 2900 1003 2900 1516 
L 2900 3500 
L 3475 3500 
L 3475 0 
L 2900 0 
L 2900 538 
Q 2691 219 2414 64 
Q 2138 -91 1772 -91 
Q 1169 -91 856 284 
Q 544 659 544 1381 
z
M 1991 3584 
L 1991 3584 
z
" transform="scale(0.015625)"/>
       <path id="DejaVuSans-72" d="M 2631 2963 
Q 2534 3019 2420 3045 
Q 2306 3072 2169 3072 
Q 1681 3072 1420 2755 
Q 1159 2438 1159 1844 
L 1159 0 
L 581 0 
L 581 3500 
L 1159 3500 
L 1159 2956 
Q 1341 3275 1631 3429 
Q 1922 3584 2338 3584 
Q 2397 3584 2469 3576 
Q 2541 3569 2628 3553 
L 2631 2963 
z
" transform="scale(0.015625)"/>
       <path id="DejaVuSans-73" d="M 2834 3397 
L 2834 2853 
Q 2591 2978 2328 3040 
Q 2066 3103 1784 3103 
Q 1356 3103 1142 2972 
Q 928 2841 928 2578 
Q 928 2378 1081 2264 
Q 1234 2150 1697 2047 
L 1894 2003 
Q 2506 1872 2764 1633 
Q 3022 1394 3022 966 
Q 3022 478 2636 193 
Q 2250 -91 1575 -91 
Q 1294 -91 989 -36 
Q 684 19 347 128 
L 347 722 
Q 666 556 975 473 
Q 1284 391 1588 391 
Q 1994 391 2212 530 
Q 2431 669 2431 922 
Q 2431 1156 2273 1281 
Q 2116 1406 1581 1522 
L 1381 1569 
Q 847 1681 609 1914 
Q 372 2147 372 2553 
Q 372 3047 722 3315 
Q 1072 3584 1716 3584 
Q 2034 3584 2315 3537 
Q 2597 3491 2834 3397 
z
" transform="scale(0.015625)"/>
       <path id="DejaVuSans-29" d="M 513 4856 
L 1013 4856 
Q 1481 4119 1714 3412 
Q 1947 2706 1947 2009 
Q 1947 1309 1714 600 
Q 1481 -109 1013 -844 
L 513 -844 
Q 928 -128 1133 580 
Q 1338 1288 1338 2009 
Q 1338 2731 1133 3434 
Q 928 4138 513 4856 
z
" transform="scale(0.015625)"/>
      </defs>
      <use xlink:href="#DejaVuSans-50"/>
      <use xlink:href="#DejaVuSans-4f" x="60.302734"/>
      <use xlink:href="#DejaVuSans-45" x="139.013672"/>
      <use xlink:href="#DejaVuSans-4d" x="202.197266"/>
      <use xlink:href="#DejaVuSans-20" x="288.476562"/>
      <use xlink:href="#DejaVuSans-28" x="320.263672"/>
      <use xlink:href="#DejaVuSans-6f" x="359.277344"/>
      <use xlink:href="#DejaVuSans-75" x="420.458984"/>
      <use xlink:href="#DejaVuSans-72" x="483.837891"/>
      <use xlink:href="#DejaVuSans-73" x="524.951172"/>
      <use xlink:href="#DejaVuSans-29" x="577.050781"/>
     </g>
    </g>
   </g>
  </g>
  <g id="axes_2">
   <g id="patch_8">
    <path d="M 305.917677 108.681635 
L 716.99976 108.681635 
L 716.99976 3.00024 
L 305.917677 3.00024 
z
" style="fill: #ffffff"/>
   </g>
   <g id="PolyCollection_1">
    <defs>
     <path id="m39040e0d35" d="M 308.640075 -52.012172 
L 308.640075 -52.012172 
L 311.362473 -51.060706 
L 314.084871 -51.806265 
L 316.807269 -51.805808 
L 319.529667 -52.460956 
L 322.252065 -52.269909 
L 324.974462 -52.734082 
L 327.69686 -52.808693 
L 330.419258 -53.133869 
L 333.141656 -53.156578 
L 335.864054 -53.069505 
L 338.586452 -52.41774 
L 341.30885 -53.070925 
L 344.031248 -52.445769 
L 346.753646 -52.160161 
L 349.476044 -51.987836 
L 352.198441 -51.618593 
L 354.920839 -52.361632 
L 357.643237 -52.677445 
L 360.365635 -52.869545 
L 363.088033 -53.125764 
L 365.810431 -52.94181 
L 368.532829 -51.536377 
L 371.255227 -51.672509 
L 373.977625 -51.699011 
L 376.700023 -51.422958 
L 379.42242 -51.370121 
L 382.144818 -51.255475 
L 384.867216 -51.163239 
L 387.589614 -51.390549 
L 390.312012 -51.100335 
L 393.03441 -50.781872 
L 395.756808 -51.048206 
L 398.479206 -51.169233 
L 401.201604 -50.960252 
L 403.924002 -50.753103 
L 406.646399 -51.25587 
L 409.368797 -51.241856 
L 412.091195 -50.758878 
L 414.813593 -50.50144 
L 417.535991 -50.562994 
L 420.258389 -50.81957 
L 422.980787 -50.839813 
L 425.703185 -51.375983 
L 428.425583 -51.593543 
L 431.147981 -51.470667 
L 433.870378 -51.488311 
L 436.592776 -51.523098 
L 439.315174 -51.688656 
L 442.037572 -51.40814 
L 444.75997 -51.36168 
L 447.482368 -51.857562 
L 450.204766 -51.792284 
L 452.927164 -51.673723 
L 455.649562 -51.765908 
L 458.37196 -51.62514 
L 461.094357 -51.606445 
L 463.816755 -52.136331 
L 466.539153 -52.117853 
L 469.261551 -52.104298 
L 471.983949 -52.198087 
L 474.706347 -52.374116 
L 477.428745 -52.148848 
L 480.151143 -52.872737 
L 482.873541 -52.746904 
L 485.595939 -52.807754 
L 488.318336 -52.727129 
L 491.040734 -53.051185 
L 493.763132 -53.050656 
L 496.48553 -53.28935 
L 499.207928 -53.284404 
L 501.930326 -53.06658 
L 504.652724 -53.051596 
L 507.375122 -53.0026 
L 510.09752 -52.662438 
L 512.819918 -52.281409 
L 515.542315 -52.177195 
L 518.264713 -52.204926 
L 520.987111 -52.347672 
L 523.709509 -52.590859 
L 526.431907 -52.46621 
L 529.154305 -52.229832 
L 531.876703 -52.3677 
L 534.599101 -51.96611 
L 537.321499 -51.766971 
L 540.043897 -51.728531 
L 542.766294 -52.135346 
L 545.488692 -51.771827 
L 548.21109 -51.960997 
L 550.933488 -51.979962 
L 553.655886 -52.136877 
L 556.378284 -52.184324 
L 559.100682 -52.023005 
L 561.82308 -51.698877 
L 564.545478 -51.798864 
L 567.267876 -51.668855 
L 569.990273 -51.633863 
L 572.712671 -51.715621 
L 575.435069 -51.769506 
L 578.157467 -51.870047 
L 580.879865 -51.916415 
L 583.602263 -52.009643 
L 586.324661 -51.827642 
L 589.047059 -51.881116 
L 591.769457 -52.238767 
L 594.491855 -52.178697 
L 597.214252 -52.230709 
L 599.93665 -52.4282 
L 602.659048 -52.719077 
L 605.381446 -52.625981 
L 608.103844 -52.740552 
L 610.826242 -52.454569 
L 613.54864 -52.692672 
L 616.271038 -52.352002 
L 618.993436 -52.656155 
L 621.715834 -52.617244 
L 624.438231 -52.935723 
L 627.160629 -52.85352 
L 629.883027 -52.866634 
L 632.605425 -52.955519 
L 635.327823 -53.075969 
L 638.050221 -52.875418 
L 640.772619 -53.088495 
L 643.495017 -53.165034 
L 646.217415 -53.11876 
L 648.939813 -53.09782 
L 651.66221 -52.721552 
L 654.384608 -52.835811 
L 657.107006 -52.750345 
L 659.829404 -52.653826 
L 662.551802 -52.543771 
L 665.2742 -52.375002 
L 667.996598 -52.58641 
L 670.718996 -52.406602 
L 673.441394 -52.239914 
L 676.163792 -52.229828 
L 678.886189 -52.103328 
L 681.608587 -51.933365 
L 684.330985 -51.781211 
L 687.053383 -51.858998 
L 689.775781 -51.904404 
L 692.498179 -51.71378 
L 695.220577 -51.664482 
L 697.942975 -51.694644 
L 700.665373 -51.46551 
L 703.387771 -51.086164 
L 706.110168 -51.284733 
L 708.832566 -51.266317 
L 711.554964 -51.234153 
L 714.277362 -51.457105 
L 716.99976 -51.29008 
L 716.99976 -51.296007 
L 716.99976 -51.296007 
L 714.277362 -51.467251 
L 711.554964 -51.244288 
L 708.832566 -51.275682 
L 706.110168 -51.292562 
L 703.387771 -51.095252 
L 700.665373 -51.476196 
L 697.942975 -51.700408 
L 695.220577 -51.671407 
L 692.498179 -51.729979 
L 689.775781 -51.918654 
L 687.053383 -51.870342 
L 684.330985 -51.789544 
L 681.608587 -51.938243 
L 678.886189 -52.112218 
L 676.163792 -52.23561 
L 673.441394 -52.248217 
L 670.718996 -52.416689 
L 667.996598 -52.594649 
L 665.2742 -52.388919 
L 662.551802 -52.552241 
L 659.829404 -52.660924 
L 657.107006 -52.75676 
L 654.384608 -52.846554 
L 651.66221 -52.732621 
L 648.939813 -53.1074 
L 646.217415 -53.129202 
L 643.495017 -53.167871 
L 640.772619 -53.091616 
L 638.050221 -52.878804 
L 635.327823 -53.083774 
L 632.605425 -52.959929 
L 629.883027 -52.879359 
L 627.160629 -52.862347 
L 624.438231 -52.940383 
L 621.715834 -52.624626 
L 618.993436 -52.66018 
L 616.271038 -52.358337 
L 613.54864 -52.701277 
L 610.826242 -52.457543 
L 608.103844 -52.74497 
L 605.381446 -52.632318 
L 602.659048 -52.729587 
L 599.93665 -52.434642 
L 597.214252 -52.248046 
L 594.491855 -52.189378 
L 591.769457 -52.249828 
L 589.047059 -51.890072 
L 586.324661 -51.834061 
L 583.602263 -52.027407 
L 580.879865 -51.931095 
L 578.157467 -51.877218 
L 575.435069 -51.790694 
L 572.712671 -51.72658 
L 569.990273 -51.646687 
L 567.267876 -51.67295 
L 564.545478 -51.819727 
L 561.82308 -51.717596 
L 559.100682 -52.039364 
L 556.378284 -52.194166 
L 553.655886 -52.143959 
L 550.933488 -51.992813 
L 548.21109 -51.973428 
L 545.488692 -51.791071 
L 542.766294 -52.145282 
L 540.043897 -51.741424 
L 537.321499 -51.777357 
L 534.599101 -51.978495 
L 531.876703 -52.374285 
L 529.154305 -52.240855 
L 526.431907 -52.481638 
L 523.709509 -52.596835 
L 520.987111 -52.360374 
L 518.264713 -52.216992 
L 515.542315 -52.185208 
L 512.819918 -52.290541 
L 510.09752 -52.674688 
L 507.375122 -53.024367 
L 504.652724 -53.059744 
L 501.930326 -53.078196 
L 499.207928 -53.296643 
L 496.48553 -53.304186 
L 493.763132 -53.061696 
L 491.040734 -53.066131 
L 488.318336 -52.737598 
L 485.595939 -52.818794 
L 482.873541 -52.764406 
L 480.151143 -52.881583 
L 477.428745 -52.157898 
L 474.706347 -52.378801 
L 471.983949 -52.210047 
L 469.261551 -52.119685 
L 466.539153 -52.131164 
L 463.816755 -52.155196 
L 461.094357 -51.613831 
L 458.37196 -51.656629 
L 455.649562 -51.770393 
L 452.927164 -51.683835 
L 450.204766 -51.797446 
L 447.482368 -51.866842 
L 444.75997 -51.374105 
L 442.037572 -51.4157 
L 439.315174 -51.694162 
L 436.592776 -51.529942 
L 433.870378 -51.498605 
L 431.147981 -51.498651 
L 428.425583 -51.615473 
L 425.703185 -51.388855 
L 422.980787 -50.867687 
L 420.258389 -50.824915 
L 417.535991 -50.568077 
L 414.813593 -50.509663 
L 412.091195 -50.780268 
L 409.368797 -51.264113 
L 406.646399 -51.269943 
L 403.924002 -50.781002 
L 401.201604 -50.971577 
L 398.479206 -51.17463 
L 395.756808 -51.059602 
L 393.03441 -50.807613 
L 390.312012 -51.122022 
L 387.589614 -51.398181 
L 384.867216 -51.180874 
L 382.144818 -51.267277 
L 379.42242 -51.381029 
L 376.700023 -51.439992 
L 373.977625 -51.706335 
L 371.255227 -51.678847 
L 368.532829 -51.551761 
L 365.810431 -52.956278 
L 363.088033 -53.135112 
L 360.365635 -52.893905 
L 357.643237 -52.692773 
L 354.920839 -52.383744 
L 352.198441 -51.664456 
L 349.476044 -52.027813 
L 346.753646 -52.181522 
L 344.031248 -52.483062 
L 341.30885 -53.077216 
L 338.586452 -52.436518 
L 335.864054 -53.083662 
L 333.141656 -53.166477 
L 330.419258 -53.140431 
L 327.69686 -52.817371 
L 324.974462 -52.747193 
L 322.252065 -52.27923 
L 319.529667 -52.483051 
L 316.807269 -51.834284 
L 314.084871 -51.848698 
L 311.362473 -51.108751 
L 308.640075 -52.012172 
z
" style="stroke: #6ac8ac; stroke-opacity: 0.2"/>
    </defs>
    <g clip-path="url(#p2fb4918587)">
     <use xlink:href="#m39040e0d35" x="0" y="144" style="fill: #6ac8ac; fill-opacity: 0.2; stroke: #6ac8ac; stroke-opacity: 0.2"/>
    </g>
   </g>
   <g id="PolyCollection_2"/>
   <g id="PolyCollection_3"/>
   <g id="matplotlib.axis_3">
    <g id="xtick_4">
     <g id="line2d_7">
      <g>
       <use xlink:href="#m2ba0062f75" x="308.640075" y="108.681635" style="stroke: #000000; stroke-width: 0.8"/>
      </g>
     </g>
     <g id="text_15">
      <!-- 0 -->
      <g transform="translate(305.458825 123.280073) scale(0.1 -0.1)">
       <use xlink:href="#DejaVuSans-30"/>
      </g>
     </g>
    </g>
    <g id="xtick_5">
     <g id="line2d_8">
      <g>
       <use xlink:href="#m2ba0062f75" x="363.088033" y="108.681635" style="stroke: #000000; stroke-width: 0.8"/>
      </g>
     </g>
     <g id="text_16">
      <!-- 5000 -->
      <g transform="translate(350.363033 123.280073) scale(0.1 -0.1)">
       <use xlink:href="#DejaVuSans-35"/>
       <use xlink:href="#DejaVuSans-30" x="63.623047"/>
       <use xlink:href="#DejaVuSans-30" x="127.246094"/>
       <use xlink:href="#DejaVuSans-30" x="190.869141"/>
      </g>
     </g>
    </g>
    <g id="xtick_6">
     <g id="line2d_9">
      <g>
       <use xlink:href="#m2ba0062f75" x="417.535991" y="108.681635" style="stroke: #000000; stroke-width: 0.8"/>
      </g>
     </g>
     <g id="text_17">
      <!-- 10000 -->
      <g transform="translate(401.629741 123.280073) scale(0.1 -0.1)">
       <use xlink:href="#DejaVuSans-31"/>
       <use xlink:href="#DejaVuSans-30" x="63.623047"/>
       <use xlink:href="#DejaVuSans-30" x="127.246094"/>
       <use xlink:href="#DejaVuSans-30" x="190.869141"/>
       <use xlink:href="#DejaVuSans-30" x="254.492188"/>
      </g>
     </g>
    </g>
    <g id="xtick_7">
     <g id="line2d_10">
      <g>
       <use xlink:href="#m2ba0062f75" x="471.983949" y="108.681635" style="stroke: #000000; stroke-width: 0.8"/>
      </g>
     </g>
     <g id="text_18">
      <!-- 15000 -->
      <g transform="translate(456.077699 123.280073) scale(0.1 -0.1)">
       <use xlink:href="#DejaVuSans-31"/>
       <use xlink:href="#DejaVuSans-35" x="63.623047"/>
       <use xlink:href="#DejaVuSans-30" x="127.246094"/>
       <use xlink:href="#DejaVuSans-30" x="190.869141"/>
       <use xlink:href="#DejaVuSans-30" x="254.492188"/>
      </g>
     </g>
    </g>
    <g id="xtick_8">
     <g id="line2d_11">
      <g>
       <use xlink:href="#m2ba0062f75" x="526.431907" y="108.681635" style="stroke: #000000; stroke-width: 0.8"/>
      </g>
     </g>
     <g id="text_19">
      <!-- 20000 -->
      <g transform="translate(510.525657 123.280073) scale(0.1 -0.1)">
       <use xlink:href="#DejaVuSans-32"/>
       <use xlink:href="#DejaVuSans-30" x="63.623047"/>
       <use xlink:href="#DejaVuSans-30" x="127.246094"/>
       <use xlink:href="#DejaVuSans-30" x="190.869141"/>
       <use xlink:href="#DejaVuSans-30" x="254.492188"/>
      </g>
     </g>
    </g>
    <g id="xtick_9">
     <g id="line2d_12">
      <g>
       <use xlink:href="#m2ba0062f75" x="580.879865" y="108.681635" style="stroke: #000000; stroke-width: 0.8"/>
      </g>
     </g>
     <g id="text_20">
      <!-- 25000 -->
      <g transform="translate(564.973615 123.280073) scale(0.1 -0.1)">
       <use xlink:href="#DejaVuSans-32"/>
       <use xlink:href="#DejaVuSans-35" x="63.623047"/>
       <use xlink:href="#DejaVuSans-30" x="127.246094"/>
       <use xlink:href="#DejaVuSans-30" x="190.869141"/>
       <use xlink:href="#DejaVuSans-30" x="254.492188"/>
      </g>
     </g>
    </g>
    <g id="xtick_10">
     <g id="line2d_13">
      <g>
       <use xlink:href="#m2ba0062f75" x="635.327823" y="108.681635" style="stroke: #000000; stroke-width: 0.8"/>
      </g>
     </g>
     <g id="text_21">
      <!-- 30000 -->
      <g transform="translate(619.421573 123.280073) scale(0.1 -0.1)">
       <defs>
        <path id="DejaVuSans-33" d="M 2597 2516 
Q 3050 2419 3304 2112 
Q 3559 1806 3559 1356 
Q 3559 666 3084 287 
Q 2609 -91 1734 -91 
Q 1441 -91 1130 -33 
Q 819 25 488 141 
L 488 750 
Q 750 597 1062 519 
Q 1375 441 1716 441 
Q 2309 441 2620 675 
Q 2931 909 2931 1356 
Q 2931 1769 2642 2001 
Q 2353 2234 1838 2234 
L 1294 2234 
L 1294 2753 
L 1863 2753 
Q 2328 2753 2575 2939 
Q 2822 3125 2822 3475 
Q 2822 3834 2567 4026 
Q 2313 4219 1838 4219 
Q 1578 4219 1281 4162 
Q 984 4106 628 3988 
L 628 4550 
Q 988 4650 1302 4700 
Q 1616 4750 1894 4750 
Q 2613 4750 3031 4423 
Q 3450 4097 3450 3541 
Q 3450 3153 3228 2886 
Q 3006 2619 2597 2516 
z
" transform="scale(0.015625)"/>
       </defs>
       <use xlink:href="#DejaVuSans-33"/>
       <use xlink:href="#DejaVuSans-30" x="63.623047"/>
       <use xlink:href="#DejaVuSans-30" x="127.246094"/>
       <use xlink:href="#DejaVuSans-30" x="190.869141"/>
       <use xlink:href="#DejaVuSans-30" x="254.492188"/>
      </g>
     </g>
    </g>
    <g id="xtick_11">
     <g id="line2d_14">
      <g>
       <use xlink:href="#m2ba0062f75" x="689.775781" y="108.681635" style="stroke: #000000; stroke-width: 0.8"/>
      </g>
     </g>
     <g id="text_22">
      <!-- 35000 -->
      <g transform="translate(673.869531 123.280073) scale(0.1 -0.1)">
       <use xlink:href="#DejaVuSans-33"/>
       <use xlink:href="#DejaVuSans-35" x="63.623047"/>
       <use xlink:href="#DejaVuSans-30" x="127.246094"/>
       <use xlink:href="#DejaVuSans-30" x="190.869141"/>
       <use xlink:href="#DejaVuSans-30" x="254.492188"/>
      </g>
     </g>
    </g>
    <g id="text_23">
     <!-- Example $j$ -->
     <g transform="translate(481.818719 138.47976) scale(0.12 -0.12)">
      <defs>
       <path id="DejaVuSans-78" d="M 3513 3500 
L 2247 1797 
L 3578 0 
L 2900 0 
L 1881 1375 
L 863 0 
L 184 0 
L 1544 1831 
L 300 3500 
L 978 3500 
L 1906 2253 
L 2834 3500 
L 3513 3500 
z
" transform="scale(0.015625)"/>
       <path id="DejaVuSans-6d" d="M 3328 2828 
Q 3544 3216 3844 3400 
Q 4144 3584 4550 3584 
Q 5097 3584 5394 3201 
Q 5691 2819 5691 2113 
L 5691 0 
L 5113 0 
L 5113 2094 
Q 5113 2597 4934 2840 
Q 4756 3084 4391 3084 
Q 3944 3084 3684 2787 
Q 3425 2491 3425 1978 
L 3425 0 
L 2847 0 
L 2847 2094 
Q 2847 2600 2669 2842 
Q 2491 3084 2119 3084 
Q 1678 3084 1418 2786 
Q 1159 2488 1159 1978 
L 1159 0 
L 581 0 
L 581 3500 
L 1159 3500 
L 1159 2956 
Q 1356 3278 1631 3431 
Q 1906 3584 2284 3584 
Q 2666 3584 2933 3390 
Q 3200 3197 3328 2828 
z
" transform="scale(0.015625)"/>
       <path id="DejaVuSans-6c" d="M 603 4863 
L 1178 4863 
L 1178 0 
L 603 0 
L 603 4863 
z
" transform="scale(0.015625)"/>
       <path id="DejaVuSans-Oblique-6a" d="M 928 3500 
L 1503 3500 
L 813 -63 
L 809 -78 
Q 694 -675 544 -897 
Q 403 -1106 132 -1218 
Q -138 -1331 -506 -1331 
L -722 -1331 
L -628 -844 
L -481 -844 
Q -144 -844 -1 -703 
Q 141 -563 238 -63 
L 928 3500 
z
M 1197 4863 
L 1772 4863 
L 1631 4134 
L 1056 4134 
L 1197 4863 
z
" transform="scale(0.015625)"/>
      </defs>
      <use xlink:href="#DejaVuSans-45" transform="translate(0 0.015625)"/>
      <use xlink:href="#DejaVuSans-78" transform="translate(63.183594 0.015625)"/>
      <use xlink:href="#DejaVuSans-61" transform="translate(122.363281 0.015625)"/>
      <use xlink:href="#DejaVuSans-6d" transform="translate(183.642578 0.015625)"/>
      <use xlink:href="#DejaVuSans-70" transform="translate(281.054688 0.015625)"/>
      <use xlink:href="#DejaVuSans-6c" transform="translate(344.53125 0.015625)"/>
      <use xlink:href="#DejaVuSans-65" transform="translate(372.314453 0.015625)"/>
      <use xlink:href="#DejaVuSans-20" transform="translate(433.837891 0.015625)"/>
      <use xlink:href="#DejaVuSans-Oblique-6a" transform="translate(465.625 0.015625)"/>
     </g>
    </g>
   </g>
   <g id="matplotlib.axis_4">
    <g id="ytick_4">
     <g id="line2d_15">
      <g>
       <use xlink:href="#m781e623e76" x="305.917677" y="91.987828" style="stroke: #000000; stroke-width: 0.8"/>
      </g>
     </g>
     <g id="text_24">
      <!-- 0.0 -->
      <g transform="translate(283.014552 95.787046) scale(0.1 -0.1)">
       <use xlink:href="#DejaVuSans-30"/>
       <use xlink:href="#DejaVuSans-2e" x="63.623047"/>
       <use xlink:href="#DejaVuSans-30" x="95.410156"/>
      </g>
     </g>
    </g>
    <g id="ytick_5">
     <g id="line2d_16">
      <g>
       <use xlink:href="#m781e623e76" x="305.917677" y="55.378482" style="stroke: #000000; stroke-width: 0.8"/>
      </g>
     </g>
     <g id="text_25">
      <!-- 0.5 -->
      <g transform="translate(283.014552 59.177701) scale(0.1 -0.1)">
       <use xlink:href="#DejaVuSans-30"/>
       <use xlink:href="#DejaVuSans-2e" x="63.623047"/>
       <use xlink:href="#DejaVuSans-35" x="95.410156"/>
      </g>
     </g>
    </g>
    <g id="ytick_6">
     <g id="line2d_17">
      <g>
       <use xlink:href="#m781e623e76" x="305.917677" y="18.769137" style="stroke: #000000; stroke-width: 0.8"/>
      </g>
     </g>
     <g id="text_26">
      <!-- 1.0 -->
      <g transform="translate(283.014552 22.568356) scale(0.1 -0.1)">
       <use xlink:href="#DejaVuSans-31"/>
       <use xlink:href="#DejaVuSans-2e" x="63.623047"/>
       <use xlink:href="#DejaVuSans-30" x="95.410156"/>
      </g>
     </g>
    </g>
    <g id="text_27">
     <!-- $\epsilon$ -->
     <g transform="translate(276.10299 59.690938) rotate(-90) scale(0.14 -0.14)">
      <defs>
       <path id="DejaVuSans-Oblique-3b5" d="M 1263 1888 
Q 925 1963 778 2166 
Q 669 2309 669 2503 
Q 669 3034 1175 3344 
Q 1575 3588 2188 3588 
Q 2425 3588 2684 3550 
Q 2944 3513 3234 3438 
L 3134 2916 
Q 2847 3006 2606 3047 
Q 2359 3088 2138 3088 
Q 1766 3088 1522 2944 
Q 1228 2772 1228 2522 
Q 1228 2356 1381 2241 
Q 1563 2103 1925 2103 
L 2409 2103 
L 2319 1628 
L 1856 1628 
Q 1425 1628 1172 1469 
Q 828 1253 828 916 
Q 828 703 1013 563 
Q 1244 388 1716 388 
Q 2006 388 2284 444 
Q 2563 503 2806 619 
L 2700 84 
Q 2403 -3 2131 -47 
Q 1859 -91 1609 -91 
Q 866 -91 516 194 
Q 250 413 250 781 
Q 250 1278 600 1584 
Q 859 1813 1263 1888 
z
" transform="scale(0.015625)"/>
      </defs>
      <use xlink:href="#DejaVuSans-Oblique-3b5" transform="translate(0 0.9375)"/>
     </g>
    </g>
   </g>
   <g id="line2d_18">
    <path d="M 305.917677 91.987828 
L 716.99976 91.987828 
" clip-path="url(#p2fb4918587)" style="fill: none; stroke-dasharray: 3.7,1.6; stroke-dashoffset: 0; stroke: #808080"/>
   </g>
   <g id="line2d_19">
    <path d="M 308.640075 91.987828 
L 311.362473 92.890306 
L 314.084871 92.307499 
L 316.807269 92.18671 
L 319.529667 91.486253 
L 322.252065 91.664888 
L 324.974462 91.281984 
L 327.69686 91.140131 
L 330.419258 90.82991 
L 335.864054 90.97919 
L 338.586452 91.581675 
L 341.30885 90.895598 
L 344.031248 91.46368 
L 346.753646 91.758674 
L 349.476044 91.929373 
L 352.198441 92.347906 
L 354.920839 91.616178 
L 363.088033 90.866417 
L 365.810431 91.05436 
L 368.532829 92.440763 
L 373.977625 92.296515 
L 376.700023 92.595987 
L 384.867216 92.794346 
L 387.589614 92.612213 
L 390.312012 92.830537 
L 393.03441 93.260472 
L 395.756808 92.976804 
L 398.479206 92.818107 
L 403.924002 93.165613 
L 406.646399 92.682259 
L 409.368797 92.81873 
L 412.091195 93.250513 
L 414.813593 93.531511 
L 417.535991 93.408238 
L 420.258389 93.114109 
L 422.980787 93.109139 
L 425.703185 92.563255 
L 428.425583 92.355273 
L 433.870378 92.541256 
L 439.315174 92.345879 
L 442.037572 92.616499 
L 444.75997 92.64207 
L 447.482368 92.191774 
L 450.204766 92.198405 
L 452.927164 92.332751 
L 455.649562 92.235315 
L 458.37196 92.353159 
L 461.094357 92.348644 
L 463.816755 91.843605 
L 471.983949 91.819288 
L 474.706347 91.610189 
L 477.428745 91.850164 
L 480.151143 91.2188 
L 482.873541 91.391971 
L 485.595939 91.223728 
L 488.318336 91.304175 
L 491.040734 90.977075 
L 493.763132 90.989892 
L 496.48553 90.691599 
L 499.207928 90.700894 
L 504.652724 90.914493 
L 507.375122 90.958897 
L 512.819918 91.705876 
L 518.264713 91.794544 
L 523.709509 91.398815 
L 526.431907 91.498812 
L 529.154305 91.729331 
L 531.876703 91.617195 
L 534.599101 92.008248 
L 537.321499 92.188684 
L 540.043897 92.253033 
L 542.766294 91.907113 
L 545.488692 92.200814 
L 553.655886 91.863232 
L 556.378284 91.808072 
L 561.82308 92.191069 
L 564.545478 92.175765 
L 567.267876 92.319578 
L 575.435069 92.204748 
L 583.602263 91.947586 
L 586.324661 92.136277 
L 589.047059 92.064845 
L 591.769457 91.758573 
L 597.214252 91.79775 
L 602.659048 91.298848 
L 605.381446 91.382588 
L 608.103844 91.255313 
L 610.826242 91.544826 
L 613.54864 91.291263 
L 616.271038 91.629727 
L 618.993436 91.381763 
L 621.715834 91.395896 
L 624.438231 91.073974 
L 629.883027 91.12055 
L 635.327823 90.912747 
L 638.050221 91.132016 
L 643.495017 90.839754 
L 648.939813 90.883382 
L 651.66221 91.256771 
L 654.384608 91.15474 
L 665.2742 91.610984 
L 667.996598 91.429585 
L 673.441394 91.795947 
L 678.886189 91.880652 
L 684.330985 92.2423 
L 689.775781 92.115001 
L 692.498179 92.279817 
L 697.942975 92.331973 
L 703.387771 92.891326 
L 706.110168 92.695159 
L 711.554964 92.692317 
L 714.277362 92.567557 
L 716.99976 92.722584 
L 716.99976 92.722584 
" clip-path="url(#p2fb4918587)" style="fill: none; stroke: #6ac8ac; stroke-width: 2; stroke-linecap: square"/>
   </g>
   <g id="line2d_20">
    <path d="M 308.640075 91.987828 
L 309.184555 82.965293 
L 309.729034 79.829049 
L 310.273514 79.499994 
L 310.817993 79.887302 
L 311.362473 76.321002 
L 311.906953 74.736141 
L 312.451432 74.911176 
L 312.995912 75.84998 
L 313.540391 77.586084 
L 314.084871 77.671715 
L 314.62935 78.057247 
L 315.17383 76.419596 
L 315.71831 74.314067 
L 316.262789 73.689157 
L 316.807269 70.568954 
L 317.351748 69.650065 
L 317.896228 70.508063 
L 318.440708 69.282443 
L 319.529667 70.556735 
L 320.074146 70.56621 
L 320.618626 67.563117 
L 321.163105 65.394936 
L 321.707585 67.718508 
L 322.252065 68.29918 
L 322.796544 68.573884 
L 323.341024 67.248261 
L 323.885503 68.576028 
L 324.429983 69.05339 
L 324.974462 68.899063 
L 325.518942 68.125153 
L 326.063422 68.683163 
L 326.607901 69.024006 
L 327.152381 68.601801 
L 327.69686 68.763259 
L 328.78582 70.80997 
L 329.330299 70.785419 
L 330.419258 71.229906 
L 330.963738 70.57981 
L 331.508217 70.670594 
L 332.052697 71.625775 
L 332.597177 72.971546 
L 333.141656 72.213715 
L 333.686136 72.479243 
L 334.230615 73.841632 
L 334.775095 73.679821 
L 335.319574 73.759993 
L 335.864054 74.934572 
L 336.408534 74.953568 
L 338.041972 78.116259 
L 339.130932 77.330886 
L 339.675411 77.690173 
L 340.219891 78.192628 
L 340.76437 77.847125 
L 341.30885 79.133171 
L 341.853329 79.841087 
L 342.942289 79.525925 
L 343.486768 79.681818 
L 344.575727 80.727979 
L 345.120207 80.568571 
L 345.664686 81.02679 
L 346.209166 80.890852 
L 346.753646 81.229274 
L 347.298125 81.116221 
L 347.842605 81.264767 
L 348.387084 81.948111 
L 348.931564 83.26366 
L 349.476044 83.483135 
L 350.020523 83.139322 
L 350.565003 81.715899 
L 351.109482 81.834185 
L 351.653962 83.056997 
L 352.198441 83.800088 
L 352.742921 82.761423 
L 353.287401 83.236241 
L 353.83188 82.699047 
L 354.37636 81.9734 
L 355.465319 81.758327 
L 356.554278 82.223636 
L 357.098758 81.462178 
L 357.643237 81.34819 
L 358.187717 81.477122 
L 358.732196 80.899663 
L 359.276676 80.766378 
L 359.821156 81.38896 
L 360.365635 81.480641 
L 360.910115 80.874681 
L 361.454594 80.504764 
L 361.999074 80.575644 
L 363.088033 78.641656 
L 363.632513 78.936097 
L 364.176992 78.902889 
L 364.721472 78.08219 
L 365.265951 78.902087 
L 365.810431 78.82893 
L 366.89939 80.549148 
L 367.44387 80.559988 
L 367.988349 80.862974 
L 368.532829 79.926945 
L 369.621788 80.13008 
L 370.166268 80.53623 
L 370.710747 80.56387 
L 371.255227 80.938231 
L 371.799706 80.902306 
L 372.344186 80.737636 
L 372.888665 81.878249 
L 373.433145 81.398131 
L 373.977625 80.762572 
L 375.066584 81.149149 
L 375.611063 81.193684 
L 376.155543 80.62135 
L 376.700023 80.780753 
L 377.788982 81.310041 
L 378.333461 80.884498 
L 378.877941 81.421237 
L 379.42242 81.30075 
L 379.9669 80.628067 
L 380.51138 81.302395 
L 381.055859 80.769468 
L 381.600339 81.414462 
L 382.144818 81.212842 
L 382.689298 81.467411 
L 383.233778 80.783719 
L 384.322737 80.596241 
L 384.867216 80.991402 
L 385.411696 80.93385 
L 385.956175 80.453598 
L 386.500655 80.548658 
L 387.045135 81.035782 
L 387.589614 81.367121 
L 388.134094 81.073337 
L 388.678573 81.238905 
L 389.223053 81.574541 
L 389.767532 81.332543 
L 390.312012 81.454341 
L 390.856492 81.379935 
L 391.400971 82.158765 
L 392.48993 82.835108 
L 393.03441 83.333642 
L 393.57889 84.094532 
L 394.123369 84.562458 
L 394.667849 84.613666 
L 395.212328 84.184345 
L 395.756808 84.856057 
L 396.301287 84.798861 
L 396.845767 85.189316 
L 397.390247 84.957619 
L 397.934726 84.545904 
L 398.479206 85.371097 
L 399.023685 85.14489 
L 399.568165 84.788692 
L 400.112644 85.13221 
L 402.835042 84.518124 
L 403.379522 84.56443 
L 403.924002 85.035639 
L 404.468481 84.650855 
L 405.55744 82.990238 
L 406.10192 82.287966 
L 406.646399 82.631073 
L 407.190879 82.724055 
L 407.735359 82.237218 
L 408.824318 83.095603 
L 409.368797 84.003202 
L 409.913277 83.687042 
L 410.457757 84.048338 
L 411.002236 85.038686 
L 411.546716 84.87995 
L 412.091195 85.379167 
L 412.635675 86.033161 
L 413.180154 86.306974 
L 413.724634 85.761011 
L 414.269114 85.742609 
L 414.813593 85.390386 
L 415.902552 86.002517 
L 417.535991 86.07703 
L 418.080471 85.514759 
L 418.62495 85.492927 
L 419.16943 85.058789 
L 419.713909 84.899847 
L 420.258389 84.437564 
L 420.802869 84.589972 
L 421.347348 84.939867 
L 421.891828 85.774741 
L 422.436307 85.393259 
L 422.980787 85.842338 
L 424.069746 85.364048 
L 424.614226 85.115694 
L 425.158705 85.341668 
L 425.703185 85.738826 
L 426.792144 84.701742 
L 427.336623 84.688553 
L 427.881103 85.175876 
L 428.970062 84.74435 
L 429.514542 84.981431 
L 430.603501 85.832782 
L 431.147981 85.557321 
L 431.69246 85.515087 
L 432.23694 85.314455 
L 432.781419 85.701241 
L 433.325899 85.806432 
L 433.870378 85.667051 
L 434.959338 86.073043 
L 435.503817 86.93996 
L 436.048297 87.469412 
L 436.592776 88.235845 
L 437.137256 87.8003 
L 437.681736 87.862283 
L 438.226215 87.579521 
L 438.770695 87.139065 
L 439.315174 87.124878 
L 439.859654 87.289377 
L 440.404133 87.738887 
L 440.948613 87.552676 
L 441.493093 87.766738 
L 442.037572 87.601121 
L 442.582052 87.196302 
L 443.671011 87.031584 
L 444.21549 87.173362 
L 444.75997 86.957121 
L 445.30445 87.681251 
L 445.848929 87.627615 
L 446.393409 87.225236 
L 446.937888 87.834488 
L 447.482368 87.465775 
L 448.026848 87.58075 
L 448.571327 88.535914 
L 449.115807 88.277892 
L 449.660286 88.582697 
L 450.204766 88.248059 
L 451.293725 89.248886 
L 452.927164 89.671396 
L 453.471643 90.111668 
L 454.016123 90.154886 
L 455.105082 90.58692 
L 455.649562 90.413542 
L 456.194041 90.552673 
L 456.738521 90.530157 
L 457.283 90.645593 
L 459.460919 91.830722 
L 460.005398 92.422194 
L 460.549878 92.72234 
L 461.638837 92.331041 
L 462.183317 92.362927 
L 463.272276 91.13541 
L 464.361235 91.583481 
L 464.905715 92.082352 
L 465.994674 91.274214 
L 466.539153 91.406162 
L 467.083633 92.068628 
L 467.628112 91.931916 
L 468.172592 92.428192 
L 468.717072 92.312913 
L 470.35051 92.715715 
L 470.89499 93.12295 
L 471.439469 93.15838 
L 471.983949 92.330711 
L 472.528429 92.740749 
L 473.072908 92.813716 
L 473.617388 92.676403 
L 474.161867 92.846245 
L 475.250827 92.972098 
L 476.884265 93.484175 
L 477.428745 93.965912 
L 477.973224 94.034447 
L 478.517704 94.513625 
L 480.151143 94.526896 
L 480.695622 94.959438 
L 481.784581 95.392066 
L 482.329061 95.340037 
L 482.873541 95.612506 
L 483.41802 95.547811 
L 483.9625 95.30403 
L 484.506979 95.547274 
L 486.684898 95.126722 
L 487.229377 95.278604 
L 487.773857 95.732148 
L 488.318336 95.671695 
L 488.862816 95.353002 
L 489.407296 96.015347 
L 490.496255 95.484033 
L 491.040734 95.701992 
L 491.585214 95.507053 
L 492.129693 96.082463 
L 493.763132 96.477771 
L 494.307612 96.038742 
L 494.852091 96.435563 
L 495.396571 96.471242 
L 495.941051 96.658664 
L 496.48553 96.720447 
L 497.03001 96.495886 
L 498.118969 96.758908 
L 498.663448 96.817803 
L 499.752408 96.675949 
L 501.385846 96.384307 
L 501.930326 96.385601 
L 502.474806 96.987511 
L 504.108244 96.550562 
L 504.652724 96.634773 
L 505.197203 96.933745 
L 505.741683 96.443821 
L 506.286163 96.641497 
L 506.830642 96.591058 
L 507.375122 96.86367 
L 507.919601 96.987977 
L 508.464081 97.248177 
L 509.00856 97.163609 
L 510.09752 96.710769 
L 510.641999 96.892836 
L 511.186479 96.462375 
L 511.730958 96.892781 
L 512.275438 97.109305 
L 513.364397 96.898731 
L 513.908877 96.975705 
L 514.453356 96.845257 
L 515.542315 97.698831 
L 516.631275 97.578503 
L 518.264713 96.594097 
L 518.809193 96.848546 
L 519.898152 96.310996 
L 520.987111 96.681913 
L 521.531591 96.674992 
L 522.07607 96.46376 
L 522.62055 96.477991 
L 523.16503 96.293801 
L 524.253989 96.727219 
L 524.798468 96.724886 
L 525.342948 96.844432 
L 526.431907 96.47671 
L 528.065346 96.619966 
L 529.154305 96.831334 
L 529.698785 96.670516 
L 530.243264 96.278111 
L 530.787744 96.640108 
L 531.332223 96.777308 
L 531.876703 96.692244 
L 532.421182 96.383586 
L 532.965662 96.289046 
L 533.510142 96.385605 
L 534.599101 97.19904 
L 535.14358 97.216331 
L 535.68806 96.980475 
L 536.232539 97.325546 
L 537.321499 97.441623 
L 538.410458 97.343549 
L 539.499417 97.020189 
L 540.043897 97.213385 
L 540.588376 97.27542 
L 541.132856 97.669317 
L 542.221815 97.567537 
L 542.766294 97.015013 
L 543.310774 96.863544 
L 543.855254 97.052125 
L 544.399733 96.856574 
L 544.944213 96.853743 
L 545.488692 97.231466 
L 546.033172 97.175284 
L 547.122131 96.448159 
L 547.666611 96.292186 
L 548.21109 96.423809 
L 548.75557 96.335483 
L 549.300049 96.023042 
L 550.933488 95.883187 
L 551.477968 96.268616 
L 552.022447 96.390613 
L 552.566927 96.220099 
L 553.111406 95.904362 
L 553.655886 95.442864 
L 554.744845 95.162124 
L 555.289325 95.508934 
L 555.833804 95.360157 
L 556.922764 94.609942 
L 558.011723 94.123165 
L 558.556202 93.991995 
L 559.100682 94.598744 
L 559.645161 94.659261 
L 560.189641 94.555497 
L 560.734121 95.149461 
L 561.2786 94.77392 
L 561.82308 94.674693 
L 562.367559 94.116569 
L 562.912039 94.288549 
L 563.456518 94.011105 
L 564.000998 94.051881 
L 566.723396 95.348764 
L 568.901314 95.828434 
L 569.445794 96.308459 
L 569.990273 96.223001 
L 570.534753 96.283269 
L 571.079233 96.48503 
L 571.623712 96.843778 
L 572.168192 96.823498 
L 572.712671 96.658946 
L 574.34611 96.560244 
L 574.89059 96.883487 
L 575.435069 96.676548 
L 575.979549 96.667796 
L 576.524028 96.273316 
L 577.068508 96.631277 
L 577.612988 96.302068 
L 578.701947 96.585897 
L 579.790906 96.384571 
L 580.335385 96.408621 
L 580.879865 96.235093 
L 581.968824 96.456181 
L 582.513304 96.771411 
L 583.057783 96.661542 
L 583.602263 96.692706 
L 584.146743 96.954027 
L 584.691222 97.05291 
L 585.235702 97.576073 
L 585.780181 97.340451 
L 587.41362 96.980667 
L 587.9581 96.622449 
L 588.502579 96.494177 
L 589.047059 96.484065 
L 589.591538 96.734842 
L 590.680497 96.557487 
L 591.224977 96.009029 
L 591.769457 95.673788 
L 592.858416 95.340302 
L 593.402895 95.029169 
L 593.947375 94.852382 
L 594.491855 95.169235 
L 595.036334 95.17732 
L 596.125293 95.906433 
L 596.669773 95.798534 
L 597.214252 95.871665 
L 597.758732 96.277355 
L 598.303212 96.314954 
L 598.847691 95.978118 
L 599.392171 95.775333 
L 599.93665 95.753638 
L 600.48113 96.33976 
L 601.025609 96.302269 
L 602.114569 96.621131 
L 602.659048 97.141845 
L 603.748007 97.387678 
L 604.292487 97.280468 
L 605.925926 96.516694 
L 606.470405 96.662271 
L 607.559364 96.190472 
L 608.103844 96.032721 
L 608.648324 96.068388 
L 609.192803 96.323046 
L 609.737283 96.010812 
L 610.281762 96.284745 
L 611.370721 95.691626 
L 612.459681 95.694745 
L 613.54864 94.792395 
L 614.093119 94.611122 
L 614.637599 94.619332 
L 615.182079 94.41976 
L 615.726558 94.663276 
L 616.271038 94.624218 
L 616.815517 94.270839 
L 617.359997 94.13396 
L 617.904476 94.226199 
L 618.448956 93.534872 
L 619.537915 93.558487 
L 620.626874 94.100625 
L 621.171354 94.068531 
L 621.715834 93.883284 
L 622.260313 93.510837 
L 622.804793 93.539009 
L 623.349272 93.397056 
L 624.438231 93.360363 
L 624.982711 93.62738 
L 625.527191 93.422561 
L 626.61615 93.497939 
L 627.160629 93.730468 
L 628.794068 94.098806 
L 629.883027 93.551938 
L 630.971986 93.644211 
L 633.149905 93.490783 
L 633.694384 93.116575 
L 634.238864 93.324264 
L 636.416782 93.239413 
L 636.961262 93.555423 
L 637.505741 93.731012 
L 638.050221 93.618223 
L 639.13918 93.002071 
L 639.68366 92.677763 
L 640.228139 92.855428 
L 640.772619 93.15094 
L 641.317098 92.779339 
L 641.861578 92.835608 
L 644.039496 92.472287 
L 644.583976 92.222934 
L 645.128455 92.692336 
L 646.217415 92.315359 
L 646.761894 92.428784 
L 647.306374 92.174625 
L 648.939813 92.532514 
L 649.484292 92.044421 
L 650.028772 92.214969 
L 651.117731 91.853897 
L 651.66221 91.601186 
L 652.20669 91.679238 
L 652.75117 91.315145 
L 653.840129 91.030917 
L 654.384608 91.170596 
L 654.929088 91.733548 
L 656.562527 91.752941 
L 657.107006 91.432232 
L 657.651486 91.700134 
L 658.740445 91.533553 
L 660.918363 91.907731 
L 662.007322 91.883619 
L 662.551802 92.035633 
L 665.818679 91.68097 
L 666.907639 91.284746 
L 667.996598 90.853401 
L 669.630037 90.819602 
L 670.174516 90.945038 
L 671.807955 90.361019 
L 672.352434 90.674794 
L 673.441394 89.978282 
L 673.985873 90.18616 
L 675.619312 89.321145 
L 676.708271 89.562546 
L 677.252751 89.785091 
L 677.79723 89.669052 
L 678.886189 89.043069 
L 679.430669 89.167411 
L 680.519628 88.949753 
L 684.330985 89.474049 
L 685.419944 89.877199 
L 685.964424 89.872066 
L 687.053383 90.058733 
L 688.686822 90.107391 
L 689.775781 90.597615 
L 690.86474 90.61944 
L 691.40922 90.450474 
L 691.953699 90.6267 
L 693.042658 90.351465 
L 693.587138 90.025087 
L 694.131618 90.008283 
L 695.220577 90.248285 
L 695.765056 90.002419 
L 696.309536 90.205605 
L 696.854016 90.55591 
L 699.576413 91.39385 
L 700.120893 91.216055 
L 700.665373 91.155213 
L 701.209852 91.297635 
L 701.754332 91.558567 
L 702.298811 91.113782 
L 702.843291 91.187086 
L 703.387771 91.126582 
L 704.47673 90.829237 
L 705.021209 90.841616 
L 705.565689 90.648211 
L 706.110168 90.664774 
L 706.654648 90.963494 
L 707.199128 90.662257 
L 707.743607 90.993399 
L 708.288087 90.996685 
L 708.832566 91.268082 
L 709.921525 90.854148 
L 710.466005 90.904375 
L 711.010485 90.710648 
L 711.554964 91.027119 
L 712.099444 90.875776 
L 712.643923 90.862588 
L 713.188403 91.027487 
L 714.277362 90.759764 
L 714.821842 90.891866 
L 715.366321 90.771367 
L 716.45528 90.72608 
L 716.99976 90.63585 
L 716.99976 90.63585 
" clip-path="url(#p2fb4918587)" style="fill: none; stroke: #faa689; stroke-width: 2; stroke-linecap: square"/>
   </g>
   <g id="line2d_21">
    <path d="M 308.640075 91.987828 
L 309.184555 70.273876 
L 309.729034 55.316171 
L 311.362473 31.876049 
L 312.451432 22.89426 
L 312.995912 22.006555 
L 313.540391 21.564772 
L 314.084871 21.377246 
L 314.62935 22.321021 
L 315.17383 22.1707 
L 315.71831 21.569816 
L 316.262789 21.428664 
L 316.807269 18.678994 
L 317.351748 17.623484 
L 317.896228 17.393677 
L 318.440708 16.870766 
L 318.985187 16.148128 
L 319.529667 16.507786 
L 320.074146 17.645433 
L 320.618626 15.423529 
L 321.163105 13.983044 
L 322.252065 18.525912 
L 322.796544 18.584025 
L 323.341024 19.096576 
L 323.885503 20.518154 
L 324.429983 21.276397 
L 324.974462 20.191799 
L 325.518942 21.021531 
L 326.063422 22.635108 
L 326.607901 22.741128 
L 327.152381 21.26289 
L 327.69686 21.343996 
L 328.24134 21.753944 
L 328.78582 23.317125 
L 329.330299 21.969803 
L 329.874779 22.959711 
L 330.419258 22.969727 
L 330.963738 22.858358 
L 331.508217 23.976567 
L 332.052697 24.285358 
L 332.597177 25.399587 
L 333.141656 27.021573 
L 333.686136 27.547971 
L 334.230615 28.493266 
L 335.319574 28.229697 
L 335.864054 29.21225 
L 336.408534 29.664887 
L 338.041972 33.589891 
L 338.586452 33.63899 
L 339.130932 32.1914 
L 339.675411 33.151475 
L 340.76437 33.823777 
L 341.30885 34.869089 
L 341.853329 36.241208 
L 342.397809 36.855215 
L 342.942289 36.752702 
L 343.486768 37.961369 
L 346.209166 39.443777 
L 346.753646 39.321281 
L 347.298125 39.035936 
L 347.842605 39.999712 
L 348.387084 39.827153 
L 348.931564 41.035817 
L 350.020523 40.523582 
L 350.565003 40.262663 
L 351.109482 40.691897 
L 351.653962 42.139991 
L 352.198441 42.413394 
L 352.742921 41.668579 
L 353.287401 42.670816 
L 354.37636 42.582171 
L 354.920839 42.758673 
L 356.009799 43.764903 
L 356.554278 44.510323 
L 357.098758 44.489731 
L 357.643237 44.595237 
L 358.187717 44.89709 
L 358.732196 44.50704 
L 359.276676 44.43221 
L 360.365635 43.957713 
L 360.910115 43.946641 
L 361.454594 43.478598 
L 361.999074 43.307128 
L 362.543553 42.212476 
L 363.088033 41.371897 
L 363.632513 41.719965 
L 364.176992 41.271086 
L 364.721472 41.251883 
L 365.265951 42.159936 
L 365.810431 41.575784 
L 366.354911 42.194994 
L 366.89939 43.462541 
L 367.988349 44.904934 
L 368.532829 44.625208 
L 369.077308 44.836483 
L 369.621788 45.403531 
L 370.166268 45.480451 
L 370.710747 45.817896 
L 371.255227 46.856933 
L 371.799706 47.101564 
L 372.344186 47.885078 
L 372.888665 48.937307 
L 373.433145 48.011011 
L 373.977625 47.776908 
L 374.522104 47.755078 
L 375.066584 48.296577 
L 375.611063 48.344662 
L 376.155543 47.916848 
L 376.700023 47.308876 
L 377.788982 47.72128 
L 378.333461 47.519144 
L 378.877941 48.0382 
L 379.42242 48.21591 
L 379.9669 47.591927 
L 380.51138 48.567534 
L 381.600339 48.929713 
L 382.144818 49.063563 
L 382.689298 49.758661 
L 383.233778 50.089941 
L 383.778257 50.266354 
L 384.867216 51.168276 
L 385.411696 51.802935 
L 385.956175 51.388888 
L 387.589614 53.205956 
L 388.134094 52.432367 
L 388.678573 52.564616 
L 389.767532 53.147519 
L 390.312012 53.628423 
L 390.856492 53.198329 
L 392.48993 54.285045 
L 393.03441 54.331189 
L 393.57889 55.356514 
L 394.667849 56.149183 
L 395.212328 55.83173 
L 395.756808 56.460206 
L 396.301287 56.612849 
L 396.845767 56.464214 
L 397.390247 56.705179 
L 397.934726 56.545581 
L 398.479206 57.015815 
L 399.023685 57.679421 
L 399.568165 57.506644 
L 400.657124 57.926247 
L 401.746083 58.023535 
L 402.290563 58.381743 
L 402.835042 58.482678 
L 403.379522 58.72274 
L 403.924002 59.17105 
L 404.468481 58.868482 
L 405.55744 57.726393 
L 406.10192 57.472527 
L 406.646399 58.138353 
L 407.190879 58.126402 
L 407.735359 58.295733 
L 408.279838 58.943433 
L 408.824318 59.393789 
L 409.368797 60.373133 
L 409.913277 60.057496 
L 410.457757 60.491977 
L 411.002236 61.070892 
L 411.546716 61.252486 
L 412.091195 61.585611 
L 412.635675 61.763176 
L 413.724634 61.505182 
L 414.269114 61.859265 
L 414.813593 61.727714 
L 415.902552 61.996744 
L 416.447032 61.764762 
L 416.991511 61.865032 
L 418.080471 62.195122 
L 418.62495 62.316844 
L 419.16943 62.224622 
L 421.347348 62.786737 
L 421.891828 63.813893 
L 422.436307 63.823645 
L 422.980787 64.12354 
L 424.069746 63.876371 
L 424.614226 63.64961 
L 425.158705 63.668755 
L 425.703185 64.553155 
L 426.247664 64.183703 
L 426.792144 64.081152 
L 427.336623 64.243023 
L 427.881103 64.660392 
L 428.425583 64.249349 
L 428.970062 64.045112 
L 430.059021 64.598761 
L 430.603501 65.088073 
L 431.147981 65.416323 
L 431.69246 65.530944 
L 432.23694 65.349712 
L 432.781419 65.438163 
L 433.325899 65.690556 
L 434.414858 65.916539 
L 434.959338 66.340088 
L 435.503817 66.970783 
L 436.048297 67.130534 
L 436.592776 68.077143 
L 437.137256 67.715615 
L 437.681736 67.895221 
L 438.226215 67.94415 
L 439.315174 67.829254 
L 440.404133 68.573457 
L 442.037572 69.664273 
L 442.582052 69.442451 
L 443.126531 69.933184 
L 443.671011 69.877477 
L 444.21549 70.169529 
L 444.75997 70.097626 
L 445.848929 70.709328 
L 446.393409 70.368374 
L 446.937888 71.114147 
L 447.482368 71.117724 
L 448.026848 71.365798 
L 448.571327 72.282784 
L 449.115807 72.161277 
L 449.660286 72.579499 
L 450.204766 72.539381 
L 451.293725 73.564001 
L 451.838205 73.858701 
L 452.382684 73.863943 
L 452.927164 74.107145 
L 453.471643 74.587102 
L 454.560602 73.849216 
L 455.105082 73.883576 
L 455.649562 73.619757 
L 456.194041 73.771984 
L 456.738521 73.500728 
L 457.82748 73.607457 
L 458.37196 73.958434 
L 458.916439 74.573248 
L 460.549878 75.692973 
L 461.638837 74.912363 
L 462.183317 74.964079 
L 462.727796 74.39213 
L 463.272276 74.166049 
L 464.905715 76.094582 
L 465.450194 75.681992 
L 465.994674 75.446162 
L 466.539153 75.630192 
L 467.083633 76.111751 
L 467.628112 76.098787 
L 468.172592 76.63679 
L 468.717072 76.452937 
L 469.806031 77.009823 
L 471.439469 78.188322 
L 471.983949 77.607639 
L 473.072908 78.334518 
L 473.617388 78.092032 
L 476.339786 79.554795 
L 476.884265 79.698699 
L 477.973224 80.450324 
L 478.517704 81.326871 
L 479.062184 81.224672 
L 480.151143 81.464479 
L 480.695622 82.068477 
L 481.240102 81.950483 
L 481.784581 82.407555 
L 482.329061 82.132329 
L 482.873541 82.533987 
L 483.41802 82.364027 
L 483.9625 82.435989 
L 485.051459 83.089831 
L 485.595939 83.334629 
L 486.140418 83.276857 
L 486.684898 82.935417 
L 488.862816 83.159649 
L 489.407296 83.688939 
L 489.951775 83.859366 
L 490.496255 83.76434 
L 491.585214 83.931995 
L 492.674173 84.524679 
L 493.218653 84.422477 
L 493.763132 84.464617 
L 494.307612 84.157535 
L 494.852091 84.449596 
L 495.396571 84.452532 
L 496.48553 84.795605 
L 497.03001 84.674908 
L 497.574489 84.688055 
L 498.118969 84.847287 
L 498.663448 84.693072 
L 499.207928 84.805611 
L 499.752408 84.774939 
L 500.296887 84.403954 
L 500.841367 84.391744 
L 501.385846 84.539472 
L 501.930326 84.519748 
L 502.474806 85.327067 
L 503.019285 85.272388 
L 503.563765 85.42155 
L 504.108244 85.341139 
L 504.652724 85.067657 
L 505.197203 85.457691 
L 506.286163 85.520664 
L 506.830642 85.184742 
L 507.375122 85.620819 
L 509.00856 86.166751 
L 509.55304 86.218126 
L 510.09752 85.861646 
L 511.186479 86.165862 
L 512.275438 87.049013 
L 512.819918 86.943916 
L 513.364397 87.027666 
L 514.453356 86.640286 
L 514.997836 87.000622 
L 515.542315 87.151067 
L 516.086795 87.117361 
L 517.175754 86.492951 
L 517.720234 86.404634 
L 518.264713 85.966895 
L 518.809193 86.101883 
L 519.898152 85.76253 
L 520.442632 85.950544 
L 520.987111 86.467783 
L 522.62055 85.839295 
L 523.16503 85.494706 
L 523.709509 85.441091 
L 524.253989 85.520828 
L 524.798468 85.736068 
L 526.431907 85.024866 
L 526.976387 85.312546 
L 527.520866 85.130762 
L 528.065346 85.248123 
L 528.609825 85.550487 
L 529.154305 85.632318 
L 530.243264 85.082389 
L 530.787744 85.566524 
L 531.332223 85.68951 
L 531.876703 85.693111 
L 532.421182 85.355228 
L 532.965662 85.431593 
L 535.14358 86.681624 
L 535.68806 86.708427 
L 536.232539 87.13675 
L 538.954937 87.671601 
L 539.499417 87.481739 
L 540.043897 87.785132 
L 540.588376 88.468822 
L 541.132856 88.624088 
L 541.677335 88.628199 
L 542.221815 88.807968 
L 542.766294 88.508078 
L 543.310774 88.420108 
L 544.399733 88.644503 
L 544.944213 88.414864 
L 545.488692 88.825125 
L 547.122131 88.276164 
L 547.666611 88.213844 
L 548.75557 87.853474 
L 549.300049 87.531422 
L 550.389009 87.291101 
L 550.933488 87.377052 
L 551.477968 87.723869 
L 552.566927 87.714325 
L 553.111406 87.73948 
L 553.655886 87.297905 
L 554.200366 87.138149 
L 554.744845 87.3051 
L 555.289325 87.597761 
L 556.378284 86.937698 
L 556.922764 87.063997 
L 558.011723 86.479648 
L 558.556202 86.647411 
L 559.100682 87.4503 
L 559.645161 87.502333 
L 560.189641 87.40425 
L 560.734121 87.664247 
L 561.82308 86.930662 
L 562.367559 86.734504 
L 562.912039 87.107163 
L 564.000998 87.20638 
L 564.545478 87.214956 
L 566.178916 88.043532 
L 567.812355 88.801554 
L 568.356835 88.891037 
L 568.901314 88.749315 
L 569.445794 89.319309 
L 569.990273 89.408268 
L 570.534753 89.755213 
L 571.079233 89.939886 
L 571.623712 90.454996 
L 572.712671 90.380358 
L 573.257151 90.537768 
L 574.34611 90.476676 
L 574.89059 90.637224 
L 575.979549 90.536666 
L 576.524028 90.130504 
L 577.068508 90.526043 
L 577.612988 90.236062 
L 578.701947 90.749663 
L 579.246426 90.572303 
L 579.790906 90.627754 
L 580.335385 90.806443 
L 581.424345 90.661972 
L 582.513304 90.692853 
L 583.057783 90.586177 
L 584.146743 91.224761 
L 584.691222 91.432427 
L 585.235702 91.431384 
L 585.780181 91.560635 
L 587.9581 90.900329 
L 588.502579 90.913417 
L 589.591538 91.223488 
L 590.680497 91.026504 
L 591.224977 90.734982 
L 591.769457 90.712531 
L 592.313936 90.885222 
L 593.947375 90.370633 
L 594.491855 90.878838 
L 595.036334 91.057903 
L 595.580814 91.40765 
L 596.125293 91.62311 
L 596.669773 91.494979 
L 597.758732 92.104153 
L 598.303212 92.23067 
L 598.847691 91.703111 
L 599.392171 91.506212 
L 599.93665 91.684552 
L 600.48113 92.008752 
L 601.025609 92.079779 
L 602.114569 92.525862 
L 602.659048 93.24393 
L 604.292487 93.901904 
L 604.836967 93.756625 
L 605.381446 93.47864 
L 605.925926 93.544067 
L 606.470405 93.861985 
L 607.014885 93.895925 
L 607.559364 93.76342 
L 608.103844 93.463877 
L 608.648324 93.53829 
L 609.192803 93.897468 
L 610.281762 93.632687 
L 611.370721 93.605418 
L 611.915201 93.441051 
L 612.459681 93.476481 
L 613.00416 93.195053 
L 613.54864 92.75157 
L 614.093119 92.747166 
L 614.637599 92.862514 
L 615.182079 92.77649 
L 615.726558 93.072661 
L 616.271038 93.224987 
L 616.815517 93.128815 
L 617.904476 93.527159 
L 618.448956 93.03788 
L 618.993436 93.319611 
L 619.537915 93.438295 
L 620.626874 94.137081 
L 621.171354 94.230998 
L 622.260313 93.641776 
L 622.804793 93.846257 
L 623.349272 93.721219 
L 623.893752 93.970673 
L 624.438231 94.032856 
L 624.982711 94.270527 
L 626.07167 93.872373 
L 626.61615 93.843267 
L 627.160629 94.003897 
L 627.705109 94.398658 
L 628.249588 94.476814 
L 628.794068 94.798883 
L 629.338548 94.806709 
L 629.883027 94.65266 
L 630.971986 94.946286 
L 631.516466 94.73414 
L 632.605425 94.784306 
L 633.694384 94.671071 
L 636.416782 95.248737 
L 637.505741 95.527596 
L 638.050221 95.417215 
L 639.68366 94.755042 
L 640.772619 95.066989 
L 641.317098 94.827349 
L 642.406058 94.686461 
L 642.950537 94.839036 
L 644.583976 94.590732 
L 645.128455 94.867966 
L 645.672935 94.951535 
L 646.217415 94.697778 
L 647.306374 94.687227 
L 648.939813 95.200544 
L 649.484292 94.878219 
L 650.573251 95.064485 
L 651.117731 95.010681 
L 651.66221 94.80137 
L 652.20669 94.798922 
L 652.75117 94.617176 
L 653.295649 94.661716 
L 654.384608 94.554244 
L 654.929088 95.262398 
L 656.562527 95.246439 
L 657.107006 94.926498 
L 657.651486 95.022809 
L 658.740445 94.590102 
L 660.373884 94.919122 
L 662.007322 94.610989 
L 662.551802 94.937953 
L 663.640761 94.825327 
L 664.72972 94.686062 
L 666.363159 94.748972 
L 666.907639 94.536417 
L 667.452118 93.976222 
L 667.996598 93.843868 
L 669.630037 93.817052 
L 670.174516 94.001404 
L 670.718996 93.671862 
L 671.263475 93.636195 
L 671.807955 93.30918 
L 672.352434 93.40133 
L 672.896914 93.300401 
L 673.441394 93.043004 
L 674.530353 92.809863 
L 676.163792 92.531214 
L 677.252751 93.09722 
L 678.886189 92.614525 
L 679.430669 92.692865 
L 680.519628 92.501797 
L 681.064108 92.923564 
L 682.153067 93.31482 
L 683.786506 93.593695 
L 684.330985 93.550972 
L 684.875465 93.86524 
L 686.508904 93.995076 
L 687.053383 94.254611 
L 688.686822 94.176574 
L 689.775781 94.712588 
L 690.320261 94.742944 
L 690.86474 94.922884 
L 691.40922 94.677623 
L 691.953699 94.900317 
L 693.042658 94.516063 
L 693.587138 94.499935 
L 694.676097 94.886594 
L 695.220577 94.808614 
L 695.765056 94.843061 
L 696.854016 95.178617 
L 697.398495 95.115295 
L 697.942975 95.351515 
L 699.576413 95.445469 
L 700.120893 95.346305 
L 701.209852 95.462179 
L 701.754332 95.688806 
L 702.298811 95.364637 
L 702.843291 95.393478 
L 704.47673 94.697908 
L 705.021209 94.820215 
L 705.565689 94.598255 
L 706.654648 94.846156 
L 707.199128 94.541264 
L 707.743607 94.758992 
L 709.377046 94.959086 
L 711.010485 94.879184 
L 711.554964 95.068711 
L 712.099444 95.099948 
L 712.643923 94.888048 
L 713.188403 95.241263 
L 714.277362 95.063879 
L 715.366321 95.104556 
L 715.910801 94.972997 
L 716.45528 94.969369 
L 716.99976 95.183668 
L 716.99976 95.183668 
" clip-path="url(#p2fb4918587)" style="fill: none; stroke: #f54d3b; stroke-width: 2; stroke-linecap: square"/>
   </g>
   <g id="line2d_22"/>
   <g id="line2d_23"/>
   <g id="patch_9">
    <path d="M 305.917677 108.681635 
L 305.917677 3.00024 
" style="fill: none; stroke: #000000; stroke-width: 0.8; stroke-linejoin: miter; stroke-linecap: square"/>
   </g>
   <g id="patch_10">
    <path d="M 716.99976 108.681635 
L 716.99976 3.00024 
" style="fill: none; stroke: #000000; stroke-width: 0.8; stroke-linejoin: miter; stroke-linecap: square"/>
   </g>
   <g id="patch_11">
    <path d="M 305.917677 108.681635 
L 716.99976 108.681635 
" style="fill: none; stroke: #000000; stroke-width: 0.8; stroke-linejoin: miter; stroke-linecap: square"/>
   </g>
   <g id="patch_12">
    <path d="M 305.917677 3.00024 
L 716.99976 3.00024 
" style="fill: none; stroke: #000000; stroke-width: 0.8; stroke-linejoin: miter; stroke-linecap: square"/>
   </g>
   <g id="legend_2">
    <g id="patch_13">
     <path d="M 583.154447 55.034615 
L 709.99976 55.034615 
Q 711.99976 55.034615 711.99976 53.034615 
L 711.99976 10.00024 
Q 711.99976 8.00024 709.99976 8.00024 
L 583.154447 8.00024 
Q 581.154447 8.00024 581.154447 10.00024 
L 581.154447 53.034615 
Q 581.154447 55.034615 583.154447 55.034615 
z
" style="fill: #ffffff; opacity: 0.8; stroke: #cccccc; stroke-linejoin: miter"/>
    </g>
    <g id="line2d_24">
     <path d="M 585.154447 16.098678 
L 595.154447 16.098678 
L 605.154447 16.098678 
" style="fill: none; stroke: #6ac8ac; stroke-width: 2; stroke-linecap: square"/>
    </g>
    <g id="text_28">
     <!-- In ditribution -->
     <g transform="translate(613.154447 19.598678) scale(0.1 -0.1)">
      <defs>
       <path id="DejaVuSans-49" d="M 628 4666 
L 1259 4666 
L 1259 0 
L 628 0 
L 628 4666 
z
" transform="scale(0.015625)"/>
       <path id="DejaVuSans-6e" d="M 3513 2113 
L 3513 0 
L 2938 0 
L 2938 2094 
Q 2938 2591 2744 2837 
Q 2550 3084 2163 3084 
Q 1697 3084 1428 2787 
Q 1159 2491 1159 1978 
L 1159 0 
L 581 0 
L 581 3500 
L 1159 3500 
L 1159 2956 
Q 1366 3272 1645 3428 
Q 1925 3584 2291 3584 
Q 2894 3584 3203 3211 
Q 3513 2838 3513 2113 
z
" transform="scale(0.015625)"/>
       <path id="DejaVuSans-69" d="M 603 3500 
L 1178 3500 
L 1178 0 
L 603 0 
L 603 3500 
z
M 603 4863 
L 1178 4863 
L 1178 4134 
L 603 4134 
L 603 4863 
z
" transform="scale(0.015625)"/>
       <path id="DejaVuSans-62" d="M 3116 1747 
Q 3116 2381 2855 2742 
Q 2594 3103 2138 3103 
Q 1681 3103 1420 2742 
Q 1159 2381 1159 1747 
Q 1159 1113 1420 752 
Q 1681 391 2138 391 
Q 2594 391 2855 752 
Q 3116 1113 3116 1747 
z
M 1159 2969 
Q 1341 3281 1617 3432 
Q 1894 3584 2278 3584 
Q 2916 3584 3314 3078 
Q 3713 2572 3713 1747 
Q 3713 922 3314 415 
Q 2916 -91 2278 -91 
Q 1894 -91 1617 61 
Q 1341 213 1159 525 
L 1159 0 
L 581 0 
L 581 4863 
L 1159 4863 
L 1159 2969 
z
" transform="scale(0.015625)"/>
      </defs>
      <use xlink:href="#DejaVuSans-49"/>
      <use xlink:href="#DejaVuSans-6e" x="29.492188"/>
      <use xlink:href="#DejaVuSans-20" x="92.871094"/>
      <use xlink:href="#DejaVuSans-64" x="124.658203"/>
      <use xlink:href="#DejaVuSans-69" x="188.134766"/>
      <use xlink:href="#DejaVuSans-74" x="215.917969"/>
      <use xlink:href="#DejaVuSans-72" x="255.126953"/>
      <use xlink:href="#DejaVuSans-69" x="296.240234"/>
      <use xlink:href="#DejaVuSans-62" x="324.023438"/>
      <use xlink:href="#DejaVuSans-75" x="387.5"/>
      <use xlink:href="#DejaVuSans-74" x="450.878906"/>
      <use xlink:href="#DejaVuSans-69" x="490.087891"/>
      <use xlink:href="#DejaVuSans-6f" x="517.871094"/>
      <use xlink:href="#DejaVuSans-6e" x="579.052734"/>
     </g>
    </g>
    <g id="line2d_25">
     <path d="M 585.154447 30.776803 
L 595.154447 30.776803 
L 605.154447 30.776803 
" style="fill: none; stroke: #faa689; stroke-width: 1.5; stroke-linecap: square"/>
    </g>
    <g id="text_29">
     <!-- Severity 1 (bright.) -->
     <g transform="translate(613.154447 34.276803) scale(0.1 -0.1)">
      <defs>
       <path id="DejaVuSans-76" d="M 191 3500 
L 800 3500 
L 1894 563 
L 2988 3500 
L 3597 3500 
L 2284 0 
L 1503 0 
L 191 3500 
z
" transform="scale(0.015625)"/>
       <path id="DejaVuSans-79" d="M 2059 -325 
Q 1816 -950 1584 -1140 
Q 1353 -1331 966 -1331 
L 506 -1331 
L 506 -850 
L 844 -850 
Q 1081 -850 1212 -737 
Q 1344 -625 1503 -206 
L 1606 56 
L 191 3500 
L 800 3500 
L 1894 763 
L 2988 3500 
L 3597 3500 
L 2059 -325 
z
" transform="scale(0.015625)"/>
       <path id="DejaVuSans-67" d="M 2906 1791 
Q 2906 2416 2648 2759 
Q 2391 3103 1925 3103 
Q 1463 3103 1205 2759 
Q 947 2416 947 1791 
Q 947 1169 1205 825 
Q 1463 481 1925 481 
Q 2391 481 2648 825 
Q 2906 1169 2906 1791 
z
M 3481 434 
Q 3481 -459 3084 -895 
Q 2688 -1331 1869 -1331 
Q 1566 -1331 1297 -1286 
Q 1028 -1241 775 -1147 
L 775 -588 
Q 1028 -725 1275 -790 
Q 1522 -856 1778 -856 
Q 2344 -856 2625 -561 
Q 2906 -266 2906 331 
L 2906 616 
Q 2728 306 2450 153 
Q 2172 0 1784 0 
Q 1141 0 747 490 
Q 353 981 353 1791 
Q 353 2603 747 3093 
Q 1141 3584 1784 3584 
Q 2172 3584 2450 3431 
Q 2728 3278 2906 2969 
L 2906 3500 
L 3481 3500 
L 3481 434 
z
" transform="scale(0.015625)"/>
      </defs>
      <use xlink:href="#DejaVuSans-53"/>
      <use xlink:href="#DejaVuSans-65" x="63.476562"/>
      <use xlink:href="#DejaVuSans-76" x="125"/>
      <use xlink:href="#DejaVuSans-65" x="184.179688"/>
      <use xlink:href="#DejaVuSans-72" x="245.703125"/>
      <use xlink:href="#DejaVuSans-69" x="286.816406"/>
      <use xlink:href="#DejaVuSans-74" x="314.599609"/>
      <use xlink:href="#DejaVuSans-79" x="353.808594"/>
      <use xlink:href="#DejaVuSans-20" x="412.988281"/>
      <use xlink:href="#DejaVuSans-31" x="444.775391"/>
      <use xlink:href="#DejaVuSans-20" x="508.398438"/>
      <use xlink:href="#DejaVuSans-28" x="540.185547"/>
      <use xlink:href="#DejaVuSans-62" x="579.199219"/>
      <use xlink:href="#DejaVuSans-72" x="642.675781"/>
      <use xlink:href="#DejaVuSans-69" x="683.789062"/>
      <use xlink:href="#DejaVuSans-67" x="711.572266"/>
      <use xlink:href="#DejaVuSans-68" x="775.048828"/>
      <use xlink:href="#DejaVuSans-74" x="838.427734"/>
      <use xlink:href="#DejaVuSans-2e" x="877.636719"/>
      <use xlink:href="#DejaVuSans-29" x="909.423828"/>
     </g>
    </g>
    <g id="line2d_26">
     <path d="M 585.154447 45.454928 
L 595.154447 45.454928 
L 605.154447 45.454928 
" style="fill: none; stroke: #f54d3b; stroke-width: 1.5; stroke-linecap: square"/>
    </g>
    <g id="text_30">
     <!-- Severity 5 (bright.) -->
     <g transform="translate(613.154447 48.954928) scale(0.1 -0.1)">
      <use xlink:href="#DejaVuSans-53"/>
      <use xlink:href="#DejaVuSans-65" x="63.476562"/>
      <use xlink:href="#DejaVuSans-76" x="125"/>
      <use xlink:href="#DejaVuSans-65" x="184.179688"/>
      <use xlink:href="#DejaVuSans-72" x="245.703125"/>
      <use xlink:href="#DejaVuSans-69" x="286.816406"/>
      <use xlink:href="#DejaVuSans-74" x="314.599609"/>
      <use xlink:href="#DejaVuSans-79" x="353.808594"/>
      <use xlink:href="#DejaVuSans-20" x="412.988281"/>
      <use xlink:href="#DejaVuSans-35" x="444.775391"/>
      <use xlink:href="#DejaVuSans-20" x="508.398438"/>
      <use xlink:href="#DejaVuSans-28" x="540.185547"/>
      <use xlink:href="#DejaVuSans-62" x="579.199219"/>
      <use xlink:href="#DejaVuSans-72" x="642.675781"/>
      <use xlink:href="#DejaVuSans-69" x="683.789062"/>
      <use xlink:href="#DejaVuSans-67" x="711.572266"/>
      <use xlink:href="#DejaVuSans-68" x="775.048828"/>
      <use xlink:href="#DejaVuSans-74" x="838.427734"/>
      <use xlink:href="#DejaVuSans-2e" x="877.636719"/>
      <use xlink:href="#DejaVuSans-29" x="909.423828"/>
     </g>
    </g>
   </g>
  </g>
 </g>
 <defs>
  <clipPath id="pacca31dc7d">
   <rect x="41.00524" y="3.00024" width="102.770521" height="105.681395"/>
  </clipPath>
  <clipPath id="p2fb4918587">
   <rect x="305.917677" y="3.00024" width="411.082083" height="105.681395"/>
  </clipPath>
 </defs>
</svg>
