<?xml version="1.0" encoding="utf-8" standalone="no"?>
<!DOCTYPE svg PUBLIC "-//W3C//DTD SVG 1.1//EN"
  "http://www.w3.org/Graphics/SVG/1.1/DTD/svg11.dtd">
<svg xmlns:xlink="http://www.w3.org/1999/xlink" width="720pt" height="216pt" viewBox="0 0 720 216" xmlns="http://www.w3.org/2000/svg" version="1.1">
 <metadata>
  <rdf:RDF xmlns:dc="http://purl.org/dc/elements/1.1/" xmlns:cc="http://creativecommons.org/ns#" xmlns:rdf="http://www.w3.org/1999/02/22-rdf-syntax-ns#">
   <cc:Work>
    <dc:type rdf:resource="http://purl.org/dc/dcmitype/StillImage"/>
    <dc:date>2024-05-06T07:50:27.398404</dc:date>
    <dc:format>image/svg+xml</dc:format>
    <dc:creator>
     <cc:Agent>
      <dc:title>Matplotlib v3.7.3, https://matplotlib.org/</dc:title>
     </cc:Agent>
    </dc:creator>
   </cc:Work>
  </rdf:RDF>
 </metadata>
 <defs>
  <style type="text/css">*{stroke-linejoin: round; stroke-linecap: butt}</style>
 </defs>
 <g id="figure_1">
  <g id="patch_1">
   <path d="M 0 216 
L 720 216 
L 720 0 
L 0 0 
z
" style="fill: #ffffff"/>
  </g>
  <g id="axes_1">
   <g id="patch_2">
    <path d="M 46.262 171.16 
L 208.406028 171.16 
L 208.406028 14.063351 
L 46.262 14.063351 
z
" style="fill: #ffffff"/>
   </g>
   <g id="PathCollection_1">
    <path d="M 54.395314 156.948175 
L 52.807761 161.834163 
L 47.670329 161.834163 
L 51.826599 164.85387 
L 50.239045 169.739857 
L 54.395314 166.720151 
L 58.551584 169.739857 
L 56.96403 164.85387 
L 61.1203 161.834163 
L 55.982868 161.834163 
z
" clip-path="url(#p8a066e90aa)" style="fill: #1f77b4; stroke: #000000; stroke-width: 0.5"/>
    <path d="M 180.258551 64.20949 
L 178.670997 69.095477 
L 173.533566 69.095477 
L 177.689835 72.115184 
L 176.102281 77.001171 
L 180.258551 73.981465 
L 184.41482 77.001171 
L 182.827267 72.115184 
L 186.983536 69.095477 
L 181.846104 69.095477 
z
" clip-path="url(#p8a066e90aa)" style="fill: #ff7f0e; stroke: #000000; stroke-width: 0.5"/>
    <path d="M 201.035845 14.13304 
L 199.448292 19.019028 
L 194.31086 19.019028 
L 198.467129 22.038734 
L 196.879576 26.924722 
L 201.035845 23.905015 
L 205.192114 26.924722 
L 203.604561 22.038734 
L 207.76083 19.019028 
L 202.623399 19.019028 
z
" clip-path="url(#p8a066e90aa)" style="fill: #2ca02c; stroke: #000000; stroke-width: 0.5"/>
    <path d="M 63.579195 138.577843 
L 61.991641 143.46383 
L 56.85421 143.46383 
L 61.010479 146.483537 
L 59.422925 151.369524 
L 63.579195 148.349818 
L 67.735464 151.369524 
L 66.14791 146.483537 
L 70.30418 143.46383 
L 65.166748 143.46383 
z
" clip-path="url(#p8a066e90aa)" style="fill: #d62728; stroke: #000000; stroke-width: 0.5"/>
    <path d="M 53.632183 150.041058 
L 52.04463 154.927046 
L 46.907198 154.927046 
L 51.063467 157.946752 
L 49.475914 162.83274 
L 53.632183 159.813034 
L 57.788452 162.83274 
L 56.200899 157.946752 
L 60.357168 154.927046 
L 55.219737 154.927046 
z
" clip-path="url(#p8a066e90aa)" style="fill: #9467bd; stroke: #000000; stroke-width: 0.5"/>
   </g>
   <g id="PathCollection_2"/>
   <g id="PathCollection_3"/>
   <g id="PathCollection_4"/>
   <g id="PathCollection_5"/>
   <g id="PathCollection_6"/>
   <g id="matplotlib.axis_1">
    <g id="xtick_1">
     <g id="line2d_1">
      <defs>
       <path id="ma93e43aabb" d="M 0 0 
L 0 3.5 
" style="stroke: #000000; stroke-width: 0.8"/>
      </defs>
      <g>
       <use xlink:href="#ma93e43aabb" x="59.14135" y="171.16" style="stroke: #000000; stroke-width: 0.8"/>
      </g>
     </g>
     <g id="text_1">
      <!-- 0.010 -->
      <g transform="translate(44.827287 185.758437) scale(0.1 -0.1)">
       <defs>
        <path id="DejaVuSans-30" d="M 2034 4250 
Q 1547 4250 1301 3770 
Q 1056 3291 1056 2328 
Q 1056 1369 1301 889 
Q 1547 409 2034 409 
Q 2525 409 2770 889 
Q 3016 1369 3016 2328 
Q 3016 3291 2770 3770 
Q 2525 4250 2034 4250 
z
M 2034 4750 
Q 2819 4750 3233 4129 
Q 3647 3509 3647 2328 
Q 3647 1150 3233 529 
Q 2819 -91 2034 -91 
Q 1250 -91 836 529 
Q 422 1150 422 2328 
Q 422 3509 836 4129 
Q 1250 4750 2034 4750 
z
" transform="scale(0.015625)"/>
        <path id="DejaVuSans-2e" d="M 684 794 
L 1344 794 
L 1344 0 
L 684 0 
L 684 794 
z
" transform="scale(0.015625)"/>
        <path id="DejaVuSans-31" d="M 794 531 
L 1825 531 
L 1825 4091 
L 703 3866 
L 703 4441 
L 1819 4666 
L 2450 4666 
L 2450 531 
L 3481 531 
L 3481 0 
L 794 0 
L 794 531 
z
" transform="scale(0.015625)"/>
       </defs>
       <use xlink:href="#DejaVuSans-30"/>
       <use xlink:href="#DejaVuSans-2e" x="63.623047"/>
       <use xlink:href="#DejaVuSans-30" x="95.410156"/>
       <use xlink:href="#DejaVuSans-31" x="159.033203"/>
       <use xlink:href="#DejaVuSans-30" x="222.65625"/>
      </g>
     </g>
    </g>
    <g id="xtick_2">
     <g id="line2d_2">
      <g>
       <use xlink:href="#ma93e43aabb" x="93.346834" y="171.16" style="stroke: #000000; stroke-width: 0.8"/>
      </g>
     </g>
     <g id="text_2">
      <!-- 0.011 -->
      <g transform="translate(79.032772 185.758437) scale(0.1 -0.1)">
       <use xlink:href="#DejaVuSans-30"/>
       <use xlink:href="#DejaVuSans-2e" x="63.623047"/>
       <use xlink:href="#DejaVuSans-30" x="95.410156"/>
       <use xlink:href="#DejaVuSans-31" x="159.033203"/>
       <use xlink:href="#DejaVuSans-31" x="222.65625"/>
      </g>
     </g>
    </g>
    <g id="xtick_3">
     <g id="line2d_3">
      <g>
       <use xlink:href="#ma93e43aabb" x="127.552319" y="171.16" style="stroke: #000000; stroke-width: 0.8"/>
      </g>
     </g>
     <g id="text_3">
      <!-- 0.012 -->
      <g transform="translate(113.238256 185.758437) scale(0.1 -0.1)">
       <defs>
        <path id="DejaVuSans-32" d="M 1228 531 
L 3431 531 
L 3431 0 
L 469 0 
L 469 531 
Q 828 903 1448 1529 
Q 2069 2156 2228 2338 
Q 2531 2678 2651 2914 
Q 2772 3150 2772 3378 
Q 2772 3750 2511 3984 
Q 2250 4219 1831 4219 
Q 1534 4219 1204 4116 
Q 875 4013 500 3803 
L 500 4441 
Q 881 4594 1212 4672 
Q 1544 4750 1819 4750 
Q 2544 4750 2975 4387 
Q 3406 4025 3406 3419 
Q 3406 3131 3298 2873 
Q 3191 2616 2906 2266 
Q 2828 2175 2409 1742 
Q 1991 1309 1228 531 
z
" transform="scale(0.015625)"/>
       </defs>
       <use xlink:href="#DejaVuSans-30"/>
       <use xlink:href="#DejaVuSans-2e" x="63.623047"/>
       <use xlink:href="#DejaVuSans-30" x="95.410156"/>
       <use xlink:href="#DejaVuSans-31" x="159.033203"/>
       <use xlink:href="#DejaVuSans-32" x="222.65625"/>
      </g>
     </g>
    </g>
    <g id="xtick_4">
     <g id="line2d_4">
      <g>
       <use xlink:href="#ma93e43aabb" x="161.757803" y="171.16" style="stroke: #000000; stroke-width: 0.8"/>
      </g>
     </g>
     <g id="text_4">
      <!-- 0.013 -->
      <g transform="translate(147.443741 185.758437) scale(0.1 -0.1)">
       <defs>
        <path id="DejaVuSans-33" d="M 2597 2516 
Q 3050 2419 3304 2112 
Q 3559 1806 3559 1356 
Q 3559 666 3084 287 
Q 2609 -91 1734 -91 
Q 1441 -91 1130 -33 
Q 819 25 488 141 
L 488 750 
Q 750 597 1062 519 
Q 1375 441 1716 441 
Q 2309 441 2620 675 
Q 2931 909 2931 1356 
Q 2931 1769 2642 2001 
Q 2353 2234 1838 2234 
L 1294 2234 
L 1294 2753 
L 1863 2753 
Q 2328 2753 2575 2939 
Q 2822 3125 2822 3475 
Q 2822 3834 2567 4026 
Q 2313 4219 1838 4219 
Q 1578 4219 1281 4162 
Q 984 4106 628 3988 
L 628 4550 
Q 988 4650 1302 4700 
Q 1616 4750 1894 4750 
Q 2613 4750 3031 4423 
Q 3450 4097 3450 3541 
Q 3450 3153 3228 2886 
Q 3006 2619 2597 2516 
z
" transform="scale(0.015625)"/>
       </defs>
       <use xlink:href="#DejaVuSans-30"/>
       <use xlink:href="#DejaVuSans-2e" x="63.623047"/>
       <use xlink:href="#DejaVuSans-30" x="95.410156"/>
       <use xlink:href="#DejaVuSans-31" x="159.033203"/>
       <use xlink:href="#DejaVuSans-33" x="222.65625"/>
      </g>
     </g>
    </g>
    <g id="xtick_5">
     <g id="line2d_5">
      <g>
       <use xlink:href="#ma93e43aabb" x="195.963288" y="171.16" style="stroke: #000000; stroke-width: 0.8"/>
      </g>
     </g>
     <g id="text_5">
      <!-- 0.014 -->
      <g transform="translate(181.649225 185.758437) scale(0.1 -0.1)">
       <defs>
        <path id="DejaVuSans-34" d="M 2419 4116 
L 825 1625 
L 2419 1625 
L 2419 4116 
z
M 2253 4666 
L 3047 4666 
L 3047 1625 
L 3713 1625 
L 3713 1100 
L 3047 1100 
L 3047 0 
L 2419 0 
L 2419 1100 
L 313 1100 
L 313 1709 
L 2253 4666 
z
" transform="scale(0.015625)"/>
       </defs>
       <use xlink:href="#DejaVuSans-30"/>
       <use xlink:href="#DejaVuSans-2e" x="63.623047"/>
       <use xlink:href="#DejaVuSans-30" x="95.410156"/>
       <use xlink:href="#DejaVuSans-31" x="159.033203"/>
       <use xlink:href="#DejaVuSans-34" x="222.65625"/>
      </g>
     </g>
    </g>
    <g id="text_6">
     <!-- Calibration Error -->
     <g transform="translate(78.159327 200.95625) scale(0.12 -0.12)">
      <defs>
       <path id="DejaVuSans-43" d="M 4122 4306 
L 4122 3641 
Q 3803 3938 3442 4084 
Q 3081 4231 2675 4231 
Q 1875 4231 1450 3742 
Q 1025 3253 1025 2328 
Q 1025 1406 1450 917 
Q 1875 428 2675 428 
Q 3081 428 3442 575 
Q 3803 722 4122 1019 
L 4122 359 
Q 3791 134 3420 21 
Q 3050 -91 2638 -91 
Q 1578 -91 968 557 
Q 359 1206 359 2328 
Q 359 3453 968 4101 
Q 1578 4750 2638 4750 
Q 3056 4750 3426 4639 
Q 3797 4528 4122 4306 
z
" transform="scale(0.015625)"/>
       <path id="DejaVuSans-61" d="M 2194 1759 
Q 1497 1759 1228 1600 
Q 959 1441 959 1056 
Q 959 750 1161 570 
Q 1363 391 1709 391 
Q 2188 391 2477 730 
Q 2766 1069 2766 1631 
L 2766 1759 
L 2194 1759 
z
M 3341 1997 
L 3341 0 
L 2766 0 
L 2766 531 
Q 2569 213 2275 61 
Q 1981 -91 1556 -91 
Q 1019 -91 701 211 
Q 384 513 384 1019 
Q 384 1609 779 1909 
Q 1175 2209 1959 2209 
L 2766 2209 
L 2766 2266 
Q 2766 2663 2505 2880 
Q 2244 3097 1772 3097 
Q 1472 3097 1187 3025 
Q 903 2953 641 2809 
L 641 3341 
Q 956 3463 1253 3523 
Q 1550 3584 1831 3584 
Q 2591 3584 2966 3190 
Q 3341 2797 3341 1997 
z
" transform="scale(0.015625)"/>
       <path id="DejaVuSans-6c" d="M 603 4863 
L 1178 4863 
L 1178 0 
L 603 0 
L 603 4863 
z
" transform="scale(0.015625)"/>
       <path id="DejaVuSans-69" d="M 603 3500 
L 1178 3500 
L 1178 0 
L 603 0 
L 603 3500 
z
M 603 4863 
L 1178 4863 
L 1178 4134 
L 603 4134 
L 603 4863 
z
" transform="scale(0.015625)"/>
       <path id="DejaVuSans-62" d="M 3116 1747 
Q 3116 2381 2855 2742 
Q 2594 3103 2138 3103 
Q 1681 3103 1420 2742 
Q 1159 2381 1159 1747 
Q 1159 1113 1420 752 
Q 1681 391 2138 391 
Q 2594 391 2855 752 
Q 3116 1113 3116 1747 
z
M 1159 2969 
Q 1341 3281 1617 3432 
Q 1894 3584 2278 3584 
Q 2916 3584 3314 3078 
Q 3713 2572 3713 1747 
Q 3713 922 3314 415 
Q 2916 -91 2278 -91 
Q 1894 -91 1617 61 
Q 1341 213 1159 525 
L 1159 0 
L 581 0 
L 581 4863 
L 1159 4863 
L 1159 2969 
z
" transform="scale(0.015625)"/>
       <path id="DejaVuSans-72" d="M 2631 2963 
Q 2534 3019 2420 3045 
Q 2306 3072 2169 3072 
Q 1681 3072 1420 2755 
Q 1159 2438 1159 1844 
L 1159 0 
L 581 0 
L 581 3500 
L 1159 3500 
L 1159 2956 
Q 1341 3275 1631 3429 
Q 1922 3584 2338 3584 
Q 2397 3584 2469 3576 
Q 2541 3569 2628 3553 
L 2631 2963 
z
" transform="scale(0.015625)"/>
       <path id="DejaVuSans-74" d="M 1172 4494 
L 1172 3500 
L 2356 3500 
L 2356 3053 
L 1172 3053 
L 1172 1153 
Q 1172 725 1289 603 
Q 1406 481 1766 481 
L 2356 481 
L 2356 0 
L 1766 0 
Q 1100 0 847 248 
Q 594 497 594 1153 
L 594 3053 
L 172 3053 
L 172 3500 
L 594 3500 
L 594 4494 
L 1172 4494 
z
" transform="scale(0.015625)"/>
       <path id="DejaVuSans-6f" d="M 1959 3097 
Q 1497 3097 1228 2736 
Q 959 2375 959 1747 
Q 959 1119 1226 758 
Q 1494 397 1959 397 
Q 2419 397 2687 759 
Q 2956 1122 2956 1747 
Q 2956 2369 2687 2733 
Q 2419 3097 1959 3097 
z
M 1959 3584 
Q 2709 3584 3137 3096 
Q 3566 2609 3566 1747 
Q 3566 888 3137 398 
Q 2709 -91 1959 -91 
Q 1206 -91 779 398 
Q 353 888 353 1747 
Q 353 2609 779 3096 
Q 1206 3584 1959 3584 
z
" transform="scale(0.015625)"/>
       <path id="DejaVuSans-6e" d="M 3513 2113 
L 3513 0 
L 2938 0 
L 2938 2094 
Q 2938 2591 2744 2837 
Q 2550 3084 2163 3084 
Q 1697 3084 1428 2787 
Q 1159 2491 1159 1978 
L 1159 0 
L 581 0 
L 581 3500 
L 1159 3500 
L 1159 2956 
Q 1366 3272 1645 3428 
Q 1925 3584 2291 3584 
Q 2894 3584 3203 3211 
Q 3513 2838 3513 2113 
z
" transform="scale(0.015625)"/>
       <path id="DejaVuSans-20" transform="scale(0.015625)"/>
       <path id="DejaVuSans-45" d="M 628 4666 
L 3578 4666 
L 3578 4134 
L 1259 4134 
L 1259 2753 
L 3481 2753 
L 3481 2222 
L 1259 2222 
L 1259 531 
L 3634 531 
L 3634 0 
L 628 0 
L 628 4666 
z
" transform="scale(0.015625)"/>
      </defs>
      <use xlink:href="#DejaVuSans-43"/>
      <use xlink:href="#DejaVuSans-61" x="69.824219"/>
      <use xlink:href="#DejaVuSans-6c" x="131.103516"/>
      <use xlink:href="#DejaVuSans-69" x="158.886719"/>
      <use xlink:href="#DejaVuSans-62" x="186.669922"/>
      <use xlink:href="#DejaVuSans-72" x="250.146484"/>
      <use xlink:href="#DejaVuSans-61" x="291.259766"/>
      <use xlink:href="#DejaVuSans-74" x="352.539062"/>
      <use xlink:href="#DejaVuSans-69" x="391.748047"/>
      <use xlink:href="#DejaVuSans-6f" x="419.53125"/>
      <use xlink:href="#DejaVuSans-6e" x="480.712891"/>
      <use xlink:href="#DejaVuSans-20" x="544.091797"/>
      <use xlink:href="#DejaVuSans-45" x="575.878906"/>
      <use xlink:href="#DejaVuSans-72" x="639.0625"/>
      <use xlink:href="#DejaVuSans-72" x="678.425781"/>
      <use xlink:href="#DejaVuSans-6f" x="717.289062"/>
      <use xlink:href="#DejaVuSans-72" x="778.470703"/>
     </g>
    </g>
   </g>
   <g id="matplotlib.axis_2">
    <g id="ytick_1">
     <g id="line2d_6">
      <defs>
       <path id="mc6855ad739" d="M 0 0 
L -3.5 0 
" style="stroke: #000000; stroke-width: 0.8"/>
      </defs>
      <g>
       <use xlink:href="#mc6855ad739" x="46.262" y="164.019243" style="stroke: #000000; stroke-width: 0.8"/>
      </g>
     </g>
     <g id="text_7">
      <!-- 0 -->
      <g transform="translate(32.8995 167.818462) scale(0.1 -0.1)">
       <use xlink:href="#DejaVuSans-30"/>
      </g>
     </g>
    </g>
    <g id="ytick_2">
     <g id="line2d_7">
      <g>
       <use xlink:href="#mc6855ad739" x="46.262" y="121.362707" style="stroke: #000000; stroke-width: 0.8"/>
      </g>
     </g>
     <g id="text_8">
      <!-- 2 -->
      <g transform="translate(32.8995 125.161926) scale(0.1 -0.1)">
       <use xlink:href="#DejaVuSans-32"/>
      </g>
     </g>
    </g>
    <g id="ytick_3">
     <g id="line2d_8">
      <g>
       <use xlink:href="#mc6855ad739" x="46.262" y="78.706171" style="stroke: #000000; stroke-width: 0.8"/>
      </g>
     </g>
     <g id="text_9">
      <!-- 4 -->
      <g transform="translate(32.8995 82.50539) scale(0.1 -0.1)">
       <use xlink:href="#DejaVuSans-34"/>
      </g>
     </g>
    </g>
    <g id="ytick_4">
     <g id="line2d_9">
      <g>
       <use xlink:href="#mc6855ad739" x="46.262" y="36.049635" style="stroke: #000000; stroke-width: 0.8"/>
      </g>
     </g>
     <g id="text_10">
      <!-- 6 -->
      <g transform="translate(32.8995 39.848854) scale(0.1 -0.1)">
       <defs>
        <path id="DejaVuSans-36" d="M 2113 2584 
Q 1688 2584 1439 2293 
Q 1191 2003 1191 1497 
Q 1191 994 1439 701 
Q 1688 409 2113 409 
Q 2538 409 2786 701 
Q 3034 994 3034 1497 
Q 3034 2003 2786 2293 
Q 2538 2584 2113 2584 
z
M 3366 4563 
L 3366 3988 
Q 3128 4100 2886 4159 
Q 2644 4219 2406 4219 
Q 1781 4219 1451 3797 
Q 1122 3375 1075 2522 
Q 1259 2794 1537 2939 
Q 1816 3084 2150 3084 
Q 2853 3084 3261 2657 
Q 3669 2231 3669 1497 
Q 3669 778 3244 343 
Q 2819 -91 2113 -91 
Q 1303 -91 875 529 
Q 447 1150 447 2328 
Q 447 3434 972 4092 
Q 1497 4750 2381 4750 
Q 2619 4750 2861 4703 
Q 3103 4656 3366 4563 
z
" transform="scale(0.015625)"/>
       </defs>
       <use xlink:href="#DejaVuSans-36"/>
      </g>
     </g>
    </g>
    <g id="text_11">
     <!-- Model Delta $\|\omega\|_2^2$ -->
     <g transform="translate(25.5395 144.391676) rotate(-90) scale(0.12 -0.12)">
      <defs>
       <path id="DejaVuSans-4d" d="M 628 4666 
L 1569 4666 
L 2759 1491 
L 3956 4666 
L 4897 4666 
L 4897 0 
L 4281 0 
L 4281 4097 
L 3078 897 
L 2444 897 
L 1241 4097 
L 1241 0 
L 628 0 
L 628 4666 
z
" transform="scale(0.015625)"/>
       <path id="DejaVuSans-64" d="M 2906 2969 
L 2906 4863 
L 3481 4863 
L 3481 0 
L 2906 0 
L 2906 525 
Q 2725 213 2448 61 
Q 2172 -91 1784 -91 
Q 1150 -91 751 415 
Q 353 922 353 1747 
Q 353 2572 751 3078 
Q 1150 3584 1784 3584 
Q 2172 3584 2448 3432 
Q 2725 3281 2906 2969 
z
M 947 1747 
Q 947 1113 1208 752 
Q 1469 391 1925 391 
Q 2381 391 2643 752 
Q 2906 1113 2906 1747 
Q 2906 2381 2643 2742 
Q 2381 3103 1925 3103 
Q 1469 3103 1208 2742 
Q 947 2381 947 1747 
z
" transform="scale(0.015625)"/>
       <path id="DejaVuSans-65" d="M 3597 1894 
L 3597 1613 
L 953 1613 
Q 991 1019 1311 708 
Q 1631 397 2203 397 
Q 2534 397 2845 478 
Q 3156 559 3463 722 
L 3463 178 
Q 3153 47 2828 -22 
Q 2503 -91 2169 -91 
Q 1331 -91 842 396 
Q 353 884 353 1716 
Q 353 2575 817 3079 
Q 1281 3584 2069 3584 
Q 2775 3584 3186 3129 
Q 3597 2675 3597 1894 
z
M 3022 2063 
Q 3016 2534 2758 2815 
Q 2500 3097 2075 3097 
Q 1594 3097 1305 2825 
Q 1016 2553 972 2059 
L 3022 2063 
z
" transform="scale(0.015625)"/>
       <path id="DejaVuSans-44" d="M 1259 4147 
L 1259 519 
L 2022 519 
Q 2988 519 3436 956 
Q 3884 1394 3884 2338 
Q 3884 3275 3436 3711 
Q 2988 4147 2022 4147 
L 1259 4147 
z
M 628 4666 
L 1925 4666 
Q 3281 4666 3915 4102 
Q 4550 3538 4550 2338 
Q 4550 1131 3912 565 
Q 3275 0 1925 0 
L 628 0 
L 628 4666 
z
" transform="scale(0.015625)"/>
       <path id="DejaVuSans-2016" d="M 1344 4891 
L 1344 -1509 
L 813 -1509 
L 813 4891 
L 1344 4891 
z
M 2376 4891 
L 2376 -1509 
L 1845 -1509 
L 1845 4891 
L 2376 4891 
z
" transform="scale(0.015625)"/>
       <path id="DejaVuSans-Oblique-3c9" d="M 1369 -91 
Q 72 -91 434 1766 
Q 575 2500 1256 3500 
L 1875 3500 
Q 1231 2500 1088 1750 
Q 819 397 1519 397 
Q 2166 397 2478 2078 
L 3009 2078 
Q 2669 388 3316 397 
Q 4013 403 4275 1750 
Q 4419 2500 4169 3500 
L 4788 3500 
Q 5075 2500 4934 1766 
Q 4578 -94 3278 -91 
Q 2428 -88 2503 844 
Q 2194 -91 1369 -91 
z
" transform="scale(0.015625)"/>
      </defs>
      <use xlink:href="#DejaVuSans-4d" transform="translate(0 0.765625)"/>
      <use xlink:href="#DejaVuSans-6f" transform="translate(86.279297 0.765625)"/>
      <use xlink:href="#DejaVuSans-64" transform="translate(147.460938 0.765625)"/>
      <use xlink:href="#DejaVuSans-65" transform="translate(210.9375 0.765625)"/>
      <use xlink:href="#DejaVuSans-6c" transform="translate(272.460938 0.765625)"/>
      <use xlink:href="#DejaVuSans-20" transform="translate(300.244141 0.765625)"/>
      <use xlink:href="#DejaVuSans-44" transform="translate(332.03125 0.765625)"/>
      <use xlink:href="#DejaVuSans-65" transform="translate(409.033203 0.765625)"/>
      <use xlink:href="#DejaVuSans-6c" transform="translate(470.556641 0.765625)"/>
      <use xlink:href="#DejaVuSans-74" transform="translate(498.339844 0.765625)"/>
      <use xlink:href="#DejaVuSans-61" transform="translate(537.548828 0.765625)"/>
      <use xlink:href="#DejaVuSans-20" transform="translate(598.828125 0.765625)"/>
      <use xlink:href="#DejaVuSans-2016" transform="translate(630.615234 0.765625)"/>
      <use xlink:href="#DejaVuSans-Oblique-3c9" transform="translate(680.615234 0.765625)"/>
      <use xlink:href="#DejaVuSans-2016" transform="translate(764.355469 0.765625)"/>
      <use xlink:href="#DejaVuSans-32" transform="translate(815.3125 39.046875) scale(0.7)"/>
      <use xlink:href="#DejaVuSans-32" transform="translate(815.3125 -26.578125) scale(0.7)"/>
     </g>
    </g>
   </g>
   <g id="patch_3">
    <path d="M 46.262 171.16 
L 46.262 14.063351 
" style="fill: none; stroke: #000000; stroke-width: 0.8; stroke-linejoin: miter; stroke-linecap: square"/>
   </g>
   <g id="patch_4">
    <path d="M 208.406028 171.16 
L 208.406028 14.063351 
" style="fill: none; stroke: #000000; stroke-width: 0.8; stroke-linejoin: miter; stroke-linecap: square"/>
   </g>
   <g id="patch_5">
    <path d="M 46.262 171.16 
L 208.406028 171.16 
" style="fill: none; stroke: #000000; stroke-width: 0.8; stroke-linejoin: miter; stroke-linecap: square"/>
   </g>
   <g id="patch_6">
    <path d="M 46.262 14.063351 
L 208.406028 14.063351 
" style="fill: none; stroke: #000000; stroke-width: 0.8; stroke-linejoin: miter; stroke-linecap: square"/>
   </g>
   <g id="legend_1">
    <g id="patch_7">
     <path d="M 50.262 107.132101 
L 127.913563 107.132101 
Q 129.913563 107.132101 129.913563 105.132101 
L 129.913563 18.063351 
Q 129.913563 16.063351 127.913563 16.063351 
L 50.262 16.063351 
Q 48.262 16.063351 48.262 18.063351 
L 48.262 105.132101 
Q 48.262 107.132101 50.262 107.132101 
z
" style="fill: #ffffff; opacity: 0.8; stroke: #cccccc; stroke-linejoin: miter"/>
    </g>
    <g id="text_12">
     <!-- Method -->
     <g transform="translate(70.334656 27.661789) scale(0.1 -0.1)">
      <defs>
       <path id="DejaVuSans-68" d="M 3513 2113 
L 3513 0 
L 2938 0 
L 2938 2094 
Q 2938 2591 2744 2837 
Q 2550 3084 2163 3084 
Q 1697 3084 1428 2787 
Q 1159 2491 1159 1978 
L 1159 0 
L 581 0 
L 581 4863 
L 1159 4863 
L 1159 2956 
Q 1366 3272 1645 3428 
Q 1925 3584 2291 3584 
Q 2894 3584 3203 3211 
Q 3513 2838 3513 2113 
z
" transform="scale(0.015625)"/>
      </defs>
      <use xlink:href="#DejaVuSans-4d"/>
      <use xlink:href="#DejaVuSans-65" x="86.279297"/>
      <use xlink:href="#DejaVuSans-74" x="147.802734"/>
      <use xlink:href="#DejaVuSans-68" x="187.011719"/>
      <use xlink:href="#DejaVuSans-6f" x="250.390625"/>
      <use xlink:href="#DejaVuSans-64" x="311.572266"/>
     </g>
    </g>
    <g id="PathCollection_7">
     <defs>
      <path id="m2041d3e0b6" d="M 0 -3 
L -0.673542 -0.927051 
L -2.85317 -0.927051 
L -1.089814 0.354102 
L -1.763356 2.427051 
L -0 1.145898 
L 1.763356 2.427051 
L 1.089814 0.354102 
L 2.85317 -0.927051 
L 0.673542 -0.927051 
z
" style="stroke: #1f77b4"/>
     </defs>
     <g>
      <use xlink:href="#m2041d3e0b6" x="62.262" y="39.714914" style="fill: #1f77b4; stroke: #1f77b4"/>
     </g>
    </g>
    <g id="text_13">
     <!-- No adapt -->
     <g transform="translate(80.262 42.339914) scale(0.1 -0.1)">
      <defs>
       <path id="DejaVuSans-4e" d="M 628 4666 
L 1478 4666 
L 3547 763 
L 3547 4666 
L 4159 4666 
L 4159 0 
L 3309 0 
L 1241 3903 
L 1241 0 
L 628 0 
L 628 4666 
z
" transform="scale(0.015625)"/>
       <path id="DejaVuSans-70" d="M 1159 525 
L 1159 -1331 
L 581 -1331 
L 581 3500 
L 1159 3500 
L 1159 2969 
Q 1341 3281 1617 3432 
Q 1894 3584 2278 3584 
Q 2916 3584 3314 3078 
Q 3713 2572 3713 1747 
Q 3713 922 3314 415 
Q 2916 -91 2278 -91 
Q 1894 -91 1617 61 
Q 1341 213 1159 525 
z
M 3116 1747 
Q 3116 2381 2855 2742 
Q 2594 3103 2138 3103 
Q 1681 3103 1420 2742 
Q 1159 2381 1159 1747 
Q 1159 1113 1420 752 
Q 1681 391 2138 391 
Q 2594 391 2855 752 
Q 3116 1113 3116 1747 
z
" transform="scale(0.015625)"/>
      </defs>
      <use xlink:href="#DejaVuSans-4e"/>
      <use xlink:href="#DejaVuSans-6f" x="74.804688"/>
      <use xlink:href="#DejaVuSans-20" x="135.986328"/>
      <use xlink:href="#DejaVuSans-61" x="167.773438"/>
      <use xlink:href="#DejaVuSans-64" x="229.052734"/>
      <use xlink:href="#DejaVuSans-61" x="292.529297"/>
      <use xlink:href="#DejaVuSans-70" x="353.808594"/>
      <use xlink:href="#DejaVuSans-74" x="417.285156"/>
     </g>
    </g>
    <g id="PathCollection_8">
     <defs>
      <path id="m5f21bfbbe7" d="M 0 -3 
L -0.673542 -0.927051 
L -2.85317 -0.927051 
L -1.089814 0.354102 
L -1.763356 2.427051 
L -0 1.145898 
L 1.763356 2.427051 
L 1.089814 0.354102 
L 2.85317 -0.927051 
L 0.673542 -0.927051 
z
" style="stroke: #ff7f0e"/>
     </defs>
     <g>
      <use xlink:href="#m5f21bfbbe7" x="62.262" y="54.393039" style="fill: #ff7f0e; stroke: #ff7f0e"/>
     </g>
    </g>
    <g id="text_14">
     <!-- Tent -->
     <g transform="translate(80.262 57.018039) scale(0.1 -0.1)">
      <defs>
       <path id="DejaVuSans-54" d="M -19 4666 
L 3928 4666 
L 3928 4134 
L 2272 4134 
L 2272 0 
L 1638 0 
L 1638 4134 
L -19 4134 
L -19 4666 
z
" transform="scale(0.015625)"/>
      </defs>
      <use xlink:href="#DejaVuSans-54"/>
      <use xlink:href="#DejaVuSans-65" x="44.083984"/>
      <use xlink:href="#DejaVuSans-6e" x="105.607422"/>
      <use xlink:href="#DejaVuSans-74" x="168.986328"/>
     </g>
    </g>
    <g id="PathCollection_9">
     <defs>
      <path id="m7ce9eaa5b8" d="M 0 -3 
L -0.673542 -0.927051 
L -2.85317 -0.927051 
L -1.089814 0.354102 
L -1.763356 2.427051 
L -0 1.145898 
L 1.763356 2.427051 
L 1.089814 0.354102 
L 2.85317 -0.927051 
L 0.673542 -0.927051 
z
" style="stroke: #2ca02c"/>
     </defs>
     <g>
      <use xlink:href="#m7ce9eaa5b8" x="62.262" y="69.071164" style="fill: #2ca02c; stroke: #2ca02c"/>
     </g>
    </g>
    <g id="text_15">
     <!-- Eata -->
     <g transform="translate(80.262 71.696164) scale(0.1 -0.1)">
      <use xlink:href="#DejaVuSans-45"/>
      <use xlink:href="#DejaVuSans-61" x="63.183594"/>
      <use xlink:href="#DejaVuSans-74" x="124.462891"/>
      <use xlink:href="#DejaVuSans-61" x="163.671875"/>
     </g>
    </g>
    <g id="PathCollection_10">
     <defs>
      <path id="m3f543c0b9f" d="M 0 -3 
L -0.673542 -0.927051 
L -2.85317 -0.927051 
L -1.089814 0.354102 
L -1.763356 2.427051 
L -0 1.145898 
L 1.763356 2.427051 
L 1.089814 0.354102 
L 2.85317 -0.927051 
L 0.673542 -0.927051 
z
" style="stroke: #d62728"/>
     </defs>
     <g>
      <use xlink:href="#m3f543c0b9f" x="62.262" y="83.749289" style="fill: #d62728; stroke: #d62728"/>
     </g>
    </g>
    <g id="text_16">
     <!-- Sar -->
     <g transform="translate(80.262 86.374289) scale(0.1 -0.1)">
      <defs>
       <path id="DejaVuSans-53" d="M 3425 4513 
L 3425 3897 
Q 3066 4069 2747 4153 
Q 2428 4238 2131 4238 
Q 1616 4238 1336 4038 
Q 1056 3838 1056 3469 
Q 1056 3159 1242 3001 
Q 1428 2844 1947 2747 
L 2328 2669 
Q 3034 2534 3370 2195 
Q 3706 1856 3706 1288 
Q 3706 609 3251 259 
Q 2797 -91 1919 -91 
Q 1588 -91 1214 -16 
Q 841 59 441 206 
L 441 856 
Q 825 641 1194 531 
Q 1563 422 1919 422 
Q 2459 422 2753 634 
Q 3047 847 3047 1241 
Q 3047 1584 2836 1778 
Q 2625 1972 2144 2069 
L 1759 2144 
Q 1053 2284 737 2584 
Q 422 2884 422 3419 
Q 422 4038 858 4394 
Q 1294 4750 2059 4750 
Q 2388 4750 2728 4690 
Q 3069 4631 3425 4513 
z
" transform="scale(0.015625)"/>
      </defs>
      <use xlink:href="#DejaVuSans-53"/>
      <use xlink:href="#DejaVuSans-61" x="63.476562"/>
      <use xlink:href="#DejaVuSans-72" x="124.755859"/>
     </g>
    </g>
    <g id="PathCollection_11">
     <defs>
      <path id="m9523dc9660" d="M 0 -3 
L -0.673542 -0.927051 
L -2.85317 -0.927051 
L -1.089814 0.354102 
L -1.763356 2.427051 
L -0 1.145898 
L 1.763356 2.427051 
L 1.089814 0.354102 
L 2.85317 -0.927051 
L 0.673542 -0.927051 
z
" style="stroke: #9467bd"/>
     </defs>
     <g>
      <use xlink:href="#m9523dc9660" x="62.262" y="98.427414" style="fill: #9467bd; stroke: #9467bd"/>
     </g>
    </g>
    <g id="text_17">
     <!-- Pem -->
     <g transform="translate(80.262 101.052414) scale(0.1 -0.1)">
      <defs>
       <path id="DejaVuSans-50" d="M 1259 4147 
L 1259 2394 
L 2053 2394 
Q 2494 2394 2734 2622 
Q 2975 2850 2975 3272 
Q 2975 3691 2734 3919 
Q 2494 4147 2053 4147 
L 1259 4147 
z
M 628 4666 
L 2053 4666 
Q 2838 4666 3239 4311 
Q 3641 3956 3641 3272 
Q 3641 2581 3239 2228 
Q 2838 1875 2053 1875 
L 1259 1875 
L 1259 0 
L 628 0 
L 628 4666 
z
" transform="scale(0.015625)"/>
       <path id="DejaVuSans-6d" d="M 3328 2828 
Q 3544 3216 3844 3400 
Q 4144 3584 4550 3584 
Q 5097 3584 5394 3201 
Q 5691 2819 5691 2113 
L 5691 0 
L 5113 0 
L 5113 2094 
Q 5113 2597 4934 2840 
Q 4756 3084 4391 3084 
Q 3944 3084 3684 2787 
Q 3425 2491 3425 1978 
L 3425 0 
L 2847 0 
L 2847 2094 
Q 2847 2600 2669 2842 
Q 2491 3084 2119 3084 
Q 1678 3084 1418 2786 
Q 1159 2488 1159 1978 
L 1159 0 
L 581 0 
L 581 3500 
L 1159 3500 
L 1159 2956 
Q 1356 3278 1631 3431 
Q 1906 3584 2284 3584 
Q 2666 3584 2933 3390 
Q 3200 3197 3328 2828 
z
" transform="scale(0.015625)"/>
      </defs>
      <use xlink:href="#DejaVuSans-50"/>
      <use xlink:href="#DejaVuSans-65" x="56.677734"/>
      <use xlink:href="#DejaVuSans-6d" x="118.201172"/>
     </g>
    </g>
   </g>
  </g>
  <g id="axes_2">
   <g id="patch_8">
    <path d="M 260.887988 171.16 
L 709.2 171.16 
L 709.2 14.063351 
L 260.887988 14.063351 
z
" style="fill: #ffffff"/>
   </g>
   <g id="PolyCollection_1">
    <defs>
     <path id="mc948e5aa07" d="M 263.36485 -55.275219 
L 263.36485 -55.275219 
L 265.841712 -69.754868 
L 268.318574 -76.418497 
L 270.795436 -81.787172 
L 273.272298 -86.873642 
L 275.74916 -91.420025 
L 278.226022 -93.279049 
L 280.702883 -95.33776 
L 283.179745 -96.949896 
L 285.656607 -99.14297 
L 288.133469 -100.001563 
L 290.610331 -100.35884 
L 293.087193 -101.540574 
L 295.564055 -103.071688 
L 298.040917 -102.555787 
L 300.517779 -104.223765 
L 302.994641 -104.709129 
L 305.471503 -104.8085 
L 307.948365 -105.304812 
L 310.425227 -107.315646 
L 312.902089 -107.395183 
L 315.378951 -109.782069 
L 317.855813 -109.380104 
L 320.332675 -110.226102 
L 322.809537 -111.557766 
L 325.286398 -111.698519 
L 327.76326 -112.052087 
L 330.240122 -112.168812 
L 332.716984 -113.537179 
L 335.193846 -113.308884 
L 337.670708 -113.34246 
L 340.14757 -114.025855 
L 342.624432 -114.658024 
L 345.101294 -114.713647 
L 347.578156 -114.779588 
L 350.055018 -114.649339 
L 352.53188 -115.024232 
L 355.008742 -114.390014 
L 357.485604 -113.949282 
L 359.962466 -114.165944 
L 362.439328 -113.631818 
L 364.91619 -114.351597 
L 367.393052 -114.496892 
L 369.869913 -115.522014 
L 372.346775 -116.226382 
L 374.823637 -116.42684 
L 377.300499 -116.40357 
L 379.777361 -117.216156 
L 382.254223 -117.257607 
L 384.731085 -117.880633 
L 387.207947 -118.498666 
L 389.684809 -118.84237 
L 392.161671 -118.920746 
L 394.638533 -119.241698 
L 397.115395 -119.479433 
L 399.592257 -119.686848 
L 402.069119 -119.95513 
L 404.545981 -119.543282 
L 407.022843 -120.067849 
L 409.499705 -120.140826 
L 411.976567 -120.445304 
L 414.453429 -121.486615 
L 416.93029 -122.643397 
L 419.407152 -123.629391 
L 421.884014 -124.526451 
L 424.360876 -125.347764 
L 426.837738 -126.460527 
L 429.3146 -126.216199 
L 431.791462 -126.697306 
L 434.268324 -127.327882 
L 436.745186 -127.423449 
L 439.222048 -128.261237 
L 441.69891 -128.884211 
L 444.175772 -129.051554 
L 446.652634 -130.045786 
L 449.129496 -130.0923 
L 451.606358 -130.412209 
L 454.08322 -130.876418 
L 456.560082 -131.156992 
L 459.036944 -131.177171 
L 461.513805 -131.916534 
L 463.990667 -133.233228 
L 466.467529 -134.702434 
L 468.944391 -136.171694 
L 471.421253 -137.43912 
L 473.898115 -138.898935 
L 476.374977 -140.071078 
L 478.851839 -141.363573 
L 481.328701 -142.451108 
L 483.805563 -143.495202 
L 486.282425 -144.365319 
L 488.759287 -145.41412 
L 491.236149 -146.159985 
L 493.713011 -147.148161 
L 496.189873 -148.005572 
L 498.666735 -148.941822 
L 501.143597 -149.780995 
L 503.620459 -150.978288 
L 506.09732 -151.418687 
L 508.574182 -152.325952 
L 511.051044 -152.912541 
L 513.527906 -152.195666 
L 516.004768 -152.190766 
L 518.48163 -151.662579 
L 520.958492 -151.311336 
L 523.435354 -150.922857 
L 525.912216 -150.523682 
L 528.389078 -150.322479 
L 530.86594 -150.439568 
L 533.342802 -150.06113 
L 535.819664 -149.517722 
L 538.296526 -149.257791 
L 540.773388 -148.833193 
L 543.25025 -148.018163 
L 545.727112 -147.499772 
L 548.203974 -147.426717 
L 550.680836 -147.134024 
L 553.157697 -146.938111 
L 555.634559 -146.555342 
L 558.111421 -146.206225 
L 560.588283 -145.528646 
L 563.065145 -144.798217 
L 565.542007 -143.810065 
L 568.018869 -142.924879 
L 570.495731 -141.982913 
L 572.972593 -141.187274 
L 575.449455 -140.266396 
L 577.926317 -139.656511 
L 580.403179 -139.013171 
L 582.880041 -137.981567 
L 585.356903 -137.2896 
L 587.833765 -136.468884 
L 590.310627 -135.744879 
L 592.787489 -135.136148 
L 595.264351 -134.369622 
L 597.741212 -133.76767 
L 600.218074 -132.845058 
L 602.694936 -132.173241 
L 605.171798 -131.609421 
L 607.64866 -131.26158 
L 610.125522 -130.365412 
L 612.602384 -129.576127 
L 615.079246 -128.570734 
L 617.556108 -127.457082 
L 620.03297 -126.473399 
L 622.509832 -125.596361 
L 624.986694 -124.70132 
L 627.463556 -123.74681 
L 629.940418 -123.015206 
L 632.41728 -122.000685 
L 634.894142 -120.919018 
L 637.371004 -120.167211 
L 639.847866 -118.860775 
L 642.324727 -118.136669 
L 644.801589 -117.467603 
L 647.278451 -116.759844 
L 649.755313 -116.221883 
L 652.232175 -115.360281 
L 654.709037 -114.744277 
L 657.185899 -113.916554 
L 659.662761 -113.139573 
L 662.139623 -112.390809 
L 664.616485 -111.742837 
L 667.093347 -111.062793 
L 669.570209 -110.195978 
L 672.047071 -109.651725 
L 674.523933 -108.784231 
L 677.000795 -108.194391 
L 679.477657 -107.625822 
L 681.954519 -106.686356 
L 684.431381 -106.184406 
L 686.908242 -105.397459 
L 689.385104 -104.470793 
L 691.861966 -103.775468 
L 694.338828 -103.11596 
L 696.81569 -102.761853 
L 699.292552 -101.904227 
L 701.769414 -100.838586 
L 704.246276 -100.267362 
L 706.723138 -99.712928 
L 709.2 -99.274033 
L 709.2 -101.409134 
L 709.2 -101.409134 
L 706.723138 -102.05355 
L 704.246276 -102.857765 
L 701.769414 -103.278035 
L 699.292552 -104.337491 
L 696.81569 -105.010979 
L 694.338828 -105.554895 
L 691.861966 -106.082621 
L 689.385104 -107.188665 
L 686.908242 -107.625569 
L 684.431381 -108.51154 
L 681.954519 -109.153538 
L 679.477657 -110.038896 
L 677.000795 -110.545065 
L 674.523933 -111.20064 
L 672.047071 -111.811329 
L 669.570209 -112.593146 
L 667.093347 -113.404432 
L 664.616485 -114.167122 
L 662.139623 -115.049744 
L 659.662761 -115.728367 
L 657.185899 -116.503605 
L 654.709037 -117.318782 
L 652.232175 -117.870636 
L 649.755313 -118.790934 
L 647.278451 -119.582923 
L 644.801589 -120.45849 
L 642.324727 -121.638938 
L 639.847866 -122.425159 
L 637.371004 -123.404782 
L 634.894142 -124.188647 
L 632.41728 -124.880988 
L 629.940418 -125.957591 
L 627.463556 -126.826228 
L 624.986694 -127.504774 
L 622.509832 -128.56103 
L 620.03297 -129.617865 
L 617.556108 -130.374229 
L 615.079246 -131.500983 
L 612.602384 -132.62041 
L 610.125522 -133.405079 
L 607.64866 -134.155148 
L 605.171798 -134.502372 
L 602.694936 -134.919703 
L 600.218074 -136.007494 
L 597.741212 -136.705147 
L 595.264351 -137.30108 
L 592.787489 -138.176204 
L 590.310627 -138.729897 
L 587.833765 -139.626147 
L 585.356903 -140.157656 
L 582.880041 -141.070488 
L 580.403179 -141.863952 
L 577.926317 -142.091612 
L 575.449455 -143.12706 
L 572.972593 -143.569878 
L 570.495731 -144.567295 
L 568.018869 -145.909288 
L 565.542007 -147.039633 
L 563.065145 -148.051752 
L 560.588283 -148.968131 
L 558.111421 -149.463748 
L 555.634559 -149.880818 
L 553.157697 -149.827866 
L 550.680836 -150.174194 
L 548.203974 -150.404783 
L 545.727112 -150.271314 
L 543.25025 -151.039168 
L 540.773388 -151.464285 
L 538.296526 -151.466825 
L 535.819664 -151.71716 
L 533.342802 -152.172817 
L 530.86594 -152.778153 
L 528.389078 -152.97488 
L 525.912216 -153.058592 
L 523.435354 -153.776958 
L 520.958492 -154.877881 
L 518.48163 -155.669432 
L 516.004768 -156.103756 
L 513.527906 -156.218442 
L 511.051044 -156.827502 
L 508.574182 -156.329722 
L 506.09732 -155.123783 
L 503.620459 -154.246611 
L 501.143597 -153.315469 
L 498.666735 -152.232753 
L 496.189873 -151.827451 
L 493.713011 -150.85777 
L 491.236149 -149.99387 
L 488.759287 -148.815194 
L 486.282425 -147.527513 
L 483.805563 -146.69413 
L 481.328701 -145.875755 
L 478.851839 -144.547319 
L 476.374977 -143.213837 
L 473.898115 -141.516644 
L 471.421253 -140.243276 
L 468.944391 -138.9089 
L 466.467529 -137.53184 
L 463.990667 -136.654136 
L 461.513805 -135.549212 
L 459.036944 -135.08766 
L 456.560082 -134.79512 
L 454.08322 -134.786352 
L 451.606358 -134.853704 
L 449.129496 -134.151927 
L 446.652634 -133.920442 
L 444.175772 -133.241328 
L 441.69891 -133.055994 
L 439.222048 -132.297647 
L 436.745186 -131.458295 
L 434.268324 -131.175018 
L 431.791462 -130.676838 
L 429.3146 -130.213972 
L 426.837738 -130.482617 
L 424.360876 -129.595915 
L 421.884014 -128.386923 
L 419.407152 -128.046157 
L 416.93029 -127.000123 
L 414.453429 -126.177726 
L 411.976567 -124.864918 
L 409.499705 -124.350929 
L 407.022843 -125.023342 
L 404.545981 -124.360516 
L 402.069119 -124.887757 
L 399.592257 -124.294594 
L 397.115395 -124.032674 
L 394.638533 -123.846657 
L 392.161671 -123.662178 
L 389.684809 -123.796107 
L 387.207947 -123.530534 
L 384.731085 -123.277496 
L 382.254223 -122.560867 
L 379.777361 -122.418655 
L 377.300499 -121.954975 
L 374.823637 -121.620317 
L 372.346775 -121.324198 
L 369.869913 -120.158178 
L 367.393052 -119.503063 
L 364.91619 -119.345662 
L 362.439328 -118.204008 
L 359.962466 -118.438751 
L 357.485604 -118.988556 
L 355.008742 -119.458466 
L 352.53188 -120.25796 
L 350.055018 -120.291164 
L 347.578156 -120.821074 
L 345.101294 -120.832597 
L 342.624432 -121.220049 
L 340.14757 -121.561741 
L 337.670708 -121.472266 
L 335.193846 -121.301563 
L 332.716984 -121.31293 
L 330.240122 -120.799575 
L 327.76326 -120.993897 
L 325.286398 -120.878077 
L 322.809537 -120.546054 
L 320.332675 -119.079574 
L 317.855813 -119.046813 
L 315.378951 -118.152 
L 312.902089 -116.447005 
L 310.425227 -116.551479 
L 307.948365 -115.393901 
L 305.471503 -115.289225 
L 302.994641 -114.227896 
L 300.517779 -113.916451 
L 298.040917 -112.981957 
L 295.564055 -113.01759 
L 293.087193 -112.913493 
L 290.610331 -111.280373 
L 288.133469 -110.483796 
L 285.656607 -110.395196 
L 283.179745 -109.40132 
L 280.702883 -109.375765 
L 278.226022 -107.46525 
L 275.74916 -104.31948 
L 273.272298 -100.581381 
L 270.795436 -95.104508 
L 268.318574 -90.20821 
L 265.841712 -83.497768 
L 263.36485 -55.275219 
z
" style="stroke: #e41a1c; stroke-opacity: 0.2"/>
    </defs>
    <g clip-path="url(#pfdd32db536)">
     <use xlink:href="#mc948e5aa07" x="0" y="216" style="fill: #e41a1c; fill-opacity: 0.2; stroke: #e41a1c; stroke-opacity: 0.2"/>
    </g>
   </g>
   <g id="PolyCollection_2">
    <defs>
     <path id="me303edd025" d="M 263.36485 -55.275219 
L 263.36485 -55.275219 
L 265.841712 -107.861279 
L 268.318574 -129.128891 
L 270.795436 -144.711139 
L 273.272298 -157.493492 
L 275.74916 -169.380234 
L 278.226022 -178.088011 
L 280.702883 -186.127177 
L 283.179745 -189.743551 
L 285.656607 -192.467068 
L 288.133469 -192.293031 
L 290.610331 -194.051039 
L 293.087193 -194.080881 
L 295.564055 -192.917408 
L 298.040917 -193.45164 
L 300.517779 -194.095822 
L 302.994641 -192.787309 
L 305.471503 -193.19997 
L 307.948365 -192.210189 
L 310.425227 -192.793679 
L 312.902089 -192.62047 
L 315.378951 -190.741195 
L 317.855813 -187.76224 
L 320.332675 -185.196476 
L 322.809537 -183.633797 
L 325.286398 -181.575193 
L 327.76326 -179.935652 
L 330.240122 -179.237924 
L 332.716984 -178.412607 
L 335.193846 -176.889184 
L 337.670708 -174.940581 
L 340.14757 -174.267509 
L 342.624432 -173.605625 
L 345.101294 -172.886663 
L 347.578156 -171.917653 
L 350.055018 -170.898465 
L 352.53188 -170.077988 
L 355.008742 -168.513517 
L 357.485604 -167.472613 
L 359.962466 -166.535115 
L 362.439328 -165.722372 
L 364.91619 -164.052871 
L 367.393052 -162.271895 
L 369.869913 -160.990248 
L 372.346775 -159.89428 
L 374.823637 -158.152069 
L 377.300499 -156.254428 
L 379.777361 -155.119928 
L 382.254223 -153.588016 
L 384.731085 -152.812394 
L 387.207947 -152.126712 
L 389.684809 -151.141376 
L 392.161671 -149.788086 
L 394.638533 -149.033789 
L 397.115395 -148.110985 
L 399.592257 -147.377643 
L 402.069119 -146.413007 
L 404.545981 -145.380836 
L 407.022843 -144.833215 
L 409.499705 -144.172239 
L 411.976567 -143.822464 
L 414.453429 -142.76496 
L 416.93029 -141.301762 
L 419.407152 -140.340046 
L 421.884014 -139.321579 
L 424.360876 -138.528702 
L 426.837738 -137.390394 
L 429.3146 -135.684613 
L 431.791462 -134.598959 
L 434.268324 -133.644985 
L 436.745186 -132.471578 
L 439.222048 -131.763705 
L 441.69891 -130.968304 
L 444.175772 -129.963488 
L 446.652634 -129.436381 
L 449.129496 -128.179038 
L 451.606358 -127.356729 
L 454.08322 -126.37587 
L 456.560082 -125.622574 
L 459.036944 -124.756831 
L 461.513805 -124.107941 
L 463.990667 -123.03333 
L 466.467529 -122.379171 
L 468.944391 -121.347149 
L 471.421253 -120.738247 
L 473.898115 -119.894461 
L 476.374977 -118.984031 
L 478.851839 -118.109359 
L 481.328701 -117.404586 
L 483.805563 -116.517709 
L 486.282425 -115.283625 
L 488.759287 -114.859444 
L 491.236149 -113.830505 
L 493.713011 -113.155761 
L 496.189873 -112.578172 
L 498.666735 -111.735637 
L 501.143597 -110.986827 
L 503.620459 -110.571968 
L 506.09732 -109.601976 
L 508.574182 -109.056213 
L 511.051044 -108.212058 
L 513.527906 -107.371272 
L 516.004768 -107.127325 
L 518.48163 -106.441338 
L 520.958492 -105.955498 
L 523.435354 -105.475303 
L 525.912216 -104.950594 
L 528.389078 -104.702005 
L 530.86594 -104.249309 
L 533.342802 -103.98353 
L 535.819664 -103.341701 
L 538.296526 -102.897621 
L 540.773388 -102.480789 
L 543.25025 -101.963442 
L 545.727112 -101.307096 
L 548.203974 -101.02011 
L 550.680836 -100.753994 
L 553.157697 -100.292697 
L 555.634559 -99.748824 
L 558.111421 -99.291026 
L 560.588283 -98.824174 
L 563.065145 -98.891956 
L 565.542007 -98.655738 
L 568.018869 -98.637897 
L 570.495731 -98.458225 
L 572.972593 -98.424024 
L 575.449455 -98.227907 
L 577.926317 -98.247681 
L 580.403179 -98.387366 
L 582.880041 -98.112474 
L 585.356903 -98.007018 
L 587.833765 -98.111823 
L 590.310627 -97.93576 
L 592.787489 -98.188733 
L 595.264351 -97.855378 
L 597.741212 -97.780911 
L 600.218074 -97.566557 
L 602.694936 -97.448603 
L 605.171798 -97.375458 
L 607.64866 -97.579837 
L 610.125522 -97.27622 
L 612.602384 -97.591125 
L 615.079246 -98.129278 
L 617.556108 -98.37598 
L 620.03297 -98.630651 
L 622.509832 -98.95934 
L 624.986694 -99.327971 
L 627.463556 -99.443888 
L 629.940418 -99.760328 
L 632.41728 -99.888872 
L 634.894142 -99.950321 
L 637.371004 -100.049094 
L 639.847866 -100.074124 
L 642.324727 -100.145009 
L 644.801589 -100.482401 
L 647.278451 -100.685093 
L 649.755313 -101.045038 
L 652.232175 -101.086959 
L 654.709037 -101.541056 
L 657.185899 -101.541334 
L 659.662761 -101.849366 
L 662.139623 -102.76861 
L 664.616485 -103.745158 
L 667.093347 -104.594424 
L 669.570209 -105.75633 
L 672.047071 -106.500255 
L 674.523933 -107.396992 
L 677.000795 -108.176195 
L 679.477657 -109.046259 
L 681.954519 -109.691207 
L 684.431381 -110.427737 
L 686.908242 -111.16935 
L 689.385104 -111.910673 
L 691.861966 -112.753204 
L 694.338828 -113.314396 
L 696.81569 -114.183681 
L 699.292552 -114.894242 
L 701.769414 -115.50301 
L 704.246276 -116.233287 
L 706.723138 -116.951702 
L 709.2 -117.501449 
L 709.2 -120.123441 
L 709.2 -120.123441 
L 706.723138 -119.522204 
L 704.246276 -118.848923 
L 701.769414 -118.199979 
L 699.292552 -117.692644 
L 696.81569 -116.812068 
L 694.338828 -116.057752 
L 691.861966 -115.438768 
L 689.385104 -115.030907 
L 686.908242 -114.151086 
L 684.431381 -113.392599 
L 681.954519 -112.529365 
L 679.477657 -111.657235 
L 677.000795 -110.855576 
L 674.523933 -110.086804 
L 672.047071 -109.026574 
L 669.570209 -108.503469 
L 667.093347 -107.497629 
L 664.616485 -106.638282 
L 662.139623 -105.898569 
L 659.662761 -105.144446 
L 657.185899 -104.865506 
L 654.709037 -104.420809 
L 652.232175 -104.175238 
L 649.755313 -104.047859 
L 647.278451 -103.818697 
L 644.801589 -103.782331 
L 642.324727 -103.567444 
L 639.847866 -103.275915 
L 637.371004 -103.558819 
L 634.894142 -103.044895 
L 632.41728 -102.679851 
L 629.940418 -102.357052 
L 627.463556 -102.215064 
L 624.986694 -101.725097 
L 622.509832 -101.464939 
L 620.03297 -101.446903 
L 617.556108 -100.839882 
L 615.079246 -100.596104 
L 612.602384 -100.471117 
L 610.125522 -99.97732 
L 607.64866 -100.098371 
L 605.171798 -100.108072 
L 602.694936 -100.116919 
L 600.218074 -100.467181 
L 597.741212 -100.470738 
L 595.264351 -100.473143 
L 592.787489 -100.616328 
L 590.310627 -100.663646 
L 587.833765 -100.923897 
L 585.356903 -100.842228 
L 582.880041 -100.96504 
L 580.403179 -101.192091 
L 577.926317 -100.988137 
L 575.449455 -100.952595 
L 572.972593 -101.05848 
L 570.495731 -101.01519 
L 568.018869 -101.363739 
L 565.542007 -101.522385 
L 563.065145 -101.571978 
L 560.588283 -102.011498 
L 558.111421 -102.259311 
L 555.634559 -102.567924 
L 553.157697 -102.89709 
L 550.680836 -103.285311 
L 548.203974 -103.636868 
L 545.727112 -104.02927 
L 543.25025 -104.447592 
L 540.773388 -104.99056 
L 538.296526 -105.30068 
L 535.819664 -105.876608 
L 533.342802 -106.24047 
L 530.86594 -106.913222 
L 528.389078 -107.19341 
L 525.912216 -107.474885 
L 523.435354 -108.240144 
L 520.958492 -108.881843 
L 518.48163 -109.464616 
L 516.004768 -110.38613 
L 513.527906 -110.562875 
L 511.051044 -110.922439 
L 508.574182 -111.679099 
L 506.09732 -112.229891 
L 503.620459 -112.868314 
L 501.143597 -113.407668 
L 498.666735 -114.201518 
L 496.189873 -114.807068 
L 493.713011 -115.690166 
L 491.236149 -116.581802 
L 488.759287 -117.064089 
L 486.282425 -117.733809 
L 483.805563 -118.751663 
L 481.328701 -119.818131 
L 478.851839 -120.775162 
L 476.374977 -121.559912 
L 473.898115 -122.35722 
L 471.421253 -123.251964 
L 468.944391 -124.169927 
L 466.467529 -124.95473 
L 463.990667 -125.968301 
L 461.513805 -126.860439 
L 459.036944 -127.689447 
L 456.560082 -128.627356 
L 454.08322 -129.573164 
L 451.606358 -130.567107 
L 449.129496 -131.536171 
L 446.652634 -132.677328 
L 444.175772 -133.335087 
L 441.69891 -134.133704 
L 439.222048 -134.813221 
L 436.745186 -135.748292 
L 434.268324 -136.640379 
L 431.791462 -137.911814 
L 429.3146 -138.967138 
L 426.837738 -140.538683 
L 424.360876 -141.451262 
L 421.884014 -142.369226 
L 419.407152 -143.958915 
L 416.93029 -145.030249 
L 414.453429 -146.52487 
L 411.976567 -147.657809 
L 409.499705 -148.021301 
L 407.022843 -149.262864 
L 404.545981 -149.705822 
L 402.069119 -150.929517 
L 399.592257 -151.580501 
L 397.115395 -152.413586 
L 394.638533 -153.328101 
L 392.161671 -154.485484 
L 389.684809 -155.454525 
L 387.207947 -156.452698 
L 384.731085 -157.41316 
L 382.254223 -157.989432 
L 379.777361 -159.387799 
L 377.300499 -160.239941 
L 374.823637 -161.815956 
L 372.346775 -163.155565 
L 369.869913 -164.574433 
L 367.393052 -165.684964 
L 364.91619 -167.530789 
L 362.439328 -169.14543 
L 359.962466 -170.061742 
L 357.485604 -171.398998 
L 355.008742 -172.875343 
L 352.53188 -173.85423 
L 350.055018 -174.616053 
L 347.578156 -175.536097 
L 345.101294 -176.79669 
L 342.624432 -178.630778 
L 340.14757 -178.774531 
L 337.670708 -179.694486 
L 335.193846 -180.837665 
L 332.716984 -181.935333 
L 330.240122 -182.349394 
L 327.76326 -182.974085 
L 325.286398 -184.066573 
L 322.809537 -185.956271 
L 320.332675 -187.4877 
L 317.855813 -189.264755 
L 315.378951 -192.733195 
L 312.902089 -194.500627 
L 310.425227 -193.976895 
L 307.948365 -193.990061 
L 305.471503 -194.448091 
L 302.994641 -194.521367 
L 300.517779 -194.778674 
L 298.040917 -194.568054 
L 295.564055 -194.532608 
L 293.087193 -194.795892 
L 290.610331 -194.710001 
L 288.133469 -194.142656 
L 285.656607 -194.764359 
L 283.179745 -194.383122 
L 280.702883 -193.28665 
L 278.226022 -186.097886 
L 275.74916 -176.266121 
L 273.272298 -164.223973 
L 270.795436 -150.730669 
L 268.318574 -134.805554 
L 265.841712 -112.0342 
L 263.36485 -55.275219 
z
" style="stroke: #377eb8; stroke-opacity: 0.2"/>
    </defs>
    <g clip-path="url(#pfdd32db536)">
     <use xlink:href="#me303edd025" x="0" y="216" style="fill: #377eb8; fill-opacity: 0.2; stroke: #377eb8; stroke-opacity: 0.2"/>
    </g>
   </g>
   <g id="PolyCollection_3">
    <path d="M 263.36485 160.724781 
L 263.36485 160.724781 
L 312.902089 163.104765 
L 362.439328 161.280431 
L 411.976567 161.61647 
L 461.513805 161.780581 
L 511.051044 162.556251 
L 560.588283 163.390696 
L 610.125522 164.019243 
L 659.662761 162.687605 
L 709.2 162.838841 
L 758.737239 162.60258 
L 808.274478 161.750792 
L 857.811717 161.660601 
L 907.348956 162.310195 
L 956.886195 162.874832 
L 1006.423433 162.027889 
L 1055.960672 162.814429 
L 1105.497911 162.221446 
L 1155.03515 161.658857 
L 1204.572389 162.550916 
L 1254.109628 162.122374 
L 1303.646867 162.265816 
L 1353.184106 162.449503 
L 1402.721345 163.549856 
L 1452.258584 163.350216 
L 1501.795822 163.050447 
L 1551.333061 162.465807 
L 1600.8703 162.024369 
L 1650.407539 161.686109 
L 1699.944778 162.056703 
L 1749.482017 161.383683 
L 1799.019256 160.727904 
L 1848.556495 160.314131 
L 1898.093734 160.295981 
L 1947.630973 160.757603 
L 1997.168212 160.435236 
L 2046.70545 160.908667 
L 2096.242689 161.555645 
L 2096.242689 158.828798 
L 2096.242689 158.828798 
L 2046.70545 158.11302 
L 1997.168212 157.675484 
L 1947.630973 158.255301 
L 1898.093734 158.061712 
L 1848.556495 158.103424 
L 1799.019256 158.015057 
L 1749.482017 158.484792 
L 1699.944778 158.894072 
L 1650.407539 159.293984 
L 1600.8703 159.925445 
L 1551.333061 160.893949 
L 1501.795822 161.761167 
L 1452.258584 161.969977 
L 1402.721345 162.336623 
L 1353.184106 160.824101 
L 1303.646867 159.849383 
L 1254.109628 159.152636 
L 1204.572389 159.745603 
L 1155.03515 159.102542 
L 1105.497911 159.220587 
L 1055.960672 159.278804 
L 1006.423433 159.17609 
L 956.886195 160.368737 
L 907.348956 159.741667 
L 857.811717 159.423213 
L 808.274478 158.731632 
L 758.737239 159.130019 
L 709.2 160.236952 
L 659.662761 159.752755 
L 610.125522 159.863702 
L 560.588283 157.739674 
L 511.051044 158.257175 
L 461.513805 156.760751 
L 411.976567 157.252454 
L 362.439328 156.52927 
L 312.902089 156.488274 
L 263.36485 160.724781 
z
" clip-path="url(#pfdd32db536)" style="fill-opacity: 0.2; stroke: #000000; stroke-opacity: 0.2"/>
   </g>
   <g id="matplotlib.axis_3">
    <g id="xtick_6">
     <g id="line2d_10">
      <g>
       <use xlink:href="#ma93e43aabb" x="263.36485" y="171.16" style="stroke: #000000; stroke-width: 0.8"/>
      </g>
     </g>
     <g id="text_18">
      <!-- 0 -->
      <g transform="translate(260.1836 185.758437) scale(0.1 -0.1)">
       <use xlink:href="#DejaVuSans-30"/>
      </g>
     </g>
    </g>
    <g id="xtick_7">
     <g id="line2d_11">
      <g>
       <use xlink:href="#ma93e43aabb" x="362.439328" y="171.16" style="stroke: #000000; stroke-width: 0.8"/>
      </g>
     </g>
     <g id="text_19">
      <!-- 2000 -->
      <g transform="translate(349.714328 185.758437) scale(0.1 -0.1)">
       <use xlink:href="#DejaVuSans-32"/>
       <use xlink:href="#DejaVuSans-30" x="63.623047"/>
       <use xlink:href="#DejaVuSans-30" x="127.246094"/>
       <use xlink:href="#DejaVuSans-30" x="190.869141"/>
      </g>
     </g>
    </g>
    <g id="xtick_8">
     <g id="line2d_12">
      <g>
       <use xlink:href="#ma93e43aabb" x="461.513805" y="171.16" style="stroke: #000000; stroke-width: 0.8"/>
      </g>
     </g>
     <g id="text_20">
      <!-- 4000 -->
      <g transform="translate(448.788805 185.758437) scale(0.1 -0.1)">
       <use xlink:href="#DejaVuSans-34"/>
       <use xlink:href="#DejaVuSans-30" x="63.623047"/>
       <use xlink:href="#DejaVuSans-30" x="127.246094"/>
       <use xlink:href="#DejaVuSans-30" x="190.869141"/>
      </g>
     </g>
    </g>
    <g id="xtick_9">
     <g id="line2d_13">
      <g>
       <use xlink:href="#ma93e43aabb" x="560.588283" y="171.16" style="stroke: #000000; stroke-width: 0.8"/>
      </g>
     </g>
     <g id="text_21">
      <!-- 6000 -->
      <g transform="translate(547.863283 185.758437) scale(0.1 -0.1)">
       <use xlink:href="#DejaVuSans-36"/>
       <use xlink:href="#DejaVuSans-30" x="63.623047"/>
       <use xlink:href="#DejaVuSans-30" x="127.246094"/>
       <use xlink:href="#DejaVuSans-30" x="190.869141"/>
      </g>
     </g>
    </g>
    <g id="xtick_10">
     <g id="line2d_14">
      <g>
       <use xlink:href="#ma93e43aabb" x="659.662761" y="171.16" style="stroke: #000000; stroke-width: 0.8"/>
      </g>
     </g>
     <g id="text_22">
      <!-- 8000 -->
      <g transform="translate(646.937761 185.758437) scale(0.1 -0.1)">
       <defs>
        <path id="DejaVuSans-38" d="M 2034 2216 
Q 1584 2216 1326 1975 
Q 1069 1734 1069 1313 
Q 1069 891 1326 650 
Q 1584 409 2034 409 
Q 2484 409 2743 651 
Q 3003 894 3003 1313 
Q 3003 1734 2745 1975 
Q 2488 2216 2034 2216 
z
M 1403 2484 
Q 997 2584 770 2862 
Q 544 3141 544 3541 
Q 544 4100 942 4425 
Q 1341 4750 2034 4750 
Q 2731 4750 3128 4425 
Q 3525 4100 3525 3541 
Q 3525 3141 3298 2862 
Q 3072 2584 2669 2484 
Q 3125 2378 3379 2068 
Q 3634 1759 3634 1313 
Q 3634 634 3220 271 
Q 2806 -91 2034 -91 
Q 1263 -91 848 271 
Q 434 634 434 1313 
Q 434 1759 690 2068 
Q 947 2378 1403 2484 
z
M 1172 3481 
Q 1172 3119 1398 2916 
Q 1625 2713 2034 2713 
Q 2441 2713 2670 2916 
Q 2900 3119 2900 3481 
Q 2900 3844 2670 4047 
Q 2441 4250 2034 4250 
Q 1625 4250 1398 4047 
Q 1172 3844 1172 3481 
z
" transform="scale(0.015625)"/>
       </defs>
       <use xlink:href="#DejaVuSans-38"/>
       <use xlink:href="#DejaVuSans-30" x="63.623047"/>
       <use xlink:href="#DejaVuSans-30" x="127.246094"/>
       <use xlink:href="#DejaVuSans-30" x="190.869141"/>
      </g>
     </g>
    </g>
    <g id="text_23">
     <!-- Example # -->
     <g transform="translate(452.077744 200.95625) scale(0.12 -0.12)">
      <defs>
       <path id="DejaVuSans-78" d="M 3513 3500 
L 2247 1797 
L 3578 0 
L 2900 0 
L 1881 1375 
L 863 0 
L 184 0 
L 1544 1831 
L 300 3500 
L 978 3500 
L 1906 2253 
L 2834 3500 
L 3513 3500 
z
" transform="scale(0.015625)"/>
       <path id="DejaVuSans-23" d="M 3272 2816 
L 2363 2816 
L 2100 1772 
L 3016 1772 
L 3272 2816 
z
M 2803 4594 
L 2478 3297 
L 3391 3297 
L 3719 4594 
L 4219 4594 
L 3897 3297 
L 4872 3297 
L 4872 2816 
L 3775 2816 
L 3519 1772 
L 4513 1772 
L 4513 1294 
L 3397 1294 
L 3072 0 
L 2572 0 
L 2894 1294 
L 1978 1294 
L 1656 0 
L 1153 0 
L 1478 1294 
L 494 1294 
L 494 1772 
L 1594 1772 
L 1856 2816 
L 850 2816 
L 850 3297 
L 1978 3297 
L 2297 4594 
L 2803 4594 
z
" transform="scale(0.015625)"/>
      </defs>
      <use xlink:href="#DejaVuSans-45"/>
      <use xlink:href="#DejaVuSans-78" x="63.183594"/>
      <use xlink:href="#DejaVuSans-61" x="122.363281"/>
      <use xlink:href="#DejaVuSans-6d" x="183.642578"/>
      <use xlink:href="#DejaVuSans-70" x="281.054688"/>
      <use xlink:href="#DejaVuSans-6c" x="344.53125"/>
      <use xlink:href="#DejaVuSans-65" x="372.314453"/>
      <use xlink:href="#DejaVuSans-20" x="433.837891"/>
      <use xlink:href="#DejaVuSans-23" x="465.625"/>
     </g>
    </g>
   </g>
   <g id="matplotlib.axis_4">
    <g id="ytick_5">
     <g id="line2d_15">
      <g>
       <use xlink:href="#mc6855ad739" x="260.887988" y="160.724781" style="stroke: #000000; stroke-width: 0.8"/>
      </g>
     </g>
     <g id="text_24">
      <!-- 0.0 -->
      <g transform="translate(237.984863 164.523999) scale(0.1 -0.1)">
       <use xlink:href="#DejaVuSans-30"/>
       <use xlink:href="#DejaVuSans-2e" x="63.623047"/>
       <use xlink:href="#DejaVuSans-30" x="95.410156"/>
      </g>
     </g>
    </g>
    <g id="ytick_6">
     <g id="line2d_16">
      <g>
       <use xlink:href="#mc6855ad739" x="260.887988" y="122.003363" style="stroke: #000000; stroke-width: 0.8"/>
      </g>
     </g>
     <g id="text_25">
      <!-- 0.5 -->
      <g transform="translate(237.984863 125.802582) scale(0.1 -0.1)">
       <defs>
        <path id="DejaVuSans-35" d="M 691 4666 
L 3169 4666 
L 3169 4134 
L 1269 4134 
L 1269 2991 
Q 1406 3038 1543 3061 
Q 1681 3084 1819 3084 
Q 2600 3084 3056 2656 
Q 3513 2228 3513 1497 
Q 3513 744 3044 326 
Q 2575 -91 1722 -91 
Q 1428 -91 1123 -41 
Q 819 9 494 109 
L 494 744 
Q 775 591 1075 516 
Q 1375 441 1709 441 
Q 2250 441 2565 725 
Q 2881 1009 2881 1497 
Q 2881 1984 2565 2268 
Q 2250 2553 1709 2553 
Q 1456 2553 1204 2497 
Q 953 2441 691 2322 
L 691 4666 
z
" transform="scale(0.015625)"/>
       </defs>
       <use xlink:href="#DejaVuSans-30"/>
       <use xlink:href="#DejaVuSans-2e" x="63.623047"/>
       <use xlink:href="#DejaVuSans-35" x="95.410156"/>
      </g>
     </g>
    </g>
    <g id="ytick_7">
     <g id="line2d_17">
      <g>
       <use xlink:href="#mc6855ad739" x="260.887988" y="83.281946" style="stroke: #000000; stroke-width: 0.8"/>
      </g>
     </g>
     <g id="text_26">
      <!-- 1.0 -->
      <g transform="translate(237.984863 87.081165) scale(0.1 -0.1)">
       <use xlink:href="#DejaVuSans-31"/>
       <use xlink:href="#DejaVuSans-2e" x="63.623047"/>
       <use xlink:href="#DejaVuSans-30" x="95.410156"/>
      </g>
     </g>
    </g>
    <g id="ytick_8">
     <g id="line2d_18">
      <g>
       <use xlink:href="#mc6855ad739" x="260.887988" y="44.560528" style="stroke: #000000; stroke-width: 0.8"/>
      </g>
     </g>
     <g id="text_27">
      <!-- 1.5 -->
      <g transform="translate(237.984863 48.359747) scale(0.1 -0.1)">
       <use xlink:href="#DejaVuSans-31"/>
       <use xlink:href="#DejaVuSans-2e" x="63.623047"/>
       <use xlink:href="#DejaVuSans-35" x="95.410156"/>
      </g>
     </g>
    </g>
    <g id="text_28">
     <!-- Epsilon Value -->
     <g transform="translate(231.489238 132.529488) rotate(-90) scale(0.12 -0.12)">
      <defs>
       <path id="DejaVuSans-73" d="M 2834 3397 
L 2834 2853 
Q 2591 2978 2328 3040 
Q 2066 3103 1784 3103 
Q 1356 3103 1142 2972 
Q 928 2841 928 2578 
Q 928 2378 1081 2264 
Q 1234 2150 1697 2047 
L 1894 2003 
Q 2506 1872 2764 1633 
Q 3022 1394 3022 966 
Q 3022 478 2636 193 
Q 2250 -91 1575 -91 
Q 1294 -91 989 -36 
Q 684 19 347 128 
L 347 722 
Q 666 556 975 473 
Q 1284 391 1588 391 
Q 1994 391 2212 530 
Q 2431 669 2431 922 
Q 2431 1156 2273 1281 
Q 2116 1406 1581 1522 
L 1381 1569 
Q 847 1681 609 1914 
Q 372 2147 372 2553 
Q 372 3047 722 3315 
Q 1072 3584 1716 3584 
Q 2034 3584 2315 3537 
Q 2597 3491 2834 3397 
z
" transform="scale(0.015625)"/>
       <path id="DejaVuSans-56" d="M 1831 0 
L 50 4666 
L 709 4666 
L 2188 738 
L 3669 4666 
L 4325 4666 
L 2547 0 
L 1831 0 
z
" transform="scale(0.015625)"/>
       <path id="DejaVuSans-75" d="M 544 1381 
L 544 3500 
L 1119 3500 
L 1119 1403 
Q 1119 906 1312 657 
Q 1506 409 1894 409 
Q 2359 409 2629 706 
Q 2900 1003 2900 1516 
L 2900 3500 
L 3475 3500 
L 3475 0 
L 2900 0 
L 2900 538 
Q 2691 219 2414 64 
Q 2138 -91 1772 -91 
Q 1169 -91 856 284 
Q 544 659 544 1381 
z
M 1991 3584 
L 1991 3584 
z
" transform="scale(0.015625)"/>
      </defs>
      <use xlink:href="#DejaVuSans-45"/>
      <use xlink:href="#DejaVuSans-70" x="63.183594"/>
      <use xlink:href="#DejaVuSans-73" x="126.660156"/>
      <use xlink:href="#DejaVuSans-69" x="178.759766"/>
      <use xlink:href="#DejaVuSans-6c" x="206.542969"/>
      <use xlink:href="#DejaVuSans-6f" x="234.326172"/>
      <use xlink:href="#DejaVuSans-6e" x="295.507812"/>
      <use xlink:href="#DejaVuSans-20" x="358.886719"/>
      <use xlink:href="#DejaVuSans-56" x="390.673828"/>
      <use xlink:href="#DejaVuSans-61" x="451.332031"/>
      <use xlink:href="#DejaVuSans-6c" x="512.611328"/>
      <use xlink:href="#DejaVuSans-75" x="540.394531"/>
      <use xlink:href="#DejaVuSans-65" x="603.773438"/>
     </g>
    </g>
   </g>
   <g id="line2d_19">
    <path d="M 263.36485 160.724781 
L 265.841712 138.863865 
L 268.318574 132.285073 
L 273.272298 121.989505 
L 275.74916 117.828055 
L 278.226022 115.418307 
L 280.702883 113.320485 
L 283.179745 112.336666 
L 285.656607 110.515109 
L 288.133469 110.557115 
L 290.610331 109.636039 
L 293.087193 107.830218 
L 295.564055 107.415653 
L 298.040917 107.598248 
L 300.517779 106.376034 
L 302.994641 106.263788 
L 305.471503 105.311316 
L 307.948365 105.012569 
L 310.425227 103.921032 
L 312.902089 103.528675 
L 315.378951 101.694349 
L 317.855813 101.465847 
L 320.332675 100.832931 
L 322.809537 99.869135 
L 325.286398 99.766138 
L 327.76326 99.473923 
L 332.716984 98.388877 
L 335.193846 98.258637 
L 337.670708 98.32854 
L 342.624432 97.85597 
L 345.101294 98.121853 
L 347.578156 98.063468 
L 350.055018 98.443038 
L 352.53188 98.418121 
L 357.485604 99.351858 
L 362.439328 100.045134 
L 364.91619 99.324911 
L 367.393052 98.958224 
L 372.346775 97.425547 
L 374.823637 96.928473 
L 377.300499 96.753136 
L 379.777361 96.096694 
L 382.254223 96.043628 
L 384.731085 95.386543 
L 387.207947 94.918838 
L 389.684809 94.665339 
L 394.638533 94.514606 
L 402.069119 93.565975 
L 404.545981 94.066185 
L 407.022843 93.531656 
L 409.499705 93.57453 
L 411.976567 93.177687 
L 414.453429 92.078282 
L 416.93029 91.236667 
L 419.407152 90.147536 
L 421.884014 89.517486 
L 424.360876 88.423031 
L 426.837738 87.547704 
L 429.3146 87.682341 
L 431.791462 87.066476 
L 434.268324 86.573105 
L 436.745186 86.406533 
L 439.222048 85.564358 
L 441.69891 84.954939 
L 444.175772 84.67778 
L 446.652634 83.910306 
L 449.129496 83.750325 
L 451.606358 83.274168 
L 459.036944 82.795526 
L 461.513805 82.411212 
L 463.990667 81.036212 
L 466.467529 79.810555 
L 478.851839 72.94812 
L 481.328701 71.700087 
L 486.282425 70.005546 
L 491.236149 67.83765 
L 496.189873 65.989512 
L 498.666735 65.339734 
L 506.09732 62.755984 
L 511.051044 61.230915 
L 513.527906 61.995338 
L 516.004768 61.933331 
L 518.48163 62.574542 
L 520.958492 62.995731 
L 523.435354 63.696425 
L 525.912216 64.2307 
L 528.389078 64.396234 
L 530.86594 64.3859 
L 535.819664 65.377282 
L 540.773388 65.810309 
L 545.727112 67.041048 
L 548.203974 67.021088 
L 550.680836 67.208748 
L 553.157697 67.553976 
L 555.634559 67.760473 
L 558.111421 68.151729 
L 560.588283 68.667882 
L 563.065145 69.527272 
L 568.018869 71.595182 
L 570.495731 72.749673 
L 577.926317 75.172086 
L 580.403179 75.762093 
L 585.356903 77.352243 
L 587.833765 77.957772 
L 590.310627 78.71304 
L 592.787489 79.298225 
L 595.264351 80.166113 
L 597.741212 80.760769 
L 600.218074 81.483555 
L 602.694936 82.396495 
L 607.64866 83.265707 
L 612.602384 84.897992 
L 620.03297 87.947335 
L 624.986694 89.85508 
L 627.463556 90.556879 
L 634.894142 93.386449 
L 637.371004 94.254635 
L 639.847866 95.341274 
L 647.278451 97.852433 
L 649.755313 98.558496 
L 652.232175 99.40279 
L 654.709037 99.949404 
L 674.523933 105.999467 
L 679.477657 107.210802 
L 681.954519 108.057328 
L 684.431381 108.671338 
L 686.908242 109.497455 
L 689.385104 110.185017 
L 691.861966 111.021554 
L 699.292552 112.875247 
L 701.769414 113.880933 
L 706.723138 115.066528 
L 709.2 115.669691 
L 709.2 115.669691 
" clip-path="url(#pfdd32db536)" style="fill: none; stroke: #e41a1c; stroke-width: 1.5; stroke-linecap: square"/>
   </g>
   <g id="line2d_20">
    <path d="M 263.36485 160.724781 
L 265.841712 105.934556 
L 268.318574 84.0336 
L 270.795436 68.022108 
L 273.272298 54.763108 
L 275.74916 42.998374 
L 278.226022 33.536618 
L 280.702883 25.537299 
L 283.179745 23.39222 
L 285.656607 22.072027 
L 288.133469 22.678797 
L 290.610331 21.557409 
L 293.087193 21.509327 
L 295.564055 22.208138 
L 300.517779 21.516831 
L 302.994641 22.168423 
L 305.471503 22.135552 
L 307.948365 22.833132 
L 312.902089 22.356544 
L 315.378951 24.24987 
L 317.855813 27.430998 
L 320.332675 29.586291 
L 322.809537 31.038784 
L 325.286398 33.144966 
L 327.76326 34.612222 
L 330.240122 35.159387 
L 332.716984 35.961531 
L 337.670708 38.853382 
L 340.14757 39.471341 
L 342.624432 39.954863 
L 345.101294 41.158828 
L 350.055018 43.25179 
L 352.53188 44.134998 
L 357.485604 46.500517 
L 359.962466 47.704454 
L 362.439328 48.601964 
L 364.91619 50.165679 
L 367.393052 51.924388 
L 372.346775 54.542012 
L 377.300499 57.620179 
L 379.777361 58.623454 
L 382.254223 60.134753 
L 384.731085 60.81694 
L 387.207947 61.67469 
L 394.638533 64.84779 
L 399.592257 66.45888 
L 402.069119 67.063831 
L 404.545981 68.292736 
L 407.022843 68.765771 
L 409.499705 69.600481 
L 411.976567 70.080799 
L 414.453429 71.295508 
L 416.93029 72.712062 
L 419.407152 73.746138 
L 421.884014 75.023183 
L 424.360876 75.908105 
L 426.837738 76.950325 
L 429.3146 78.502613 
L 434.268324 80.686682 
L 436.745186 81.764959 
L 441.69891 83.362285 
L 444.175772 84.362207 
L 446.652634 84.926485 
L 449.129496 86.057605 
L 451.606358 86.904458 
L 454.08322 87.983034 
L 461.513805 90.386476 
L 468.944391 93.208881 
L 471.421253 93.980832 
L 476.374977 95.712291 
L 481.328701 97.359586 
L 483.805563 98.301084 
L 486.282425 99.485166 
L 488.759287 100.02934 
L 496.189873 102.404894 
L 501.143597 103.880279 
L 503.620459 104.359362 
L 506.09732 105.176364 
L 508.574182 105.707609 
L 511.051044 106.497264 
L 513.527906 107.137243 
L 516.004768 107.347431 
L 518.48163 108.143569 
L 520.958492 108.635609 
L 525.912216 109.861464 
L 530.86594 110.502128 
L 538.296526 111.90861 
L 543.25025 112.846425 
L 545.727112 113.457376 
L 550.680836 114.037501 
L 555.634559 114.962222 
L 560.588283 115.855408 
L 563.065145 115.839504 
L 568.018869 116.123191 
L 570.495731 116.359727 
L 582.880041 116.625018 
L 590.310627 116.740793 
L 592.787489 116.693991 
L 595.264351 116.89238 
L 597.741212 116.885648 
L 600.218074 117.013268 
L 602.694936 117.294291 
L 607.64866 117.182469 
L 610.125522 117.387093 
L 615.079246 116.633031 
L 617.556108 116.423663 
L 622.509832 115.788801 
L 634.894142 114.504055 
L 642.324727 114.174646 
L 644.801589 113.912166 
L 647.278451 113.813925 
L 652.232175 113.410622 
L 654.709037 112.989662 
L 659.662761 112.495902 
L 669.570209 108.902579 
L 672.047071 108.219963 
L 677.000795 106.508139 
L 684.431381 104.07314 
L 686.908242 103.42143 
L 689.385104 102.563489 
L 691.861966 102.014949 
L 694.338828 101.338928 
L 699.292552 99.76851 
L 701.769414 99.213274 
L 709.2 97.246609 
L 709.2 97.246609 
" clip-path="url(#pfdd32db536)" style="fill: none; stroke: #377eb8; stroke-width: 1.5; stroke-linecap: square"/>
   </g>
   <g id="line2d_21"/>
   <g id="line2d_22"/>
   <g id="line2d_23">
    <path d="M 263.36485 160.724781 
L 312.902089 159.883577 
L 362.439328 158.90141 
L 411.976567 159.54877 
L 461.513805 159.631153 
L 511.051044 160.596126 
L 560.588283 160.408758 
L 610.125522 161.784298 
L 659.662761 161.216297 
L 709.2 161.481962 
L 721 161.336103 
" clip-path="url(#pfdd32db536)" style="fill: none; stroke: #000000; stroke-width: 1.5; stroke-linecap: square"/>
   </g>
   <g id="patch_9">
    <path d="M 260.887988 171.16 
L 260.887988 14.063351 
" style="fill: none; stroke: #000000; stroke-width: 0.8; stroke-linejoin: miter; stroke-linecap: square"/>
   </g>
   <g id="patch_10">
    <path d="M 709.2 171.16 
L 709.2 14.063351 
" style="fill: none; stroke: #000000; stroke-width: 0.8; stroke-linejoin: miter; stroke-linecap: square"/>
   </g>
   <g id="patch_11">
    <path d="M 260.887988 171.16 
L 709.2 171.16 
" style="fill: none; stroke: #000000; stroke-width: 0.8; stroke-linejoin: miter; stroke-linecap: square"/>
   </g>
   <g id="patch_12">
    <path d="M 260.887988 14.063351 
L 709.2 14.063351 
" style="fill: none; stroke: #000000; stroke-width: 0.8; stroke-linejoin: miter; stroke-linecap: square"/>
   </g>
   <g id="legend_2">
    <g id="patch_13">
     <path d="M 545.9 66.097726 
L 702.2 66.097726 
Q 704.2 66.097726 704.2 64.097726 
L 704.2 21.063351 
Q 704.2 19.063351 702.2 19.063351 
L 545.9 19.063351 
Q 543.9 19.063351 543.9 21.063351 
L 543.9 64.097726 
Q 543.9 66.097726 545.9 66.097726 
z
" style="fill: #ffffff; opacity: 0.8; stroke: #cccccc; stroke-linejoin: miter"/>
    </g>
    <g id="line2d_24">
     <path d="M 547.9 27.161789 
L 557.9 27.161789 
L 567.9 27.161789 
" style="fill: none; stroke: #e41a1c; stroke-width: 1.5; stroke-linecap: square"/>
    </g>
    <g id="text_29">
     <!-- 1$\to$2$\to$3$\to$4$\to$5$\to$4$\to$3$\to$2$\to$1 -->
     <g transform="translate(575.9 30.661789) scale(0.1 -0.1)">
      <defs>
       <path id="DejaVuSans-2192" d="M 5050 2147 
L 5050 1866 
L 3822 638 
L 3447 1013 
L 4175 1741 
L 366 1741 
L 366 2272 
L 4175 2272 
L 3447 3000 
L 3822 3375 
L 5050 2147 
z
" transform="scale(0.015625)"/>
      </defs>
      <use xlink:href="#DejaVuSans-31" transform="translate(0 0.78125)"/>
      <use xlink:href="#DejaVuSans-2192" transform="translate(63.623047 0.78125)"/>
      <use xlink:href="#DejaVuSans-32" transform="translate(147.412109 0.78125)"/>
      <use xlink:href="#DejaVuSans-2192" transform="translate(211.035156 0.78125)"/>
      <use xlink:href="#DejaVuSans-33" transform="translate(294.824219 0.78125)"/>
      <use xlink:href="#DejaVuSans-2192" transform="translate(358.447266 0.78125)"/>
      <use xlink:href="#DejaVuSans-34" transform="translate(442.236328 0.78125)"/>
      <use xlink:href="#DejaVuSans-2192" transform="translate(505.859375 0.78125)"/>
      <use xlink:href="#DejaVuSans-35" transform="translate(589.648438 0.78125)"/>
      <use xlink:href="#DejaVuSans-2192" transform="translate(653.271484 0.78125)"/>
      <use xlink:href="#DejaVuSans-34" transform="translate(737.060547 0.78125)"/>
      <use xlink:href="#DejaVuSans-2192" transform="translate(800.683594 0.78125)"/>
      <use xlink:href="#DejaVuSans-33" transform="translate(884.472656 0.78125)"/>
      <use xlink:href="#DejaVuSans-2192" transform="translate(948.095703 0.78125)"/>
      <use xlink:href="#DejaVuSans-32" transform="translate(1031.884766 0.78125)"/>
      <use xlink:href="#DejaVuSans-2192" transform="translate(1095.507812 0.78125)"/>
      <use xlink:href="#DejaVuSans-31" transform="translate(1179.296875 0.78125)"/>
     </g>
    </g>
    <g id="line2d_25">
     <path d="M 547.9 41.839914 
L 557.9 41.839914 
L 567.9 41.839914 
" style="fill: none; stroke: #377eb8; stroke-width: 1.5; stroke-linecap: square"/>
    </g>
    <g id="text_30">
     <!-- 5$\to$4$\to$3$\to$2$\to$1$\to$2$\to$3$\to$4$\to$5 -->
     <g transform="translate(575.9 45.339914) scale(0.1 -0.1)">
      <use xlink:href="#DejaVuSans-35" transform="translate(0 0.78125)"/>
      <use xlink:href="#DejaVuSans-2192" transform="translate(63.623047 0.78125)"/>
      <use xlink:href="#DejaVuSans-34" transform="translate(147.412109 0.78125)"/>
      <use xlink:href="#DejaVuSans-2192" transform="translate(211.035156 0.78125)"/>
      <use xlink:href="#DejaVuSans-33" transform="translate(294.824219 0.78125)"/>
      <use xlink:href="#DejaVuSans-2192" transform="translate(358.447266 0.78125)"/>
      <use xlink:href="#DejaVuSans-32" transform="translate(442.236328 0.78125)"/>
      <use xlink:href="#DejaVuSans-2192" transform="translate(505.859375 0.78125)"/>
      <use xlink:href="#DejaVuSans-31" transform="translate(589.648438 0.78125)"/>
      <use xlink:href="#DejaVuSans-2192" transform="translate(653.271484 0.78125)"/>
      <use xlink:href="#DejaVuSans-32" transform="translate(737.060547 0.78125)"/>
      <use xlink:href="#DejaVuSans-2192" transform="translate(800.683594 0.78125)"/>
      <use xlink:href="#DejaVuSans-33" transform="translate(884.472656 0.78125)"/>
      <use xlink:href="#DejaVuSans-2192" transform="translate(948.095703 0.78125)"/>
      <use xlink:href="#DejaVuSans-34" transform="translate(1031.884766 0.78125)"/>
      <use xlink:href="#DejaVuSans-2192" transform="translate(1095.507812 0.78125)"/>
      <use xlink:href="#DejaVuSans-35" transform="translate(1179.296875 0.78125)"/>
     </g>
    </g>
    <g id="line2d_26">
     <path d="M 547.9 56.518039 
L 557.9 56.518039 
L 567.9 56.518039 
" style="fill: none; stroke: #000000; stroke-width: 1.5; stroke-linecap: square"/>
    </g>
    <g id="text_31">
     <!-- In distribution -->
     <g transform="translate(575.9 60.018039) scale(0.1 -0.1)">
      <defs>
       <path id="DejaVuSans-49" d="M 628 4666 
L 1259 4666 
L 1259 0 
L 628 0 
L 628 4666 
z
" transform="scale(0.015625)"/>
      </defs>
      <use xlink:href="#DejaVuSans-49"/>
      <use xlink:href="#DejaVuSans-6e" x="29.492188"/>
      <use xlink:href="#DejaVuSans-20" x="92.871094"/>
      <use xlink:href="#DejaVuSans-64" x="124.658203"/>
      <use xlink:href="#DejaVuSans-69" x="188.134766"/>
      <use xlink:href="#DejaVuSans-73" x="215.917969"/>
      <use xlink:href="#DejaVuSans-74" x="268.017578"/>
      <use xlink:href="#DejaVuSans-72" x="307.226562"/>
      <use xlink:href="#DejaVuSans-69" x="348.339844"/>
      <use xlink:href="#DejaVuSans-62" x="376.123047"/>
      <use xlink:href="#DejaVuSans-75" x="439.599609"/>
      <use xlink:href="#DejaVuSans-74" x="502.978516"/>
      <use xlink:href="#DejaVuSans-69" x="542.1875"/>
      <use xlink:href="#DejaVuSans-6f" x="569.970703"/>
      <use xlink:href="#DejaVuSans-6e" x="631.152344"/>
     </g>
    </g>
   </g>
  </g>
 </g>
 <defs>
  <clipPath id="p8a066e90aa">
   <rect x="46.262" y="14.063351" width="162.144028" height="157.096649"/>
  </clipPath>
  <clipPath id="pfdd32db536">
   <rect x="260.887988" y="14.063351" width="448.312012" height="157.096649"/>
  </clipPath>
 </defs>
</svg>
