<?xml version="1.0" encoding="utf-8" standalone="no"?>
<!DOCTYPE svg PUBLIC "-//W3C//DTD SVG 1.1//EN"
  "http://www.w3.org/Graphics/SVG/1.1/DTD/svg11.dtd">
<svg xmlns:xlink="http://www.w3.org/1999/xlink" width="720pt" height="144pt" viewBox="0 0 720 144" xmlns="http://www.w3.org/2000/svg" version="1.1">
 <metadata>
  <rdf:RDF xmlns:dc="http://purl.org/dc/elements/1.1/" xmlns:cc="http://creativecommons.org/ns#" xmlns:rdf="http://www.w3.org/1999/02/22-rdf-syntax-ns#">
   <cc:Work>
    <dc:type rdf:resource="http://purl.org/dc/dcmitype/StillImage"/>
    <dc:date>2024-05-14T08:33:26.051606</dc:date>
    <dc:format>image/svg+xml</dc:format>
    <dc:creator>
     <cc:Agent>
      <dc:title>Matplotlib v3.7.3, https://matplotlib.org/</dc:title>
     </cc:Agent>
    </dc:creator>
   </cc:Work>
  </rdf:RDF>
 </metadata>
 <defs>
  <style type="text/css">*{stroke-linejoin: round; stroke-linecap: butt}</style>
 </defs>
 <g id="figure_1">
  <g id="patch_1">
   <path d="M 0 144 
L 720 144 
L 720 0 
L 0 0 
z
" style="fill: #ffffff"/>
  </g>
  <g id="axes_1">
   <g id="patch_2">
    <path d="M 34.64274 108.681635 
L 137.413261 108.681635 
L 137.413261 6.418956 
L 34.64274 6.418956 
z
" style="fill: #ffffff"/>
   </g>
   <g id="PathCollection_1">
    <path d="M 44.000561 92.736533 
L 42.413007 97.622521 
L 37.275576 97.622521 
L 41.431845 100.642227 
L 39.844292 105.528215 
L 44.000561 102.508508 
L 48.15683 105.528215 
L 46.569277 100.642227 
L 50.725546 97.622521 
L 45.588115 97.622521 
z
" clip-path="url(#p1736a3a233)" style="fill: #1f77b4; fill-opacity: 0.75; stroke: #000000; stroke-opacity: 0.75"/>
    <path d="M 116.523235 37.855978 
L 114.935681 42.741965 
L 109.79825 42.741965 
L 113.954519 45.761672 
L 112.366966 50.64766 
L 116.523235 47.627953 
L 120.679504 50.64766 
L 119.091951 45.761672 
L 123.24822 42.741965 
L 118.110789 42.741965 
z
" clip-path="url(#p1736a3a233)" style="fill: #ff7f0e; fill-opacity: 0.75; stroke: #000000; stroke-opacity: 0.75"/>
    <path d="M 128.495158 8.221922 
L 126.907604 13.10791 
L 121.770173 13.10791 
L 125.926442 16.127616 
L 124.338888 21.013604 
L 128.495158 17.993898 
L 132.651427 21.013604 
L 131.063873 16.127616 
L 135.220143 13.10791 
L 130.082711 13.10791 
z
" clip-path="url(#p1736a3a233)" style="fill: #2ca02c; fill-opacity: 0.75; stroke: #000000; stroke-opacity: 0.75"/>
    <path d="M 49.292333 81.865406 
L 47.704779 86.751393 
L 42.567348 86.751393 
L 46.723617 89.7711 
L 45.136064 94.657088 
L 49.292333 91.637381 
L 53.448602 94.657088 
L 51.861049 89.7711 
L 56.017318 86.751393 
L 50.879887 86.751393 
z
" clip-path="url(#p1736a3a233)" style="fill: #d62728; fill-opacity: 0.75; stroke: #000000; stroke-opacity: 0.75"/>
    <path d="M 43.560843 88.649065 
L 41.973289 93.535053 
L 36.835858 93.535053 
L 40.992127 96.554759 
L 39.404574 101.440747 
L 43.560843 98.42104 
L 47.717112 101.440747 
L 46.129559 96.554759 
L 50.285828 93.535053 
L 45.148397 93.535053 
z
" clip-path="url(#p1736a3a233)" style="fill: #9467bd; fill-opacity: 0.75; stroke: #000000; stroke-opacity: 0.75"/>
   </g>
   <g id="PathCollection_2"/>
   <g id="PathCollection_3"/>
   <g id="PathCollection_4"/>
   <g id="PathCollection_5"/>
   <g id="PathCollection_6"/>
   <g id="matplotlib.axis_1">
    <g id="xtick_1">
     <g id="line2d_1">
      <defs>
       <path id="m9eb3799ef3" d="M 0 0 
L 0 3.5 
" style="stroke: #000000; stroke-width: 0.8"/>
      </defs>
      <g>
       <use xlink:href="#m9eb3799ef3" x="46.735237" y="108.681635" style="stroke: #000000; stroke-width: 0.8"/>
      </g>
     </g>
     <g id="text_1">
      <!-- 0.010 -->
      <g transform="translate(32.421174 123.280073) scale(0.1 -0.1)">
       <defs>
        <path id="DejaVuSans-30" d="M 2034 4250 
Q 1547 4250 1301 3770 
Q 1056 3291 1056 2328 
Q 1056 1369 1301 889 
Q 1547 409 2034 409 
Q 2525 409 2770 889 
Q 3016 1369 3016 2328 
Q 3016 3291 2770 3770 
Q 2525 4250 2034 4250 
z
M 2034 4750 
Q 2819 4750 3233 4129 
Q 3647 3509 3647 2328 
Q 3647 1150 3233 529 
Q 2819 -91 2034 -91 
Q 1250 -91 836 529 
Q 422 1150 422 2328 
Q 422 3509 836 4129 
Q 1250 4750 2034 4750 
z
" transform="scale(0.015625)"/>
        <path id="DejaVuSans-2e" d="M 684 794 
L 1344 794 
L 1344 0 
L 684 0 
L 684 794 
z
" transform="scale(0.015625)"/>
        <path id="DejaVuSans-31" d="M 794 531 
L 1825 531 
L 1825 4091 
L 703 3866 
L 703 4441 
L 1819 4666 
L 2450 4666 
L 2450 531 
L 3481 531 
L 3481 0 
L 794 0 
L 794 531 
z
" transform="scale(0.015625)"/>
       </defs>
       <use xlink:href="#DejaVuSans-30"/>
       <use xlink:href="#DejaVuSans-2e" x="63.623047"/>
       <use xlink:href="#DejaVuSans-30" x="95.410156"/>
       <use xlink:href="#DejaVuSans-31" x="159.033203"/>
       <use xlink:href="#DejaVuSans-30" x="222.65625"/>
      </g>
     </g>
    </g>
    <g id="xtick_2">
     <g id="line2d_2">
      <g>
       <use xlink:href="#m9eb3799ef3" x="86.153788" y="108.681635" style="stroke: #000000; stroke-width: 0.8"/>
      </g>
     </g>
     <g id="text_2">
      <!-- 0.012 -->
      <g transform="translate(71.839726 123.280073) scale(0.1 -0.1)">
       <defs>
        <path id="DejaVuSans-32" d="M 1228 531 
L 3431 531 
L 3431 0 
L 469 0 
L 469 531 
Q 828 903 1448 1529 
Q 2069 2156 2228 2338 
Q 2531 2678 2651 2914 
Q 2772 3150 2772 3378 
Q 2772 3750 2511 3984 
Q 2250 4219 1831 4219 
Q 1534 4219 1204 4116 
Q 875 4013 500 3803 
L 500 4441 
Q 881 4594 1212 4672 
Q 1544 4750 1819 4750 
Q 2544 4750 2975 4387 
Q 3406 4025 3406 3419 
Q 3406 3131 3298 2873 
Q 3191 2616 2906 2266 
Q 2828 2175 2409 1742 
Q 1991 1309 1228 531 
z
" transform="scale(0.015625)"/>
       </defs>
       <use xlink:href="#DejaVuSans-30"/>
       <use xlink:href="#DejaVuSans-2e" x="63.623047"/>
       <use xlink:href="#DejaVuSans-30" x="95.410156"/>
       <use xlink:href="#DejaVuSans-31" x="159.033203"/>
       <use xlink:href="#DejaVuSans-32" x="222.65625"/>
      </g>
     </g>
    </g>
    <g id="xtick_3">
     <g id="line2d_3">
      <g>
       <use xlink:href="#m9eb3799ef3" x="125.572339" y="108.681635" style="stroke: #000000; stroke-width: 0.8"/>
      </g>
     </g>
     <g id="text_3">
      <!-- 0.014 -->
      <g transform="translate(111.258277 123.280073) scale(0.1 -0.1)">
       <defs>
        <path id="DejaVuSans-34" d="M 2419 4116 
L 825 1625 
L 2419 1625 
L 2419 4116 
z
M 2253 4666 
L 3047 4666 
L 3047 1625 
L 3713 1625 
L 3713 1100 
L 3047 1100 
L 3047 0 
L 2419 0 
L 2419 1100 
L 313 1100 
L 313 1709 
L 2253 4666 
z
" transform="scale(0.015625)"/>
       </defs>
       <use xlink:href="#DejaVuSans-30"/>
       <use xlink:href="#DejaVuSans-2e" x="63.623047"/>
       <use xlink:href="#DejaVuSans-30" x="95.410156"/>
       <use xlink:href="#DejaVuSans-31" x="159.033203"/>
       <use xlink:href="#DejaVuSans-34" x="222.65625"/>
      </g>
     </g>
    </g>
    <g id="text_4">
     <!-- ECE -->
     <g transform="translate(74.255813 138.477885) scale(0.12 -0.12)">
      <defs>
       <path id="DejaVuSans-45" d="M 628 4666 
L 3578 4666 
L 3578 4134 
L 1259 4134 
L 1259 2753 
L 3481 2753 
L 3481 2222 
L 1259 2222 
L 1259 531 
L 3634 531 
L 3634 0 
L 628 0 
L 628 4666 
z
" transform="scale(0.015625)"/>
       <path id="DejaVuSans-43" d="M 4122 4306 
L 4122 3641 
Q 3803 3938 3442 4084 
Q 3081 4231 2675 4231 
Q 1875 4231 1450 3742 
Q 1025 3253 1025 2328 
Q 1025 1406 1450 917 
Q 1875 428 2675 428 
Q 3081 428 3442 575 
Q 3803 722 4122 1019 
L 4122 359 
Q 3791 134 3420 21 
Q 3050 -91 2638 -91 
Q 1578 -91 968 557 
Q 359 1206 359 2328 
Q 359 3453 968 4101 
Q 1578 4750 2638 4750 
Q 3056 4750 3426 4639 
Q 3797 4528 4122 4306 
z
" transform="scale(0.015625)"/>
      </defs>
      <use xlink:href="#DejaVuSans-45"/>
      <use xlink:href="#DejaVuSans-43" x="63.183594"/>
      <use xlink:href="#DejaVuSans-45" x="133.007812"/>
     </g>
    </g>
   </g>
   <g id="matplotlib.axis_2">
    <g id="ytick_1">
     <g id="line2d_4">
      <defs>
       <path id="mdf4284764f" d="M 0 0 
L -3.5 0 
" style="stroke: #000000; stroke-width: 0.8"/>
      </defs>
      <g>
       <use xlink:href="#mdf4284764f" x="34.64274" y="99.807601" style="stroke: #000000; stroke-width: 0.8"/>
      </g>
     </g>
     <g id="text_5">
      <!-- 0 -->
      <g transform="translate(21.28024 103.60682) scale(0.1 -0.1)">
       <use xlink:href="#DejaVuSans-30"/>
      </g>
     </g>
    </g>
    <g id="ytick_2">
     <g id="line2d_5">
      <g>
       <use xlink:href="#mdf4284764f" x="34.64274" y="74.564474" style="stroke: #000000; stroke-width: 0.8"/>
      </g>
     </g>
     <g id="text_6">
      <!-- 2 -->
      <g transform="translate(21.28024 78.363693) scale(0.1 -0.1)">
       <use xlink:href="#DejaVuSans-32"/>
      </g>
     </g>
    </g>
    <g id="ytick_3">
     <g id="line2d_6">
      <g>
       <use xlink:href="#mdf4284764f" x="34.64274" y="49.321348" style="stroke: #000000; stroke-width: 0.8"/>
      </g>
     </g>
     <g id="text_7">
      <!-- 4 -->
      <g transform="translate(21.28024 53.120566) scale(0.1 -0.1)">
       <use xlink:href="#DejaVuSans-34"/>
      </g>
     </g>
    </g>
    <g id="ytick_4">
     <g id="line2d_7">
      <g>
       <use xlink:href="#mdf4284764f" x="34.64274" y="24.078221" style="stroke: #000000; stroke-width: 0.8"/>
      </g>
     </g>
     <g id="text_8">
      <!-- 6 -->
      <g transform="translate(21.28024 27.87744) scale(0.1 -0.1)">
       <defs>
        <path id="DejaVuSans-36" d="M 2113 2584 
Q 1688 2584 1439 2293 
Q 1191 2003 1191 1497 
Q 1191 994 1439 701 
Q 1688 409 2113 409 
Q 2538 409 2786 701 
Q 3034 994 3034 1497 
Q 3034 2003 2786 2293 
Q 2538 2584 2113 2584 
z
M 3366 4563 
L 3366 3988 
Q 3128 4100 2886 4159 
Q 2644 4219 2406 4219 
Q 1781 4219 1451 3797 
Q 1122 3375 1075 2522 
Q 1259 2794 1537 2939 
Q 1816 3084 2150 3084 
Q 2853 3084 3261 2657 
Q 3669 2231 3669 1497 
Q 3669 778 3244 343 
Q 2819 -91 2113 -91 
Q 1303 -91 875 529 
Q 447 1150 447 2328 
Q 447 3434 972 4092 
Q 1497 4750 2381 4750 
Q 2619 4750 2861 4703 
Q 3103 4656 3366 4563 
z
" transform="scale(0.015625)"/>
       </defs>
       <use xlink:href="#DejaVuSans-36"/>
      </g>
     </g>
    </g>
    <g id="text_9">
     <!-- $\|\omega\|_F^2$ -->
     <g transform="translate(13.92024 71.470295) rotate(-90) scale(0.12 -0.12)">
      <defs>
       <path id="DejaVuSans-2016" d="M 1344 4891 
L 1344 -1509 
L 813 -1509 
L 813 4891 
L 1344 4891 
z
M 2376 4891 
L 2376 -1509 
L 1845 -1509 
L 1845 4891 
L 2376 4891 
z
" transform="scale(0.015625)"/>
       <path id="DejaVuSans-Oblique-3c9" d="M 1369 -91 
Q 72 -91 434 1766 
Q 575 2500 1256 3500 
L 1875 3500 
Q 1231 2500 1088 1750 
Q 819 397 1519 397 
Q 2166 397 2478 2078 
L 3009 2078 
Q 2669 388 3316 397 
Q 4013 403 4275 1750 
Q 4419 2500 4169 3500 
L 4788 3500 
Q 5075 2500 4934 1766 
Q 4578 -94 3278 -91 
Q 2428 -88 2503 844 
Q 2194 -91 1369 -91 
z
" transform="scale(0.015625)"/>
       <path id="DejaVuSans-Oblique-46" d="M 1081 4666 
L 3756 4666 
L 3653 4134 
L 1606 4134 
L 1338 2759 
L 3188 2759 
L 3084 2228 
L 1234 2228 
L 800 0 
L 172 0 
L 1081 4666 
z
" transform="scale(0.015625)"/>
      </defs>
      <use xlink:href="#DejaVuSans-2016" transform="translate(0 0.765625)"/>
      <use xlink:href="#DejaVuSans-Oblique-3c9" transform="translate(50 0.765625)"/>
      <use xlink:href="#DejaVuSans-2016" transform="translate(133.740234 0.765625)"/>
      <use xlink:href="#DejaVuSans-32" transform="translate(184.697266 39.046875) scale(0.7)"/>
      <use xlink:href="#DejaVuSans-Oblique-46" transform="translate(184.697266 -26.578125) scale(0.7)"/>
     </g>
    </g>
   </g>
   <g id="patch_3">
    <path d="M 34.64274 108.681635 
L 34.64274 6.418956 
" style="fill: none; stroke: #000000; stroke-width: 0.8; stroke-linejoin: miter; stroke-linecap: square"/>
   </g>
   <g id="patch_4">
    <path d="M 137.413261 108.681635 
L 137.413261 6.418956 
" style="fill: none; stroke: #000000; stroke-width: 0.8; stroke-linejoin: miter; stroke-linecap: square"/>
   </g>
   <g id="patch_5">
    <path d="M 34.64274 108.681635 
L 137.413261 108.681635 
" style="fill: none; stroke: #000000; stroke-width: 0.8; stroke-linejoin: miter; stroke-linecap: square"/>
   </g>
   <g id="patch_6">
    <path d="M 34.64274 6.418956 
L 137.413261 6.418956 
" style="fill: none; stroke: #000000; stroke-width: 0.8; stroke-linejoin: miter; stroke-linecap: square"/>
   </g>
   <g id="legend_1">
    <g id="patch_7">
     <path d="M 145.496376 100.487706 
L 239.102626 100.487706 
Q 241.102626 100.487706 241.102626 98.487706 
L 241.102626 11.418956 
Q 241.102626 9.418956 239.102626 9.418956 
L 145.496376 9.418956 
Q 143.496376 9.418956 143.496376 11.418956 
L 143.496376 98.487706 
Q 143.496376 100.487706 145.496376 100.487706 
z
" style="fill: #ffffff; opacity: 0.8; stroke: #cccccc; stroke-linejoin: miter"/>
    </g>
    <g id="text_10">
     <!-- Method -->
     <g transform="translate(173.546376 21.017393) scale(0.1 -0.1)">
      <defs>
       <path id="DejaVuSans-4d" d="M 628 4666 
L 1569 4666 
L 2759 1491 
L 3956 4666 
L 4897 4666 
L 4897 0 
L 4281 0 
L 4281 4097 
L 3078 897 
L 2444 897 
L 1241 4097 
L 1241 0 
L 628 0 
L 628 4666 
z
" transform="scale(0.015625)"/>
       <path id="DejaVuSans-65" d="M 3597 1894 
L 3597 1613 
L 953 1613 
Q 991 1019 1311 708 
Q 1631 397 2203 397 
Q 2534 397 2845 478 
Q 3156 559 3463 722 
L 3463 178 
Q 3153 47 2828 -22 
Q 2503 -91 2169 -91 
Q 1331 -91 842 396 
Q 353 884 353 1716 
Q 353 2575 817 3079 
Q 1281 3584 2069 3584 
Q 2775 3584 3186 3129 
Q 3597 2675 3597 1894 
z
M 3022 2063 
Q 3016 2534 2758 2815 
Q 2500 3097 2075 3097 
Q 1594 3097 1305 2825 
Q 1016 2553 972 2059 
L 3022 2063 
z
" transform="scale(0.015625)"/>
       <path id="DejaVuSans-74" d="M 1172 4494 
L 1172 3500 
L 2356 3500 
L 2356 3053 
L 1172 3053 
L 1172 1153 
Q 1172 725 1289 603 
Q 1406 481 1766 481 
L 2356 481 
L 2356 0 
L 1766 0 
Q 1100 0 847 248 
Q 594 497 594 1153 
L 594 3053 
L 172 3053 
L 172 3500 
L 594 3500 
L 594 4494 
L 1172 4494 
z
" transform="scale(0.015625)"/>
       <path id="DejaVuSans-68" d="M 3513 2113 
L 3513 0 
L 2938 0 
L 2938 2094 
Q 2938 2591 2744 2837 
Q 2550 3084 2163 3084 
Q 1697 3084 1428 2787 
Q 1159 2491 1159 1978 
L 1159 0 
L 581 0 
L 581 4863 
L 1159 4863 
L 1159 2956 
Q 1366 3272 1645 3428 
Q 1925 3584 2291 3584 
Q 2894 3584 3203 3211 
Q 3513 2838 3513 2113 
z
" transform="scale(0.015625)"/>
       <path id="DejaVuSans-6f" d="M 1959 3097 
Q 1497 3097 1228 2736 
Q 959 2375 959 1747 
Q 959 1119 1226 758 
Q 1494 397 1959 397 
Q 2419 397 2687 759 
Q 2956 1122 2956 1747 
Q 2956 2369 2687 2733 
Q 2419 3097 1959 3097 
z
M 1959 3584 
Q 2709 3584 3137 3096 
Q 3566 2609 3566 1747 
Q 3566 888 3137 398 
Q 2709 -91 1959 -91 
Q 1206 -91 779 398 
Q 353 888 353 1747 
Q 353 2609 779 3096 
Q 1206 3584 1959 3584 
z
" transform="scale(0.015625)"/>
       <path id="DejaVuSans-64" d="M 2906 2969 
L 2906 4863 
L 3481 4863 
L 3481 0 
L 2906 0 
L 2906 525 
Q 2725 213 2448 61 
Q 2172 -91 1784 -91 
Q 1150 -91 751 415 
Q 353 922 353 1747 
Q 353 2572 751 3078 
Q 1150 3584 1784 3584 
Q 2172 3584 2448 3432 
Q 2725 3281 2906 2969 
z
M 947 1747 
Q 947 1113 1208 752 
Q 1469 391 1925 391 
Q 2381 391 2643 752 
Q 2906 1113 2906 1747 
Q 2906 2381 2643 2742 
Q 2381 3103 1925 3103 
Q 1469 3103 1208 2742 
Q 947 2381 947 1747 
z
" transform="scale(0.015625)"/>
      </defs>
      <use xlink:href="#DejaVuSans-4d"/>
      <use xlink:href="#DejaVuSans-65" x="86.279297"/>
      <use xlink:href="#DejaVuSans-74" x="147.802734"/>
      <use xlink:href="#DejaVuSans-68" x="187.011719"/>
      <use xlink:href="#DejaVuSans-6f" x="250.390625"/>
      <use xlink:href="#DejaVuSans-64" x="311.572266"/>
     </g>
    </g>
    <g id="PathCollection_7">
     <defs>
      <path id="ma6fe3bc1e0" d="M 0 -3 
L -0.673542 -0.927051 
L -2.85317 -0.927051 
L -1.089814 0.354102 
L -1.763356 2.427051 
L -0 1.145898 
L 1.763356 2.427051 
L 1.089814 0.354102 
L 2.85317 -0.927051 
L 0.673542 -0.927051 
z
" style="stroke: #1f77b4"/>
     </defs>
     <g>
      <use xlink:href="#ma6fe3bc1e0" x="157.496376" y="33.070518" style="fill: #1f77b4; stroke: #1f77b4"/>
     </g>
    </g>
    <g id="text_11">
     <!-- No adapt -->
     <g transform="translate(175.496376 35.695518) scale(0.1 -0.1)">
      <defs>
       <path id="DejaVuSans-4e" d="M 628 4666 
L 1478 4666 
L 3547 763 
L 3547 4666 
L 4159 4666 
L 4159 0 
L 3309 0 
L 1241 3903 
L 1241 0 
L 628 0 
L 628 4666 
z
" transform="scale(0.015625)"/>
       <path id="DejaVuSans-20" transform="scale(0.015625)"/>
       <path id="DejaVuSans-61" d="M 2194 1759 
Q 1497 1759 1228 1600 
Q 959 1441 959 1056 
Q 959 750 1161 570 
Q 1363 391 1709 391 
Q 2188 391 2477 730 
Q 2766 1069 2766 1631 
L 2766 1759 
L 2194 1759 
z
M 3341 1997 
L 3341 0 
L 2766 0 
L 2766 531 
Q 2569 213 2275 61 
Q 1981 -91 1556 -91 
Q 1019 -91 701 211 
Q 384 513 384 1019 
Q 384 1609 779 1909 
Q 1175 2209 1959 2209 
L 2766 2209 
L 2766 2266 
Q 2766 2663 2505 2880 
Q 2244 3097 1772 3097 
Q 1472 3097 1187 3025 
Q 903 2953 641 2809 
L 641 3341 
Q 956 3463 1253 3523 
Q 1550 3584 1831 3584 
Q 2591 3584 2966 3190 
Q 3341 2797 3341 1997 
z
" transform="scale(0.015625)"/>
       <path id="DejaVuSans-70" d="M 1159 525 
L 1159 -1331 
L 581 -1331 
L 581 3500 
L 1159 3500 
L 1159 2969 
Q 1341 3281 1617 3432 
Q 1894 3584 2278 3584 
Q 2916 3584 3314 3078 
Q 3713 2572 3713 1747 
Q 3713 922 3314 415 
Q 2916 -91 2278 -91 
Q 1894 -91 1617 61 
Q 1341 213 1159 525 
z
M 3116 1747 
Q 3116 2381 2855 2742 
Q 2594 3103 2138 3103 
Q 1681 3103 1420 2742 
Q 1159 2381 1159 1747 
Q 1159 1113 1420 752 
Q 1681 391 2138 391 
Q 2594 391 2855 752 
Q 3116 1113 3116 1747 
z
" transform="scale(0.015625)"/>
      </defs>
      <use xlink:href="#DejaVuSans-4e"/>
      <use xlink:href="#DejaVuSans-6f" x="74.804688"/>
      <use xlink:href="#DejaVuSans-20" x="135.986328"/>
      <use xlink:href="#DejaVuSans-61" x="167.773438"/>
      <use xlink:href="#DejaVuSans-64" x="229.052734"/>
      <use xlink:href="#DejaVuSans-61" x="292.529297"/>
      <use xlink:href="#DejaVuSans-70" x="353.808594"/>
      <use xlink:href="#DejaVuSans-74" x="417.285156"/>
     </g>
    </g>
    <g id="PathCollection_8">
     <defs>
      <path id="m599e5305c8" d="M 0 -3 
L -0.673542 -0.927051 
L -2.85317 -0.927051 
L -1.089814 0.354102 
L -1.763356 2.427051 
L -0 1.145898 
L 1.763356 2.427051 
L 1.089814 0.354102 
L 2.85317 -0.927051 
L 0.673542 -0.927051 
z
" style="stroke: #ff7f0e"/>
     </defs>
     <g>
      <use xlink:href="#m599e5305c8" x="157.496376" y="47.748643" style="fill: #ff7f0e; stroke: #ff7f0e"/>
     </g>
    </g>
    <g id="text_12">
     <!-- TENT -->
     <g transform="translate(175.496376 50.373643) scale(0.1 -0.1)">
      <defs>
       <path id="DejaVuSans-54" d="M -19 4666 
L 3928 4666 
L 3928 4134 
L 2272 4134 
L 2272 0 
L 1638 0 
L 1638 4134 
L -19 4134 
L -19 4666 
z
" transform="scale(0.015625)"/>
      </defs>
      <use xlink:href="#DejaVuSans-54"/>
      <use xlink:href="#DejaVuSans-45" x="61.083984"/>
      <use xlink:href="#DejaVuSans-4e" x="124.267578"/>
      <use xlink:href="#DejaVuSans-54" x="199.072266"/>
     </g>
    </g>
    <g id="PathCollection_9">
     <defs>
      <path id="m37a8abaeb7" d="M 0 -3 
L -0.673542 -0.927051 
L -2.85317 -0.927051 
L -1.089814 0.354102 
L -1.763356 2.427051 
L -0 1.145898 
L 1.763356 2.427051 
L 1.089814 0.354102 
L 2.85317 -0.927051 
L 0.673542 -0.927051 
z
" style="stroke: #2ca02c"/>
     </defs>
     <g>
      <use xlink:href="#m37a8abaeb7" x="157.496376" y="62.426768" style="fill: #2ca02c; stroke: #2ca02c"/>
     </g>
    </g>
    <g id="text_13">
     <!-- EATA -->
     <g transform="translate(175.496376 65.051768) scale(0.1 -0.1)">
      <defs>
       <path id="DejaVuSans-41" d="M 2188 4044 
L 1331 1722 
L 3047 1722 
L 2188 4044 
z
M 1831 4666 
L 2547 4666 
L 4325 0 
L 3669 0 
L 3244 1197 
L 1141 1197 
L 716 0 
L 50 0 
L 1831 4666 
z
" transform="scale(0.015625)"/>
      </defs>
      <use xlink:href="#DejaVuSans-45"/>
      <use xlink:href="#DejaVuSans-41" x="63.183594"/>
      <use xlink:href="#DejaVuSans-54" x="123.841797"/>
      <use xlink:href="#DejaVuSans-41" x="177.175781"/>
     </g>
    </g>
    <g id="PathCollection_10">
     <defs>
      <path id="mb5b6c907f0" d="M 0 -3 
L -0.673542 -0.927051 
L -2.85317 -0.927051 
L -1.089814 0.354102 
L -1.763356 2.427051 
L -0 1.145898 
L 1.763356 2.427051 
L 1.089814 0.354102 
L 2.85317 -0.927051 
L 0.673542 -0.927051 
z
" style="stroke: #d62728"/>
     </defs>
     <g>
      <use xlink:href="#mb5b6c907f0" x="157.496376" y="77.104893" style="fill: #d62728; stroke: #d62728"/>
     </g>
    </g>
    <g id="text_14">
     <!-- SAR -->
     <g transform="translate(175.496376 79.729893) scale(0.1 -0.1)">
      <defs>
       <path id="DejaVuSans-53" d="M 3425 4513 
L 3425 3897 
Q 3066 4069 2747 4153 
Q 2428 4238 2131 4238 
Q 1616 4238 1336 4038 
Q 1056 3838 1056 3469 
Q 1056 3159 1242 3001 
Q 1428 2844 1947 2747 
L 2328 2669 
Q 3034 2534 3370 2195 
Q 3706 1856 3706 1288 
Q 3706 609 3251 259 
Q 2797 -91 1919 -91 
Q 1588 -91 1214 -16 
Q 841 59 441 206 
L 441 856 
Q 825 641 1194 531 
Q 1563 422 1919 422 
Q 2459 422 2753 634 
Q 3047 847 3047 1241 
Q 3047 1584 2836 1778 
Q 2625 1972 2144 2069 
L 1759 2144 
Q 1053 2284 737 2584 
Q 422 2884 422 3419 
Q 422 4038 858 4394 
Q 1294 4750 2059 4750 
Q 2388 4750 2728 4690 
Q 3069 4631 3425 4513 
z
" transform="scale(0.015625)"/>
       <path id="DejaVuSans-52" d="M 2841 2188 
Q 3044 2119 3236 1894 
Q 3428 1669 3622 1275 
L 4263 0 
L 3584 0 
L 2988 1197 
Q 2756 1666 2539 1819 
Q 2322 1972 1947 1972 
L 1259 1972 
L 1259 0 
L 628 0 
L 628 4666 
L 2053 4666 
Q 2853 4666 3247 4331 
Q 3641 3997 3641 3322 
Q 3641 2881 3436 2590 
Q 3231 2300 2841 2188 
z
M 1259 4147 
L 1259 2491 
L 2053 2491 
Q 2509 2491 2742 2702 
Q 2975 2913 2975 3322 
Q 2975 3731 2742 3939 
Q 2509 4147 2053 4147 
L 1259 4147 
z
" transform="scale(0.015625)"/>
      </defs>
      <use xlink:href="#DejaVuSans-53"/>
      <use xlink:href="#DejaVuSans-41" x="65.351562"/>
      <use xlink:href="#DejaVuSans-52" x="133.759766"/>
     </g>
    </g>
    <g id="PathCollection_11">
     <defs>
      <path id="m26d93fe55e" d="M 0 -3 
L -0.673542 -0.927051 
L -2.85317 -0.927051 
L -1.089814 0.354102 
L -1.763356 2.427051 
L -0 1.145898 
L 1.763356 2.427051 
L 1.089814 0.354102 
L 2.85317 -0.927051 
L 0.673542 -0.927051 
z
" style="stroke: #9467bd"/>
     </defs>
     <g>
      <use xlink:href="#m26d93fe55e" x="157.496376" y="91.783018" style="fill: #9467bd; stroke: #9467bd"/>
     </g>
    </g>
    <g id="text_15">
     <!-- POEM (ours) -->
     <g transform="translate(175.496376 94.408018) scale(0.1 -0.1)">
      <defs>
       <path id="DejaVuSans-50" d="M 1259 4147 
L 1259 2394 
L 2053 2394 
Q 2494 2394 2734 2622 
Q 2975 2850 2975 3272 
Q 2975 3691 2734 3919 
Q 2494 4147 2053 4147 
L 1259 4147 
z
M 628 4666 
L 2053 4666 
Q 2838 4666 3239 4311 
Q 3641 3956 3641 3272 
Q 3641 2581 3239 2228 
Q 2838 1875 2053 1875 
L 1259 1875 
L 1259 0 
L 628 0 
L 628 4666 
z
" transform="scale(0.015625)"/>
       <path id="DejaVuSans-4f" d="M 2522 4238 
Q 1834 4238 1429 3725 
Q 1025 3213 1025 2328 
Q 1025 1447 1429 934 
Q 1834 422 2522 422 
Q 3209 422 3611 934 
Q 4013 1447 4013 2328 
Q 4013 3213 3611 3725 
Q 3209 4238 2522 4238 
z
M 2522 4750 
Q 3503 4750 4090 4092 
Q 4678 3434 4678 2328 
Q 4678 1225 4090 567 
Q 3503 -91 2522 -91 
Q 1538 -91 948 565 
Q 359 1222 359 2328 
Q 359 3434 948 4092 
Q 1538 4750 2522 4750 
z
" transform="scale(0.015625)"/>
       <path id="DejaVuSans-28" d="M 1984 4856 
Q 1566 4138 1362 3434 
Q 1159 2731 1159 2009 
Q 1159 1288 1364 580 
Q 1569 -128 1984 -844 
L 1484 -844 
Q 1016 -109 783 600 
Q 550 1309 550 2009 
Q 550 2706 781 3412 
Q 1013 4119 1484 4856 
L 1984 4856 
z
" transform="scale(0.015625)"/>
       <path id="DejaVuSans-75" d="M 544 1381 
L 544 3500 
L 1119 3500 
L 1119 1403 
Q 1119 906 1312 657 
Q 1506 409 1894 409 
Q 2359 409 2629 706 
Q 2900 1003 2900 1516 
L 2900 3500 
L 3475 3500 
L 3475 0 
L 2900 0 
L 2900 538 
Q 2691 219 2414 64 
Q 2138 -91 1772 -91 
Q 1169 -91 856 284 
Q 544 659 544 1381 
z
M 1991 3584 
L 1991 3584 
z
" transform="scale(0.015625)"/>
       <path id="DejaVuSans-72" d="M 2631 2963 
Q 2534 3019 2420 3045 
Q 2306 3072 2169 3072 
Q 1681 3072 1420 2755 
Q 1159 2438 1159 1844 
L 1159 0 
L 581 0 
L 581 3500 
L 1159 3500 
L 1159 2956 
Q 1341 3275 1631 3429 
Q 1922 3584 2338 3584 
Q 2397 3584 2469 3576 
Q 2541 3569 2628 3553 
L 2631 2963 
z
" transform="scale(0.015625)"/>
       <path id="DejaVuSans-73" d="M 2834 3397 
L 2834 2853 
Q 2591 2978 2328 3040 
Q 2066 3103 1784 3103 
Q 1356 3103 1142 2972 
Q 928 2841 928 2578 
Q 928 2378 1081 2264 
Q 1234 2150 1697 2047 
L 1894 2003 
Q 2506 1872 2764 1633 
Q 3022 1394 3022 966 
Q 3022 478 2636 193 
Q 2250 -91 1575 -91 
Q 1294 -91 989 -36 
Q 684 19 347 128 
L 347 722 
Q 666 556 975 473 
Q 1284 391 1588 391 
Q 1994 391 2212 530 
Q 2431 669 2431 922 
Q 2431 1156 2273 1281 
Q 2116 1406 1581 1522 
L 1381 1569 
Q 847 1681 609 1914 
Q 372 2147 372 2553 
Q 372 3047 722 3315 
Q 1072 3584 1716 3584 
Q 2034 3584 2315 3537 
Q 2597 3491 2834 3397 
z
" transform="scale(0.015625)"/>
       <path id="DejaVuSans-29" d="M 513 4856 
L 1013 4856 
Q 1481 4119 1714 3412 
Q 1947 2706 1947 2009 
Q 1947 1309 1714 600 
Q 1481 -109 1013 -844 
L 513 -844 
Q 928 -128 1133 580 
Q 1338 1288 1338 2009 
Q 1338 2731 1133 3434 
Q 928 4138 513 4856 
z
" transform="scale(0.015625)"/>
      </defs>
      <use xlink:href="#DejaVuSans-50"/>
      <use xlink:href="#DejaVuSans-4f" x="60.302734"/>
      <use xlink:href="#DejaVuSans-45" x="139.013672"/>
      <use xlink:href="#DejaVuSans-4d" x="202.197266"/>
      <use xlink:href="#DejaVuSans-20" x="288.476562"/>
      <use xlink:href="#DejaVuSans-28" x="320.263672"/>
      <use xlink:href="#DejaVuSans-6f" x="359.277344"/>
      <use xlink:href="#DejaVuSans-75" x="420.458984"/>
      <use xlink:href="#DejaVuSans-72" x="483.837891"/>
      <use xlink:href="#DejaVuSans-73" x="524.951172"/>
      <use xlink:href="#DejaVuSans-29" x="577.050781"/>
     </g>
    </g>
   </g>
  </g>
  <g id="axes_2">
   <g id="patch_8">
    <path d="M 305.917677 108.681635 
L 716.99976 108.681635 
L 716.99976 6.418956 
L 305.917677 6.418956 
z
" style="fill: #ffffff"/>
   </g>
   <g id="PolyCollection_1">
    <defs>
     <path id="me5530d02e4" d="M 308.640075 -54.581669 
L 308.640075 -54.581669 
L 311.362473 -56.541261 
L 314.084871 -54.354452 
L 316.807269 -55.034478 
L 319.529667 -55.441347 
L 322.252065 -56.310514 
L 324.974462 -55.932703 
L 327.69686 -56.811901 
L 330.419258 -56.60816 
L 333.141656 -57.264079 
L 335.864054 -56.614168 
L 338.586452 -56.633716 
L 341.30885 -55.715529 
L 344.031248 -55.290093 
L 346.753646 -55.404077 
L 349.476044 -55.872164 
L 352.198441 -55.562642 
L 354.920839 -55.413382 
L 357.643237 -55.545764 
L 360.365635 -55.130742 
L 363.088033 -54.626715 
L 365.810431 -55.002537 
L 368.532829 -54.935201 
L 371.255227 -55.008952 
L 373.977625 -54.918845 
L 376.700023 -54.44998 
L 379.42242 -54.322665 
L 382.144818 -53.851977 
L 384.867216 -53.443859 
L 387.589614 -53.503626 
L 390.312012 -53.842919 
L 393.03441 -53.755979 
L 395.756808 -54.108551 
L 398.479206 -53.998525 
L 401.201604 -53.942455 
L 403.924002 -53.96522 
L 406.646399 -53.77775 
L 409.368797 -53.429832 
L 412.091195 -53.302109 
L 414.813593 -53.726217 
L 417.535991 -54.377422 
L 420.258389 -54.511853 
L 422.980787 -54.94343 
L 425.703185 -54.919407 
L 428.425583 -54.896834 
L 431.147981 -54.776627 
L 433.870378 -54.924083 
L 436.592776 -54.579461 
L 439.315174 -54.639775 
L 442.037572 -54.494557 
L 444.75997 -54.443567 
L 447.482368 -54.688936 
L 450.204766 -54.323598 
L 452.927164 -54.254182 
L 455.649562 -54.090642 
L 458.37196 -54.122221 
L 461.094357 -53.815231 
L 463.816755 -54.244239 
L 466.539153 -54.152581 
L 469.261551 -54.587431 
L 471.983949 -54.596946 
L 474.706347 -54.822277 
L 477.428745 -54.563233 
L 480.151143 -54.392407 
L 482.873541 -54.167784 
L 485.595939 -54.643402 
L 488.318336 -54.620073 
L 491.040734 -54.24422 
L 493.763132 -54.529299 
L 496.48553 -54.75856 
L 499.207928 -54.467291 
L 501.930326 -54.682075 
L 504.652724 -54.780595 
L 507.375122 -54.605955 
L 510.09752 -54.286994 
L 512.819918 -54.322933 
L 515.542315 -54.01699 
L 518.264713 -54.096871 
L 520.987111 -54.169986 
L 523.709509 -54.297259 
L 526.431907 -54.592922 
L 529.154305 -54.516057 
L 531.876703 -54.576498 
L 534.599101 -54.299762 
L 537.321499 -54.204194 
L 540.043897 -53.978603 
L 542.766294 -53.942492 
L 545.488692 -53.753219 
L 548.21109 -53.512999 
L 550.933488 -53.468963 
L 553.655886 -52.874869 
L 556.378284 -52.566173 
L 559.100682 -52.233771 
L 561.82308 -52.195767 
L 564.545478 -52.356715 
L 567.267876 -52.400301 
L 569.990273 -52.447592 
L 572.712671 -52.677101 
L 575.435069 -52.954019 
L 578.157467 -52.839687 
L 580.879865 -52.944056 
L 583.602263 -53.046709 
L 586.324661 -53.266476 
L 589.047059 -53.702811 
L 591.769457 -53.616873 
L 594.491855 -53.73077 
L 597.214252 -53.819967 
L 599.93665 -54.207187 
L 602.659048 -54.370928 
L 605.381446 -54.310503 
L 608.103844 -54.511791 
L 610.826242 -54.591202 
L 613.54864 -54.881586 
L 616.271038 -55.169224 
L 618.993436 -55.246089 
L 621.715834 -55.256049 
L 624.438231 -55.048084 
L 627.160629 -55.202422 
L 629.883027 -55.499189 
L 632.605425 -55.646238 
L 635.327823 -55.634677 
L 638.050221 -55.79507 
L 640.772619 -55.933957 
L 643.495017 -56.039335 
L 646.217415 -56.138212 
L 648.939813 -56.186885 
L 651.66221 -56.087864 
L 654.384608 -56.322357 
L 657.107006 -56.228375 
L 659.829404 -56.279799 
L 662.551802 -56.18283 
L 665.2742 -56.134324 
L 667.996598 -56.201895 
L 670.718996 -55.952349 
L 673.441394 -55.975437 
L 676.163792 -55.81262 
L 678.886189 -55.810074 
L 681.608587 -55.957434 
L 684.330985 -56.081096 
L 687.053383 -56.149198 
L 689.775781 -56.356193 
L 692.498179 -56.158963 
L 695.220577 -55.995001 
L 697.942975 -56.056676 
L 700.665373 -55.784251 
L 703.387771 -55.481719 
L 706.110168 -55.274108 
L 708.832566 -55.19736 
L 711.554964 -55.1019 
L 714.277362 -54.848265 
L 716.99976 -54.820372 
L 716.99976 -54.836682 
L 716.99976 -54.836682 
L 714.277362 -54.857138 
L 711.554964 -55.119528 
L 708.832566 -55.201854 
L 706.110168 -55.280339 
L 703.387771 -55.485286 
L 700.665373 -55.79309 
L 697.942975 -56.064405 
L 695.220577 -56.014003 
L 692.498179 -56.18514 
L 689.775781 -56.367255 
L 687.053383 -56.156732 
L 684.330985 -56.091078 
L 681.608587 -55.987348 
L 678.886189 -55.827192 
L 676.163792 -55.829272 
L 673.441394 -55.982669 
L 670.718996 -55.960018 
L 667.996598 -56.214762 
L 665.2742 -56.143547 
L 662.551802 -56.194895 
L 659.829404 -56.290628 
L 657.107006 -56.244997 
L 654.384608 -56.333986 
L 651.66221 -56.096445 
L 648.939813 -56.197528 
L 646.217415 -56.148485 
L 643.495017 -56.052314 
L 640.772619 -55.948335 
L 638.050221 -55.806956 
L 635.327823 -55.649327 
L 632.605425 -55.661979 
L 629.883027 -55.525875 
L 627.160629 -55.228784 
L 624.438231 -55.057782 
L 621.715834 -55.27832 
L 618.993436 -55.255017 
L 616.271038 -55.177629 
L 613.54864 -54.888204 
L 610.826242 -54.601098 
L 608.103844 -54.51581 
L 605.381446 -54.323964 
L 602.659048 -54.383231 
L 599.93665 -54.216421 
L 597.214252 -53.826301 
L 594.491855 -53.738964 
L 591.769457 -53.627594 
L 589.047059 -53.715932 
L 586.324661 -53.27064 
L 583.602263 -53.054775 
L 580.879865 -52.952853 
L 578.157467 -52.845327 
L 575.435069 -52.958853 
L 572.712671 -52.68569 
L 569.990273 -52.451268 
L 567.267876 -52.406847 
L 564.545478 -52.360439 
L 561.82308 -52.204807 
L 559.100682 -52.237851 
L 556.378284 -52.572511 
L 553.655886 -52.880312 
L 550.933488 -53.474453 
L 548.21109 -53.518615 
L 545.488692 -53.764628 
L 542.766294 -53.949587 
L 540.043897 -53.990795 
L 537.321499 -54.212962 
L 534.599101 -54.307891 
L 531.876703 -54.587703 
L 529.154305 -54.532673 
L 526.431907 -54.601584 
L 523.709509 -54.309928 
L 520.987111 -54.182495 
L 518.264713 -54.104304 
L 515.542315 -54.025474 
L 512.819918 -54.339718 
L 510.09752 -54.308187 
L 507.375122 -54.626787 
L 504.652724 -54.789804 
L 501.930326 -54.688623 
L 499.207928 -54.472063 
L 496.48553 -54.776895 
L 493.763132 -54.541637 
L 491.040734 -54.264214 
L 488.318336 -54.630825 
L 485.595939 -54.656619 
L 482.873541 -54.182037 
L 480.151143 -54.402786 
L 477.428745 -54.573646 
L 474.706347 -54.829195 
L 471.983949 -54.609797 
L 469.261551 -54.599108 
L 466.539153 -54.179016 
L 463.816755 -54.253841 
L 461.094357 -53.8238 
L 458.37196 -54.129081 
L 455.649562 -54.105827 
L 452.927164 -54.266523 
L 450.204766 -54.339042 
L 447.482368 -54.695172 
L 444.75997 -54.460599 
L 442.037572 -54.511877 
L 439.315174 -54.64928 
L 436.592776 -54.589911 
L 433.870378 -54.932038 
L 431.147981 -54.795125 
L 428.425583 -54.917047 
L 425.703185 -54.931196 
L 422.980787 -54.948233 
L 420.258389 -54.522132 
L 417.535991 -54.396596 
L 414.813593 -53.746284 
L 412.091195 -53.318894 
L 409.368797 -53.455574 
L 406.646399 -53.790538 
L 403.924002 -53.975893 
L 401.201604 -53.95268 
L 398.479206 -54.009195 
L 395.756808 -54.116059 
L 393.03441 -53.783146 
L 390.312012 -53.857938 
L 387.589614 -53.520756 
L 384.867216 -53.461405 
L 382.144818 -53.878324 
L 379.42242 -54.34487 
L 376.700023 -54.473791 
L 373.977625 -54.941375 
L 371.255227 -55.027318 
L 368.532829 -54.948328 
L 365.810431 -55.035312 
L 363.088033 -54.662828 
L 360.365635 -55.143761 
L 357.643237 -55.56415 
L 354.920839 -55.433173 
L 352.198441 -55.578676 
L 349.476044 -55.891776 
L 346.753646 -55.426118 
L 344.031248 -55.334235 
L 341.30885 -55.740294 
L 338.586452 -56.649237 
L 335.864054 -56.623633 
L 333.141656 -57.281118 
L 330.419258 -56.625498 
L 327.69686 -56.85696 
L 324.974462 -55.95298 
L 322.252065 -56.329287 
L 319.529667 -55.473364 
L 316.807269 -55.069173 
L 314.084871 -54.381505 
L 311.362473 -56.555782 
L 308.640075 -54.581669 
z
" style="stroke: #6ac8ac; stroke-opacity: 0.2"/>
    </defs>
    <g clip-path="url(#pa5e8797aaf)">
     <use xlink:href="#me5530d02e4" x="0" y="144" style="fill: #6ac8ac; fill-opacity: 0.2; stroke: #6ac8ac; stroke-opacity: 0.2"/>
    </g>
   </g>
   <g id="PolyCollection_2"/>
   <g id="PolyCollection_3"/>
   <g id="matplotlib.axis_3">
    <g id="xtick_4">
     <g id="line2d_8">
      <g>
       <use xlink:href="#m9eb3799ef3" x="308.640075" y="108.681635" style="stroke: #000000; stroke-width: 0.8"/>
      </g>
     </g>
     <g id="text_16">
      <!-- 0 -->
      <g transform="translate(305.458825 123.280073) scale(0.1 -0.1)">
       <use xlink:href="#DejaVuSans-30"/>
      </g>
     </g>
    </g>
    <g id="xtick_5">
     <g id="line2d_9">
      <g>
       <use xlink:href="#m9eb3799ef3" x="363.088033" y="108.681635" style="stroke: #000000; stroke-width: 0.8"/>
      </g>
     </g>
     <g id="text_17">
      <!-- 5000 -->
      <g transform="translate(350.363033 123.280073) scale(0.1 -0.1)">
       <defs>
        <path id="DejaVuSans-35" d="M 691 4666 
L 3169 4666 
L 3169 4134 
L 1269 4134 
L 1269 2991 
Q 1406 3038 1543 3061 
Q 1681 3084 1819 3084 
Q 2600 3084 3056 2656 
Q 3513 2228 3513 1497 
Q 3513 744 3044 326 
Q 2575 -91 1722 -91 
Q 1428 -91 1123 -41 
Q 819 9 494 109 
L 494 744 
Q 775 591 1075 516 
Q 1375 441 1709 441 
Q 2250 441 2565 725 
Q 2881 1009 2881 1497 
Q 2881 1984 2565 2268 
Q 2250 2553 1709 2553 
Q 1456 2553 1204 2497 
Q 953 2441 691 2322 
L 691 4666 
z
" transform="scale(0.015625)"/>
       </defs>
       <use xlink:href="#DejaVuSans-35"/>
       <use xlink:href="#DejaVuSans-30" x="63.623047"/>
       <use xlink:href="#DejaVuSans-30" x="127.246094"/>
       <use xlink:href="#DejaVuSans-30" x="190.869141"/>
      </g>
     </g>
    </g>
    <g id="xtick_6">
     <g id="line2d_10">
      <g>
       <use xlink:href="#m9eb3799ef3" x="417.535991" y="108.681635" style="stroke: #000000; stroke-width: 0.8"/>
      </g>
     </g>
     <g id="text_18">
      <!-- 10000 -->
      <g transform="translate(401.629741 123.280073) scale(0.1 -0.1)">
       <use xlink:href="#DejaVuSans-31"/>
       <use xlink:href="#DejaVuSans-30" x="63.623047"/>
       <use xlink:href="#DejaVuSans-30" x="127.246094"/>
       <use xlink:href="#DejaVuSans-30" x="190.869141"/>
       <use xlink:href="#DejaVuSans-30" x="254.492188"/>
      </g>
     </g>
    </g>
    <g id="xtick_7">
     <g id="line2d_11">
      <g>
       <use xlink:href="#m9eb3799ef3" x="471.983949" y="108.681635" style="stroke: #000000; stroke-width: 0.8"/>
      </g>
     </g>
     <g id="text_19">
      <!-- 15000 -->
      <g transform="translate(456.077699 123.280073) scale(0.1 -0.1)">
       <use xlink:href="#DejaVuSans-31"/>
       <use xlink:href="#DejaVuSans-35" x="63.623047"/>
       <use xlink:href="#DejaVuSans-30" x="127.246094"/>
       <use xlink:href="#DejaVuSans-30" x="190.869141"/>
       <use xlink:href="#DejaVuSans-30" x="254.492188"/>
      </g>
     </g>
    </g>
    <g id="xtick_8">
     <g id="line2d_12">
      <g>
       <use xlink:href="#m9eb3799ef3" x="526.431907" y="108.681635" style="stroke: #000000; stroke-width: 0.8"/>
      </g>
     </g>
     <g id="text_20">
      <!-- 20000 -->
      <g transform="translate(510.525657 123.280073) scale(0.1 -0.1)">
       <use xlink:href="#DejaVuSans-32"/>
       <use xlink:href="#DejaVuSans-30" x="63.623047"/>
       <use xlink:href="#DejaVuSans-30" x="127.246094"/>
       <use xlink:href="#DejaVuSans-30" x="190.869141"/>
       <use xlink:href="#DejaVuSans-30" x="254.492188"/>
      </g>
     </g>
    </g>
    <g id="xtick_9">
     <g id="line2d_13">
      <g>
       <use xlink:href="#m9eb3799ef3" x="580.879865" y="108.681635" style="stroke: #000000; stroke-width: 0.8"/>
      </g>
     </g>
     <g id="text_21">
      <!-- 25000 -->
      <g transform="translate(564.973615 123.280073) scale(0.1 -0.1)">
       <use xlink:href="#DejaVuSans-32"/>
       <use xlink:href="#DejaVuSans-35" x="63.623047"/>
       <use xlink:href="#DejaVuSans-30" x="127.246094"/>
       <use xlink:href="#DejaVuSans-30" x="190.869141"/>
       <use xlink:href="#DejaVuSans-30" x="254.492188"/>
      </g>
     </g>
    </g>
    <g id="xtick_10">
     <g id="line2d_14">
      <g>
       <use xlink:href="#m9eb3799ef3" x="635.327823" y="108.681635" style="stroke: #000000; stroke-width: 0.8"/>
      </g>
     </g>
     <g id="text_22">
      <!-- 30000 -->
      <g transform="translate(619.421573 123.280073) scale(0.1 -0.1)">
       <defs>
        <path id="DejaVuSans-33" d="M 2597 2516 
Q 3050 2419 3304 2112 
Q 3559 1806 3559 1356 
Q 3559 666 3084 287 
Q 2609 -91 1734 -91 
Q 1441 -91 1130 -33 
Q 819 25 488 141 
L 488 750 
Q 750 597 1062 519 
Q 1375 441 1716 441 
Q 2309 441 2620 675 
Q 2931 909 2931 1356 
Q 2931 1769 2642 2001 
Q 2353 2234 1838 2234 
L 1294 2234 
L 1294 2753 
L 1863 2753 
Q 2328 2753 2575 2939 
Q 2822 3125 2822 3475 
Q 2822 3834 2567 4026 
Q 2313 4219 1838 4219 
Q 1578 4219 1281 4162 
Q 984 4106 628 3988 
L 628 4550 
Q 988 4650 1302 4700 
Q 1616 4750 1894 4750 
Q 2613 4750 3031 4423 
Q 3450 4097 3450 3541 
Q 3450 3153 3228 2886 
Q 3006 2619 2597 2516 
z
" transform="scale(0.015625)"/>
       </defs>
       <use xlink:href="#DejaVuSans-33"/>
       <use xlink:href="#DejaVuSans-30" x="63.623047"/>
       <use xlink:href="#DejaVuSans-30" x="127.246094"/>
       <use xlink:href="#DejaVuSans-30" x="190.869141"/>
       <use xlink:href="#DejaVuSans-30" x="254.492188"/>
      </g>
     </g>
    </g>
    <g id="xtick_11">
     <g id="line2d_15">
      <g>
       <use xlink:href="#m9eb3799ef3" x="689.775781" y="108.681635" style="stroke: #000000; stroke-width: 0.8"/>
      </g>
     </g>
     <g id="text_23">
      <!-- 35000 -->
      <g transform="translate(673.869531 123.280073) scale(0.1 -0.1)">
       <use xlink:href="#DejaVuSans-33"/>
       <use xlink:href="#DejaVuSans-35" x="63.623047"/>
       <use xlink:href="#DejaVuSans-30" x="127.246094"/>
       <use xlink:href="#DejaVuSans-30" x="190.869141"/>
       <use xlink:href="#DejaVuSans-30" x="254.492188"/>
      </g>
     </g>
    </g>
    <g id="text_24">
     <!-- Example $j$ -->
     <g transform="translate(481.818719 138.47976) scale(0.12 -0.12)">
      <defs>
       <path id="DejaVuSans-78" d="M 3513 3500 
L 2247 1797 
L 3578 0 
L 2900 0 
L 1881 1375 
L 863 0 
L 184 0 
L 1544 1831 
L 300 3500 
L 978 3500 
L 1906 2253 
L 2834 3500 
L 3513 3500 
z
" transform="scale(0.015625)"/>
       <path id="DejaVuSans-6d" d="M 3328 2828 
Q 3544 3216 3844 3400 
Q 4144 3584 4550 3584 
Q 5097 3584 5394 3201 
Q 5691 2819 5691 2113 
L 5691 0 
L 5113 0 
L 5113 2094 
Q 5113 2597 4934 2840 
Q 4756 3084 4391 3084 
Q 3944 3084 3684 2787 
Q 3425 2491 3425 1978 
L 3425 0 
L 2847 0 
L 2847 2094 
Q 2847 2600 2669 2842 
Q 2491 3084 2119 3084 
Q 1678 3084 1418 2786 
Q 1159 2488 1159 1978 
L 1159 0 
L 581 0 
L 581 3500 
L 1159 3500 
L 1159 2956 
Q 1356 3278 1631 3431 
Q 1906 3584 2284 3584 
Q 2666 3584 2933 3390 
Q 3200 3197 3328 2828 
z
" transform="scale(0.015625)"/>
       <path id="DejaVuSans-6c" d="M 603 4863 
L 1178 4863 
L 1178 0 
L 603 0 
L 603 4863 
z
" transform="scale(0.015625)"/>
       <path id="DejaVuSans-Oblique-6a" d="M 928 3500 
L 1503 3500 
L 813 -63 
L 809 -78 
Q 694 -675 544 -897 
Q 403 -1106 132 -1218 
Q -138 -1331 -506 -1331 
L -722 -1331 
L -628 -844 
L -481 -844 
Q -144 -844 -1 -703 
Q 141 -563 238 -63 
L 928 3500 
z
M 1197 4863 
L 1772 4863 
L 1631 4134 
L 1056 4134 
L 1197 4863 
z
" transform="scale(0.015625)"/>
      </defs>
      <use xlink:href="#DejaVuSans-45" transform="translate(0 0.015625)"/>
      <use xlink:href="#DejaVuSans-78" transform="translate(63.183594 0.015625)"/>
      <use xlink:href="#DejaVuSans-61" transform="translate(122.363281 0.015625)"/>
      <use xlink:href="#DejaVuSans-6d" transform="translate(183.642578 0.015625)"/>
      <use xlink:href="#DejaVuSans-70" transform="translate(281.054688 0.015625)"/>
      <use xlink:href="#DejaVuSans-6c" transform="translate(344.53125 0.015625)"/>
      <use xlink:href="#DejaVuSans-65" transform="translate(372.314453 0.015625)"/>
      <use xlink:href="#DejaVuSans-20" transform="translate(433.837891 0.015625)"/>
      <use xlink:href="#DejaVuSans-Oblique-6a" transform="translate(465.625 0.015625)"/>
     </g>
    </g>
   </g>
   <g id="matplotlib.axis_4">
    <g id="ytick_5">
     <g id="line2d_16">
      <g>
       <use xlink:href="#mdf4284764f" x="305.917677" y="89.418331" style="stroke: #000000; stroke-width: 0.8"/>
      </g>
     </g>
     <g id="text_25">
      <!-- 0.00 -->
      <g transform="translate(276.652052 93.21755) scale(0.1 -0.1)">
       <use xlink:href="#DejaVuSans-30"/>
       <use xlink:href="#DejaVuSans-2e" x="63.623047"/>
       <use xlink:href="#DejaVuSans-30" x="95.410156"/>
       <use xlink:href="#DejaVuSans-30" x="159.033203"/>
      </g>
     </g>
    </g>
    <g id="ytick_6">
     <g id="line2d_17">
      <g>
       <use xlink:href="#mdf4284764f" x="305.917677" y="68.763583" style="stroke: #000000; stroke-width: 0.8"/>
      </g>
     </g>
     <g id="text_26">
      <!-- 0.25 -->
      <g transform="translate(276.652052 72.562802) scale(0.1 -0.1)">
       <use xlink:href="#DejaVuSans-30"/>
       <use xlink:href="#DejaVuSans-2e" x="63.623047"/>
       <use xlink:href="#DejaVuSans-32" x="95.410156"/>
       <use xlink:href="#DejaVuSans-35" x="159.033203"/>
      </g>
     </g>
    </g>
    <g id="ytick_7">
     <g id="line2d_18">
      <g>
       <use xlink:href="#mdf4284764f" x="305.917677" y="48.108835" style="stroke: #000000; stroke-width: 0.8"/>
      </g>
     </g>
     <g id="text_27">
      <!-- 0.50 -->
      <g transform="translate(276.652052 51.908054) scale(0.1 -0.1)">
       <use xlink:href="#DejaVuSans-30"/>
       <use xlink:href="#DejaVuSans-2e" x="63.623047"/>
       <use xlink:href="#DejaVuSans-35" x="95.410156"/>
       <use xlink:href="#DejaVuSans-30" x="159.033203"/>
      </g>
     </g>
    </g>
    <g id="ytick_8">
     <g id="line2d_19">
      <g>
       <use xlink:href="#mdf4284764f" x="305.917677" y="27.454088" style="stroke: #000000; stroke-width: 0.8"/>
      </g>
     </g>
     <g id="text_28">
      <!-- 0.75 -->
      <g transform="translate(276.652052 31.253306) scale(0.1 -0.1)">
       <defs>
        <path id="DejaVuSans-37" d="M 525 4666 
L 3525 4666 
L 3525 4397 
L 1831 0 
L 1172 0 
L 2766 4134 
L 525 4134 
L 525 4666 
z
" transform="scale(0.015625)"/>
       </defs>
       <use xlink:href="#DejaVuSans-30"/>
       <use xlink:href="#DejaVuSans-2e" x="63.623047"/>
       <use xlink:href="#DejaVuSans-37" x="95.410156"/>
       <use xlink:href="#DejaVuSans-35" x="159.033203"/>
      </g>
     </g>
    </g>
    <g id="ytick_9">
     <g id="line2d_20">
      <g>
       <use xlink:href="#mdf4284764f" x="305.917677" y="6.79934" style="stroke: #000000; stroke-width: 0.8"/>
      </g>
     </g>
     <g id="text_29">
      <!-- 1.00 -->
      <g transform="translate(276.652052 10.598559) scale(0.1 -0.1)">
       <use xlink:href="#DejaVuSans-31"/>
       <use xlink:href="#DejaVuSans-2e" x="63.623047"/>
       <use xlink:href="#DejaVuSans-30" x="95.410156"/>
       <use xlink:href="#DejaVuSans-30" x="159.033203"/>
      </g>
     </g>
    </g>
    <g id="text_30">
     <!-- $\epsilon$ -->
     <g transform="translate(269.74049 61.400295) rotate(-90) scale(0.14 -0.14)">
      <defs>
       <path id="DejaVuSans-Oblique-3b5" d="M 1263 1888 
Q 925 1963 778 2166 
Q 669 2309 669 2503 
Q 669 3034 1175 3344 
Q 1575 3588 2188 3588 
Q 2425 3588 2684 3550 
Q 2944 3513 3234 3438 
L 3134 2916 
Q 2847 3006 2606 3047 
Q 2359 3088 2138 3088 
Q 1766 3088 1522 2944 
Q 1228 2772 1228 2522 
Q 1228 2356 1381 2241 
Q 1563 2103 1925 2103 
L 2409 2103 
L 2319 1628 
L 1856 1628 
Q 1425 1628 1172 1469 
Q 828 1253 828 916 
Q 828 703 1013 563 
Q 1244 388 1716 388 
Q 2006 388 2284 444 
Q 2563 503 2806 619 
L 2700 84 
Q 2403 -3 2131 -47 
Q 1859 -91 1609 -91 
Q 866 -91 516 194 
Q 250 413 250 781 
Q 250 1278 600 1584 
Q 859 1813 1263 1888 
z
" transform="scale(0.015625)"/>
      </defs>
      <use xlink:href="#DejaVuSans-Oblique-3b5" transform="translate(0 0.9375)"/>
     </g>
    </g>
   </g>
   <g id="line2d_21">
    <path d="M 305.917677 89.418331 
L 716.99976 89.418331 
" clip-path="url(#pa5e8797aaf)" style="fill: none; stroke-dasharray: 3.7,1.6; stroke-dashoffset: 0; stroke: #808080"/>
   </g>
   <g id="line2d_22">
    <path d="M 308.640075 89.418331 
L 311.362473 87.696385 
L 314.084871 89.578646 
L 316.807269 88.942421 
L 319.529667 88.520902 
L 322.252065 87.655124 
L 324.974462 88.251053 
L 327.69686 87.200702 
L 330.419258 87.473089 
L 333.141656 86.746678 
L 335.864054 87.337421 
L 338.586452 87.339361 
L 341.30885 88.163718 
L 344.031248 88.626053 
L 346.753646 88.600382 
L 349.476044 88.066392 
L 354.920839 88.528912 
L 357.643237 88.34295 
L 360.365635 88.898113 
L 363.088033 89.281077 
L 365.810431 88.987612 
L 373.977625 89.081186 
L 376.700023 89.51503 
L 379.42242 89.739405 
L 384.867216 90.548665 
L 387.589614 90.6655 
L 390.312012 90.22992 
L 393.03441 90.275323 
L 395.756808 89.9427 
L 406.646399 90.226121 
L 409.368797 90.562045 
L 412.091195 90.669937 
L 414.813593 90.179561 
L 417.535991 89.57287 
L 420.258389 89.43991 
L 422.980787 89.027329 
L 428.425583 89.079359 
L 431.147981 89.183237 
L 433.870378 89.020496 
L 436.592776 89.351041 
L 439.315174 89.342154 
L 444.75997 89.532553 
L 447.482368 89.270255 
L 450.204766 89.676297 
L 458.37196 89.928241 
L 461.094357 90.191124 
L 463.816755 89.791045 
L 466.539153 89.840543 
L 469.261551 89.388577 
L 471.983949 89.385309 
L 474.706347 89.173436 
L 482.873541 89.81153 
L 485.595939 89.372167 
L 488.318336 89.428094 
L 491.040734 89.726011 
L 496.48553 89.212881 
L 499.207928 89.474277 
L 501.930326 89.257647 
L 504.652724 89.172191 
L 507.375122 89.339075 
L 510.09752 89.698253 
L 512.819918 89.65653 
L 515.542315 89.967761 
L 518.264713 89.941186 
L 526.431907 89.385938 
L 529.154305 89.483498 
L 531.876703 89.462657 
L 540.043897 89.968867 
L 542.766294 90.023307 
L 548.21109 90.465161 
L 550.933488 90.510332 
L 553.655886 91.12515 
L 559.100682 91.742556 
L 561.82308 91.787352 
L 567.267876 91.606395 
L 569.990273 91.548287 
L 575.435069 91.049542 
L 578.157467 91.177968 
L 583.602263 90.953855 
L 586.324661 90.765543 
L 589.047059 90.325245 
L 591.769457 90.37785 
L 597.214252 90.15695 
L 599.93665 89.780211 
L 602.659048 89.656625 
L 605.381446 89.686064 
L 618.993436 88.792099 
L 621.715834 88.743642 
L 624.438231 89.012479 
L 638.050221 88.223469 
L 643.495017 88.010843 
L 648.939813 87.838166 
L 651.66221 87.877664 
L 654.384608 87.679635 
L 657.107006 87.731581 
L 659.829404 87.656246 
L 665.2742 87.847346 
L 667.996598 87.797402 
L 670.718996 88.033256 
L 673.441394 88.006091 
L 676.163792 88.176104 
L 681.608587 88.016443 
L 684.330985 87.870245 
L 687.053383 87.84682 
L 689.775781 87.666512 
L 695.220577 88.002757 
L 697.942975 87.913528 
L 703.387771 88.532991 
L 708.832566 88.782156 
L 711.554964 88.874995 
L 714.277362 89.181789 
L 716.99976 89.137053 
L 716.99976 89.137053 
" clip-path="url(#pa5e8797aaf)" style="fill: none; stroke: #6ac8ac; stroke-width: 2; stroke-linecap: square"/>
   </g>
   <g id="line2d_23">
    <path d="M 308.640075 89.418331 
L 309.184555 88.910893 
L 310.273514 72.473824 
L 310.817993 72.925485 
L 311.362473 67.989379 
L 311.906953 69.194103 
L 312.451432 67.102153 
L 313.540391 66.837542 
L 314.084871 70.142064 
L 314.62935 67.391268 
L 315.17383 63.906582 
L 315.71831 63.84127 
L 316.262789 62.84581 
L 316.807269 62.909864 
L 317.351748 61.974925 
L 317.896228 62.374197 
L 318.440708 61.690109 
L 318.985187 59.93516 
L 319.529667 59.000665 
L 320.074146 58.923835 
L 320.618626 58.177302 
L 321.163105 60.661377 
L 321.707585 60.827296 
L 322.796544 60.466276 
L 323.341024 59.567383 
L 323.885503 59.699212 
L 324.429983 61.374222 
L 324.974462 61.505893 
L 325.518942 61.233815 
L 326.063422 59.659825 
L 326.607901 59.633264 
L 327.152381 59.370159 
L 327.69686 59.908564 
L 328.24134 61.892607 
L 328.78582 63.009024 
L 329.330299 63.703718 
L 329.874779 64.114965 
L 330.419258 66.027748 
L 330.963738 64.698955 
L 331.508217 65.116213 
L 332.052697 64.895105 
L 332.597177 64.24395 
L 333.686136 67.4202 
L 334.230615 66.114236 
L 334.775095 67.16612 
L 335.319574 67.573655 
L 335.864054 67.752087 
L 336.408534 68.164365 
L 336.953013 69.20809 
L 337.497493 68.942773 
L 338.041972 69.978013 
L 338.586452 69.357185 
L 339.675411 70.625866 
L 340.219891 72.166726 
L 340.76437 72.902957 
L 341.30885 74.244424 
L 341.853329 75.054334 
L 342.397809 74.206731 
L 342.942289 72.673941 
L 343.486768 72.639393 
L 344.031248 73.238907 
L 344.575727 72.692533 
L 345.120207 72.659454 
L 345.664686 72.761723 
L 346.209166 73.466461 
L 346.753646 73.777456 
L 348.931564 76.926596 
L 349.476044 76.703162 
L 350.020523 76.956198 
L 351.653962 78.512169 
L 352.198441 76.913503 
L 353.287401 77.902791 
L 354.37636 79.70531 
L 354.920839 80.434677 
L 355.465319 80.909135 
L 356.009799 82.6283 
L 357.643237 82.002342 
L 358.187717 83.306324 
L 359.276676 83.929988 
L 359.821156 84.255445 
L 361.454594 87.043989 
L 361.999074 87.31462 
L 362.543553 87.070097 
L 363.088033 87.247339 
L 363.632513 87.967304 
L 364.721472 90.81848 
L 365.265951 90.386203 
L 365.810431 90.209719 
L 366.354911 90.305718 
L 366.89939 89.49987 
L 367.44387 89.505904 
L 367.988349 89.816295 
L 368.532829 89.88878 
L 369.077308 89.70979 
L 369.621788 89.016658 
L 370.710747 89.435075 
L 371.255227 89.875001 
L 371.799706 90.698758 
L 372.344186 90.397439 
L 372.888665 91.41114 
L 373.433145 92.8935 
L 373.977625 93.502229 
L 374.522104 93.046999 
L 375.066584 93.117881 
L 375.611063 93.663222 
L 376.155543 93.398496 
L 376.700023 93.67161 
L 377.244502 94.128718 
L 378.333461 93.58838 
L 378.877941 93.714517 
L 379.42242 94.597948 
L 379.9669 94.787765 
L 380.51138 94.218398 
L 381.055859 94.717405 
L 382.144818 94.826784 
L 382.689298 94.090281 
L 383.778257 93.711367 
L 384.322737 93.764696 
L 385.411696 93.219557 
L 385.956175 93.488207 
L 386.500655 94.147526 
L 387.045135 94.314541 
L 387.589614 94.108509 
L 388.134094 93.50742 
L 388.678573 93.372267 
L 389.223053 93.397726 
L 389.767532 93.783905 
L 390.312012 93.10702 
L 390.856492 93.009515 
L 391.400971 92.528293 
L 392.48993 92.627173 
L 393.03441 93.526457 
L 393.57889 93.214673 
L 394.123369 93.616071 
L 394.667849 93.779148 
L 395.212328 93.528027 
L 395.756808 93.141256 
L 396.301287 92.515311 
L 396.845767 92.376907 
L 397.390247 92.476148 
L 397.934726 92.879565 
L 398.479206 93.027249 
L 399.023685 93.499526 
L 399.568165 93.481846 
L 400.112644 93.746975 
L 401.201604 93.546986 
L 401.746083 93.468229 
L 402.290563 92.885571 
L 402.835042 92.824606 
L 403.379522 93.033975 
L 403.924002 93.410124 
L 404.468481 93.501658 
L 405.012961 92.911529 
L 405.55744 93.824518 
L 406.10192 94.246558 
L 406.646399 93.711875 
L 407.190879 93.73101 
L 407.735359 93.993664 
L 408.824318 94.904383 
L 409.368797 95.372495 
L 409.913277 94.86171 
L 411.002236 95.404746 
L 411.546716 95.897641 
L 412.091195 96.062492 
L 412.635675 95.728998 
L 413.180154 95.18568 
L 413.724634 95.353965 
L 414.269114 94.670521 
L 414.813593 94.711766 
L 415.358073 93.884148 
L 415.902552 94.510467 
L 416.991511 94.057399 
L 417.535991 94.405658 
L 418.080471 94.451695 
L 418.62495 93.532598 
L 419.16943 93.552585 
L 419.713909 93.361747 
L 420.258389 92.852819 
L 420.802869 93.023864 
L 421.347348 93.613949 
L 421.891828 93.453208 
L 422.436307 93.93343 
L 422.980787 93.523955 
L 423.525266 93.592364 
L 424.069746 94.278393 
L 424.614226 94.39769 
L 425.158705 94.970197 
L 425.703185 94.709642 
L 426.247664 94.737104 
L 426.792144 94.538635 
L 428.425583 95.690963 
L 428.970062 95.754258 
L 429.514542 96.171799 
L 430.059021 96.288786 
L 430.603501 96.168659 
L 431.147981 95.734781 
L 431.69246 95.748269 
L 432.23694 95.166574 
L 432.781419 95.138986 
L 433.325899 94.707814 
L 433.870378 94.784398 
L 434.959338 94.711745 
L 436.048297 95.233156 
L 436.592776 95.095579 
L 437.137256 95.88097 
L 437.681736 95.026562 
L 438.226215 95.184457 
L 439.315174 94.515831 
L 439.859654 94.443179 
L 440.404133 95.060052 
L 440.948613 94.921082 
L 441.493093 94.376187 
L 442.037572 94.789438 
L 442.582052 94.432978 
L 444.75997 92.320347 
L 445.30445 92.266491 
L 445.848929 92.365995 
L 446.393409 92.266486 
L 446.937888 91.972917 
L 447.482368 91.818422 
L 448.026848 91.907844 
L 449.115807 91.093426 
L 449.660286 91.378249 
L 450.204766 91.103805 
L 450.749245 91.208289 
L 451.293725 90.732703 
L 451.838205 89.812778 
L 452.382684 90.413189 
L 452.927164 90.236 
L 454.016123 91.221308 
L 454.560602 91.929787 
L 455.105082 91.896413 
L 455.649562 92.417233 
L 456.194041 92.257847 
L 456.738521 92.567949 
L 457.283 92.189201 
L 459.460919 92.495928 
L 460.005398 92.281272 
L 460.549878 92.421564 
L 461.094357 92.170544 
L 461.638837 91.497178 
L 462.727796 91.411155 
L 463.816755 91.759002 
L 464.361235 91.346744 
L 464.905715 91.852819 
L 465.450194 92.096099 
L 465.994674 92.901557 
L 466.539153 92.418139 
L 467.628112 92.185563 
L 468.172592 92.101841 
L 469.261551 91.498629 
L 469.806031 91.953777 
L 470.35051 91.445603 
L 470.89499 91.28617 
L 471.439469 91.492537 
L 471.983949 91.446221 
L 472.528429 90.074187 
L 473.617388 88.652244 
L 474.706347 88.582079 
L 475.250827 88.134755 
L 475.795306 88.469127 
L 476.339786 88.965635 
L 476.884265 88.684421 
L 477.428745 88.573951 
L 477.973224 88.673739 
L 478.517704 88.543673 
L 479.062184 89.457256 
L 479.606663 89.3738 
L 480.151143 89.080117 
L 480.695622 88.990139 
L 481.784581 87.993473 
L 482.873541 87.20159 
L 483.41802 87.705699 
L 483.9625 87.840275 
L 484.506979 88.441835 
L 485.595939 88.066656 
L 486.140418 88.170219 
L 486.684898 88.960375 
L 487.229377 88.758323 
L 487.773857 88.429101 
L 488.318336 88.346428 
L 489.407296 87.638096 
L 489.951775 87.909127 
L 491.040734 87.734846 
L 491.585214 87.521626 
L 492.674173 87.564821 
L 493.218653 87.527421 
L 494.307612 86.714783 
L 494.852091 87.180163 
L 495.396571 86.816538 
L 495.941051 87.184269 
L 496.48553 87.058191 
L 497.03001 87.571745 
L 497.574489 87.310863 
L 498.118969 87.497455 
L 499.207928 89.102697 
L 499.752408 89.422904 
L 500.296887 89.384361 
L 501.385846 89.765985 
L 501.930326 90.097032 
L 503.019285 90.294738 
L 503.563765 90.100241 
L 504.108244 90.069439 
L 504.652724 90.48926 
L 505.197203 90.526039 
L 505.741683 90.690008 
L 506.286163 90.670075 
L 506.830642 91.002574 
L 507.375122 91.131005 
L 507.919601 91.618872 
L 508.464081 91.679976 
L 509.00856 91.023038 
L 509.55304 91.092404 
L 510.09752 90.926195 
L 510.641999 90.524226 
L 511.186479 89.87818 
L 512.275438 89.333987 
L 512.819918 89.570911 
L 513.364397 89.348524 
L 513.908877 89.550335 
L 514.453356 89.952585 
L 515.542315 90.194462 
L 516.086795 90.28144 
L 516.631275 90.112529 
L 517.175754 89.787744 
L 517.720234 89.752283 
L 519.353672 89.046714 
L 519.898152 89.372897 
L 520.442632 89.459143 
L 520.987111 89.155454 
L 522.07607 89.29259 
L 522.62055 89.115608 
L 523.16503 89.14921 
L 523.709509 88.785934 
L 524.253989 88.563167 
L 524.798468 88.103488 
L 525.342948 87.271134 
L 525.887427 87.211924 
L 526.431907 86.914867 
L 526.976387 86.748399 
L 528.609825 85.957639 
L 529.154305 86.380964 
L 529.698785 86.360933 
L 530.787744 87.350733 
L 531.332223 87.376657 
L 531.876703 87.880189 
L 532.421182 87.874663 
L 532.965662 88.088108 
L 533.510142 87.611558 
L 534.054621 87.634614 
L 534.599101 87.316218 
L 535.14358 87.642837 
L 535.68806 87.530275 
L 536.232539 87.976319 
L 536.777019 88.066241 
L 537.321499 87.483093 
L 537.865978 87.679521 
L 538.410458 87.654234 
L 538.954937 88.068491 
L 539.499417 88.306462 
L 540.043897 88.379188 
L 540.588376 88.732638 
L 541.132856 88.736457 
L 541.677335 88.39157 
L 542.221815 88.951824 
L 542.766294 88.959913 
L 543.310774 89.477929 
L 543.855254 89.282891 
L 545.488692 89.380478 
L 546.033172 89.911228 
L 546.577651 89.699974 
L 547.122131 89.938818 
L 547.666611 89.447737 
L 548.21109 89.590778 
L 548.75557 89.561986 
L 549.300049 90.107009 
L 549.844529 90.266075 
L 550.389009 90.079956 
L 550.933488 90.310844 
L 551.477968 90.05377 
L 552.022447 90.099887 
L 552.566927 90.341456 
L 553.655886 90.195367 
L 554.200366 90.218229 
L 555.289325 89.459356 
L 555.833804 89.953996 
L 556.378284 90.0735 
L 556.922764 89.814256 
L 557.467243 89.907041 
L 558.011723 89.715204 
L 558.556202 90.118128 
L 559.645161 89.644233 
L 560.189641 89.777307 
L 560.734121 90.214914 
L 561.82308 90.057045 
L 562.367559 89.872435 
L 562.912039 89.977718 
L 563.456518 89.822005 
L 564.000998 89.324582 
L 564.545478 89.516359 
L 565.089957 89.412634 
L 565.634437 89.475656 
L 566.178916 89.339024 
L 567.812355 89.477789 
L 568.356835 89.87882 
L 568.901314 89.99513 
L 569.445794 89.957906 
L 569.990273 89.787108 
L 570.534753 89.472817 
L 571.079233 89.29902 
L 571.623712 89.260045 
L 572.712671 88.390404 
L 573.80163 88.270042 
L 574.34611 88.737669 
L 574.89059 88.899625 
L 575.435069 88.224524 
L 575.979549 88.382326 
L 577.068508 89.34587 
L 578.701947 90.037067 
L 579.790906 89.801294 
L 580.335385 89.605999 
L 580.879865 90.042674 
L 581.424345 89.852211 
L 581.968824 90.282021 
L 582.513304 90.148074 
L 583.057783 89.596734 
L 584.146743 89.951386 
L 584.691222 90.011814 
L 585.235702 89.858331 
L 585.780181 89.933835 
L 586.324661 90.278196 
L 586.86914 89.820595 
L 587.9581 89.892659 
L 588.502579 89.779293 
L 589.591538 89.856844 
L 590.680497 89.663912 
L 591.769457 89.199302 
L 592.313936 88.931862 
L 592.858416 89.215527 
L 593.402895 89.302338 
L 593.947375 89.158164 
L 595.036334 89.392624 
L 595.580814 89.675762 
L 596.669773 89.088368 
L 597.214252 89.179177 
L 597.758732 89.02717 
L 598.303212 88.565048 
L 598.847691 88.361944 
L 599.392171 88.414706 
L 601.025609 87.98055 
L 602.659048 88.260461 
L 603.203528 87.986381 
L 604.292487 87.188066 
L 604.836967 87.270076 
L 605.381446 87.797491 
L 605.925926 87.757637 
L 606.470405 87.949496 
L 607.014885 87.892283 
L 607.559364 87.608257 
L 608.103844 87.771955 
L 608.648324 88.204291 
L 609.192803 88.173493 
L 609.737283 88.030886 
L 610.281762 87.58271 
L 611.370721 87.947235 
L 612.459681 87.772144 
L 613.00416 87.38152 
L 613.54864 87.45959 
L 614.093119 87.367107 
L 614.637599 87.403936 
L 615.182079 87.301578 
L 616.271038 86.405002 
L 616.815517 86.476401 
L 617.359997 86.068678 
L 617.904476 85.827998 
L 618.448956 86.338033 
L 620.082395 87.230596 
L 620.626874 87.189511 
L 622.260313 87.597466 
L 622.804793 87.537837 
L 623.349272 87.315094 
L 623.893752 87.308148 
L 624.438231 87.187312 
L 624.982711 87.299182 
L 625.527191 87.699413 
L 626.07167 87.930989 
L 626.61615 87.834199 
L 627.160629 87.564381 
L 628.249588 87.759582 
L 629.338548 88.515785 
L 629.883027 88.376653 
L 630.427507 89.266949 
L 630.971986 89.61379 
L 631.516466 89.490692 
L 632.060946 88.935452 
L 632.605425 89.090898 
L 633.149905 88.937341 
L 633.694384 89.169373 
L 634.238864 89.093776 
L 634.783343 89.378342 
L 635.327823 89.149706 
L 635.872303 89.167261 
L 636.416782 88.99435 
L 636.961262 89.120357 
L 637.505741 88.931975 
L 638.050221 88.871056 
L 638.5947 89.297257 
L 639.13918 89.523468 
L 639.68366 90.142352 
L 640.228139 90.001838 
L 640.772619 90.043593 
L 641.317098 89.532311 
L 641.861578 89.803837 
L 642.406058 89.726077 
L 642.950537 89.518262 
L 644.039496 89.265454 
L 644.583976 89.13109 
L 645.672935 88.58467 
L 646.761894 88.584865 
L 647.306374 88.442012 
L 647.850853 87.904734 
L 648.395333 88.102414 
L 648.939813 87.79906 
L 650.028772 87.658159 
L 650.573251 87.961502 
L 651.117731 87.944796 
L 651.66221 88.108887 
L 653.295649 88.100056 
L 653.840129 88.408064 
L 654.929088 87.838076 
L 656.018047 88.515955 
L 656.562527 88.275355 
L 657.651486 88.141979 
L 658.195965 87.859612 
L 658.740445 87.914027 
L 659.284925 88.450271 
L 659.829404 88.385711 
L 660.373884 88.093764 
L 661.462843 88.4805 
L 662.007322 88.941319 
L 662.551802 89.052923 
L 663.096282 88.800068 
L 663.640761 88.404111 
L 664.185241 88.663831 
L 664.72972 88.441608 
L 665.818679 89.082677 
L 666.907639 88.654626 
L 667.452118 88.834087 
L 669.085557 88.448919 
L 669.630037 89.104169 
L 670.718996 89.243566 
L 671.263475 89.483879 
L 671.807955 89.533613 
L 672.896914 89.942154 
L 673.441394 89.694744 
L 673.985873 89.896812 
L 675.074832 89.340787 
L 675.619312 89.60602 
L 676.163792 89.581938 
L 676.708271 89.131248 
L 677.79723 88.859656 
L 678.886189 88.447539 
L 679.430669 88.041499 
L 679.975149 88.388021 
L 680.519628 88.302464 
L 682.153067 88.525178 
L 683.786506 88.946205 
L 684.330985 89.357649 
L 684.875465 89.391614 
L 685.419944 89.656135 
L 686.508904 89.690392 
L 687.053383 89.885919 
L 688.142342 89.799859 
L 690.320261 90.539421 
L 690.86474 90.713645 
L 691.40922 91.085801 
L 691.953699 91.321701 
L 692.498179 91.421575 
L 693.042658 91.167006 
L 694.131618 91.679193 
L 694.676097 91.733003 
L 695.220577 91.413211 
L 695.765056 91.470941 
L 696.309536 91.652214 
L 696.854016 91.321388 
L 697.398495 91.281698 
L 697.942975 91.483508 
L 698.487454 91.434902 
L 699.031934 91.542409 
L 699.576413 91.253166 
L 701.209852 91.837396 
L 701.754332 91.738327 
L 702.298811 92.030061 
L 703.93225 92.329046 
L 705.021209 92.012202 
L 705.565689 92.049068 
L 706.110168 91.735806 
L 707.199128 91.435494 
L 707.743607 91.691181 
L 708.288087 91.569743 
L 708.832566 91.813151 
L 709.377046 91.817112 
L 711.010485 92.323447 
L 711.554964 92.614468 
L 712.099444 92.423555 
L 712.643923 92.671748 
L 715.366321 92.142464 
L 715.910801 92.329873 
L 716.45528 92.185489 
L 716.99976 92.255661 
L 716.99976 92.255661 
" clip-path="url(#pa5e8797aaf)" style="fill: none; stroke: #faa689; stroke-width: 2; stroke-linecap: square"/>
   </g>
   <g id="line2d_24">
    <path d="M 308.640075 89.418331 
L 309.184555 66.816068 
L 309.729034 49.578765 
L 310.273514 39.047147 
L 310.817993 35.645415 
L 311.362473 30.163066 
L 311.906953 30.373488 
L 312.451432 26.961454 
L 312.995912 26.945852 
L 313.540391 27.61111 
L 314.084871 31.738312 
L 314.62935 29.900319 
L 315.17383 25.77768 
L 315.71831 26.490748 
L 316.807269 23.453649 
L 317.351748 22.701614 
L 317.896228 23.505068 
L 318.440708 22.292958 
L 318.985187 19.889384 
L 319.529667 18.811805 
L 320.074146 18.938695 
L 320.618626 18.817463 
L 321.163105 21.193458 
L 321.707585 21.571883 
L 322.252065 20.652513 
L 322.796544 21.444489 
L 323.341024 21.663055 
L 323.885503 21.08651 
L 324.429983 21.72124 
L 324.974462 21.853968 
L 326.063422 20.483795 
L 326.607901 21.003666 
L 327.152381 21.110027 
L 327.69686 21.772797 
L 328.78582 24.81976 
L 329.330299 25.765952 
L 329.874779 27.172441 
L 330.419258 29.900114 
L 330.963738 28.956709 
L 332.052697 29.980288 
L 332.597177 29.181438 
L 333.686136 32.274965 
L 334.230615 31.396576 
L 334.775095 32.675466 
L 335.319574 33.066984 
L 335.864054 33.251218 
L 336.408534 34.459422 
L 336.953013 35.390479 
L 337.497493 35.066431 
L 338.041972 35.985402 
L 338.586452 35.557272 
L 339.130932 36.00476 
L 339.675411 37.223169 
L 340.219891 39.003742 
L 340.76437 39.988988 
L 341.30885 41.674907 
L 341.853329 42.320156 
L 342.942289 40.296085 
L 343.486768 40.490636 
L 344.031248 41.439221 
L 344.575727 41.229794 
L 345.120207 41.519419 
L 345.664686 41.550616 
L 346.209166 41.892191 
L 347.298125 43.474647 
L 349.476044 45.471073 
L 350.020523 45.264822 
L 350.565003 45.925565 
L 351.109482 46.317708 
L 351.653962 47.379979 
L 352.198441 46.039326 
L 352.742921 46.560558 
L 353.287401 46.779475 
L 354.37636 48.214713 
L 354.920839 48.640229 
L 355.465319 49.628943 
L 356.009799 51.214537 
L 357.098758 51.443501 
L 357.643237 51.565376 
L 358.187717 52.856772 
L 359.276676 53.83161 
L 359.821156 54.047741 
L 360.365635 54.909659 
L 361.454594 57.570514 
L 361.999074 58.324865 
L 362.543553 57.974679 
L 363.088033 58.039969 
L 363.632513 58.970121 
L 364.721472 62.031544 
L 365.265951 61.596474 
L 366.354911 61.314107 
L 366.89939 60.430479 
L 367.44387 60.459763 
L 367.988349 60.95239 
L 368.532829 61.248913 
L 369.077308 61.316306 
L 369.621788 60.829676 
L 370.166268 61.392592 
L 370.710747 61.642831 
L 371.255227 62.201373 
L 371.799706 63.188654 
L 372.344186 63.00206 
L 372.888665 64.209538 
L 373.433145 65.821718 
L 373.977625 65.888677 
L 375.066584 66.620691 
L 375.611063 66.847447 
L 376.155543 66.769629 
L 377.244502 68.068125 
L 378.333461 68.238219 
L 378.877941 68.311708 
L 379.42242 69.303316 
L 379.9669 69.277435 
L 380.51138 68.766224 
L 381.055859 68.885159 
L 381.600339 69.15244 
L 382.144818 69.239552 
L 382.689298 68.828774 
L 383.233778 69.26598 
L 383.778257 69.223699 
L 384.322737 69.328949 
L 384.867216 69.283818 
L 385.411696 69.050344 
L 385.956175 68.957547 
L 386.500655 69.85984 
L 387.045135 69.902926 
L 387.589614 69.567277 
L 388.134094 69.064933 
L 389.223053 68.913096 
L 389.767532 69.666721 
L 390.312012 69.270979 
L 390.856492 69.509319 
L 391.400971 68.624742 
L 391.945451 68.523575 
L 392.48993 68.936445 
L 393.03441 70.287442 
L 393.57889 70.002808 
L 394.123369 70.547764 
L 394.667849 70.644973 
L 395.212328 70.587589 
L 396.301287 69.299268 
L 396.845767 69.237206 
L 397.934726 69.762549 
L 398.479206 69.714321 
L 399.023685 70.119855 
L 399.568165 70.274982 
L 400.112644 70.8099 
L 401.201604 71.193875 
L 401.746083 71.181784 
L 402.290563 70.658124 
L 403.924002 71.752349 
L 404.468481 71.837917 
L 405.012961 71.409891 
L 405.55744 72.315541 
L 406.10192 72.435692 
L 407.190879 72.058157 
L 408.824318 73.757043 
L 409.368797 74.168487 
L 409.913277 73.940916 
L 411.546716 75.775545 
L 412.091195 75.941168 
L 413.180154 75.505549 
L 413.724634 75.891069 
L 414.269114 75.294571 
L 414.813593 75.326452 
L 415.358073 74.408869 
L 415.902552 75.021322 
L 416.447032 74.619192 
L 416.991511 74.564542 
L 417.535991 75.054385 
L 418.080471 75.17949 
L 418.62495 74.521807 
L 419.16943 74.396873 
L 420.258389 74.412716 
L 420.802869 74.789265 
L 421.347348 75.553165 
L 421.891828 75.292731 
L 422.436307 75.806445 
L 422.980787 75.414371 
L 423.525266 75.443891 
L 424.069746 76.310939 
L 424.614226 76.192356 
L 425.158705 76.773162 
L 425.703185 76.627787 
L 426.247664 76.719268 
L 426.792144 76.970557 
L 427.881103 78.214362 
L 428.425583 78.584574 
L 428.970062 78.589116 
L 429.514542 78.809334 
L 430.059021 79.20111 
L 430.603501 79.132865 
L 431.147981 78.769834 
L 431.69246 78.865982 
L 432.23694 78.468768 
L 432.781419 78.466701 
L 433.325899 78.135143 
L 433.870378 78.720767 
L 434.959338 78.774266 
L 436.048297 79.559233 
L 436.592776 79.621449 
L 437.137256 80.602435 
L 437.681736 79.88115 
L 438.226215 80.402867 
L 438.770695 80.475772 
L 439.315174 80.095681 
L 439.859654 80.2324 
L 440.404133 81.073796 
L 440.948613 81.148066 
L 441.493093 80.501989 
L 442.037572 81.060998 
L 443.671011 80.439266 
L 444.21549 80.077885 
L 444.75997 79.523277 
L 446.393409 79.967043 
L 446.937888 79.664349 
L 448.571327 79.504677 
L 449.115807 79.18795 
L 449.660286 79.474689 
L 450.204766 79.244888 
L 450.749245 79.706446 
L 451.838205 78.46204 
L 452.382684 79.152393 
L 452.927164 79.30858 
L 453.471643 80.014274 
L 454.016123 80.41119 
L 454.560602 81.238622 
L 455.105082 81.350428 
L 455.649562 81.862433 
L 456.194041 81.969982 
L 456.738521 82.473094 
L 457.283 82.35556 
L 458.37196 83.057876 
L 458.916439 83.459645 
L 459.460919 83.373198 
L 460.005398 83.012908 
L 460.549878 83.063923 
L 461.638837 82.715075 
L 462.183317 82.470394 
L 462.727796 82.687356 
L 463.272276 82.725247 
L 463.816755 83.074791 
L 464.361235 82.760617 
L 464.905715 83.316083 
L 465.450194 83.682105 
L 465.994674 84.233579 
L 466.539153 83.827322 
L 467.628112 84.272326 
L 469.261551 83.734508 
L 469.806031 84.323332 
L 470.35051 83.777134 
L 470.89499 83.656799 
L 471.983949 84.192042 
L 472.528429 83.146638 
L 473.072908 82.883838 
L 473.617388 82.413584 
L 474.161867 82.49927 
L 474.706347 82.413014 
L 475.250827 82.054457 
L 475.795306 82.193567 
L 476.339786 82.936394 
L 476.884265 83.127077 
L 477.428745 83.001511 
L 477.973224 83.097883 
L 478.517704 83.039737 
L 479.062184 83.638453 
L 479.606663 83.80428 
L 480.151143 83.422523 
L 480.695622 83.421369 
L 481.240102 83.245285 
L 482.873541 82.304394 
L 483.41802 82.910095 
L 483.9625 82.981091 
L 484.506979 83.60887 
L 485.051459 83.383231 
L 485.595939 82.973767 
L 486.140418 83.118733 
L 486.684898 83.648279 
L 487.229377 83.625955 
L 487.773857 83.024264 
L 488.318336 83.00066 
L 489.407296 82.449216 
L 489.951775 82.950303 
L 490.496255 82.952374 
L 491.585214 82.305317 
L 492.674173 82.573127 
L 493.763132 82.426098 
L 494.307612 82.086071 
L 494.852091 82.45285 
L 495.396571 81.968971 
L 495.941051 82.546898 
L 496.48553 82.555362 
L 497.03001 83.289927 
L 497.574489 82.850208 
L 498.118969 83.022009 
L 499.207928 84.830619 
L 499.752408 85.182499 
L 500.296887 85.176819 
L 501.385846 85.520349 
L 502.474806 86.038305 
L 503.019285 86.143302 
L 503.563765 86.036683 
L 504.108244 86.077342 
L 504.652724 86.458546 
L 505.197203 86.588843 
L 505.741683 87.009103 
L 507.375122 87.561827 
L 507.919601 88.162522 
L 508.464081 88.356662 
L 509.00856 87.650928 
L 509.55304 87.85485 
L 510.09752 87.79989 
L 510.641999 87.440383 
L 511.186479 86.911577 
L 512.275438 86.566316 
L 512.819918 86.935751 
L 513.364397 87.006605 
L 513.908877 87.280034 
L 514.453356 87.847278 
L 514.997836 88.203802 
L 516.086795 88.54848 
L 516.631275 88.257092 
L 517.175754 88.176633 
L 517.720234 88.24091 
L 518.809193 87.995613 
L 519.353672 87.677151 
L 519.898152 88.064112 
L 520.442632 88.121384 
L 520.987111 88.047952 
L 522.07607 88.479008 
L 522.62055 88.219541 
L 523.16503 88.135225 
L 523.709509 87.764566 
L 524.253989 87.750237 
L 524.798468 87.266844 
L 525.342948 86.582036 
L 526.431907 86.131712 
L 526.976387 86.132066 
L 527.520866 85.974875 
L 528.065346 85.522731 
L 528.609825 85.269737 
L 529.154305 85.731594 
L 529.698785 85.83985 
L 530.787744 86.397688 
L 531.332223 86.063993 
L 531.876703 86.369652 
L 532.421182 86.534711 
L 532.965662 86.310562 
L 533.510142 85.910014 
L 534.054621 85.984816 
L 534.599101 85.787397 
L 535.14358 86.123531 
L 535.68806 86.141501 
L 536.232539 86.47177 
L 536.777019 86.490217 
L 537.321499 86.193761 
L 537.865978 86.449854 
L 538.410458 86.329667 
L 538.954937 86.328258 
L 540.043897 86.683464 
L 540.588376 87.256045 
L 541.132856 87.273892 
L 541.677335 87.067733 
L 542.221815 87.655756 
L 542.766294 87.574593 
L 543.310774 88.037167 
L 543.855254 87.805185 
L 544.399733 88.068343 
L 544.944213 88.146171 
L 545.488692 87.850839 
L 546.033172 88.234478 
L 546.577651 88.003037 
L 547.122131 88.192927 
L 547.666611 87.876452 
L 548.21109 88.267621 
L 548.75557 88.186648 
L 549.300049 88.676061 
L 550.933488 89.006059 
L 551.477968 88.682028 
L 553.111406 88.545681 
L 553.655886 88.249292 
L 554.200366 88.484854 
L 554.744845 88.263464 
L 555.289325 87.90525 
L 555.833804 88.371884 
L 556.378284 88.510597 
L 556.922764 88.211072 
L 557.467243 88.199018 
L 558.011723 87.916896 
L 558.556202 88.309352 
L 559.645161 87.857138 
L 560.189641 88.020108 
L 560.734121 88.475991 
L 561.2786 88.327952 
L 561.82308 88.340315 
L 562.367559 88.044867 
L 562.912039 88.115491 
L 563.456518 88.070686 
L 564.000998 87.474192 
L 564.545478 87.447118 
L 565.089957 87.21687 
L 565.634437 87.59054 
L 567.267876 87.704634 
L 567.812355 87.936633 
L 568.356835 88.301154 
L 568.901314 88.505082 
L 569.445794 88.546959 
L 569.990273 88.328006 
L 570.534753 87.97258 
L 571.079233 87.75301 
L 571.623712 87.950207 
L 572.168192 87.75702 
L 572.712671 87.445465 
L 573.257151 87.419609 
L 574.89059 88.159468 
L 575.435069 87.603535 
L 575.979549 87.69313 
L 577.068508 88.522961 
L 579.246426 89.468949 
L 580.335385 88.782505 
L 580.879865 89.258363 
L 581.424345 89.121538 
L 581.968824 89.416951 
L 582.513304 89.188276 
L 583.057783 88.780598 
L 584.146743 89.056908 
L 585.780181 89.343182 
L 586.324661 89.868932 
L 586.86914 89.420178 
L 587.9581 89.648023 
L 589.047059 89.52205 
L 589.591538 89.702484 
L 590.136018 89.528482 
L 590.680497 89.209671 
L 591.769457 89.247458 
L 592.313936 88.894034 
L 593.402895 89.392083 
L 593.947375 89.263694 
L 595.036334 89.451494 
L 595.580814 89.59087 
L 596.669773 88.90087 
L 597.214252 89.012213 
L 597.758732 88.949341 
L 598.303212 88.522126 
L 598.847691 88.252141 
L 599.392171 88.35852 
L 600.48113 87.945968 
L 601.025609 87.839372 
L 602.114569 88.125353 
L 602.659048 88.32365 
L 603.203528 88.146594 
L 604.292487 87.2434 
L 604.836967 87.297721 
L 605.381446 87.84562 
L 605.925926 87.933505 
L 606.470405 88.207229 
L 608.103844 88.125633 
L 608.648324 88.478638 
L 609.192803 88.559126 
L 609.737283 88.406406 
L 610.281762 87.904176 
L 610.826242 88.215689 
L 611.370721 88.363315 
L 613.00416 87.833476 
L 613.54864 88.011634 
L 614.093119 87.893856 
L 614.637599 87.926005 
L 615.182079 87.813033 
L 616.271038 86.981048 
L 616.815517 87.113962 
L 617.359997 86.712777 
L 617.904476 86.697213 
L 618.993436 87.377801 
L 619.537915 87.467324 
L 620.082395 87.85951 
L 620.626874 87.765097 
L 621.715834 88.274121 
L 622.804793 88.357938 
L 623.349272 88.105908 
L 623.893752 88.062995 
L 624.438231 87.901277 
L 626.07167 88.634659 
L 626.61615 88.587722 
L 627.160629 88.376584 
L 627.705109 88.408905 
L 628.794068 88.796556 
L 629.338548 89.22022 
L 629.883027 89.055181 
L 630.427507 89.889934 
L 630.971986 90.021183 
L 631.516466 89.880665 
L 632.060946 89.372451 
L 632.605425 89.587983 
L 633.149905 89.682587 
L 633.694384 89.8933 
L 634.238864 89.844316 
L 634.783343 90.091199 
L 635.327823 89.971186 
L 635.872303 89.966001 
L 636.416782 89.555579 
L 636.961262 89.456435 
L 638.050221 88.943727 
L 639.68366 90.132974 
L 640.228139 90.063577 
L 640.772619 90.202971 
L 641.317098 89.743551 
L 641.861578 90.141752 
L 642.406058 89.974451 
L 642.950537 89.481553 
L 645.672935 88.772739 
L 646.761894 88.864395 
L 647.306374 88.800807 
L 647.850853 88.234641 
L 648.395333 88.367679 
L 648.939813 88.119582 
L 650.028772 88.002461 
L 652.20669 88.572235 
L 653.295649 88.690603 
L 653.840129 88.916299 
L 654.384608 88.566696 
L 654.929088 88.464096 
L 656.018047 89.091394 
L 656.562527 88.777721 
L 657.651486 88.446971 
L 658.195965 88.173804 
L 658.740445 88.156397 
L 659.284925 88.550229 
L 659.829404 88.496024 
L 660.373884 88.224069 
L 662.551802 88.865704 
L 663.640761 88.266851 
L 664.185241 88.320053 
L 664.72972 87.828641 
L 665.818679 88.533146 
L 666.907639 88.237111 
L 667.452118 88.453102 
L 669.085557 88.462349 
L 669.630037 88.915758 
L 670.718996 88.751345 
L 671.263475 89.157339 
L 671.807955 89.217049 
L 672.896914 89.612856 
L 673.441394 89.370937 
L 673.985873 89.627962 
L 674.530353 89.511508 
L 675.074832 89.23009 
L 675.619312 89.450863 
L 676.163792 89.480226 
L 676.708271 88.838355 
L 678.34171 88.391297 
L 678.886189 88.529692 
L 679.430669 88.020244 
L 679.975149 88.09578 
L 680.519628 87.929653 
L 682.153067 88.07703 
L 682.697546 87.990413 
L 683.242026 88.230136 
L 683.786506 88.305323 
L 684.330985 88.789679 
L 684.875465 88.836251 
L 685.419944 89.090662 
L 685.964424 88.883458 
L 687.053383 89.381969 
L 687.597863 89.267261 
L 688.142342 89.311749 
L 692.498179 90.692945 
L 693.042658 90.599824 
L 694.131618 91.127548 
L 694.676097 91.235499 
L 695.220577 90.759479 
L 695.765056 90.753605 
L 696.309536 90.888086 
L 696.854016 90.541176 
L 697.398495 90.578921 
L 697.942975 90.858213 
L 698.487454 90.710097 
L 699.031934 90.97544 
L 699.576413 90.774732 
L 701.209852 91.227089 
L 701.754332 91.129666 
L 702.298811 91.443776 
L 702.843291 91.431653 
L 703.93225 91.808759 
L 705.021209 91.406016 
L 705.565689 91.358128 
L 706.110168 90.89103 
L 706.654648 90.823633 
L 707.199128 90.547782 
L 707.743607 90.862627 
L 708.288087 90.781528 
L 708.832566 91.011873 
L 709.377046 90.966186 
L 709.921525 91.175054 
L 710.466005 91.198895 
L 711.010485 91.66978 
L 711.554964 91.858214 
L 712.099444 91.833073 
L 712.643923 92.088166 
L 714.277362 91.835174 
L 714.821842 91.914298 
L 715.366321 91.667105 
L 715.910801 91.882291 
L 716.99976 91.786617 
L 716.99976 91.786617 
" clip-path="url(#pa5e8797aaf)" style="fill: none; stroke: #f54d3b; stroke-width: 2; stroke-linecap: square"/>
   </g>
   <g id="line2d_25"/>
   <g id="line2d_26"/>
   <g id="patch_9">
    <path d="M 305.917677 108.681635 
L 305.917677 6.418956 
" style="fill: none; stroke: #000000; stroke-width: 0.8; stroke-linejoin: miter; stroke-linecap: square"/>
   </g>
   <g id="patch_10">
    <path d="M 716.99976 108.681635 
L 716.99976 6.418956 
" style="fill: none; stroke: #000000; stroke-width: 0.8; stroke-linejoin: miter; stroke-linecap: square"/>
   </g>
   <g id="patch_11">
    <path d="M 305.917677 108.681635 
L 716.99976 108.681635 
" style="fill: none; stroke: #000000; stroke-width: 0.8; stroke-linejoin: miter; stroke-linecap: square"/>
   </g>
   <g id="patch_12">
    <path d="M 305.917677 6.418956 
L 716.99976 6.418956 
" style="fill: none; stroke: #000000; stroke-width: 0.8; stroke-linejoin: miter; stroke-linecap: square"/>
   </g>
   <g id="legend_2">
    <g id="patch_13">
     <path d="M 583.154447 58.453331 
L 709.99976 58.453331 
Q 711.99976 58.453331 711.99976 56.453331 
L 711.99976 13.418956 
Q 711.99976 11.418956 709.99976 11.418956 
L 583.154447 11.418956 
Q 581.154447 11.418956 581.154447 13.418956 
L 581.154447 56.453331 
Q 581.154447 58.453331 583.154447 58.453331 
z
" style="fill: #ffffff; opacity: 0.8; stroke: #cccccc; stroke-linejoin: miter"/>
    </g>
    <g id="line2d_27">
     <path d="M 585.154447 19.517393 
L 595.154447 19.517393 
L 605.154447 19.517393 
" style="fill: none; stroke: #6ac8ac; stroke-width: 2; stroke-linecap: square"/>
    </g>
    <g id="text_31">
     <!-- In ditribution -->
     <g transform="translate(613.154447 23.017393) scale(0.1 -0.1)">
      <defs>
       <path id="DejaVuSans-49" d="M 628 4666 
L 1259 4666 
L 1259 0 
L 628 0 
L 628 4666 
z
" transform="scale(0.015625)"/>
       <path id="DejaVuSans-6e" d="M 3513 2113 
L 3513 0 
L 2938 0 
L 2938 2094 
Q 2938 2591 2744 2837 
Q 2550 3084 2163 3084 
Q 1697 3084 1428 2787 
Q 1159 2491 1159 1978 
L 1159 0 
L 581 0 
L 581 3500 
L 1159 3500 
L 1159 2956 
Q 1366 3272 1645 3428 
Q 1925 3584 2291 3584 
Q 2894 3584 3203 3211 
Q 3513 2838 3513 2113 
z
" transform="scale(0.015625)"/>
       <path id="DejaVuSans-69" d="M 603 3500 
L 1178 3500 
L 1178 0 
L 603 0 
L 603 3500 
z
M 603 4863 
L 1178 4863 
L 1178 4134 
L 603 4134 
L 603 4863 
z
" transform="scale(0.015625)"/>
       <path id="DejaVuSans-62" d="M 3116 1747 
Q 3116 2381 2855 2742 
Q 2594 3103 2138 3103 
Q 1681 3103 1420 2742 
Q 1159 2381 1159 1747 
Q 1159 1113 1420 752 
Q 1681 391 2138 391 
Q 2594 391 2855 752 
Q 3116 1113 3116 1747 
z
M 1159 2969 
Q 1341 3281 1617 3432 
Q 1894 3584 2278 3584 
Q 2916 3584 3314 3078 
Q 3713 2572 3713 1747 
Q 3713 922 3314 415 
Q 2916 -91 2278 -91 
Q 1894 -91 1617 61 
Q 1341 213 1159 525 
L 1159 0 
L 581 0 
L 581 4863 
L 1159 4863 
L 1159 2969 
z
" transform="scale(0.015625)"/>
      </defs>
      <use xlink:href="#DejaVuSans-49"/>
      <use xlink:href="#DejaVuSans-6e" x="29.492188"/>
      <use xlink:href="#DejaVuSans-20" x="92.871094"/>
      <use xlink:href="#DejaVuSans-64" x="124.658203"/>
      <use xlink:href="#DejaVuSans-69" x="188.134766"/>
      <use xlink:href="#DejaVuSans-74" x="215.917969"/>
      <use xlink:href="#DejaVuSans-72" x="255.126953"/>
      <use xlink:href="#DejaVuSans-69" x="296.240234"/>
      <use xlink:href="#DejaVuSans-62" x="324.023438"/>
      <use xlink:href="#DejaVuSans-75" x="387.5"/>
      <use xlink:href="#DejaVuSans-74" x="450.878906"/>
      <use xlink:href="#DejaVuSans-69" x="490.087891"/>
      <use xlink:href="#DejaVuSans-6f" x="517.871094"/>
      <use xlink:href="#DejaVuSans-6e" x="579.052734"/>
     </g>
    </g>
    <g id="line2d_28">
     <path d="M 585.154447 34.195518 
L 595.154447 34.195518 
L 605.154447 34.195518 
" style="fill: none; stroke: #faa689; stroke-width: 1.5; stroke-linecap: square"/>
    </g>
    <g id="text_32">
     <!-- Severity 1 (bright.) -->
     <g transform="translate(613.154447 37.695518) scale(0.1 -0.1)">
      <defs>
       <path id="DejaVuSans-76" d="M 191 3500 
L 800 3500 
L 1894 563 
L 2988 3500 
L 3597 3500 
L 2284 0 
L 1503 0 
L 191 3500 
z
" transform="scale(0.015625)"/>
       <path id="DejaVuSans-79" d="M 2059 -325 
Q 1816 -950 1584 -1140 
Q 1353 -1331 966 -1331 
L 506 -1331 
L 506 -850 
L 844 -850 
Q 1081 -850 1212 -737 
Q 1344 -625 1503 -206 
L 1606 56 
L 191 3500 
L 800 3500 
L 1894 763 
L 2988 3500 
L 3597 3500 
L 2059 -325 
z
" transform="scale(0.015625)"/>
       <path id="DejaVuSans-67" d="M 2906 1791 
Q 2906 2416 2648 2759 
Q 2391 3103 1925 3103 
Q 1463 3103 1205 2759 
Q 947 2416 947 1791 
Q 947 1169 1205 825 
Q 1463 481 1925 481 
Q 2391 481 2648 825 
Q 2906 1169 2906 1791 
z
M 3481 434 
Q 3481 -459 3084 -895 
Q 2688 -1331 1869 -1331 
Q 1566 -1331 1297 -1286 
Q 1028 -1241 775 -1147 
L 775 -588 
Q 1028 -725 1275 -790 
Q 1522 -856 1778 -856 
Q 2344 -856 2625 -561 
Q 2906 -266 2906 331 
L 2906 616 
Q 2728 306 2450 153 
Q 2172 0 1784 0 
Q 1141 0 747 490 
Q 353 981 353 1791 
Q 353 2603 747 3093 
Q 1141 3584 1784 3584 
Q 2172 3584 2450 3431 
Q 2728 3278 2906 2969 
L 2906 3500 
L 3481 3500 
L 3481 434 
z
" transform="scale(0.015625)"/>
      </defs>
      <use xlink:href="#DejaVuSans-53"/>
      <use xlink:href="#DejaVuSans-65" x="63.476562"/>
      <use xlink:href="#DejaVuSans-76" x="125"/>
      <use xlink:href="#DejaVuSans-65" x="184.179688"/>
      <use xlink:href="#DejaVuSans-72" x="245.703125"/>
      <use xlink:href="#DejaVuSans-69" x="286.816406"/>
      <use xlink:href="#DejaVuSans-74" x="314.599609"/>
      <use xlink:href="#DejaVuSans-79" x="353.808594"/>
      <use xlink:href="#DejaVuSans-20" x="412.988281"/>
      <use xlink:href="#DejaVuSans-31" x="444.775391"/>
      <use xlink:href="#DejaVuSans-20" x="508.398438"/>
      <use xlink:href="#DejaVuSans-28" x="540.185547"/>
      <use xlink:href="#DejaVuSans-62" x="579.199219"/>
      <use xlink:href="#DejaVuSans-72" x="642.675781"/>
      <use xlink:href="#DejaVuSans-69" x="683.789062"/>
      <use xlink:href="#DejaVuSans-67" x="711.572266"/>
      <use xlink:href="#DejaVuSans-68" x="775.048828"/>
      <use xlink:href="#DejaVuSans-74" x="838.427734"/>
      <use xlink:href="#DejaVuSans-2e" x="877.636719"/>
      <use xlink:href="#DejaVuSans-29" x="909.423828"/>
     </g>
    </g>
    <g id="line2d_29">
     <path d="M 585.154447 48.873643 
L 595.154447 48.873643 
L 605.154447 48.873643 
" style="fill: none; stroke: #f54d3b; stroke-width: 1.5; stroke-linecap: square"/>
    </g>
    <g id="text_33">
     <!-- Severity 5 (bright.) -->
     <g transform="translate(613.154447 52.373643) scale(0.1 -0.1)">
      <use xlink:href="#DejaVuSans-53"/>
      <use xlink:href="#DejaVuSans-65" x="63.476562"/>
      <use xlink:href="#DejaVuSans-76" x="125"/>
      <use xlink:href="#DejaVuSans-65" x="184.179688"/>
      <use xlink:href="#DejaVuSans-72" x="245.703125"/>
      <use xlink:href="#DejaVuSans-69" x="286.816406"/>
      <use xlink:href="#DejaVuSans-74" x="314.599609"/>
      <use xlink:href="#DejaVuSans-79" x="353.808594"/>
      <use xlink:href="#DejaVuSans-20" x="412.988281"/>
      <use xlink:href="#DejaVuSans-35" x="444.775391"/>
      <use xlink:href="#DejaVuSans-20" x="508.398438"/>
      <use xlink:href="#DejaVuSans-28" x="540.185547"/>
      <use xlink:href="#DejaVuSans-62" x="579.199219"/>
      <use xlink:href="#DejaVuSans-72" x="642.675781"/>
      <use xlink:href="#DejaVuSans-69" x="683.789062"/>
      <use xlink:href="#DejaVuSans-67" x="711.572266"/>
      <use xlink:href="#DejaVuSans-68" x="775.048828"/>
      <use xlink:href="#DejaVuSans-74" x="838.427734"/>
      <use xlink:href="#DejaVuSans-2e" x="877.636719"/>
      <use xlink:href="#DejaVuSans-29" x="909.423828"/>
     </g>
    </g>
   </g>
  </g>
 </g>
 <defs>
  <clipPath id="p1736a3a233">
   <rect x="34.64274" y="6.418956" width="102.770521" height="102.262679"/>
  </clipPath>
  <clipPath id="pa5e8797aaf">
   <rect x="305.917677" y="6.418956" width="411.082083" height="102.262679"/>
  </clipPath>
 </defs>
</svg>
