<?xml version="1.0" encoding="utf-8" standalone="no"?>
<!DOCTYPE svg PUBLIC "-//W3C//DTD SVG 1.1//EN"
  "http://www.w3.org/Graphics/SVG/1.1/DTD/svg11.dtd">
<svg xmlns:xlink="http://www.w3.org/1999/xlink" width="720pt" height="216pt" viewBox="0 0 720 216" xmlns="http://www.w3.org/2000/svg" version="1.1">
 <metadata>
  <rdf:RDF xmlns:dc="http://purl.org/dc/elements/1.1/" xmlns:cc="http://creativecommons.org/ns#" xmlns:rdf="http://www.w3.org/1999/02/22-rdf-syntax-ns#">
   <cc:Work>
    <dc:type rdf:resource="http://purl.org/dc/dcmitype/StillImage"/>
    <dc:date>2024-06-30T13:28:03.590245</dc:date>
    <dc:format>image/svg+xml</dc:format>
    <dc:creator>
     <cc:Agent>
      <dc:title>Matplotlib v3.7.3, https://matplotlib.org/</dc:title>
     </cc:Agent>
    </dc:creator>
   </cc:Work>
  </rdf:RDF>
 </metadata>
 <defs>
  <style type="text/css">*{stroke-linejoin: round; stroke-linecap: butt}</style>
 </defs>
 <g id="figure_1">
  <g id="patch_1">
   <path d="M 0 216 
L 720 216 
L 720 0 
L 0 0 
z
" style="fill: #ffffff"/>
  </g>
  <g id="axes_1">
   <g id="patch_2">
    <path d="M 90 192.24 
L 362.195122 192.24 
L 362.195122 25.92 
L 90 25.92 
z
" style="fill: #ffffff"/>
   </g>
   <g id="PolyCollection_1"/>
   <g id="PolyCollection_2"/>
   <g id="PolyCollection_3"/>
   <g id="PolyCollection_4"/>
   <g id="PolyCollection_5"/>
   <g id="PolyCollection_6"/>
   <g id="PolyCollection_7"/>
   <g id="matplotlib.axis_1">
    <g id="xtick_1">
     <g id="line2d_1">
      <defs>
       <path id="mc0ab5b847f" d="M 0 0 
L 0 3.5 
" style="stroke: #000000; stroke-width: 0.8"/>
      </defs>
      <g>
       <use xlink:href="#mc0ab5b847f" x="102.368716" y="192.24" style="stroke: #000000; stroke-width: 0.8"/>
      </g>
     </g>
     <g id="text_1">
      <!-- 0 -->
      <g transform="translate(99.187466 206.838437) scale(0.1 -0.1)">
       <defs>
        <path id="DejaVuSans-30" d="M 2034 4250 
Q 1547 4250 1301 3770 
Q 1056 3291 1056 2328 
Q 1056 1369 1301 889 
Q 1547 409 2034 409 
Q 2525 409 2770 889 
Q 3016 1369 3016 2328 
Q 3016 3291 2770 3770 
Q 2525 4250 2034 4250 
z
M 2034 4750 
Q 2819 4750 3233 4129 
Q 3647 3509 3647 2328 
Q 3647 1150 3233 529 
Q 2819 -91 2034 -91 
Q 1250 -91 836 529 
Q 422 1150 422 2328 
Q 422 3509 836 4129 
Q 1250 4750 2034 4750 
z
" transform="scale(0.015625)"/>
       </defs>
       <use xlink:href="#DejaVuSans-30"/>
      </g>
     </g>
    </g>
    <g id="xtick_2">
     <g id="line2d_2">
      <g>
       <use xlink:href="#mc0ab5b847f" x="145.158078" y="192.24" style="stroke: #000000; stroke-width: 0.8"/>
      </g>
     </g>
     <g id="text_2">
      <!-- 1 -->
      <g transform="translate(141.976828 206.838437) scale(0.1 -0.1)">
       <defs>
        <path id="DejaVuSans-31" d="M 794 531 
L 1825 531 
L 1825 4091 
L 703 3866 
L 703 4441 
L 1819 4666 
L 2450 4666 
L 2450 531 
L 3481 531 
L 3481 0 
L 794 0 
L 794 531 
z
" transform="scale(0.015625)"/>
       </defs>
       <use xlink:href="#DejaVuSans-31"/>
      </g>
     </g>
    </g>
    <g id="xtick_3">
     <g id="line2d_3">
      <g>
       <use xlink:href="#mc0ab5b847f" x="187.94744" y="192.24" style="stroke: #000000; stroke-width: 0.8"/>
      </g>
     </g>
     <g id="text_3">
      <!-- 2 -->
      <g transform="translate(184.76619 206.838437) scale(0.1 -0.1)">
       <defs>
        <path id="DejaVuSans-32" d="M 1228 531 
L 3431 531 
L 3431 0 
L 469 0 
L 469 531 
Q 828 903 1448 1529 
Q 2069 2156 2228 2338 
Q 2531 2678 2651 2914 
Q 2772 3150 2772 3378 
Q 2772 3750 2511 3984 
Q 2250 4219 1831 4219 
Q 1534 4219 1204 4116 
Q 875 4013 500 3803 
L 500 4441 
Q 881 4594 1212 4672 
Q 1544 4750 1819 4750 
Q 2544 4750 2975 4387 
Q 3406 4025 3406 3419 
Q 3406 3131 3298 2873 
Q 3191 2616 2906 2266 
Q 2828 2175 2409 1742 
Q 1991 1309 1228 531 
z
" transform="scale(0.015625)"/>
       </defs>
       <use xlink:href="#DejaVuSans-32"/>
      </g>
     </g>
    </g>
    <g id="xtick_4">
     <g id="line2d_4">
      <g>
       <use xlink:href="#mc0ab5b847f" x="230.736802" y="192.24" style="stroke: #000000; stroke-width: 0.8"/>
      </g>
     </g>
     <g id="text_4">
      <!-- 3 -->
      <g transform="translate(227.555552 206.838437) scale(0.1 -0.1)">
       <defs>
        <path id="DejaVuSans-33" d="M 2597 2516 
Q 3050 2419 3304 2112 
Q 3559 1806 3559 1356 
Q 3559 666 3084 287 
Q 2609 -91 1734 -91 
Q 1441 -91 1130 -33 
Q 819 25 488 141 
L 488 750 
Q 750 597 1062 519 
Q 1375 441 1716 441 
Q 2309 441 2620 675 
Q 2931 909 2931 1356 
Q 2931 1769 2642 2001 
Q 2353 2234 1838 2234 
L 1294 2234 
L 1294 2753 
L 1863 2753 
Q 2328 2753 2575 2939 
Q 2822 3125 2822 3475 
Q 2822 3834 2567 4026 
Q 2313 4219 1838 4219 
Q 1578 4219 1281 4162 
Q 984 4106 628 3988 
L 628 4550 
Q 988 4650 1302 4700 
Q 1616 4750 1894 4750 
Q 2613 4750 3031 4423 
Q 3450 4097 3450 3541 
Q 3450 3153 3228 2886 
Q 3006 2619 2597 2516 
z
" transform="scale(0.015625)"/>
       </defs>
       <use xlink:href="#DejaVuSans-33"/>
      </g>
     </g>
    </g>
    <g id="xtick_5">
     <g id="line2d_5">
      <g>
       <use xlink:href="#mc0ab5b847f" x="273.526164" y="192.24" style="stroke: #000000; stroke-width: 0.8"/>
      </g>
     </g>
     <g id="text_5">
      <!-- 4 -->
      <g transform="translate(270.344914 206.838437) scale(0.1 -0.1)">
       <defs>
        <path id="DejaVuSans-34" d="M 2419 4116 
L 825 1625 
L 2419 1625 
L 2419 4116 
z
M 2253 4666 
L 3047 4666 
L 3047 1625 
L 3713 1625 
L 3713 1100 
L 3047 1100 
L 3047 0 
L 2419 0 
L 2419 1100 
L 313 1100 
L 313 1709 
L 2253 4666 
z
" transform="scale(0.015625)"/>
       </defs>
       <use xlink:href="#DejaVuSans-34"/>
      </g>
     </g>
    </g>
    <g id="xtick_6">
     <g id="line2d_6">
      <g>
       <use xlink:href="#mc0ab5b847f" x="316.315526" y="192.24" style="stroke: #000000; stroke-width: 0.8"/>
      </g>
     </g>
     <g id="text_6">
      <!-- 5 -->
      <g transform="translate(313.134276 206.838437) scale(0.1 -0.1)">
       <defs>
        <path id="DejaVuSans-35" d="M 691 4666 
L 3169 4666 
L 3169 4134 
L 1269 4134 
L 1269 2991 
Q 1406 3038 1543 3061 
Q 1681 3084 1819 3084 
Q 2600 3084 3056 2656 
Q 3513 2228 3513 1497 
Q 3513 744 3044 326 
Q 2575 -91 1722 -91 
Q 1428 -91 1123 -41 
Q 819 9 494 109 
L 494 744 
Q 775 591 1075 516 
Q 1375 441 1709 441 
Q 2250 441 2565 725 
Q 2881 1009 2881 1497 
Q 2881 1984 2565 2268 
Q 2250 2553 1709 2553 
Q 1456 2553 1204 2497 
Q 953 2441 691 2322 
L 691 4666 
z
" transform="scale(0.015625)"/>
       </defs>
       <use xlink:href="#DejaVuSans-35"/>
      </g>
     </g>
    </g>
    <g id="xtick_7">
     <g id="line2d_7">
      <g>
       <use xlink:href="#mc0ab5b847f" x="359.104889" y="192.24" style="stroke: #000000; stroke-width: 0.8"/>
      </g>
     </g>
     <g id="text_7">
      <!-- 6 -->
      <g transform="translate(355.923639 206.838437) scale(0.1 -0.1)">
       <defs>
        <path id="DejaVuSans-36" d="M 2113 2584 
Q 1688 2584 1439 2293 
Q 1191 2003 1191 1497 
Q 1191 994 1439 701 
Q 1688 409 2113 409 
Q 2538 409 2786 701 
Q 3034 994 3034 1497 
Q 3034 2003 2786 2293 
Q 2538 2584 2113 2584 
z
M 3366 4563 
L 3366 3988 
Q 3128 4100 2886 4159 
Q 2644 4219 2406 4219 
Q 1781 4219 1451 3797 
Q 1122 3375 1075 2522 
Q 1259 2794 1537 2939 
Q 1816 3084 2150 3084 
Q 2853 3084 3261 2657 
Q 3669 2231 3669 1497 
Q 3669 778 3244 343 
Q 2819 -91 2113 -91 
Q 1303 -91 875 529 
Q 447 1150 447 2328 
Q 447 3434 972 4092 
Q 1497 4750 2381 4750 
Q 2619 4750 2861 4703 
Q 3103 4656 3366 4563 
z
" transform="scale(0.015625)"/>
       </defs>
       <use xlink:href="#DejaVuSans-36"/>
      </g>
     </g>
    </g>
    <g id="text_8">
     <!-- Entropy -->
     <g transform="translate(202.788498 222.03625) scale(0.12 -0.12)">
      <defs>
       <path id="DejaVuSans-45" d="M 628 4666 
L 3578 4666 
L 3578 4134 
L 1259 4134 
L 1259 2753 
L 3481 2753 
L 3481 2222 
L 1259 2222 
L 1259 531 
L 3634 531 
L 3634 0 
L 628 0 
L 628 4666 
z
" transform="scale(0.015625)"/>
       <path id="DejaVuSans-6e" d="M 3513 2113 
L 3513 0 
L 2938 0 
L 2938 2094 
Q 2938 2591 2744 2837 
Q 2550 3084 2163 3084 
Q 1697 3084 1428 2787 
Q 1159 2491 1159 1978 
L 1159 0 
L 581 0 
L 581 3500 
L 1159 3500 
L 1159 2956 
Q 1366 3272 1645 3428 
Q 1925 3584 2291 3584 
Q 2894 3584 3203 3211 
Q 3513 2838 3513 2113 
z
" transform="scale(0.015625)"/>
       <path id="DejaVuSans-74" d="M 1172 4494 
L 1172 3500 
L 2356 3500 
L 2356 3053 
L 1172 3053 
L 1172 1153 
Q 1172 725 1289 603 
Q 1406 481 1766 481 
L 2356 481 
L 2356 0 
L 1766 0 
Q 1100 0 847 248 
Q 594 497 594 1153 
L 594 3053 
L 172 3053 
L 172 3500 
L 594 3500 
L 594 4494 
L 1172 4494 
z
" transform="scale(0.015625)"/>
       <path id="DejaVuSans-72" d="M 2631 2963 
Q 2534 3019 2420 3045 
Q 2306 3072 2169 3072 
Q 1681 3072 1420 2755 
Q 1159 2438 1159 1844 
L 1159 0 
L 581 0 
L 581 3500 
L 1159 3500 
L 1159 2956 
Q 1341 3275 1631 3429 
Q 1922 3584 2338 3584 
Q 2397 3584 2469 3576 
Q 2541 3569 2628 3553 
L 2631 2963 
z
" transform="scale(0.015625)"/>
       <path id="DejaVuSans-6f" d="M 1959 3097 
Q 1497 3097 1228 2736 
Q 959 2375 959 1747 
Q 959 1119 1226 758 
Q 1494 397 1959 397 
Q 2419 397 2687 759 
Q 2956 1122 2956 1747 
Q 2956 2369 2687 2733 
Q 2419 3097 1959 3097 
z
M 1959 3584 
Q 2709 3584 3137 3096 
Q 3566 2609 3566 1747 
Q 3566 888 3137 398 
Q 2709 -91 1959 -91 
Q 1206 -91 779 398 
Q 353 888 353 1747 
Q 353 2609 779 3096 
Q 1206 3584 1959 3584 
z
" transform="scale(0.015625)"/>
       <path id="DejaVuSans-70" d="M 1159 525 
L 1159 -1331 
L 581 -1331 
L 581 3500 
L 1159 3500 
L 1159 2969 
Q 1341 3281 1617 3432 
Q 1894 3584 2278 3584 
Q 2916 3584 3314 3078 
Q 3713 2572 3713 1747 
Q 3713 922 3314 415 
Q 2916 -91 2278 -91 
Q 1894 -91 1617 61 
Q 1341 213 1159 525 
z
M 3116 1747 
Q 3116 2381 2855 2742 
Q 2594 3103 2138 3103 
Q 1681 3103 1420 2742 
Q 1159 2381 1159 1747 
Q 1159 1113 1420 752 
Q 1681 391 2138 391 
Q 2594 391 2855 752 
Q 3116 1113 3116 1747 
z
" transform="scale(0.015625)"/>
       <path id="DejaVuSans-79" d="M 2059 -325 
Q 1816 -950 1584 -1140 
Q 1353 -1331 966 -1331 
L 506 -1331 
L 506 -850 
L 844 -850 
Q 1081 -850 1212 -737 
Q 1344 -625 1503 -206 
L 1606 56 
L 191 3500 
L 800 3500 
L 1894 763 
L 2988 3500 
L 3597 3500 
L 2059 -325 
z
" transform="scale(0.015625)"/>
      </defs>
      <use xlink:href="#DejaVuSans-45"/>
      <use xlink:href="#DejaVuSans-6e" x="63.183594"/>
      <use xlink:href="#DejaVuSans-74" x="126.5625"/>
      <use xlink:href="#DejaVuSans-72" x="165.771484"/>
      <use xlink:href="#DejaVuSans-6f" x="204.634766"/>
      <use xlink:href="#DejaVuSans-70" x="265.816406"/>
      <use xlink:href="#DejaVuSans-79" x="329.292969"/>
     </g>
    </g>
   </g>
   <g id="matplotlib.axis_2">
    <g id="ytick_1">
     <g id="line2d_8">
      <defs>
       <path id="m85eba989e4" d="M 0 0 
L -3.5 0 
" style="stroke: #000000; stroke-width: 0.8"/>
      </defs>
      <g>
       <use xlink:href="#m85eba989e4" x="90" y="184.684032" style="stroke: #000000; stroke-width: 0.8"/>
      </g>
     </g>
     <g id="text_9">
      <!-- 0.0 -->
      <g transform="translate(67.096875 188.483251) scale(0.1 -0.1)">
       <defs>
        <path id="DejaVuSans-2e" d="M 684 794 
L 1344 794 
L 1344 0 
L 684 0 
L 684 794 
z
" transform="scale(0.015625)"/>
       </defs>
       <use xlink:href="#DejaVuSans-30"/>
       <use xlink:href="#DejaVuSans-2e" x="63.623047"/>
       <use xlink:href="#DejaVuSans-30" x="95.410156"/>
      </g>
     </g>
    </g>
    <g id="ytick_2">
     <g id="line2d_9">
      <g>
       <use xlink:href="#m85eba989e4" x="90" y="154.443226" style="stroke: #000000; stroke-width: 0.8"/>
      </g>
     </g>
     <g id="text_10">
      <!-- 0.2 -->
      <g transform="translate(67.096875 158.242444) scale(0.1 -0.1)">
       <use xlink:href="#DejaVuSans-30"/>
       <use xlink:href="#DejaVuSans-2e" x="63.623047"/>
       <use xlink:href="#DejaVuSans-32" x="95.410156"/>
      </g>
     </g>
    </g>
    <g id="ytick_3">
     <g id="line2d_10">
      <g>
       <use xlink:href="#m85eba989e4" x="90" y="124.202419" style="stroke: #000000; stroke-width: 0.8"/>
      </g>
     </g>
     <g id="text_11">
      <!-- 0.4 -->
      <g transform="translate(67.096875 128.001638) scale(0.1 -0.1)">
       <use xlink:href="#DejaVuSans-30"/>
       <use xlink:href="#DejaVuSans-2e" x="63.623047"/>
       <use xlink:href="#DejaVuSans-34" x="95.410156"/>
      </g>
     </g>
    </g>
    <g id="ytick_4">
     <g id="line2d_11">
      <g>
       <use xlink:href="#m85eba989e4" x="90" y="93.961613" style="stroke: #000000; stroke-width: 0.8"/>
      </g>
     </g>
     <g id="text_12">
      <!-- 0.6 -->
      <g transform="translate(67.096875 97.760832) scale(0.1 -0.1)">
       <use xlink:href="#DejaVuSans-30"/>
       <use xlink:href="#DejaVuSans-2e" x="63.623047"/>
       <use xlink:href="#DejaVuSans-36" x="95.410156"/>
      </g>
     </g>
    </g>
    <g id="ytick_5">
     <g id="line2d_12">
      <g>
       <use xlink:href="#m85eba989e4" x="90" y="63.720806" style="stroke: #000000; stroke-width: 0.8"/>
      </g>
     </g>
     <g id="text_13">
      <!-- 0.8 -->
      <g transform="translate(67.096875 67.520025) scale(0.1 -0.1)">
       <defs>
        <path id="DejaVuSans-38" d="M 2034 2216 
Q 1584 2216 1326 1975 
Q 1069 1734 1069 1313 
Q 1069 891 1326 650 
Q 1584 409 2034 409 
Q 2484 409 2743 651 
Q 3003 894 3003 1313 
Q 3003 1734 2745 1975 
Q 2488 2216 2034 2216 
z
M 1403 2484 
Q 997 2584 770 2862 
Q 544 3141 544 3541 
Q 544 4100 942 4425 
Q 1341 4750 2034 4750 
Q 2731 4750 3128 4425 
Q 3525 4100 3525 3541 
Q 3525 3141 3298 2862 
Q 3072 2584 2669 2484 
Q 3125 2378 3379 2068 
Q 3634 1759 3634 1313 
Q 3634 634 3220 271 
Q 2806 -91 2034 -91 
Q 1263 -91 848 271 
Q 434 634 434 1313 
Q 434 1759 690 2068 
Q 947 2378 1403 2484 
z
M 1172 3481 
Q 1172 3119 1398 2916 
Q 1625 2713 2034 2713 
Q 2441 2713 2670 2916 
Q 2900 3119 2900 3481 
Q 2900 3844 2670 4047 
Q 2441 4250 2034 4250 
Q 1625 4250 1398 4047 
Q 1172 3844 1172 3481 
z
" transform="scale(0.015625)"/>
       </defs>
       <use xlink:href="#DejaVuSans-30"/>
       <use xlink:href="#DejaVuSans-2e" x="63.623047"/>
       <use xlink:href="#DejaVuSans-38" x="95.410156"/>
      </g>
     </g>
    </g>
    <g id="ytick_6">
     <g id="line2d_13">
      <g>
       <use xlink:href="#m85eba989e4" x="90" y="33.48" style="stroke: #000000; stroke-width: 0.8"/>
      </g>
     </g>
     <g id="text_14">
      <!-- 1.0 -->
      <g transform="translate(67.096875 37.279219) scale(0.1 -0.1)">
       <use xlink:href="#DejaVuSans-31"/>
       <use xlink:href="#DejaVuSans-2e" x="63.623047"/>
       <use xlink:href="#DejaVuSans-30" x="95.410156"/>
      </g>
     </g>
    </g>
    <g id="text_15">
     <!-- Cumulative Prob. -->
     <g transform="translate(60.60125 160.463437) rotate(-90) scale(0.12 -0.12)">
      <defs>
       <path id="DejaVuSans-43" d="M 4122 4306 
L 4122 3641 
Q 3803 3938 3442 4084 
Q 3081 4231 2675 4231 
Q 1875 4231 1450 3742 
Q 1025 3253 1025 2328 
Q 1025 1406 1450 917 
Q 1875 428 2675 428 
Q 3081 428 3442 575 
Q 3803 722 4122 1019 
L 4122 359 
Q 3791 134 3420 21 
Q 3050 -91 2638 -91 
Q 1578 -91 968 557 
Q 359 1206 359 2328 
Q 359 3453 968 4101 
Q 1578 4750 2638 4750 
Q 3056 4750 3426 4639 
Q 3797 4528 4122 4306 
z
" transform="scale(0.015625)"/>
       <path id="DejaVuSans-75" d="M 544 1381 
L 544 3500 
L 1119 3500 
L 1119 1403 
Q 1119 906 1312 657 
Q 1506 409 1894 409 
Q 2359 409 2629 706 
Q 2900 1003 2900 1516 
L 2900 3500 
L 3475 3500 
L 3475 0 
L 2900 0 
L 2900 538 
Q 2691 219 2414 64 
Q 2138 -91 1772 -91 
Q 1169 -91 856 284 
Q 544 659 544 1381 
z
M 1991 3584 
L 1991 3584 
z
" transform="scale(0.015625)"/>
       <path id="DejaVuSans-6d" d="M 3328 2828 
Q 3544 3216 3844 3400 
Q 4144 3584 4550 3584 
Q 5097 3584 5394 3201 
Q 5691 2819 5691 2113 
L 5691 0 
L 5113 0 
L 5113 2094 
Q 5113 2597 4934 2840 
Q 4756 3084 4391 3084 
Q 3944 3084 3684 2787 
Q 3425 2491 3425 1978 
L 3425 0 
L 2847 0 
L 2847 2094 
Q 2847 2600 2669 2842 
Q 2491 3084 2119 3084 
Q 1678 3084 1418 2786 
Q 1159 2488 1159 1978 
L 1159 0 
L 581 0 
L 581 3500 
L 1159 3500 
L 1159 2956 
Q 1356 3278 1631 3431 
Q 1906 3584 2284 3584 
Q 2666 3584 2933 3390 
Q 3200 3197 3328 2828 
z
" transform="scale(0.015625)"/>
       <path id="DejaVuSans-6c" d="M 603 4863 
L 1178 4863 
L 1178 0 
L 603 0 
L 603 4863 
z
" transform="scale(0.015625)"/>
       <path id="DejaVuSans-61" d="M 2194 1759 
Q 1497 1759 1228 1600 
Q 959 1441 959 1056 
Q 959 750 1161 570 
Q 1363 391 1709 391 
Q 2188 391 2477 730 
Q 2766 1069 2766 1631 
L 2766 1759 
L 2194 1759 
z
M 3341 1997 
L 3341 0 
L 2766 0 
L 2766 531 
Q 2569 213 2275 61 
Q 1981 -91 1556 -91 
Q 1019 -91 701 211 
Q 384 513 384 1019 
Q 384 1609 779 1909 
Q 1175 2209 1959 2209 
L 2766 2209 
L 2766 2266 
Q 2766 2663 2505 2880 
Q 2244 3097 1772 3097 
Q 1472 3097 1187 3025 
Q 903 2953 641 2809 
L 641 3341 
Q 956 3463 1253 3523 
Q 1550 3584 1831 3584 
Q 2591 3584 2966 3190 
Q 3341 2797 3341 1997 
z
" transform="scale(0.015625)"/>
       <path id="DejaVuSans-69" d="M 603 3500 
L 1178 3500 
L 1178 0 
L 603 0 
L 603 3500 
z
M 603 4863 
L 1178 4863 
L 1178 4134 
L 603 4134 
L 603 4863 
z
" transform="scale(0.015625)"/>
       <path id="DejaVuSans-76" d="M 191 3500 
L 800 3500 
L 1894 563 
L 2988 3500 
L 3597 3500 
L 2284 0 
L 1503 0 
L 191 3500 
z
" transform="scale(0.015625)"/>
       <path id="DejaVuSans-65" d="M 3597 1894 
L 3597 1613 
L 953 1613 
Q 991 1019 1311 708 
Q 1631 397 2203 397 
Q 2534 397 2845 478 
Q 3156 559 3463 722 
L 3463 178 
Q 3153 47 2828 -22 
Q 2503 -91 2169 -91 
Q 1331 -91 842 396 
Q 353 884 353 1716 
Q 353 2575 817 3079 
Q 1281 3584 2069 3584 
Q 2775 3584 3186 3129 
Q 3597 2675 3597 1894 
z
M 3022 2063 
Q 3016 2534 2758 2815 
Q 2500 3097 2075 3097 
Q 1594 3097 1305 2825 
Q 1016 2553 972 2059 
L 3022 2063 
z
" transform="scale(0.015625)"/>
       <path id="DejaVuSans-20" transform="scale(0.015625)"/>
       <path id="DejaVuSans-50" d="M 1259 4147 
L 1259 2394 
L 2053 2394 
Q 2494 2394 2734 2622 
Q 2975 2850 2975 3272 
Q 2975 3691 2734 3919 
Q 2494 4147 2053 4147 
L 1259 4147 
z
M 628 4666 
L 2053 4666 
Q 2838 4666 3239 4311 
Q 3641 3956 3641 3272 
Q 3641 2581 3239 2228 
Q 2838 1875 2053 1875 
L 1259 1875 
L 1259 0 
L 628 0 
L 628 4666 
z
" transform="scale(0.015625)"/>
       <path id="DejaVuSans-62" d="M 3116 1747 
Q 3116 2381 2855 2742 
Q 2594 3103 2138 3103 
Q 1681 3103 1420 2742 
Q 1159 2381 1159 1747 
Q 1159 1113 1420 752 
Q 1681 391 2138 391 
Q 2594 391 2855 752 
Q 3116 1113 3116 1747 
z
M 1159 2969 
Q 1341 3281 1617 3432 
Q 1894 3584 2278 3584 
Q 2916 3584 3314 3078 
Q 3713 2572 3713 1747 
Q 3713 922 3314 415 
Q 2916 -91 2278 -91 
Q 1894 -91 1617 61 
Q 1341 213 1159 525 
L 1159 0 
L 581 0 
L 581 4863 
L 1159 4863 
L 1159 2969 
z
" transform="scale(0.015625)"/>
      </defs>
      <use xlink:href="#DejaVuSans-43"/>
      <use xlink:href="#DejaVuSans-75" x="69.824219"/>
      <use xlink:href="#DejaVuSans-6d" x="133.203125"/>
      <use xlink:href="#DejaVuSans-75" x="230.615234"/>
      <use xlink:href="#DejaVuSans-6c" x="293.994141"/>
      <use xlink:href="#DejaVuSans-61" x="321.777344"/>
      <use xlink:href="#DejaVuSans-74" x="383.056641"/>
      <use xlink:href="#DejaVuSans-69" x="422.265625"/>
      <use xlink:href="#DejaVuSans-76" x="450.048828"/>
      <use xlink:href="#DejaVuSans-65" x="509.228516"/>
      <use xlink:href="#DejaVuSans-20" x="570.751953"/>
      <use xlink:href="#DejaVuSans-50" x="602.539062"/>
      <use xlink:href="#DejaVuSans-72" x="661.091797"/>
      <use xlink:href="#DejaVuSans-6f" x="699.955078"/>
      <use xlink:href="#DejaVuSans-62" x="761.136719"/>
      <use xlink:href="#DejaVuSans-2e" x="824.613281"/>
     </g>
    </g>
   </g>
   <g id="line2d_14">
    <path d="M 102.419958 184.68 
L 102.575965 184.192115 
L 102.878577 179.139884 
L 102.903526 178.607646 
L 103.944653 160.09624 
L 103.978068 159.63658 
L 104.178556 156.846362 
L 104.312523 155.193198 
L 104.526855 152.697323 
L 104.677088 151.265925 
L 106.07793 139.564749 
L 106.132223 139.306694 
L 106.298022 138.105126 
L 106.349191 137.685787 
L 106.475086 136.927751 
L 106.624283 135.980205 
L 106.736435 135.367325 
L 106.870409 134.540743 
L 106.933915 134.173821 
L 107.149502 132.94806 
L 107.309463 132.101318 
L 107.448998 131.383603 
L 107.570831 130.807011 
L 107.680181 130.315094 
L 107.707714 130.133649 
L 108.407619 126.811193 
L 108.52077 126.315244 
L 108.923115 124.783043 
L 108.998986 124.537084 
L 109.154105 123.835497 
L 109.358452 123.012948 
L 109.545302 122.315393 
L 109.636537 121.988792 
L 109.979675 120.585619 
L 111.370083 116.118044 
L 111.42504 115.972888 
L 111.775185 114.904379 
L 111.900039 114.581811 
L 115.393758 106.190995 
L 115.462982 106.049871 
L 115.675776 105.610371 
L 115.775445 105.441023 
L 116.156987 104.662826 
L 116.299715 104.368482 
L 116.432433 104.13462 
L 116.818582 103.372552 
L 116.938672 103.106433 
L 117.534288 101.961314 
L 117.906122 101.324241 
L 117.997969 101.175053 
L 118.128035 100.953287 
L 118.329357 100.634751 
L 118.502119 100.275893 
L 118.888714 99.566242 
L 119.077717 99.175128 
L 119.257372 98.864656 
L 119.380825 98.64289 
L 119.465714 98.497734 
L 119.945989 97.602606 
L 120.134277 97.344551 
L 120.321897 97.086496 
L 120.504343 96.780056 
L 120.638346 96.586515 
L 120.755066 96.413134 
L 120.930159 96.171208 
L 121.427058 95.465589 
L 121.897674 94.707553 
L 122.57217 93.776136 
L 122.669933 93.606787 
L 122.890693 93.24793 
L 123.041718 93.042292 
L 123.243792 92.764077 
L 123.548588 92.296352 
L 124.224323 91.288326 
L 124.392765 91.034303 
L 124.601725 90.723831 
L 128.453027 85.744178 
L 128.66196 85.478059 
L 133.86062 78.389614 
L 133.999469 78.183976 
L 134.284364 77.768669 
L 134.432098 77.615449 
L 134.532757 77.450133 
L 134.70164 77.228367 
L 134.965373 76.865477 
L 135.156848 76.591294 
L 135.261052 76.454202 
L 135.524589 76.131633 
L 136.214892 75.284891 
L 136.665469 74.704267 
L 136.808922 74.534919 
L 137.910122 73.305126 
L 138.03324 73.164002 
L 138.211276 72.98659 
L 138.32144 72.845466 
L 138.57463 72.603539 
L 139.619938 71.462453 
L 139.8261 71.293104 
L 140.0924 71.022953 
L 140.356249 70.756834 
L 141.071031 70.02299 
L 141.208753 69.837514 
L 141.331006 69.724615 
L 141.520952 69.527041 
L 141.911872 69.099638 
L 142.519656 68.466597 
L 142.645783 68.321441 
L 142.990547 68.006937 
L 143.143979 67.877909 
L 143.370191 67.700497 
L 144.356578 66.805369 
L 144.489443 66.648116 
L 144.724314 66.422318 
L 144.910009 66.265066 
L 145.1971 66.035236 
L 145.703006 65.587672 
L 145.807513 65.515094 
L 146.007932 65.349778 
L 146.243073 65.12398 
L 146.493848 64.934471 
L 146.616504 64.869957 
L 146.835607 64.692544 
L 154.166565 59.249199 
L 154.442707 59.091947 
L 154.556967 59.023401 
L 155.10316 58.729057 
L 156.041881 58.148434 
L 156.181284 58.043599 
L 156.532827 57.829897 
L 156.771824 57.680709 
L 157.028133 57.475072 
L 157.696513 57.063797 
L 157.871693 56.926705 
L 157.990977 56.850095 
L 158.272194 56.676715 
L 159.028085 56.305761 
L 159.305823 56.160605 
L 159.770642 55.914646 
L 161.18088 55.096128 
L 161.573929 54.858234 
L 161.92916 54.709046 
L 162.177624 54.571954 
L 162.993501 54.217129 
L 163.400491 54.035684 
L 164.069243 53.688923 
L 164.191369 53.648602 
L 165.299277 53.096203 
L 165.761315 52.910726 
L 166.308141 52.6688 
L 166.852712 52.45913 
L 167.184249 52.330103 
L 167.611806 52.136562 
L 167.833245 52.031727 
L 168.258292 51.862378 
L 169.665123 51.265626 
L 170.01688 51.108374 
L 170.152503 51.055957 
L 170.60059 50.846287 
L 170.772822 50.741452 
L 171.554793 50.451141 
L 171.671481 50.418884 
L 172.017418 50.27776 
L 172.279706 50.156797 
L 174.271772 49.386664 
L 174.38036 49.342311 
L 175.345259 49.003614 
L 175.524826 48.959261 
L 176.078492 48.789912 
L 183.236034 46.507739 
L 183.736916 46.37468 
L 184.435646 46.181139 
L 185.641665 45.83841 
L 186.195999 45.689222 
L 187.0475 45.427135 
L 187.887173 45.144887 
L 188.45506 44.991667 
L 188.587969 44.955378 
L 189.924718 44.600553 
L 190.073134 44.544103 
L 193.702519 43.786067 
L 193.948943 43.737682 
L 195.19612 43.46753 
L 195.316695 43.423177 
L 197.337831 42.93126 
L 198.691627 42.685301 
L 199.309365 42.54821 
L 200.719996 42.342572 
L 210.552511 40.544252 
L 211.351994 40.395064 
L 211.562957 40.350711 
L 212.27905 40.21362 
L 212.413407 40.169266 
L 213.399328 40.024111 
L 213.66792 40.00395 
L 214.624623 39.858794 
L 215.019268 39.798312 
L 216.321505 39.604771 
L 217.091148 39.479776 
L 218.534924 39.278171 
L 219.265473 39.173336 
L 221.027412 38.975763 
L 221.428413 38.891088 
L 222.655891 38.717708 
L 224.932194 38.35885 
L 227.100235 38.048378 
L 228.649896 37.862901 
L 228.91455 37.826612 
L 233.646441 37.334695 
L 233.801641 37.318566 
L 234.108796 37.28631 
L 247.936063 36.020228 
L 249.998475 35.862976 
L 254.473689 35.532343 
L 278.794057 34.286422 
L 283.504218 34.137234 
L 285.219198 34.096912 
L 293.359606 33.915468 
L 293.376908 33.907403 
L 306.363405 33.68967 
L 307.622774 33.677573 
L 342.542035 33.48 
L 342.542035 33.48 
" clip-path="url(#pe5afd579cf)" style="fill: none; stroke: #1f77b4; stroke-width: 2; stroke-linecap: square"/>
   </g>
   <g id="line2d_15">
    <path d="M 102.393164 184.68 
L 102.450522 184.458234 
L 102.492096 183.841322 
L 102.755107 175.265029 
L 102.800333 173.676379 
L 102.963834 168.535441 
L 102.991727 167.793534 
L 103.056718 166.208915 
L 103.175964 163.160642 
L 103.605478 154.612574 
L 103.679344 153.463424 
L 103.816785 151.62075 
L 103.859371 151.011902 
L 104.111238 147.802345 
L 105.49824 134.734284 
L 105.856837 132.165832 
L 106.063248 130.8433 
L 106.18388 130.165906 
L 106.317203 129.339324 
L 106.351516 129.125623 
L 106.531689 128.097435 
L 106.588355 127.803091 
L 107.283407 124.210483 
L 107.362801 123.843562 
L 107.563874 122.900049 
L 107.611656 122.706507 
L 110.118194 113.227023 
L 110.184338 113.025417 
L 110.292497 112.674624 
L 110.366382 112.509307 
L 110.586596 111.795624 
L 110.700183 111.493216 
L 110.850416 111.110166 
L 110.948616 110.823887 
L 111.606492 108.924764 
L 111.717937 108.614292 
L 113.266792 104.783789 
L 113.340511 104.602345 
L 113.604397 104.017689 
L 113.711592 103.767698 
L 113.837683 103.489483 
L 113.908568 103.348359 
L 114.025398 103.045951 
L 114.452779 102.134695 
L 114.574123 101.884704 
L 114.770336 101.517782 
L 115.043236 100.953287 
L 115.116495 100.796035 
L 115.532285 99.896875 
L 115.661783 99.646884 
L 115.744556 99.493664 
L 115.879227 99.203353 
L 115.947379 99.070293 
L 116.078858 98.779981 
L 116.174561 98.590472 
L 116.314664 98.35661 
L 116.402877 98.14694 
L 116.841457 97.332455 
L 116.948255 97.167138 
L 117.054893 96.957469 
L 117.500388 96.183304 
L 117.664186 95.949442 
L 117.816089 95.731708 
L 117.932718 95.50591 
L 118.544857 94.457562 
L 118.63287 94.296278 
L 118.760285 94.139026 
L 118.958244 93.852746 
L 119.397919 93.118902 
L 119.52438 92.945522 
L 119.729584 92.574568 
L 119.850882 92.409251 
L 120.093799 91.997976 
L 120.181061 91.828628 
L 120.309304 91.578637 
L 120.587494 91.171394 
L 120.955508 90.631092 
L 121.210022 90.18756 
L 121.33098 89.994019 
L 121.510425 89.772253 
L 121.945659 89.195662 
L 122.059396 89.022281 
L 122.344166 88.59891 
L 122.478322 88.413433 
L 122.664971 88.175539 
L 122.790253 87.949741 
L 123.316388 87.33686 
L 123.508067 87.179608 
L 123.853137 86.699787 
L 124.655522 85.566765 
L 124.822058 85.401449 
L 125.419179 84.623252 
L 125.563776 84.401486 
L 125.80958 84.143431 
L 126.094093 83.732156 
L 126.229899 83.554743 
L 126.378378 83.365234 
L 130.700109 77.80899 
L 130.84779 77.575128 
L 130.999802 77.401747 
L 131.189323 77.171917 
L 131.344512 76.96628 
L 131.520205 76.68 
L 131.67014 76.490491 
L 132.533234 75.127639 
L 132.634792 74.93813 
L 134.008893 72.85353 
L 134.119779 72.704342 
L 134.602387 72.03098 
L 134.728524 71.881792 
L 134.915683 71.692283 
L 135.026921 71.539063 
L 135.245252 71.281008 
L 136.992248 69.023028 
L 137.128454 68.861744 
L 137.483841 68.446436 
L 137.67717 68.232735 
L 137.811382 68.063386 
L 137.963386 67.894038 
L 138.070326 67.789203 
L 138.408186 67.466634 
L 138.539044 67.325511 
L 138.751889 67.09568 
L 138.875389 66.954557 
L 139.083546 66.700534 
L 139.233675 66.527153 
L 139.477526 66.349741 
L 139.598639 66.228777 
L 139.722983 66.107814 
L 140.466267 65.373971 
L 140.663845 65.180429 
L 140.835184 65.04737 
L 140.955644 64.930439 
L 141.953056 64.075632 
L 142.185478 63.853866 
L 142.439363 63.636132 
L 142.604083 63.458719 
L 143.065484 62.970834 
L 143.223571 62.841807 
L 143.643598 62.474885 
L 143.794743 62.345858 
L 144.125887 62.035385 
L 144.321272 61.886197 
L 144.579696 61.632175 
L 144.823225 61.47089 
L 145.332299 61.051551 
L 145.797786 60.684629 
L 145.970828 60.535441 
L 146.348223 60.273354 
L 146.533339 60.18868 
L 146.797534 60.019332 
L 147.358836 59.591928 
L 147.586785 59.414516 
L 147.877928 59.261296 
L 148.134666 59.083883 
L 148.944055 58.495195 
L 149.085125 58.406489 
L 149.343643 58.180691 
L 154.49396 54.834041 
L 154.85264 54.6405 
L 155.624777 54.196968 
L 156.064433 53.942946 
L 156.628933 53.632473 
L 157.032326 53.442964 
L 157.181435 53.35829 
L 157.780928 53.039754 
L 157.980424 52.89863 
L 158.265119 52.737346 
L 158.435846 52.636543 
L 168.203968 48.398798 
L 168.576496 48.229449 
L 168.802991 48.160903 
L 169.662353 47.878656 
L 169.761433 47.858495 
L 170.253128 47.705275 
L 170.781677 47.511734 
L 172.330945 46.9674 
L 172.532215 46.902886 
L 176.266699 45.556162 
L 176.37899 45.519873 
L 176.968117 45.354557 
L 177.911976 45.060213 
L 178.631028 44.866672 
L 179.519128 44.669098 
L 180.149047 44.507814 
L 180.653775 44.358626 
L 181.07772 44.221534 
L 181.22684 44.177181 
L 182.207021 43.935255 
L 182.870015 43.75381 
L 183.317791 43.628815 
L 183.888841 43.459466 
L 184.035405 43.407049 
L 185.62221 43.040127 
L 185.848235 42.991742 
L 186.734035 42.729655 
L 186.86445 42.70143 
L 188.183366 42.435311 
L 188.496775 42.358701 
L 189.420108 42.169192 
L 190.7267 41.87888 
L 191.537089 41.673242 
L 193.014653 41.378899 
L 193.935986 41.161165 
L 194.76178 40.983752 
L 195.703465 40.814404 
L 197.236394 40.548284 
L 197.540907 40.479739 
L 199.483846 40.161202 
L 200.239686 40.028143 
L 201.346038 39.846698 
L 201.799783 39.798312 
L 203.27696 39.568482 
L 203.582584 39.516065 
L 204.36955 39.378973 
L 206.304888 39.024148 
L 207.628416 38.842703 
L 207.708857 38.834639 
L 209.364361 38.608841 
L 209.626547 38.560455 
L 211.782734 38.266112 
L 211.968814 38.245951 
L 214.412466 37.939511 
L 216.284064 37.645167 
L 225.049739 36.701654 
L 227.525333 36.487952 
L 228.505408 36.383117 
L 234.521438 35.907329 
L 234.680728 35.883136 
L 237.840158 35.693627 
L 238.363571 35.629113 
L 239.172888 35.58476 
L 244.39224 35.314609 
L 247.906192 35.121068 
L 256.217745 34.661408 
L 256.735607 34.645279 
L 259.010033 34.516252 
L 281.922575 33.895307 
L 289.85048 33.750151 
L 311.209699 33.532417 
L 325.965512 33.484032 
L 332.906027 33.48 
L 332.906027 33.48 
" clip-path="url(#pe5afd579cf)" style="fill: none; stroke: #ff7f0e; stroke-width: 2; stroke-linecap: square"/>
   </g>
   <g id="line2d_16">
    <path d="M 102.403621 184.68 
L 102.520861 183.615524 
L 102.736449 176.954482 
L 102.76687 175.946455 
L 103.909605 150.403054 
L 104.186851 146.89512 
L 104.339581 145.032287 
L 104.475971 143.544439 
L 104.778011 140.605033 
L 104.92986 139.024447 
L 104.961247 138.734135 
L 105.092899 137.564824 
L 105.304391 135.738279 
L 105.621787 133.31095 
L 105.735333 132.500497 
L 105.7664 132.306955 
L 105.914421 131.234415 
L 106.405569 128.121628 
L 106.621423 126.718454 
L 106.751072 126.028964 
L 107.647907 121.633967 
L 107.702075 121.408169 
L 107.863149 120.674325 
L 107.928593 120.432399 
L 108.180729 119.238895 
L 108.386426 118.448602 
L 108.524714 117.920396 
L 108.582406 117.747015 
L 108.709193 117.339772 
L 108.780671 117.053493 
L 108.905837 116.557543 
L 109.009628 116.230943 
L 109.181265 115.630159 
L 109.241786 115.420489 
L 109.367696 114.989054 
L 109.498631 114.553586 
L 111.639814 107.852223 
L 111.735314 107.626425 
L 112.014852 106.924839 
L 112.144379 106.561949 
L 112.669425 105.24345 
L 112.793509 104.941042 
L 112.881523 104.731372 
L 113.269963 103.90479 
L 113.367741 103.715281 
L 113.54236 103.247556 
L 113.818052 102.586291 
L 117.336853 95.917185 
L 117.454681 95.739772 
L 117.978005 94.880933 
L 118.075845 94.711585 
L 118.233478 94.409177 
L 118.321023 94.183379 
L 118.447463 93.93742 
L 118.521155 93.804361 
L 119.344295 92.493926 
L 119.559695 92.106843 
L 119.67855 91.917334 
L 119.792307 91.699601 
L 119.954203 91.473803 
L 120.091699 91.272197 
L 120.322135 90.868986 
L 120.439257 90.667381 
L 120.557025 90.506097 
L 120.688998 90.324652 
L 120.83253 90.131111 
L 121.659627 88.881157 
L 121.83243 88.679552 
L 122.315421 88.06264 
L 122.462511 87.87313 
L 122.723364 87.550562 
L 122.851155 87.33686 
L 123.173942 86.861071 
L 123.32255 86.699787 
L 123.433039 86.510278 
L 123.702218 86.163517 
L 123.833366 86.006265 
L 123.920183 85.840948 
L 124.531999 85.058719 
L 124.774253 84.707926 
L 124.910393 84.490192 
L 125.040769 84.341004 
L 125.174782 84.175688 
L 125.301239 83.97005 
L 125.42415 83.81683 
L 125.680275 83.498294 
L 125.863586 83.292656 
L 125.982348 83.151533 
L 126.109298 82.990248 
L 126.224897 82.824932 
L 126.360094 82.679776 
L 126.47152 82.53462 
L 126.587968 82.397528 
L 126.742306 82.155602 
L 126.876003 81.958029 
L 127.010353 81.804809 
L 127.186785 81.546754 
L 127.315557 81.361277 
L 128.078002 80.349218 
L 128.308988 80.087131 
L 128.730638 79.599246 
L 128.917509 79.373448 
L 129.574175 78.526705 
L 129.783033 78.264618 
L 129.92722 78.022692 
L 130.037448 77.8856 
L 130.336128 77.486422 
L 130.465683 77.329169 
L 130.947609 76.663872 
L 131.060872 76.490491 
L 131.184893 76.341303 
L 131.309408 76.16389 
L 131.625752 75.671973 
L 131.78452 75.426015 
L 132.110021 74.93813 
L 132.232261 74.740556 
L 132.364642 74.490566 
L 132.651018 74.03897 
L 132.884983 73.67608 
L 133.079366 73.381736 
L 133.361312 72.942236 
L 133.489028 72.760791 
L 133.715436 72.438223 
L 133.866397 72.24065 
L 133.960682 72.067269 
L 134.191829 71.740668 
L 134.370936 71.522934 
L 134.497346 71.357618 
L 137.111116 68.063386 
L 137.310451 67.877909 
L 137.71133 67.442442 
L 137.871192 67.297286 
L 138.029763 67.103745 
L 138.27124 66.869882 
L 138.63328 66.466672 
L 138.77687 66.301355 
L 138.940879 66.168296 
L 139.143277 66.002979 
L 139.370175 65.752989 
L 139.860955 65.273168 
L 140.470083 64.700609 
L 140.626371 64.559485 
L 140.852098 64.369976 
L 141.010297 64.228852 
L 141.296768 63.990958 
L 141.663627 63.716774 
L 141.772164 63.620004 
L 141.987011 63.442591 
L 142.104622 63.329692 
L 142.269832 63.17244 
L 142.539827 62.922449 
L 142.748844 62.704715 
L 142.863545 62.640202 
L 143.09335 62.450693 
L 143.588649 62.051514 
L 143.823336 61.825716 
L 144.040659 61.640239 
L 144.476081 61.37412 
L 144.962614 60.930588 
L 145.20469 60.741079 
L 146.325233 59.86208 
L 146.459861 59.733052 
L 146.569009 59.65241 
L 146.895818 59.438708 
L 147.142839 59.21291 
L 147.562617 58.898406 
L 147.727493 58.769378 
L 148.375841 58.309718 
L 148.73929 58.039567 
L 152.95111 55.116289 
L 153.209934 54.959037 
L 154.964385 53.95101 
L 155.20505 53.813918 
L 155.580715 53.604249 
L 157.267717 52.753474 
L 158.070051 52.354295 
L 158.248343 52.273653 
L 158.621406 52.100273 
L 162.562874 50.1447 
L 163.64062 49.765682 
L 164.124205 49.519724 
L 164.58149 49.338279 
L 165.226115 49.051999 
L 165.359712 48.987486 
L 165.901982 48.753623 
L 166.016584 48.701206 
L 166.723868 48.443151 
L 169.928079 47.27384 
L 170.473471 47.092395 
L 170.653537 47.039978 
L 171.077345 46.878693 
L 171.65248 46.652895 
L 171.76927 46.616606 
L 172.667205 46.290006 
L 173.090697 46.124689 
L 175.260192 45.431167 
L 175.513441 45.346492 
L 176.825456 45.023924 
L 177.063162 44.947314 
L 177.659466 44.725548 
L 178.003134 44.616681 
L 182.148601 43.592526 
L 183.044429 43.358663 
L 183.393208 43.241732 
L 184.064816 43.100609 
L 184.14764 43.06432 
L 184.982028 42.915132 
L 185.565753 42.782072 
L 186.43597 42.56837 
L 186.684577 42.507889 
L 187.621116 42.33854 
L 187.708239 42.314348 
L 188.542867 42.120806 
L 188.62948 42.08855 
L 189.713286 41.899041 
L 190.730659 41.665178 
L 191.408312 41.51599 
L 193.960695 41.020041 
L 195.125728 40.850693 
L 195.345984 40.802307 
L 196.783374 40.507963 
L 196.931392 40.467642 
L 198.685894 40.153138 
L 199.878655 39.939436 
L 201.778808 39.6209 
L 201.90482 39.580579 
L 203.289661 39.378973 
L 205.245842 39.096726 
L 205.598864 39.044308 
L 209.934375 38.35885 
L 220.762013 37.145186 
L 222.44092 36.979869 
L 222.79791 36.931484 
L 230.909426 36.149255 
L 232.863608 36.000067 
L 233.075805 35.971842 
L 241.144065 35.41138 
L 272.665522 34.09288 
L 278.296924 33.955789 
L 279.213391 33.923532 
L 287.391973 33.802569 
L 322.49507 33.488064 
L 339.278017 33.48 
L 339.278017 33.48 
" clip-path="url(#pe5afd579cf)" style="fill: none; stroke: #2ca02c; stroke-width: 2; stroke-linecap: square"/>
   </g>
   <g id="line2d_17">
    <path d="M 102.404305 184.68 
L 102.499854 184.494523 
L 102.605056 183.357469 
L 102.790264 179.353586 
L 103.175523 169.954743 
L 103.312017 167.281456 
L 103.679037 160.701057 
L 104.122471 154.354519 
L 104.161203 153.874699 
L 104.307702 151.971544 
L 104.340016 151.564301 
L 104.457028 150.193384 
L 104.511305 149.624857 
L 104.628259 148.528124 
L 104.680984 147.975725 
L 105.439389 141.407422 
L 105.534008 140.605033 
L 105.699386 139.234116 
L 105.911877 137.722076 
L 106.024286 137.064842 
L 106.613432 133.194019 
L 106.753893 132.39163 
L 107.063365 130.605406 
L 107.175177 130.032847 
L 107.26404 129.54093 
L 107.47098 128.66193 
L 107.525259 128.407907 
L 107.672836 127.698256 
L 107.733514 127.327303 
L 108.017225 125.960418 
L 108.101576 125.601561 
L 108.310927 124.678208 
L 108.391214 124.363704 
L 108.536882 123.746791 
L 108.610222 123.47664 
L 108.753571 122.88392 
L 109.50437 119.863872 
L 109.557903 119.662266 
L 109.686684 119.21067 
L 109.852782 118.585693 
L 110.008729 118.06152 
L 110.131896 117.634116 
L 110.292698 117.085749 
L 110.557494 116.182557 
L 110.634398 115.989016 
L 110.842838 115.23098 
L 110.919509 115.025343 
L 111.055001 114.593907 
L 114.590717 105.824073 
L 114.694343 105.654725 
L 114.821178 105.39667 
L 115.112929 104.799918 
L 115.23129 104.549927 
L 116.591579 101.731484 
L 116.667845 101.5702 
L 118.35563 98.574344 
L 118.428527 98.437252 
L 118.599105 98.110651 
L 118.791861 97.864693 
L 118.984487 97.473578 
L 119.113492 97.276005 
L 119.244891 97.0744 
L 119.655137 96.32846 
L 120.251598 95.328497 
L 120.358278 95.187374 
L 120.477414 95.005929 
L 120.607024 94.864805 
L 120.728681 94.679328 
L 120.930109 94.37692 
L 121.051594 94.118865 
L 121.167266 93.901131 
L 121.370219 93.622916 
L 121.890262 92.901169 
L 122.02911 92.675371 
L 122.258902 92.29232 
L 122.425283 92.082651 
L 122.564243 91.90927 
L 122.861344 91.437514 
L 122.99498 91.260101 
L 123.127693 91.070592 
L 123.302866 90.824633 
L 123.701805 90.239978 
L 124.646266 88.941639 
L 124.776306 88.780355 
L 125.101636 88.324727 
L 125.256534 88.098929 
L 125.374123 87.945708 
L 126.64722 86.28448 
L 126.776607 86.139324 
L 128.401947 84.107142 
L 128.532512 83.925697 
L 128.812551 83.562808 
L 128.951779 83.365234 
L 129.614811 82.578973 
L 129.765137 82.421721 
L 130.734543 81.139511 
L 130.896733 80.937906 
L 131.000738 80.760493 
L 131.409248 80.135516 
L 131.68278 79.881493 
L 132.153572 79.163778 
L 132.279105 78.982333 
L 132.437294 78.720246 
L 132.584401 78.502513 
L 136.66991 73.014814 
L 137.424523 72.192264 
L 137.544256 72.026948 
L 137.686563 71.857599 
L 137.798601 71.712444 
L 138.494827 70.930215 
L 138.684784 70.740706 
L 139.317616 70.07944 
L 139.438711 69.930252 
L 139.566886 69.821385 
L 139.922033 69.426239 
L 140.12336 69.273018 
L 140.295665 69.075445 
L 141.313612 68.176285 
L 141.424887 68.07145 
L 141.568837 67.942423 
L 141.793552 67.760978 
L 142.04553 67.551309 
L 142.229838 67.390024 
L 142.44088 67.164226 
L 142.615721 67.006974 
L 142.782178 66.841658 
L 142.896267 66.728759 
L 143.146144 66.450543 
L 143.387503 66.180392 
L 143.943546 65.64009 
L 144.134748 65.442516 
L 144.835322 64.777219 
L 144.979562 64.619966 
L 145.191203 64.466746 
L 145.304259 64.369976 
L 146.010227 63.84177 
L 146.388923 63.547426 
L 146.561185 63.414366 
L 147.019678 63.180504 
L 147.131388 63.059541 
L 147.457957 62.825679 
L 148.028654 62.44666 
L 148.202835 62.309569 
L 151.13631 59.991107 
L 151.419063 59.789502 
L 151.705927 59.640314 
L 151.952004 59.474997 
L 152.075139 59.386291 
L 152.323257 59.225007 
L 152.547502 59.043562 
L 152.896285 58.821796 
L 153.004695 58.737122 
L 153.469437 58.39036 
L 153.582059 58.301654 
L 153.968013 58.087952 
L 154.24419 57.910539 
L 154.398436 57.821833 
L 155.335271 57.281531 
L 155.528865 57.156535 
L 155.851853 56.975091 
L 156.142818 56.825903 
L 156.420408 56.692843 
L 156.532266 56.628329 
L 156.85153 56.467045 
L 158.662489 55.382408 
L 159.165457 55.168706 
L 159.326579 55.08 
L 161.643918 53.79779 
L 161.952093 53.652634 
L 162.738911 53.245391 
L 163.574844 52.84218 
L 163.958625 52.676864 
L 164.099359 52.616382 
L 164.802919 52.313974 
L 165.024507 52.221236 
L 165.405702 52.035759 
L 165.574485 51.951085 
L 166.091088 51.725287 
L 166.590842 51.523681 
L 167.024102 51.33014 
L 167.640187 51.10031 
L 167.747551 51.04386 
L 167.932448 50.910801 
L 168.371553 50.713228 
L 168.463267 50.664842 
L 168.72658 50.535815 
L 169.402131 50.261632 
L 170.142586 49.97132 
L 170.498593 49.850357 
L 170.842097 49.705201 
L 171.671542 49.418921 
L 172.365998 49.176995 
L 175.754621 47.983491 
L 176.135014 47.838335 
L 177.724885 47.358514 
L 177.891812 47.302065 
L 178.500659 47.104491 
L 178.625401 47.076267 
L 178.956015 46.955303 
L 179.437993 46.798051 
L 179.547045 46.749666 
L 180.235201 46.5279 
L 180.539408 46.435161 
L 181.191302 46.245652 
L 183.244915 45.592451 
L 184.164814 45.350525 
L 184.591769 45.229561 
L 185.355928 45.03602 
L 187.59455 44.459429 
L 188.13958 44.314273 
L 189.14672 44.048154 
L 189.241883 43.999769 
L 189.997253 43.866709 
L 190.29186 43.765906 
L 192.230269 43.39092 
L 192.557471 43.31431 
L 194.161017 42.967549 
L 195.143142 42.782072 
L 195.912357 42.628852 
L 196.893258 42.386926 
L 197.690374 42.201449 
L 198.776751 42.020004 
L 199.206715 41.931297 
L 200.123059 41.749853 
L 201.016551 41.588568 
L 202.209721 41.403091 
L 203.212158 41.20955 
L 204.407898 40.943431 
L 205.444164 40.74989 
L 206.725967 40.536188 
L 210.764943 39.951533 
L 211.271155 39.858794 
L 214.942908 39.302363 
L 215.065595 39.282203 
L 218.995595 38.689483 
L 220.036932 38.552391 
L 220.219044 38.528199 
L 222.282935 38.245951 
L 224.050107 38.036282 
L 224.176242 38.008057 
L 225.397089 37.846772 
L 225.620304 37.810483 
L 227.563896 37.596782 
L 229.578298 37.310502 
L 232.847346 37.036319 
L 233.141066 36.987934 
L 237.054927 36.689558 
L 238.858571 36.508113 
L 240.571715 36.354893 
L 244.38971 35.979907 
L 245.974975 35.822654 
L 252.48673 35.427508 
L 270.151661 34.479963 
L 284.029508 34.076752 
L 316.954688 33.548546 
L 342.016929 33.48 
L 342.016929 33.48 
" clip-path="url(#pe5afd579cf)" style="fill: none; stroke: #d62728; stroke-width: 2; stroke-linecap: square"/>
   </g>
   <g id="line2d_18">
    <path d="M 102.372506 184.68 
L 102.382208 184.381624 
L 102.419594 180.724503 
L 102.689651 157.572141 
L 102.842639 150.54821 
L 102.974616 145.935479 
L 103.161034 140.35101 
L 103.223335 138.822841 
L 103.561882 131.730364 
L 103.626334 130.665888 
L 103.741877 128.774829 
L 103.781095 128.178077 
L 104.045148 124.496763 
L 104.090495 123.948396 
L 104.253558 121.952503 
L 104.29865 121.488811 
L 105.434587 111.86417 
L 105.654049 110.404547 
L 107.124274 102.945148 
L 107.169623 102.711286 
L 107.286999 102.3363 
L 107.514151 101.477461 
L 107.683708 100.82426 
L 107.856012 100.158962 
L 108.005735 99.554146 
L 108.125257 99.066261 
L 108.847838 96.703446 
L 108.974796 96.296203 
L 109.193863 95.675259 
L 109.292575 95.405107 
L 109.404042 95.04625 
L 109.655113 94.312406 
L 109.768659 93.949517 
L 111.400852 90.086758 
L 111.480028 89.893216 
L 111.704427 89.449685 
L 111.825575 89.195662 
L 113.105405 86.655434 
L 113.361657 86.276416 
L 114.296458 84.514385 
L 114.42661 84.365197 
L 114.684808 83.925697 
L 114.827132 83.679739 
L 115.087642 83.232175 
L 115.291591 82.933799 
L 115.378515 82.800739 
L 115.539761 82.502363 
L 116.196665 81.357245 
L 116.42633 80.96613 
L 116.627348 80.655658 
L 118.160159 78.300907 
L 118.354072 78.139623 
L 118.501922 77.958178 
L 118.999859 77.264656 
L 119.12812 77.091275 
L 119.439271 76.732417 
L 119.559932 76.599358 
L 119.977756 76.119537 
L 120.09661 75.93406 
L 120.258854 75.720358 
L 120.384923 75.555042 
L 120.52901 75.381661 
L 122.590447 72.918044 
L 122.72545 72.716438 
L 123.32197 71.946306 
L 123.529309 71.66809 
L 123.657757 71.474549 
L 124.496645 70.470554 
L 124.642201 70.301206 
L 124.809495 70.043151 
L 124.972292 69.885899 
L 125.452013 69.329468 
L 125.658979 69.035124 
L 125.854963 68.813358 
L 127.494953 66.99891 
L 127.608029 66.861818 
L 129.870348 64.16837 
L 130.892584 62.926481 
L 131.151796 62.611977 
L 131.509021 62.04345 
L 131.658959 61.882165 
L 131.799083 61.668464 
L 131.931841 61.487019 
L 132.727777 60.164488 
L 132.858719 60.0153 
L 132.97833 59.878208 
L 133.076754 59.737084 
L 133.188178 59.571768 
L 133.665835 58.874213 
L 133.781743 58.708897 
L 133.979489 58.462938 
L 134.195093 58.229076 
L 134.303666 58.091984 
L 134.488527 57.890379 
L 134.682448 57.692806 
L 135.022886 57.277499 
L 135.21308 57.128311 
L 135.675479 56.769453 
L 135.793082 56.640426 
L 136.188531 56.350114 
L 136.621382 55.963032 
L 136.929749 55.61627 
L 137.379334 55.241284 
L 137.493288 55.140482 
L 138.640179 54.192936 
L 138.766669 54.059877 
L 139.250195 53.672794 
L 139.592577 53.398611 
L 139.811509 53.217166 
L 140.093295 52.963144 
L 141.034139 52.346231 
L 141.273985 52.15269 
L 141.564812 51.886571 
L 144.516281 49.890678 
L 144.641001 49.814068 
L 144.889322 49.652783 
L 145.072488 49.543916 
L 145.445686 49.350375 
L 151.896128 45.902923 
L 152.072568 45.810185 
L 152.710312 45.527937 
L 152.968672 45.382781 
L 153.332304 45.233593 
L 154.853293 44.556199 
L 154.978065 44.515878 
L 155.649087 44.277984 
L 155.93412 44.161053 
L 156.452488 43.919126 
L 161.449125 42.294187 
L 162.081916 42.120806 
L 162.612689 41.911137 
L 163.123696 41.753885 
L 163.23915 41.705499 
L 164.448071 41.366802 
L 164.561127 41.318417 
L 164.973447 41.173261 
L 165.664174 40.97972 
L 165.780852 40.907142 
L 166.495053 40.717633 
L 167.058563 40.552317 
L 168.635819 40.096688 
L 170.484321 39.766056 
L 170.593383 39.741863 
L 172.108398 39.443487 
L 174.603712 38.878992 
L 175.682606 38.689483 
L 175.754366 38.661258 
L 176.428606 38.51207 
L 180.23844 37.915318 
L 180.340504 37.891126 
L 186.393954 36.975837 
L 188.253259 36.737943 
L 189.418669 36.592787 
L 198.622296 35.709755 
L 200.350977 35.5646 
L 200.732187 35.540407 
L 217.046362 34.66544 
L 220.474894 34.524316 
L 221.184295 34.496091 
L 227.36644 34.326743 
L 250.230994 33.846922 
L 290.988876 33.564674 
L 349.822616 33.48 
L 349.822616 33.48 
" clip-path="url(#pe5afd579cf)" style="fill: none; stroke: #9467bd; stroke-width: 2; stroke-linecap: square"/>
   </g>
   <g id="line2d_19">
    <path d="M 102.419881 184.68 
L 102.541021 184.458234 
L 102.673478 183.171992 
L 104.383917 154.539996 
L 104.422068 154.148882 
L 104.567504 152.552167 
L 104.598552 152.273952 
L 104.93466 149.088587 
L 104.968398 148.806339 
L 105.101834 147.584611 
L 105.16017 147.076565 
L 105.287278 145.955639 
L 105.337785 145.620974 
L 105.417259 144.899227 
L 105.531143 143.963778 
L 105.572254 143.556535 
L 105.695398 142.576733 
L 105.856462 141.355005 
L 106.015349 140.230047 
L 106.195919 139.008318 
L 106.415416 137.544663 
L 106.575128 136.5447 
L 106.633666 136.2181 
L 107.47275 131.472309 
L 107.754993 130.165906 
L 107.921685 129.258682 
L 108.029668 128.766765 
L 108.287104 127.593422 
L 108.482796 126.726519 
L 108.595421 126.254762 
L 109.262542 123.621796 
L 109.42682 122.944402 
L 110.083918 120.513041 
L 110.69791 118.376024 
L 110.818102 118.021198 
L 110.959443 117.533313 
L 111.523183 115.855957 
L 111.643013 115.525324 
L 111.702415 115.351943 
L 111.837694 114.960829 
L 112.010949 114.448751 
L 112.153269 114.093926 
L 112.353535 113.614105 
L 112.484194 113.239119 
L 112.692803 112.727041 
L 112.760016 112.553661 
L 112.906047 112.134321 
L 113.058976 111.731111 
L 113.214107 111.287579 
L 113.394051 110.916625 
L 114.031574 109.360231 
L 114.213662 108.924764 
L 114.76799 107.614329 
L 114.857989 107.449013 
L 115.063943 106.961127 
L 115.169548 106.767586 
L 115.804306 105.517633 
L 115.951548 105.239418 
L 116.072902 104.973298 
L 116.186307 104.783789 
L 116.317914 104.553959 
L 117.084366 103.013694 
L 117.150395 102.864506 
L 117.279775 102.662901 
L 117.366241 102.497584 
L 118.182537 100.97748 
L 118.318825 100.76781 
L 118.42879 100.582333 
L 118.505015 100.433145 
L 118.695568 100.066224 
L 118.822053 99.856554 
L 118.972927 99.566242 
L 119.200626 99.17916 
L 119.429296 98.804174 
L 119.572435 98.521926 
L 119.755396 98.227583 
L 120.115134 97.566317 
L 120.320331 97.263909 
L 120.440836 97.110689 
L 120.637988 96.836506 
L 120.77742 96.610707 
L 120.870491 96.469584 
L 120.994385 96.280075 
L 121.084058 96.122822 
L 121.695027 95.21963 
L 121.766845 95.06641 
L 123.165254 93.066485 
L 123.412899 92.707627 
L 123.882309 91.989912 
L 124.149289 91.598798 
L 124.276286 91.385096 
L 124.573079 90.941564 
L 124.709533 90.731895 
L 124.817996 90.574643 
L 125.040114 90.24401 
L 125.287614 89.933537 
L 125.45221 89.719836 
L 125.548055 89.57468 
L 127.482705 87.16348 
L 127.625699 86.957842 
L 127.768378 86.764301 
L 127.903105 86.574792 
L 128.278689 86.13126 
L 129.521082 84.494224 
L 129.616713 84.353101 
L 130.003279 83.877312 
L 130.33145 83.457973 
L 130.62244 83.095083 
L 130.786087 82.877349 
L 130.973854 82.631391 
L 131.1117 82.470106 
L 131.267318 82.252373 
L 131.466477 82.014478 
L 131.628752 81.744327 
L 131.746559 81.587075 
L 132.125007 81.103222 
L 132.268679 80.941938 
L 132.485969 80.538727 
L 132.588935 80.381475 
L 132.73504 80.232287 
L 132.875917 80.04681 
L 133.980966 78.40171 
L 134.093858 78.224297 
L 134.273912 77.990435 
L 134.38248 77.861408 
L 134.54226 77.639642 
L 134.857775 77.171917 
L 134.992291 77.022729 
L 135.217347 76.631615 
L 135.318676 76.494523 
L 135.542883 76.180019 
L 135.818538 75.881643 
L 138.456333 72.87369 
L 138.690918 72.551122 
L 138.878582 72.357581 
L 139.028548 72.248714 
L 139.229748 72.071301 
L 139.357255 71.942274 
L 140.089395 71.151981 
L 140.421627 70.82538 
L 140.555372 70.69232 
L 140.780025 70.498779 
L 141.051887 70.260885 
L 141.200747 70.067344 
L 141.330697 69.893963 
L 142.381516 68.79723 
L 142.500831 68.656106 
L 143.109556 68.099675 
L 143.240169 67.966616 
L 143.376748 67.801299 
L 143.502056 67.692432 
L 143.667805 67.539212 
L 145.619831 65.81347 
L 145.774398 65.684443 
L 145.889035 65.591704 
L 146.157225 65.349778 
L 146.482993 65.079627 
L 146.784323 64.882053 
L 146.962768 64.744962 
L 147.223377 64.555453 
L 147.37117 64.466746 
L 147.629964 64.305462 
L 147.745545 64.200627 
L 148.301532 63.78532 
L 150.280962 62.168445 
L 150.490267 62.027321 
L 150.633541 61.922486 
L 150.93306 61.704753 
L 152.357953 60.64834 
L 152.523793 60.55157 
L 154.733386 59.023401 
L 155.01645 58.858085 
L 155.157647 58.769378 
L 156.578459 57.886347 
L 156.829382 57.72103 
L 156.971529 57.628292 
L 157.181558 57.499265 
L 158.128722 56.858159 
L 158.56396 56.608169 
L 158.67925 56.539623 
L 159.073519 56.370274 
L 159.264705 56.273504 
L 159.681851 56.079963 
L 160.109805 55.805779 
L 160.486455 55.624335 
L 160.606647 55.53966 
L 161.503103 55.015486 
L 161.863817 54.858234 
L 161.976159 54.801785 
L 162.289124 54.636468 
L 162.407082 54.555826 
L 164.479696 53.592152 
L 164.592962 53.551831 
L 165.302429 53.20507 
L 166.211938 52.82202 
L 166.62815 52.660735 
L 166.748638 52.616382 
L 175.415952 49.108449 
L 176.21038 48.802009 
L 176.811188 48.600403 
L 177.41191 48.398798 
L 177.84067 48.241546 
L 190.356692 44.544103 
L 196.557884 43.157058 
L 196.865458 43.096576 
L 198.053679 42.870778 
L 198.418148 42.77804 
L 199.869871 42.532081 
L 199.981489 42.515953 
L 207.965391 41.036169 
L 209.957962 40.725697 
L 210.386477 40.645055 
L 211.252455 40.487803 
L 221.885984 38.854799 
L 222.998396 38.697547 
L 229.248046 37.834676 
L 230.327864 37.697584 
L 230.412702 37.685488 
L 232.162746 37.5363 
L 232.675579 37.45969 
L 234.42042 37.302438 
L 235.65608 37.157282 
L 237.571209 36.975837 
L 258.09681 35.334769 
L 260.780215 35.193646 
L 260.910196 35.181549 
L 266.01082 34.891238 
L 266.033468 34.883173 
L 268.333928 34.738018 
L 291.795122 33.93966 
L 299.84202 33.790472 
L 315.952221 33.572738 
L 342.601838 33.48 
L 342.601838 33.48 
" clip-path="url(#pe5afd579cf)" style="fill: none; stroke: #8c564b; stroke-width: 2; stroke-linecap: square"/>
   </g>
   <g id="patch_3">
    <path d="M 90 192.24 
L 90 25.92 
" style="fill: none; stroke: #000000; stroke-width: 0.8; stroke-linejoin: miter; stroke-linecap: square"/>
   </g>
   <g id="patch_4">
    <path d="M 362.195122 192.24 
L 362.195122 25.92 
" style="fill: none; stroke: #000000; stroke-width: 0.8; stroke-linejoin: miter; stroke-linecap: square"/>
   </g>
   <g id="patch_5">
    <path d="M 90 192.24 
L 362.195122 192.24 
" style="fill: none; stroke: #000000; stroke-width: 0.8; stroke-linejoin: miter; stroke-linecap: square"/>
   </g>
   <g id="patch_6">
    <path d="M 90 25.92 
L 362.195122 25.92 
" style="fill: none; stroke: #000000; stroke-width: 0.8; stroke-linejoin: miter; stroke-linecap: square"/>
   </g>
   <g id="line2d_20">
    <path d="M 102.419958 184.68 
L 102.575965 184.192115 
L 102.878577 179.139884 
L 102.903526 178.607646 
L 103.944653 160.09624 
L 103.978068 159.63658 
L 104.178556 156.846362 
L 104.312523 155.193198 
L 104.526855 152.697323 
L 104.677088 151.265925 
L 106.07793 139.564749 
L 106.132223 139.306694 
L 106.298022 138.105126 
L 106.349191 137.685787 
L 106.475086 136.927751 
L 106.624283 135.980205 
L 106.736435 135.367325 
L 106.870409 134.540743 
L 106.933915 134.173821 
L 107.149502 132.94806 
L 107.309463 132.101318 
L 107.448998 131.383603 
L 107.570831 130.807011 
L 107.680181 130.315094 
L 107.707714 130.133649 
L 108.407619 126.811193 
L 108.52077 126.315244 
L 108.923115 124.783043 
L 108.998986 124.537084 
L 109.154105 123.835497 
L 109.358452 123.012948 
L 109.545302 122.315393 
L 109.636537 121.988792 
L 109.979675 120.585619 
L 111.370083 116.118044 
L 111.42504 115.972888 
L 111.775185 114.904379 
L 111.900039 114.581811 
L 115.393758 106.190995 
L 115.462982 106.049871 
L 115.675776 105.610371 
L 115.775445 105.441023 
L 116.156987 104.662826 
L 116.299715 104.368482 
L 116.432433 104.13462 
L 116.818582 103.372552 
L 116.938672 103.106433 
L 117.534288 101.961314 
L 117.906122 101.324241 
L 117.997969 101.175053 
L 118.128035 100.953287 
L 118.329357 100.634751 
L 118.502119 100.275893 
L 118.888714 99.566242 
L 119.077717 99.175128 
L 119.257372 98.864656 
L 119.380825 98.64289 
L 119.465714 98.497734 
L 119.945989 97.602606 
L 120.134277 97.344551 
L 120.321897 97.086496 
L 120.504343 96.780056 
L 120.638346 96.586515 
L 120.755066 96.413134 
L 120.930159 96.171208 
L 121.427058 95.465589 
L 121.897674 94.707553 
L 122.57217 93.776136 
L 122.669933 93.606787 
L 122.890693 93.24793 
L 123.041718 93.042292 
L 123.243792 92.764077 
L 123.548588 92.296352 
L 124.224323 91.288326 
L 124.392765 91.034303 
L 124.601725 90.723831 
L 128.453027 85.744178 
L 128.66196 85.478059 
L 133.86062 78.389614 
L 133.999469 78.183976 
L 134.284364 77.768669 
L 134.432098 77.615449 
L 134.532757 77.450133 
L 134.70164 77.228367 
L 134.965373 76.865477 
L 135.156848 76.591294 
L 135.261052 76.454202 
L 135.524589 76.131633 
L 136.214892 75.284891 
L 136.665469 74.704267 
L 136.808922 74.534919 
L 137.910122 73.305126 
L 138.03324 73.164002 
L 138.211276 72.98659 
L 138.32144 72.845466 
L 138.57463 72.603539 
L 139.619938 71.462453 
L 139.8261 71.293104 
L 140.0924 71.022953 
L 140.356249 70.756834 
L 141.071031 70.02299 
L 141.208753 69.837514 
L 141.331006 69.724615 
L 141.520952 69.527041 
L 141.911872 69.099638 
L 142.519656 68.466597 
L 142.645783 68.321441 
L 142.990547 68.006937 
L 143.143979 67.877909 
L 143.370191 67.700497 
L 144.356578 66.805369 
L 144.489443 66.648116 
L 144.724314 66.422318 
L 144.910009 66.265066 
L 145.1971 66.035236 
L 145.703006 65.587672 
L 145.807513 65.515094 
L 146.007932 65.349778 
L 146.243073 65.12398 
L 146.493848 64.934471 
L 146.616504 64.869957 
L 146.835607 64.692544 
L 154.166565 59.249199 
L 154.442707 59.091947 
L 154.556967 59.023401 
L 155.10316 58.729057 
L 156.041881 58.148434 
L 156.181284 58.043599 
L 156.532827 57.829897 
L 156.771824 57.680709 
L 157.028133 57.475072 
L 157.696513 57.063797 
L 157.871693 56.926705 
L 157.990977 56.850095 
L 158.272194 56.676715 
L 159.028085 56.305761 
L 159.305823 56.160605 
L 159.770642 55.914646 
L 161.18088 55.096128 
L 161.573929 54.858234 
L 161.92916 54.709046 
L 162.177624 54.571954 
L 162.993501 54.217129 
L 163.400491 54.035684 
L 164.069243 53.688923 
L 164.191369 53.648602 
L 165.299277 53.096203 
L 165.761315 52.910726 
L 166.308141 52.6688 
L 166.852712 52.45913 
L 167.184249 52.330103 
L 167.611806 52.136562 
L 167.833245 52.031727 
L 168.258292 51.862378 
L 169.665123 51.265626 
L 170.01688 51.108374 
L 170.152503 51.055957 
L 170.60059 50.846287 
L 170.772822 50.741452 
L 171.554793 50.451141 
L 171.671481 50.418884 
L 172.017418 50.27776 
L 172.279706 50.156797 
L 174.271772 49.386664 
L 174.38036 49.342311 
L 175.345259 49.003614 
L 175.524826 48.959261 
L 176.078492 48.789912 
L 183.236034 46.507739 
L 183.736916 46.37468 
L 184.435646 46.181139 
L 185.641665 45.83841 
L 186.195999 45.689222 
L 187.0475 45.427135 
L 187.887173 45.144887 
L 188.45506 44.991667 
L 188.587969 44.955378 
L 189.924718 44.600553 
L 190.073134 44.544103 
L 193.702519 43.786067 
L 193.948943 43.737682 
L 195.19612 43.46753 
L 195.316695 43.423177 
L 197.337831 42.93126 
L 198.691627 42.685301 
L 199.309365 42.54821 
L 200.719996 42.342572 
L 210.552511 40.544252 
L 211.351994 40.395064 
L 211.562957 40.350711 
L 212.27905 40.21362 
L 212.413407 40.169266 
L 213.399328 40.024111 
L 213.66792 40.00395 
L 214.624623 39.858794 
L 215.019268 39.798312 
L 216.321505 39.604771 
L 217.091148 39.479776 
L 218.534924 39.278171 
L 219.265473 39.173336 
L 221.027412 38.975763 
L 221.428413 38.891088 
L 222.655891 38.717708 
L 224.932194 38.35885 
L 227.100235 38.048378 
L 228.649896 37.862901 
L 228.91455 37.826612 
L 233.646441 37.334695 
L 233.801641 37.318566 
L 234.108796 37.28631 
L 247.936063 36.020228 
L 249.998475 35.862976 
L 254.473689 35.532343 
L 278.794057 34.286422 
L 283.504218 34.137234 
L 285.219198 34.096912 
L 293.359606 33.915468 
L 293.376908 33.907403 
L 306.363405 33.68967 
L 307.622774 33.677573 
L 342.542035 33.48 
L 342.542035 33.48 
" clip-path="url(#pe5afd579cf)" style="fill: none; stroke-dasharray: 2.5,4.125; stroke-dashoffset: 0; stroke: #181818; stroke-width: 2.5"/>
   </g>
   <g id="text_16">
    <!-- In-distribution -->
    <g transform="translate(180.674748 19.92) scale(0.13 -0.13)">
     <defs>
      <path id="DejaVuSans-49" d="M 628 4666 
L 1259 4666 
L 1259 0 
L 628 0 
L 628 4666 
z
" transform="scale(0.015625)"/>
      <path id="DejaVuSans-2d" d="M 313 2009 
L 1997 2009 
L 1997 1497 
L 313 1497 
L 313 2009 
z
" transform="scale(0.015625)"/>
      <path id="DejaVuSans-64" d="M 2906 2969 
L 2906 4863 
L 3481 4863 
L 3481 0 
L 2906 0 
L 2906 525 
Q 2725 213 2448 61 
Q 2172 -91 1784 -91 
Q 1150 -91 751 415 
Q 353 922 353 1747 
Q 353 2572 751 3078 
Q 1150 3584 1784 3584 
Q 2172 3584 2448 3432 
Q 2725 3281 2906 2969 
z
M 947 1747 
Q 947 1113 1208 752 
Q 1469 391 1925 391 
Q 2381 391 2643 752 
Q 2906 1113 2906 1747 
Q 2906 2381 2643 2742 
Q 2381 3103 1925 3103 
Q 1469 3103 1208 2742 
Q 947 2381 947 1747 
z
" transform="scale(0.015625)"/>
      <path id="DejaVuSans-73" d="M 2834 3397 
L 2834 2853 
Q 2591 2978 2328 3040 
Q 2066 3103 1784 3103 
Q 1356 3103 1142 2972 
Q 928 2841 928 2578 
Q 928 2378 1081 2264 
Q 1234 2150 1697 2047 
L 1894 2003 
Q 2506 1872 2764 1633 
Q 3022 1394 3022 966 
Q 3022 478 2636 193 
Q 2250 -91 1575 -91 
Q 1294 -91 989 -36 
Q 684 19 347 128 
L 347 722 
Q 666 556 975 473 
Q 1284 391 1588 391 
Q 1994 391 2212 530 
Q 2431 669 2431 922 
Q 2431 1156 2273 1281 
Q 2116 1406 1581 1522 
L 1381 1569 
Q 847 1681 609 1914 
Q 372 2147 372 2553 
Q 372 3047 722 3315 
Q 1072 3584 1716 3584 
Q 2034 3584 2315 3537 
Q 2597 3491 2834 3397 
z
" transform="scale(0.015625)"/>
     </defs>
     <use xlink:href="#DejaVuSans-49"/>
     <use xlink:href="#DejaVuSans-6e" x="29.492188"/>
     <use xlink:href="#DejaVuSans-2d" x="92.871094"/>
     <use xlink:href="#DejaVuSans-64" x="128.955078"/>
     <use xlink:href="#DejaVuSans-69" x="192.431641"/>
     <use xlink:href="#DejaVuSans-73" x="220.214844"/>
     <use xlink:href="#DejaVuSans-74" x="272.314453"/>
     <use xlink:href="#DejaVuSans-72" x="311.523438"/>
     <use xlink:href="#DejaVuSans-69" x="352.636719"/>
     <use xlink:href="#DejaVuSans-62" x="380.419922"/>
     <use xlink:href="#DejaVuSans-75" x="443.896484"/>
     <use xlink:href="#DejaVuSans-74" x="507.275391"/>
     <use xlink:href="#DejaVuSans-69" x="546.484375"/>
     <use xlink:href="#DejaVuSans-6f" x="574.267578"/>
     <use xlink:href="#DejaVuSans-6e" x="635.449219"/>
    </g>
   </g>
  </g>
  <g id="axes_2">
   <g id="patch_7">
    <path d="M 375.804878 192.24 
L 648 192.24 
L 648 25.92 
L 375.804878 25.92 
z
" style="fill: #ffffff"/>
   </g>
   <g id="PolyCollection_8"/>
   <g id="matplotlib.axis_3">
    <g id="xtick_8">
     <g id="line2d_21">
      <g>
       <use xlink:href="#mc0ab5b847f" x="388.124577" y="192.24" style="stroke: #000000; stroke-width: 0.8"/>
      </g>
     </g>
     <g id="text_17">
      <!-- 0 -->
      <g transform="translate(384.943327 206.838437) scale(0.1 -0.1)">
       <use xlink:href="#DejaVuSans-30"/>
      </g>
     </g>
    </g>
    <g id="xtick_9">
     <g id="line2d_22">
      <g>
       <use xlink:href="#mc0ab5b847f" x="432.219783" y="192.24" style="stroke: #000000; stroke-width: 0.8"/>
      </g>
     </g>
     <g id="text_18">
      <!-- 1 -->
      <g transform="translate(429.038533 206.838437) scale(0.1 -0.1)">
       <use xlink:href="#DejaVuSans-31"/>
      </g>
     </g>
    </g>
    <g id="xtick_10">
     <g id="line2d_23">
      <g>
       <use xlink:href="#mc0ab5b847f" x="476.314989" y="192.24" style="stroke: #000000; stroke-width: 0.8"/>
      </g>
     </g>
     <g id="text_19">
      <!-- 2 -->
      <g transform="translate(473.133739 206.838437) scale(0.1 -0.1)">
       <use xlink:href="#DejaVuSans-32"/>
      </g>
     </g>
    </g>
    <g id="xtick_11">
     <g id="line2d_24">
      <g>
       <use xlink:href="#mc0ab5b847f" x="520.410195" y="192.24" style="stroke: #000000; stroke-width: 0.8"/>
      </g>
     </g>
     <g id="text_20">
      <!-- 3 -->
      <g transform="translate(517.228945 206.838437) scale(0.1 -0.1)">
       <use xlink:href="#DejaVuSans-33"/>
      </g>
     </g>
    </g>
    <g id="xtick_12">
     <g id="line2d_25">
      <g>
       <use xlink:href="#mc0ab5b847f" x="564.505401" y="192.24" style="stroke: #000000; stroke-width: 0.8"/>
      </g>
     </g>
     <g id="text_21">
      <!-- 4 -->
      <g transform="translate(561.324151 206.838437) scale(0.1 -0.1)">
       <use xlink:href="#DejaVuSans-34"/>
      </g>
     </g>
    </g>
    <g id="xtick_13">
     <g id="line2d_26">
      <g>
       <use xlink:href="#mc0ab5b847f" x="608.600606" y="192.24" style="stroke: #000000; stroke-width: 0.8"/>
      </g>
     </g>
     <g id="text_22">
      <!-- 5 -->
      <g transform="translate(605.419356 206.838437) scale(0.1 -0.1)">
       <use xlink:href="#DejaVuSans-35"/>
      </g>
     </g>
    </g>
    <g id="text_23">
     <!-- Entropy -->
     <g transform="translate(488.593377 222.03625) scale(0.12 -0.12)">
      <use xlink:href="#DejaVuSans-45"/>
      <use xlink:href="#DejaVuSans-6e" x="63.183594"/>
      <use xlink:href="#DejaVuSans-74" x="126.5625"/>
      <use xlink:href="#DejaVuSans-72" x="165.771484"/>
      <use xlink:href="#DejaVuSans-6f" x="204.634766"/>
      <use xlink:href="#DejaVuSans-70" x="265.816406"/>
      <use xlink:href="#DejaVuSans-79" x="329.292969"/>
     </g>
    </g>
   </g>
   <g id="matplotlib.axis_4"/>
   <g id="patch_8">
    <path d="M 375.804878 192.24 
L 375.804878 25.92 
" style="fill: none; stroke: #000000; stroke-width: 0.8; stroke-linejoin: miter; stroke-linecap: square"/>
   </g>
   <g id="patch_9">
    <path d="M 648 192.24 
L 648 25.92 
" style="fill: none; stroke: #000000; stroke-width: 0.8; stroke-linejoin: miter; stroke-linecap: square"/>
   </g>
   <g id="patch_10">
    <path d="M 375.804878 192.24 
L 648 192.24 
" style="fill: none; stroke: #000000; stroke-width: 0.8; stroke-linejoin: miter; stroke-linecap: square"/>
   </g>
   <g id="patch_11">
    <path d="M 375.804878 25.92 
L 648 25.92 
" style="fill: none; stroke: #000000; stroke-width: 0.8; stroke-linejoin: miter; stroke-linecap: square"/>
   </g>
   <g id="line2d_27">
    <path d="M 388.177384 184.68 
L 388.33683 184.200179 
L 388.517846 181.663984 
L 388.631216 179.478581 
L 389.376544 165.56781 
L 389.45128 164.374307 
L 389.580898 162.414702 
L 389.633135 161.692955 
L 390.808691 148.46361 
L 390.901587 147.616868 
L 391.036659 146.467717 
L 391.140676 145.693552 
L 391.364355 143.81459 
L 391.396369 143.552503 
L 391.523677 142.520284 
L 392.500805 136.052783 
L 392.569936 135.693926 
L 392.89902 133.782707 
L 392.981176 133.278693 
L 393.100232 132.661781 
L 393.30457 131.653754 
L 394.060044 128.06921 
L 394.102707 127.871637 
L 394.336307 126.839418 
L 394.474375 126.274923 
L 394.540852 126.0209 
L 394.861041 124.839492 
L 395.04627 124.186291 
L 395.158576 123.690342 
L 395.465327 122.541191 
L 397.581596 115.630159 
L 397.643343 115.436618 
L 398.186772 113.985059 
L 398.304834 113.678619 
L 398.377277 113.481045 
L 398.962085 111.981101 
L 399.104476 111.63434 
L 399.211214 111.356125 
L 399.279642 111.170648 
L 399.432225 110.79163 
L 399.766158 110.061818 
L 399.885138 109.767474 
L 400.13909 109.162658 
L 400.291423 108.844122 
L 400.537811 108.275595 
L 400.666736 107.96109 
L 400.8184 107.634489 
L 400.974041 107.34821 
L 401.095885 107.078059 
L 401.345458 106.537756 
L 401.458911 106.368408 
L 404.156989 101.308113 
L 404.306566 101.066186 
L 405.238314 99.384797 
L 405.32239 99.215449 
L 406.385711 97.396968 
L 406.516943 97.24778 
L 407.042592 96.445391 
L 407.216615 96.211529 
L 407.397857 95.993795 
L 407.622849 95.643002 
L 407.764541 95.465589 
L 408.232745 94.735777 
L 408.476441 94.372888 
L 409.023425 93.647108 
L 409.174517 93.405182 
L 409.289921 93.231801 
L 409.413764 93.066485 
L 409.636335 92.768109 
L 409.761927 92.614889 
L 410.053496 92.151197 
L 410.240056 91.913302 
L 410.374305 91.699601 
L 412.261562 89.062602 
L 412.45494 88.881157 
L 412.860221 88.433593 
L 413.234753 88.034415 
L 413.35244 87.85297 
L 415.792792 84.728087 
L 415.919743 84.586963 
L 416.107757 84.377293 
L 416.23275 84.207945 
L 416.3667 84.038596 
L 416.73477 83.574904 
L 416.845002 83.429748 
L 417.014384 83.248303 
L 417.256914 82.929767 
L 417.411559 82.736225 
L 417.679686 82.401561 
L 417.870457 82.159634 
L 417.992041 81.990286 
L 418.158911 81.784648 
L 418.271448 81.651589 
L 418.548945 81.280635 
L 418.669908 81.11935 
L 421.029953 77.764637 
L 421.241007 77.514646 
L 421.425932 77.252559 
L 421.749014 76.81306 
L 421.892954 76.607422 
L 422.038027 76.425977 
L 422.282055 76.139698 
L 422.446065 75.938092 
L 422.689275 75.64778 
L 422.824406 75.478432 
L 422.941777 75.34134 
L 423.558053 74.583304 
L 423.693838 74.446212 
L 423.904691 74.216382 
L 424.244714 73.893814 
L 424.393052 73.740594 
L 424.651354 73.450282 
L 424.764827 73.272869 
L 426.434686 71.539063 
L 426.589739 71.389875 
L 426.974711 71.051178 
L 427.163276 70.861669 
L 427.551124 70.494747 
L 427.670122 70.373784 
L 427.942958 70.067344 
L 428.195596 69.79316 
L 433.467227 65.035273 
L 433.7912 64.8377 
L 433.958805 64.680448 
L 434.953477 63.986926 
L 435.199127 63.829673 
L 441.593546 59.196782 
L 441.999331 58.979048 
L 442.179584 58.858085 
L 442.358154 58.765346 
L 442.588165 58.636319 
L 443.073693 58.374232 
L 443.166639 58.317782 
L 443.40309 58.168594 
L 443.89832 57.846026 
L 444.277182 57.604099 
L 444.457177 57.47104 
L 444.814281 57.245242 
L 448.882962 54.991294 
L 449.082769 54.882427 
L 449.907639 54.483248 
L 462.983427 49.120545 
L 463.45134 48.975389 
L 463.633085 48.931036 
L 464.120415 48.777816 
L 464.217262 48.753623 
L 464.665436 48.620564 
L 465.273231 48.435087 
L 465.586617 48.297995 
L 466.020587 48.156871 
L 466.248922 48.108486 
L 466.614747 47.967362 
L 477.483827 44.850543 
L 478.005056 44.681195 
L 478.165592 44.644906 
L 478.567235 44.511846 
L 480.481295 44.148957 
L 481.939065 43.866709 
L 482.031338 43.826388 
L 483.654153 43.528012 
L 483.876485 43.427209 
L 484.812562 43.201411 
L 485.306836 43.060287 
L 489.727023 42.286123 
L 489.843982 42.26193 
L 491.065228 42.024036 
L 493.359505 41.612761 
L 494.204465 41.43938 
L 494.642904 41.354706 
L 495.988204 41.116812 
L 497.10455 40.931335 
L 504.278175 39.79428 
L 506.207774 39.516065 
L 516.765781 38.040314 
L 518.33521 37.846772 
L 518.532331 37.826612 
L 523.40863 37.334695 
L 523.539655 37.322598 
L 525.93162 37.0968 
L 528.610152 36.84681 
L 536.565259 36.149255 
L 539.763538 35.919425 
L 540.657511 35.834751 
L 546.450995 35.41138 
L 550.018021 35.262192 
L 551.720084 35.157357 
L 554.680252 34.99204 
L 556.135951 34.907366 
L 558.938495 34.750114 
L 560.35211 34.653343 
L 571.903228 34.229972 
L 571.978061 34.221908 
L 600.846027 33.661445 
L 635.627494 33.48 
L 635.627494 33.48 
" clip-path="url(#pbdb713746d)" style="fill: none; stroke-dasharray: 2.5,4.125; stroke-dashoffset: 0; stroke: #181818; stroke-width: 2.5"/>
   </g>
   <g id="text_24">
    <!-- Single shift -->
    <g transform="translate(475.819314 19.92) scale(0.13 -0.13)">
     <defs>
      <path id="DejaVuSans-53" d="M 3425 4513 
L 3425 3897 
Q 3066 4069 2747 4153 
Q 2428 4238 2131 4238 
Q 1616 4238 1336 4038 
Q 1056 3838 1056 3469 
Q 1056 3159 1242 3001 
Q 1428 2844 1947 2747 
L 2328 2669 
Q 3034 2534 3370 2195 
Q 3706 1856 3706 1288 
Q 3706 609 3251 259 
Q 2797 -91 1919 -91 
Q 1588 -91 1214 -16 
Q 841 59 441 206 
L 441 856 
Q 825 641 1194 531 
Q 1563 422 1919 422 
Q 2459 422 2753 634 
Q 3047 847 3047 1241 
Q 3047 1584 2836 1778 
Q 2625 1972 2144 2069 
L 1759 2144 
Q 1053 2284 737 2584 
Q 422 2884 422 3419 
Q 422 4038 858 4394 
Q 1294 4750 2059 4750 
Q 2388 4750 2728 4690 
Q 3069 4631 3425 4513 
z
" transform="scale(0.015625)"/>
      <path id="DejaVuSans-67" d="M 2906 1791 
Q 2906 2416 2648 2759 
Q 2391 3103 1925 3103 
Q 1463 3103 1205 2759 
Q 947 2416 947 1791 
Q 947 1169 1205 825 
Q 1463 481 1925 481 
Q 2391 481 2648 825 
Q 2906 1169 2906 1791 
z
M 3481 434 
Q 3481 -459 3084 -895 
Q 2688 -1331 1869 -1331 
Q 1566 -1331 1297 -1286 
Q 1028 -1241 775 -1147 
L 775 -588 
Q 1028 -725 1275 -790 
Q 1522 -856 1778 -856 
Q 2344 -856 2625 -561 
Q 2906 -266 2906 331 
L 2906 616 
Q 2728 306 2450 153 
Q 2172 0 1784 0 
Q 1141 0 747 490 
Q 353 981 353 1791 
Q 353 2603 747 3093 
Q 1141 3584 1784 3584 
Q 2172 3584 2450 3431 
Q 2728 3278 2906 2969 
L 2906 3500 
L 3481 3500 
L 3481 434 
z
" transform="scale(0.015625)"/>
      <path id="DejaVuSans-68" d="M 3513 2113 
L 3513 0 
L 2938 0 
L 2938 2094 
Q 2938 2591 2744 2837 
Q 2550 3084 2163 3084 
Q 1697 3084 1428 2787 
Q 1159 2491 1159 1978 
L 1159 0 
L 581 0 
L 581 4863 
L 1159 4863 
L 1159 2956 
Q 1366 3272 1645 3428 
Q 1925 3584 2291 3584 
Q 2894 3584 3203 3211 
Q 3513 2838 3513 2113 
z
" transform="scale(0.015625)"/>
      <path id="DejaVuSans-66" d="M 2375 4863 
L 2375 4384 
L 1825 4384 
Q 1516 4384 1395 4259 
Q 1275 4134 1275 3809 
L 1275 3500 
L 2222 3500 
L 2222 3053 
L 1275 3053 
L 1275 0 
L 697 0 
L 697 3053 
L 147 3053 
L 147 3500 
L 697 3500 
L 697 3744 
Q 697 4328 969 4595 
Q 1241 4863 1831 4863 
L 2375 4863 
z
" transform="scale(0.015625)"/>
     </defs>
     <use xlink:href="#DejaVuSans-53"/>
     <use xlink:href="#DejaVuSans-69" x="63.476562"/>
     <use xlink:href="#DejaVuSans-6e" x="91.259766"/>
     <use xlink:href="#DejaVuSans-67" x="154.638672"/>
     <use xlink:href="#DejaVuSans-6c" x="218.115234"/>
     <use xlink:href="#DejaVuSans-65" x="245.898438"/>
     <use xlink:href="#DejaVuSans-20" x="307.421875"/>
     <use xlink:href="#DejaVuSans-73" x="339.208984"/>
     <use xlink:href="#DejaVuSans-68" x="391.308594"/>
     <use xlink:href="#DejaVuSans-69" x="454.6875"/>
     <use xlink:href="#DejaVuSans-66" x="482.470703"/>
     <use xlink:href="#DejaVuSans-74" x="515.925781"/>
    </g>
   </g>
   <g id="legend_1">
    <g id="patch_12">
     <path d="M 658.165854 61.398125 
L 699.965854 61.398125 
Q 701.965854 61.398125 701.965854 59.398125 
L 701.965854 27.92 
Q 701.965854 25.92 699.965854 25.92 
L 658.165854 25.92 
Q 656.165854 25.92 656.165854 27.92 
L 656.165854 59.398125 
Q 656.165854 61.398125 658.165854 61.398125 
z
" style="fill: #ffffff; opacity: 0.8; stroke: #cccccc; stroke-linejoin: miter"/>
    </g>
    <g id="text_25">
     <!-- Method -->
     <g transform="translate(660.312729 37.518438) scale(0.1 -0.1)">
      <defs>
       <path id="DejaVuSans-4d" d="M 628 4666 
L 1569 4666 
L 2759 1491 
L 3956 4666 
L 4897 4666 
L 4897 0 
L 4281 0 
L 4281 4097 
L 3078 897 
L 2444 897 
L 1241 4097 
L 1241 0 
L 628 0 
L 628 4666 
z
" transform="scale(0.015625)"/>
      </defs>
      <use xlink:href="#DejaVuSans-4d"/>
      <use xlink:href="#DejaVuSans-65" x="86.279297"/>
      <use xlink:href="#DejaVuSans-74" x="147.802734"/>
      <use xlink:href="#DejaVuSans-68" x="187.011719"/>
      <use xlink:href="#DejaVuSans-6f" x="250.390625"/>
      <use xlink:href="#DejaVuSans-64" x="311.572266"/>
     </g>
    </g>
    <g id="line2d_28">
     <path d="M 660.165854 51.818438 
L 670.165854 51.818438 
L 680.165854 51.818438 
" style="fill: none; stroke-dasharray: 2.5,4.125; stroke-dashoffset: 0; stroke: #181818; stroke-width: 2.5"/>
    </g>
    <g id="text_26">
     <!-- $\hat{F}_s$ -->
     <g transform="translate(688.165854 55.318438) scale(0.1 -0.1)">
      <defs>
       <path id="DejaVuSans-302" d="M -1831 5119 
L -1369 5119 
L -603 3944 
L -1038 3944 
L -1600 4709 
L -2163 3944 
L -2597 3944 
L -1831 5119 
z
M -1600 3584 
L -1600 3584 
z
" transform="scale(0.015625)"/>
       <path id="DejaVuSans-Oblique-46" d="M 1081 4666 
L 3756 4666 
L 3653 4134 
L 1606 4134 
L 1338 2759 
L 3188 2759 
L 3084 2228 
L 1234 2228 
L 800 0 
L 172 0 
L 1081 4666 
z
" transform="scale(0.015625)"/>
       <path id="DejaVuSans-Oblique-73" d="M 3200 3397 
L 3091 2853 
Q 2863 2978 2609 3040 
Q 2356 3103 2088 3103 
Q 1634 3103 1373 2948 
Q 1113 2794 1113 2528 
Q 1113 2219 1719 2053 
Q 1766 2041 1788 2034 
L 1972 1978 
Q 2547 1819 2739 1644 
Q 2931 1469 2931 1166 
Q 2931 609 2489 259 
Q 2047 -91 1331 -91 
Q 1053 -91 747 -37 
Q 441 16 72 128 
L 184 722 
Q 500 559 806 475 
Q 1113 391 1394 391 
Q 1816 391 2080 572 
Q 2344 753 2344 1031 
Q 2344 1331 1650 1516 
L 1591 1531 
L 1394 1581 
Q 956 1697 753 1886 
Q 550 2075 550 2369 
Q 550 2928 970 3256 
Q 1391 3584 2113 3584 
Q 2397 3584 2667 3537 
Q 2938 3491 3200 3397 
z
" transform="scale(0.015625)"/>
      </defs>
      <use xlink:href="#DejaVuSans-302" transform="translate(60.958008 30.015625)"/>
      <use xlink:href="#DejaVuSans-Oblique-46" transform="translate(0 0.609375)"/>
      <use xlink:href="#DejaVuSans-Oblique-73" transform="translate(58.476562 -15.796875) scale(0.7)"/>
     </g>
    </g>
   </g>
  </g>
 </g>
 <defs>
  <clipPath id="pe5afd579cf">
   <rect x="90" y="25.92" width="272.195122" height="166.32"/>
  </clipPath>
  <clipPath id="pbdb713746d">
   <rect x="375.804878" y="25.92" width="272.195122" height="166.32"/>
  </clipPath>
 </defs>
</svg>
